<mxfile host="app.diagrams.net" agent="Mozilla/5.0 (Macintosh; Intel Mac OS X 10_15_7) AppleWebKit/537.36 (KHTML, like Gecko) Chrome/132.0.0.0 Safari/537.36" version="26.0.9">
  <diagram name="Page-1" id="TsCjlCnsqc2SjNfEI9sC">
    <mxGraphModel dx="2936" dy="2432" grid="1" gridSize="10" guides="1" tooltips="1" connect="1" arrows="1" fold="1" page="1" pageScale="1" pageWidth="850" pageHeight="1100" math="0" shadow="0">
      <root>
        <mxCell id="0" />
        <mxCell id="1" parent="0" />
        <mxCell id="qaCfvwKFrwW74nsST61L-32" value="" style="rounded=0;whiteSpace=wrap;html=1;fillColor=none;dashed=1;dashPattern=8 8;" parent="1" vertex="1">
          <mxGeometry x="220" y="390" width="670" height="430" as="geometry" />
        </mxCell>
        <mxCell id="qaCfvwKFrwW74nsST61L-27" value="" style="rounded=0;whiteSpace=wrap;html=1;fillColor=none;fontFamily=Lucida Console;" parent="1" vertex="1">
          <mxGeometry x="379" y="555" width="230" height="240" as="geometry" />
        </mxCell>
        <mxCell id="qaCfvwKFrwW74nsST61L-1" value="" style="points=[];aspect=fixed;html=1;align=center;shadow=0;dashed=0;fillColor=#00267D;strokeColor=none;shape=mxgraph.alibaba_cloud.kafka;fontFamily=Lucida Console;" parent="1" vertex="1">
          <mxGeometry x="660" y="409.43" width="89.03" height="65.95" as="geometry" />
        </mxCell>
        <mxCell id="qaCfvwKFrwW74nsST61L-10" style="edgeStyle=orthogonalEdgeStyle;rounded=0;orthogonalLoop=1;jettySize=auto;html=1;entryX=0;entryY=0.5;entryDx=0;entryDy=0;shape=flexArrow;fontFamily=Lucida Console;" parent="1" source="qaCfvwKFrwW74nsST61L-3" target="qaCfvwKFrwW74nsST61L-5" edge="1">
          <mxGeometry relative="1" as="geometry" />
        </mxCell>
        <mxCell id="qaCfvwKFrwW74nsST61L-3" value="Redset Parquet" style="sketch=0;outlineConnect=0;fontColor=#232F3E;gradientColor=none;fillColor=#00267D;strokeColor=none;dashed=0;verticalLabelPosition=bottom;verticalAlign=top;align=center;html=1;fontSize=12;fontStyle=0;aspect=fixed;pointerEvents=1;shape=mxgraph.aws4.file_gateway;fontFamily=Lucida Console;" parent="1" vertex="1">
          <mxGeometry x="110" y="408.7" width="70.25" height="79.42" as="geometry" />
        </mxCell>
        <mxCell id="qaCfvwKFrwW74nsST61L-5" value="Data Management using Spark" style="shape=image;verticalLabelPosition=bottom;labelBackgroundColor=default;verticalAlign=top;aspect=fixed;imageAspect=0;image=https://upload.wikimedia.org/wikipedia/commons/thumb/f/f3/Apache_Spark_logo.svg/1200px-Apache_Spark_logo.svg.png;imageBackground=none;fontFamily=Lucida Console;" parent="1" vertex="1">
          <mxGeometry x="260" y="410.43" width="146.07" height="75.96" as="geometry" />
        </mxCell>
        <mxCell id="qaCfvwKFrwW74nsST61L-23" style="edgeStyle=orthogonalEdgeStyle;rounded=1;orthogonalLoop=1;jettySize=auto;html=1;shape=flexArrow;flowAnimation=0;fontFamily=Lucida Console;entryX=1;entryY=0.5;entryDx=0;entryDy=0;startArrow=block;" parent="1" source="qaCfvwKFrwW74nsST61L-6" target="qaCfvwKFrwW74nsST61L-27" edge="1">
          <mxGeometry relative="1" as="geometry">
            <mxPoint x="590" y="670" as="targetPoint" />
            <Array as="points">
              <mxPoint x="847" y="675" />
            </Array>
          </mxGeometry>
        </mxCell>
        <mxCell id="qaCfvwKFrwW74nsST61L-6" value="PostgreSQL" style="image;aspect=fixed;html=1;points=[];align=center;fontSize=12;image=img/lib/azure2/databases/Azure_Database_PostgreSQL_Server.svg;imageBackground=none;imageBorder=none;fontFamily=Lucida Console;" parent="1" vertex="1">
          <mxGeometry x="820" y="406" width="54.7" height="72.93" as="geometry" />
        </mxCell>
        <mxCell id="qaCfvwKFrwW74nsST61L-11" style="edgeStyle=orthogonalEdgeStyle;rounded=0;orthogonalLoop=1;jettySize=auto;html=1;exitX=1;exitY=0.5;exitDx=0;exitDy=0;entryX=-0.056;entryY=0.541;entryDx=0;entryDy=0;entryPerimeter=0;shape=flexArrow;fontFamily=Lucida Console;" parent="1" source="qaCfvwKFrwW74nsST61L-17" target="qaCfvwKFrwW74nsST61L-1" edge="1">
          <mxGeometry relative="1" as="geometry" />
        </mxCell>
        <mxCell id="qaCfvwKFrwW74nsST61L-12" style="edgeStyle=orthogonalEdgeStyle;rounded=0;orthogonalLoop=1;jettySize=auto;html=1;shape=flexArrow;fontFamily=Lucida Console;" parent="1" source="qaCfvwKFrwW74nsST61L-1" target="qaCfvwKFrwW74nsST61L-6" edge="1">
          <mxGeometry relative="1" as="geometry">
            <mxPoint x="887.2571499999999" y="442.63000000000017" as="targetPoint" />
          </mxGeometry>
        </mxCell>
        <mxCell id="qaCfvwKFrwW74nsST61L-16" value="Kafka Consumer" style="text;html=1;align=center;verticalAlign=middle;whiteSpace=wrap;rounded=0;fontFamily=Lucida Console;" parent="1" vertex="1">
          <mxGeometry x="674.52" y="488.49" width="60" height="30" as="geometry" />
        </mxCell>
        <mxCell id="qaCfvwKFrwW74nsST61L-18" value="" style="edgeStyle=orthogonalEdgeStyle;rounded=0;orthogonalLoop=1;jettySize=auto;html=1;exitX=1;exitY=0.5;exitDx=0;exitDy=0;entryX=-0.056;entryY=0.541;entryDx=0;entryDy=0;entryPerimeter=0;shape=flexArrow;fontFamily=Lucida Console;" parent="1" source="qaCfvwKFrwW74nsST61L-5" target="qaCfvwKFrwW74nsST61L-17" edge="1">
          <mxGeometry relative="1" as="geometry">
            <mxPoint x="406" y="448.36" as="sourcePoint" />
            <mxPoint x="615" y="447.36" as="targetPoint" />
          </mxGeometry>
        </mxCell>
        <mxCell id="qaCfvwKFrwW74nsST61L-17" value="Kafka Producer" style="sketch=0;points=[[0,0,0],[0.25,0,0],[0.5,0,0],[0.75,0,0],[1,0,0],[0,1,0],[0.25,1,0],[0.5,1,0],[0.75,1,0],[1,1,0],[0,0.25,0],[0,0.5,0],[0,0.75,0],[1,0.25,0],[1,0.5,0],[1,0.75,0]];outlineConnect=0;fontColor=#232F3E;fillColor=#0C0A9E;strokeColor=#ffffff;dashed=0;verticalLabelPosition=bottom;verticalAlign=top;align=center;html=1;fontSize=12;fontStyle=0;aspect=fixed;shape=mxgraph.aws4.resourceIcon;resIcon=mxgraph.aws4.managed_streaming_for_kafka;fontFamily=Lucida Console;" parent="1" vertex="1">
          <mxGeometry x="480" y="402.39" width="84" height="84" as="geometry" />
        </mxCell>
        <mxCell id="qaCfvwKFrwW74nsST61L-22" value="" style="shape=image;verticalLabelPosition=bottom;labelBackgroundColor=default;verticalAlign=top;aspect=fixed;imageAspect=0;image=data:image/png,iVBORw0KGgoAAAANSUhEUgAABLAAAASuCAYAAADS/dAkAAAAAXNSR0IArs4c6QAAIABJREFUeF7s3QWcFVUbx/GH7u5u6VZQQQQJJaW7Qbq7u0NKEBBEEGkJ6ZBQMQjp7u7uft/nwL3c3L27dy+47O98Pn7el92ZMzPfmTu7899zngn1omTJF2LbQtn9S8Tu3zb/cFzOrz4cunzdpx/9uerfr21qp4HdJ8dj9NPALx/H72lH9rx2OxnQ/Q3lsILdP22247icp+fGT1+x2XXHBV+IuNqmp45O2w2q68yPA/L4WF/hWZd/9X/cre9xvy4WDOj1YHdeA3Cstou6XC0I/B293N4DHL9he525+p6lY73evTR0eX26uLbNvcXy+XJ37Qdif/Tw/PL36nqw2HlpZLePXlz7Pr3OAnDt+3sv1L5enUvTbSDOq6vdcXWtuera5efm1bXn133d7bXkeP9yAeDxPcuvz2oArzNfXfuBuc5c3gc8+TkfBPfJQJ03V+fU4SC8Oqf+rOzxfcnms+Tfcfr3fdvPhSfny6PPue391/bDaPu7lB8/uDx2COzPuICu52J52x8wgd1fu/UC+Dn3c5uW68PNyfJ0fwN9PdiuaLnH+nEhBuoz5c/PTD9+TFtVXP5M8Ou+7sH3zGEG8udmQD6rjs8/Zpu2v0s5PB9Zvx9U15kH/p5eZ5bPkqfXm7/9BtLfo34df7lw/B3C8n3He52bzgN17Vuuw0Aep9N1FoCfcf7urx/3Hn99Xd1nPfjM2V37Qfi7lL/768FnyVUfLvu1+aK/23Xj5LDe67tBwD+roV707Ol3gOV4F/XvwvD45ubHReDupm63bU92xJ+HYafteHhyPPmhY/fQ69EKLxdyd1ie3jT9YnV7Qdr+8HZ30Xno7dG5c7eTAbhBBeV15rg7rq4zTw7fv2Ws3/fghuLBx8N6wQTkRuLfPrr5XdJpd/ztJyh/EDp+Lt2ECh5eVs6/GAbyB5J/16An33e1M/7a+hfyBWjD9gfv8geZBzvk3yIBuUY9vva9/CXc3UXtzb765+DX58vp/mD7o9mfP9AE9NoPwI8kl1379aDhSd/+/XIU4J9jr1bwxt/lx8bxl6oA3nv8+yh6c625+2XBPwO33/dnxUD3G4hzY3tfDOzvPv4dp8vv2zzYOT1se3hj8sbJv3U9/pwH8HcpP/sN5M9yt9e+l9eZq349cQuqZVxZOfUdAH9/98uPBQJ9//BFnx4+b3nk57CQf0Z239d/eHif9qhf/xZycdz+reLf9z3+nDv8QuFvv/4FWy427F+f/l37gTkWT/r0b78Cc5359/M6UL+XvNpR8z+Ofwj3IDj3eptuOvDPL9D3Fj922BqauxgQEIj9CfXixQvHIUIe/pRmMQQQQAABBBBAAAEEEEAAAQQQQAABBHwvQIDle2O2gAACCCCAAAIIIIAAAggggAACCCDghQABlhd4rIoAAggggAACCCCAAAIIIIAAAggg4HsBAizfG7MFBBBAAAEEEEAAAQQQQAABBBBAAAEvBAiwvMBjVQQQQAABBBBAAAEEEEAAAQQQQAAB3wsQYPnemC0ggAACCCCAAAIIIIAAAggggAACCHghQIDlBR6rIoAAAggggAACCCCAAAIIIIAAAgj4XoAAy/fGbAEBBBBAAAEEEEAAAQQQQAABBBBAwAsBAiwv8FgVAQQQQAABBBBAAAEEEEAAAQQQQMD3AgRYvjdmCwgggAACCCCAAAIIIIAAAggggAACXggQYHmBx6oIIIAAAggggAACCCCAAAIIIIAAAr4XIMDyvTFbQAABBBBAAAEEEEAAAQQQQAABBBDwQoAAyws8VkUAAQQQQAABBBBAAAEEEEAAAQQQ8L0AAZbvjdkCAggggAACCCCAAAIIIIAAAggggIAXAgRYXuCxKgIIIIAAAggggAACCCCAAAIIIICA7wUIsHxvzBYQQAABBBBAAAEEEEAAAQQQQAABBLwQIMDyAo9VEUAAAQQQQAABBBBAAAEEEEAAAQR8L0CA5XtjtoAAAggggAACCCCAAAIIIIAAAggg4IUAAZYXeKyKAAIIIIAAAggggAACCCCAAAIIIOB7AQIs3xuzBQQQQAABBBBAAAEEEEAAAQQQQAABLwQIsLzAY1UEEEAAAQQQQAABBBBAAAEEEEAAAd8LEGD53pgtIIAAAggggAACCCCAAAIIIIAAAgh4IUCA5QUeqyKAAAIIIIAAAggggAACCCCAAAJBJfDixQu5d+++RIwYQcKGDRtU3XrVz+PHT2Tb9h0SK2YMSZcuzVvbLwIsr04jKyOAAAIIIIAAAggggAACCCCAQEgUePLkiezctUcOHz4m4cOHlzixY0mmTOklYcIEgea4f/+BjBs/WUoULypZs2QKdD9BueLGTX/I16O+lYQJ40vTxvUkZ85sQdm9x30RYHlMxYIIIIAAAggggAACCCCAAAIIIIDAS4G7d+/K5CkzZPv2nZIyZXK5fPmaXL9+XZo0qSdFCxcMFNPtO3ekWYuO0qhhbSnwyceB6iOoV/p+2k8ybvx3kiBBPOnWpe1b2y8CrKA+s/SHAAIIIIAAAggggAACCCCAAALvvMCdO3dlwrdTJXqMaFKvTg0z7e+n2fNl1apfpUe3DpI+fVp59uyZmRJ47dp1iRs3jkSJEllChw4tN27cNFPxHjx4IE+fPpPYcWJJxAgRxDHAevr0qdx9tb4GSJEjRZInT56a8CxWrFgSOnQoefz4sTx48FCiRo0iYcKECXJ33f+58xZK5MiRpVzZkhIhQoQg34YnHRJgeaLEMggggAACCCCAAAIIIIAAAggggICNgKsAS4OqXn0GS8FP80vZL0vKokVLZd6CJWaKYYQI4aVunWqSP9+HUqlqfRNYhQkbRu7cviOZs2SUDm2bm39bRmDlzJFNfpg+WzZu+l0iRYpk+qhWtYLEiB5NOnbuLd+MHSZZsmSUJb+slDVrN0ivHh28mr7o7uQ+e/ZcLl68ZAK6WLFimgDubTQCrLehzjYRQAABBBBAAAEEEEAAAQQQQCBYC7gKsPRrw0eOkyRJEku+j/NIpy59pH2bZpItW2aZO2+xXL5yVVq3bCRfNWkraVOnlPbtW8jJk6dl+MhvpFmT+vL++zmsAZaOqvph+izp1KGVpEqVQhYtXi67du+V5s0ayoCBIyRjhvekRfOvzCiwCBEjyFcNakvkyJGC3HTvvgMydtxkSZo0sdSqUdnsy9toBFhvQ51tIoAAAggggAACCCCAAAIIIIBAsBZwFWDdvn1HBg8dbUKemNGjy/iJU6Xgp/kkdKjQcu78BdHC7/36dpWmzTtIxfKlpW6d6qLTBDXoSpUyhdSpU9UaYO3YsUeuXL0q/ft2k1ChQsmevQdk/IQp0qRxPTl06Ij8NHuB9O/TVab/OEdKl/rcjPrS5YK6TZ8xW0aPnSTx48eTrp3bmON5G40A622os00EEEAAAQQQQAABBBBAAAEEEAjWAq4CrEuXrki3Hv2lZIlipjaVhksd2rawHmeUqFEkW9ZMUrlafalYoYzUrV1NXrx4Ie079ZRUKZJLnTrV7AKsmzdvSq+enUwwtW//QRk/Yao0+qq2pEiRTCpXrS+FCn4ily9fkdatGpsAzBft9Omz8sOM2RI9WjSpVbOyxIkT2xeb8bdPAix/iVgAAQQQQAABBBBAAAEEEEAAAQQQsBdwDLDChQ8ngwZ/LcePn5Q+vTrLufMXpXvPATJ29GDJkjmjnD17Xu7cvSvp0qaWKtUbSvbsmaVX945y7PhJ6dV7sNSpXVU++ugDa4B1/cZNmfHjHJk25RuJGjWqrFi5VpYuWyVdOrWW1KlTSrceA2Ttug1StUp5adWikYQLF85np0iL0WvzRZF4T3eaAMtTKZZDAAEEEEAAAQQQQAABBBBAAAEEXgnomwC/n/aT/PbH35IoQXwz3S9SpMjSvKnWssopz58/l+Ejxsnmv7ZIlswZ5PyFS5IrZzapV6e61KnfXO7euSuZM2eQmzdvS5TIkWXggO4SJkxo6di5j9SuVUWyZs0kw4aPlSOHj0uKlMlMAFahfGkpVfJzCRcurPz191bp3XeodGjXXIoVLeSz86KjyrTOVooUSaVc2VKmkPvbaARYb0OdbSKAAAIIIIAAAggggAACCCCAQLAW0NpVx46dkDNnzkmo0KFNjahUKZNL1KhRrMelIdb27Tvl4qXLEj9BPMmSKaNEiRJZyleqI4UK5pfMmTKYGlg5c2SVuHHjiI50+nfHbkmdKoX598OHj2Tr1n/l5q3b5mvp06eVsGHDmv63btsh4775zgRfyZIm8ZnlzJ/mychREyR+vLjSuVNr+azQJz7bll8dE2C9FXY2igACCCCAAAIIIIAAAggggAACIVVAA6wypb8wNbAC2rS21vIVa2X1mvWSI3sWafRVHQkdOnRAu/F4+S1b/5Wp38+UWDFjSONGdXkLocdyLIgAAggggAACCCCAAAIIIIAAAggEY4GfZs2XjBnfk1w5swf4KB4+fGgCpajRokrJ4kXNSC1fNh0VdvbceVP/KnGihD4Ny/w6DkZg+fIs0zcCCCCAAAIIIIAAAggggAACCCDgIKCjqEKHCSNhw4QJsI2+tfDBg4dmKmH48L4r3B7gHfPxCgRYPgamewQQQAABBBBAAAEEEEAAAQQQQAAB7wQIsLzzY20EEEAAAQQQQAABBBBAAAEEEEAAAR8LEGD5GJjuEUAAAQQQQAABBBBAAAEEEEAAAQS8EyDA8s6PtRFAAAEEEEAAAQQQQAABBBBAAAEEfCxAgOVjYLpHAAEEEEAAAQQQQAABBBBAAAEEEPBOgADLOz/WRgABBBBAAAEEEEAAAQQQQAABBBDwsQABlo+B6R4BBBBAAAEEEEAAAQQQQAABBBBAwDsBAizv/FgbAQQQQAABBBBAAAEEEEAAAQQQQMDHAgRYPgamewQQQAABBBBAAAEEEEAAAQQQQAAB7wQIsLzzY20EEEAAAQQQQAABBBBAAAEEEEAAAR8LEGD5GJjuEUAAAQQQQAABBBBAAAEEEEAAAQS8EyDA8s6PtRFAAAEEEEAAAQQQQAABBBBAAAEEfCxAgOVjYLpHAAEEEEAAAQQQQAABBBBAAAEEEPBOgADLOz/WRgABBBBAAAEEEEAAAQQQQAABBBDwsQABlo+B6R4BBBBAAAEEEEAAAQQQQAABBBBAwDsBAizv/FgbAQQQQAABBBBAAAEEEEAAAQQQQMDHAgRYPgamewQQQAABBBBAAAEEEEAAAQQQQAAB7wQIsLzzY20EEEAAAQQQQAABBBBAAAEEEEAAAR8LEGD5GJjuEUAAAQQQQAABBBBAAAEEEEAAAQS8EyDA8s6PtRFAAAEEEEAAAQQQQAABBBBAAAEEfCxAgOVjYLpHAAEEEEAAAQQQQAABBBBAAAEEEPBOgADLOz/WRgABBBBAAAEEEEAAAQQQQAABBBDwsQABlo+B6R4BBBBAAAEEEEAAAQQQQAABBBBAwDsBAizv/FgbAQQQQAABBBBAAAEEEEAAAQQQQMDHAgRYPgamewQQQAABBBBAAAEEEEAAAQQQQAAB7wQIsLzzY20EEEAAAQQQQAABBBBAAAEEEEAAAR8LEGD5GJjuEUAAAQQQQAABBBBAAAEEEEAAAQS8EyDA8s6PtRFAAAEEEEAAAQQQQAABBBBAAAEEfCxAgOVjYLpHAAEEEEAAAQQQQAABBBBAAAEEEPBOgADLOz/WRgABBBBAAAEEEEAAAQQQQAABBBDwsQABlo+B6R4BBBBAAAEEEEAAAQQQQAABBBBAwDsBAizv/FgbAQQQQAABBBBAAAEEEEAAAQQQQMDHAgRYPgamewQQQAABBBBAAAEEEEAAAQQQQAAB7wQIsLzzY20EEEAAAQQQQAABBBBAAAEEEEAAAR8LEGD5GJjuEUAAAQQQQAABBBBAAAEEEEAAAQS8EyDA8s6PtRFAAAEEEEAAAQQQQAABBBBAAAEEfCxAgOVjYLpHAAEEEEAAAQQQQAABBBBAAAEEEPBOgADLOz/WRgABBBBAAAEEEEAAAQQQQAABBBDwsQABlo+B6R4BBBBAAAEEEEAAAQQQQAABBBBAwDsBAizv/FgbAQQQQAABBBBAAAEEEEAAAQQQQMDHAgRYPgamewQQQAABBBBAAAEEEEAAAQQQQAAB7wQIsLzzY20EEEAAAQQQQAABBBBAAAEEEEAAAR8LEGD5GJjuEUAAAQQQQAABBBBAAAEEEEAAAQS8EyDA8s6PtRFAAAEEEEAAAQQQQAABBBBAAAEEfCxAgOVjYLpHAAEEEEAAAQQQQAABBBBAAAEEEPBOgADLOz/WRgABBBBAAAEEEEAAAQQQQAABBBDwsQABlo+B6R4BBBBAAAEEEEAAAQQQQAABBBBAwDsBAizv/FgbAQQQQAABBBBAAAEEEEAAAQQQQMDHAgRYPgamewQQQAABBBBAAAEEEEAAAQQQQAAB7wQIsLzzY20EEEAAAQQQQAABBBBAAAEEEEAAAR8LEGD5GJjuEUAAAQQQQAABBBBAAAEEEEAAAQS8EyDA8s6PtRFAAAEEEEAAAQQQQAABBBBAAAEEfCxAgOVjYLpHAAEEEEAAAQQQQAABBBBAAAEEEPBOgADLOz/WRgABBBBAAAEEEEAAAQQQQAABBBDwsQABlo+B6R4BBBBAAAEEEEAAAQQQQAABBBBAwDsBAizv/FgbAQQQQAABBBBAAAEEEEAAAQQQQMDHAgRYPgamewQQQAABBBBAAAEEEEAAAQQQQAAB7wQIsLzzY20EEEAAAQQQQAABBBBAAAEEEEAAAR8LEGD5GJjuEUAAAQQQQAABBBBAAAEEEEAAAQS8EyDA8s6PtRFAAAEEEEAAAQQQQAABBBBAAAEEfCxAgOVjYLpHAAEEEEAAAQQQQAABBBBAAAEEEPBOgADLOz/WRgABBBBAAAEEEEAAAQQQQAABBBDwsQABlo+B6R4BBBBAAAEEEEAAAQQQQAABBBBAwDsBAizv/FgbAQQQQAABBBBAAAEEEEAAAQQQQMDHAgRYPgamewQQQAABBBBAAAEEEEAAAQQQQAAB7wQIsLzzY20EEEAAAQQQQAABBBBAAAEEEEAAAR8LEGD5GJjuEUAAAQQQQAABBBBAAAEEEEAAAQS8EyDA8s6PtRFAAAEEEEAAAQQQQAABBBBAAAEEfCxAgOVjYLpHAAEEEEAAAQQQQAABBBBAAAEEEPBOgADLOz/WRgABBBBAAAEEEEAAAQQQQAABBBDwsQABlo+B6R4BBBBAAAEEEEAAAQQQQAABBBBAwDsBAizv/FgbAQQQQAABBBBAAAEEEEAAAQQQQMDHAgRYPgamewQQQAABBBBAAAEEEEAAAQQQQAAB7wQIsLzzY20EEEAAAQQQQAABBBBAAAEEEEAAAR8LEGD5GJjuEUAAAQQQQAABBBBAAAEEEEAAAQS8EyDA8s6PtRFAAAEEEEAAAQQQQAABBBBAAAEEfCxAgOVjYLpHAAEEEEAAAQQQQAABBBBAAAEEEPBOgADLOz/WRgABBBBAAAEEEEAAAQQQQAABBBDwsQABlo+B6R4BBBBAAAEEEEAAAQQQQAABBBBAwDsBAizv/FgbAQQQQAABBBBAAAEEEEAAAQQQQMDHAgRYPgamewQQQAABBBBAAAEEEEAAAQQQQAAB7wQIsLzzY20EEEAAAQQQQAABDwVevHght2/fkWjRo0noUKE8XIvFEEAAAQQQQAABEQIsrgIEEEAgmAhcunxFzp8777S3GTNlkIgRIgTqKG7fvi2nTp2Rp0+f2q2fLHkyiRsndqD6ZCWRZ8+eyenTZ+XmzZt2HJEjR5YUKZJJxIgRYUIg2As8fPhITp48LQ8e3Lc7lnjx4kqiRAklTJgw1q/rZ2HmT/Nl7vzFcu/ePYkTO7ZUrVpBKlYoIzGiRwv2FhwAAggggAACCPhegADL98ZsAQEEEAgSgXHfTJbvf5jl1NeiBTMkZcrkgdrGipVrZeiwsXL7zh279Xv36CRlynwhoUOHDlS/IX2lu3fvSd/+w2Tdr5vsKDJnziB9e3eRNKlThnQi0ZE46vTgwQPRICRUqFASMWIEiRYtKgFfMLk69uzdL336DZPjx0/a7XHVyuWlebMGEjVqFPP158+fy8yf5snkKTPk3r3XYVe0qFGlW9e2UrRIQbuwK5gcPruJAAIIIIAAAm9YgADrDYOzOQQQCFqBZctXy7nzF112GjZsWIkaJbJEMf9FkWRJE5vRL+HChQvanXhDvY0dN0mmTZ8dtAHWirUydDgBVlCfQgIs96JPnjyRo0dPyO49++ToseNy8+ZtE2RpgBUtWhSJFzeupE2bSjJlyiCpU6eUsDajeIL6PNGfdwK792iANVROnDjlZ4ClodXwEeNkydKVThusX6+GNKxfUyJFiuTdzrA2AggggAACCLzzAgRY7/wp5gAReLcFGjVpK1u37XB5kGHChJYIESKY/3SKXezYsSR58qSSN08uyfdxXokbN06wwiHACj6niwDL9bm6ceOmLF6yQtat3yQnT56R+/ftp55Z1tIpZcmSJzWf07JlikvChAmcOvxj89/y66+/ybPnz63f02Vz5MjKyME39FHxNMDSEXbDR46ThYuWOe1Z40Z1pW7tamb0nW1btXq9/P3PNjN6S5tWy6pSpZxkypj+DR0dm0EAAQQQQACB/5oAAdZ/7YywPwggECABvwIsVx3plDitQ5Q2TUpp2aKR5MyR1Yz8CA6NACs4nKWX+0iA5XyudKrg8BHfyOo16+XBw4dmCqFfTT+XESKElyyZM5lpZqkcpsmOHTdZfpo9X54+fWbtpmePDlK65OdMR3tDHxVPAyw91ytWrpNRY76Va9euW/dOa2X17tlRPv4oj9N9uFefwbJy1a/WAEtXGj60j3xWqMAbOjo2gwACCCCAAAL/NQECrP/aGWF/EEAgQAIBDbBsO9f6LEMH95aPPvwgWIRYBFgBujTe6sIEWPb8GmBM+HaqTPl+ZoDPiwZZBT/NL1+P6G+3btdu/WTNuo12AUevnp2kTCkCrAAjB3IFTwMs7V5HUq3f+LvMn79ETp0+K++lSy1VKpeTD/O+7xQ46rKNmraT7dt32u3ZiGH9pPBnBFiBPF2shgACCCCAQLAXIMAK9qeQA0AgZAu4C7Dix4tr3gT36PFjefDgofn/rpqGWKNGDJD338/5n4d8owGWBgGlKeIe2ItC37Kmxa0p4v5S8MTJU1K1+lfy+PFjJ9Lo0aNJ1ChRzBwx/azevn3H+nnVwZGpU6WUgQN6SPr30lrXffLkqTRp1k7+3bHbrj8CrMBesYFbLyABVkC2oFNNW7buIvv2HyTACggcyyKAAAIIIPCOCxBgveMnmMND4F0XcBdg6V/qHz16ZApEnzp1Rg4cPCz6xixXLWuWjDJsSB+XdXZsl3/27LlcuXpVrl+7IQ8fPZLnz55JuPDhJVbMGJIgQXwz3cmTpqNR7t9/IJcuXTZv/3v8+ImEDx/eFJxPkCCeRI0a1eWIMHcB1tLFsyRp0sRmKtWVK1fl6rVr5q1u4cOFkzhxYpt9CxcurMtdW+GmiHvfPl2kVIliokHB+fMX5MbNW6Jhgu5bgvjxREOHgDQ95lu3bsuVq9fM9Lrnz5+Zwvpx4sSS2LFiBXjKlwaTly9fkVs3b5uQUvvXWmfx4saRuHFjixbw96tpUCLyegqbLm8p7q+jP65fvyEXLl6Whw8fmnOTLFkSiR0rplOXeh3oebxx45Y8e/pUIkeOJEmSJDZ9aXHrNWs32K0TFG8h1GPV/dP/7t67Ly+ev5AoUSObcx0ndix/RxPq8WmQZDuFT/fXYqZf1/N98eIleXD/gYQOE0a0JpVeY2oRmDZ6zESZ/uMcp1WzZ8ssxYsXlRTJk0ooCWXO6b4Dh2Tb9p3mzXaJEiaQVi0bmWljlmtY9+/SpSvSrkN3OXDwiF2fXTq3kZLFi4rWv9MWOnQYCR8+nNVEr+enT5/YrBNKIkWKaP23Xpt6vd+6fcdckxqEJ0qUwOX1qYaXr1w1517vNVrDKXq0aBI/fjynek5+mel95erVa3Lt+nXzuX15XwknMWPEkIQJ9b5iXxvKsS/dD9uA3vaYdZbm3Xt35cL5i3Ln7j1TG0xfapEsaRK749Y+1fXOnbty4cJFuXvvnoQOFVqix4guSZMkcrsPAQmwdB+1gL/j1FG9ptTa0vT7R44ck649Bji93XDQgB5S8NN81mV1Pb12g8s08MB8dlgHAQQQQAABBF4LEGBxNSCAQLAWcBdg/bt1g/Wh5tGjx2YEyIqVa2X2nIXy9OlTu2PWB9jGX9WROrWrOVnow5Q+pG7btkN27d4nFy5ckus3bpgH1ufPnpuHp5gxY5j6PJ8V+sQUkPbrIV8fNtdv+N0UJz5z5pzcvnPXPNRp2KQPlokSJZRsWTNJkcKfOhWZdxVg6YP6mpU/m5Er+kbGPXsPmBozGqzovsWNE0ty5cwuJUsWM2GAY3MXYA0Z2Msc16/rf5PjJ07JzVcBVpSoUcxDdcEC+UyB7WjRovp5/ajf+QsXZdNvf8ru3ftM2KMPx2oXOUpkE7hoUeb8+T/0tzizBi8aRv6zZbscOHTkZQB46445FxpFRQgf3phlSJ9OihUtKGnSpHJZzFtH+AwbMVZsSzDl+SCnlCr5uQns1v66UTZt+lPOnTtvHPUFAOXKlpTKlcraHeuOnXuMz+EjR+XmjVvy9NkziRwpkqROnUIKFcxv6vesXbfRbh1vAizL8f/2x1+yZ89+uXr1uuhILzXWayd27NiSJUtGyf9xHkmfPp3b86L7vWrVOhN+adNgUgMi3ed79x7I0qUrZduOnXLp4hXRulUaemhgmTHDe2ZU3ns2I6E8vXl81aSNbNtmPx1M+505Y6Lp17ZpoKtvKNy48Q9JnDihlClT3IzQ0uNfumy17D9wyIR3W7b+a0Zr2basWTNJ0iSJrZ/9dGlTSZnSxc0LHLTNnvOz7N33elQYcwtlAAAgAElEQVSPBiB9e3c2AZAG3MtXrJUjR46bfvWz9cEHuaRRw9oSyya81OtNP2d6TZu3KFoDrIjm86BvOs2f70Pz+bAEaY5Oes40zNUpcjt37TX3lWvXLfeVZ+azGyNGdEmZMrk5L/oZdhWQq8mYsZPkqk1dKX1RRcUKZcxn67ff/5R1v/5mPjd37941YWSUyJHMOSxRvIhky5rZnF/tRwvr63Wv9yW9riznPVOm9KauWLp0aZyCooAEWPq51c/Dy/D4datapZxkzZLJ7MOcuQtNcf9Lly/Lv//uNvcK25YrV3ZJmCC+9UtZMmcw51evfxoCCCCAAAIIvPsCBFjv/jnmCBF4pwU8CbAsADq64OvRE8xb0Gyb/vVeiwgP6NfNhDaWpqOjfvlllaxZt0HOnbsgN2/elOfPXReeDhs2jCRJnEhq1awsJUt87nIEhgZVAwaNlM1/bhGdImN5u5bjvui0Rh3tUrN6Jfni88LWEMZVgKX727plY/Pgd/rMWaeHQ+1bRwXpqJTGjeqZEU+2zV2A9X7uHOah+uKly07TL9VLgyIdoVW7VhU7M8eLbevWf2XchCly8uRpM/LKVeFuDRC1mHPVKuWlUoUvRS1tmwnBzl+QeQuWyF9/bTX75K4vXU8Dp7RpU0nL5o3kgw9yOj106wiTEqWr2m2jaNFCMqBvN5k0+QdZ/MsKc34s+6phQovmDaV2zSrWdZb8slK+m/qjXLlyxYygs20aWuioNx29df36TbvvBTbA0tF1GkZMmz5LTpw4ZUbwubI0I8ASJ5JqVcpLyVKfm2DUsem+jxk70YyysrSaNSqZa0RrVG3Z8q/cuXvXaT11yJsnt7Rq0UjSpUsdoPtKuYq1TDDheK2vWbnA5dtA9dg0RAkV6uWIIW0aMrXv2Ms4+FcA3rIdrW/XrUtb83nS1qZdNxM8WZpey+vXLZE9u/fJ2PGTzT7aBtw62mdg/x7mM6RNA+gfZ86VhYuXy9Ur1+TxE/tzr8vo9auj4Yp/UVSaNq5nRoDZNg1lli5dJavWrJezZ8+bcNjVvUDX0YBNQ7zqVSvIl2WKS6RIL/fD0jRwLV+ptunH0jRA09p+f/61RebOXWSCMsf+dbSdBr1tWzcxYeeYcZNlw8bfTTDouKzuf54Pckmrlo0lXVr78x6QAEvvURO+/d7p2tJ9LVa0kBlBWq9BCzNt0NPzq0G/nl/bgDFAFyYLI4AAAggggECwEiDAClani51FAAFHgYAEWLrukaPHpVWbLnLx4mW7rlKlTCHdu7WT3Lmym6/rQ+zYb76TWbMXuK2f5eps6EiVEcP7ywe5c9h9Wx/Ihg4fK/MXLHYbgjn2p1MTx44ZKjrKQJurAEsfwPUh13FUmWNf+sA6aEB3KfzZp3ajktwFWNqvfw+R+mCroViNahVcTjFavmKN9O0/3Iww86TpCJOyX5aU9m2b20151Gll/foPl7/+2eb2Qd+xf93/JEkSyYxp4yVWLPvQTsOwkmXsR9vp2yiLFikoI78eL8+eP7frTqeGjRze34Sc2ubNXywjR413Cq48OcbABli//LJSBg8b/XK0md8v7zO7oSOW6terLjWqV3IaEbjklxVm1I5tgJUsaWIz2kxHdfl13nVUTp3aVc2opIgRX0+98+/Yv2rUWrb9u8tpMQ1PRgzrI0mTJPGvC/M5bNOuu/yx+W9/l7Us4F+ApcuNHztU+g0cYaYl2jb9zOhIps4dW5kvq0v3ngPNtFB3NfVs19eRmJUrfSnt2jSzhqjax7jx38mMH+d61Ielv2jRosmQQT2dXjjhKsDSKYc6IvTY8RNmRKG7pp+RD/PmNtMWdcSbTmX0a9l6datLg3o1rWGeLhuQAEtHv02Y+L0Jn22bbYBVq24TOegwLdSvk02A5fFHgQURQAABBBB4JwQIsN6J08hBIBByBQIaYOk0neEjxsnqNevt0HRkkj5olihe1PqwumPXHunQsZcZjWPbNDDSaVf6wOfqYV+no30zdpi1ppKuu2v3XmndtpupA2XbdLRQhIgRTDCjI3YsD5z68KwhwVcNa1sXd1cDy9OzXyD/RzJsaB+7sMldgOVpnzpda/jQvpIhw+spa2qi09Q6dHK20371wVn9XI1m05EUzZo2kLJliltrMqnJwkVLZdSYb0Wng1qaJbzT7bkLFKpWLiedO7W2OxxXAZZO/dK+XRUZ1xFAP8+fbmp/7d9/ULp06ydnbEa8eGqlywUmwNq5c480bdHRXB+OzVL7x9V1qPXAtCbUpwXy2U1lcxVgBegYMqWX3j07B2gU1phxk+SH6bNdbiZK5MhSvHgRM6JPRw/pubCtiWRZyVcBlta50mnCjk1HQjZv1lD0GtKAWEdeaajt2PSzqtNXnzx96lTjSUd+6QghfdOe5VzpFMbWbbua0U7O95VQ5lp2dT5z584uY0cNsQuQXAVYATmXAVk2VaoUMmrkQFOvzNIIsAIiyLIIIIAAAggg4K0AAZa3gqyPAAJvVSCgAZYGFDNmzpPxE6bY7beOJmnRrIEZsWJpt27flokTp8n8n38xAZNO5UmZIpnEjx9fwoUNI+fOXzTBlOOIAn2gnTd7qugDn6VNnjJDvp820y6AiRkjuqnvkzlTBlNrSOvqbN22w0zdK1K4gPTt3cUuBPMrwNJRF6lTpRB96NaHcZ1S5BjqaDDwy+JZotu1NL8CrBjRo5tgSgMcDfEOHzkm917VTbLF01EZzZrWt47s0no8ffsNkz//+scupNIHeK3po9OQdJqVTtc6duyEKcJu27JkzmhGw+kUJ0vTKYg6gk3r6OgoIO0nebIkZuqhPsSfOn1adu7c6zRCS0euLF86W6JFfV2ry1WA5RgkaCH4OLFjy9NnT8100GlTvjEjVXQKqk7BcxzxpkZay0nrFun1cOr0WVOQ3HE6VkADLJ1e1rBxazl27KTT5yxt2tTmnIcOFUqOHT8pJ0+ddhpxkytnNhkyuLcpbm9pfgVYel5SpkxhCtZr2KrH4Ric6ZRPDS11RJqnxbN1NNBXjduYgufuml6fOnVVp+2lfy+dpEyZzC5sVctvJ00ztdQs17jjedCRRzq91bJfWr+perWK1uN3nELouC86JVeLsIcLG9ZcZ82bNTDTJrVWVcfOve1Grem6GuZoOKVF/q9cuWZq2+k1rfXQtGkfFcqXNtN8LVMhtRbVpO+mm2m/GoJrkfiUKZKbFziECxvO1IzT+4pOebZtel+ZOf1bu/pm/gVYWgdLa2LpKMjjJ07L/fsv6565ajrtNUnihGaZk6ecz7uajh83zIwCs7SgDLDUYtjwMXLy1BljcP78RafPj17zti9TyJUrm9SoVtG8XIKGAAIIIIAAAu++AAHWu3+OOUIE3mmBgAZY+hC84OdfZPDQ0XYu+qDZpFFduxFPOgpCH1xn/jTfFC7Ply+vKTZsqZOlIyi+mzJD5sxb5GTcqUMrqVa1vPXrOpVu6bJVdqGSBjU6fUaDMW1a3Hjnrj3mv7JlSpiC7rbNXYCl+1O9annJn/8j80Y/DXsGDR0lp0+fddqvubOm2BXhdhdg6YN5rZpV5NMCH5vj1bpRM2ctEA0/bEdB6Qa0uPOsHydZR0yt+3WTjBj5jVy6bD8lK336tNK8aQPrVLxDh47KtxO/lz//3mr3oKphXPu2zUzhdMub8TSM+2XpSlm7bpMpVP7Rh+/Le+nSWkOBM2fPyYCBI01hb8f23aRR8n7unNYv+xVg6TTGQgU/kSKfFTB1kx6/emtdzhzZ5MCBwzJw8NemRo9tix4tqgkpKlUsa0IIS4Hx73+YZcIM2xbQAGvZstUycMjXJjyzbTr1rmun1pI5c0Z58eK57Nt30IRrOrrH/u2CYc0bNgt+mt+6ursAS8PP0qU+l8+LfmauPT1/WhPsL4fzox317tlRSpf6IkBvj5zx4xyZ/N0MuedHiKJ9a4im4WW+fB/KZ4XyS5rUqazb0VDnwcOHsmbNelOvy3FEY9s2TaVYkYKmWLk2rQFmO6LLXYClI7407CpT6guz7fARwpsAScNWrX81bPhYWbRkhV1wqZ8RfUNiwYKfmBBRwzSt0TZs5Di7mlT6YgcdhWWpH6XnRwOq6TPmmABWi71nz6b3lZdvudSwWMNu/bw5Nh0lqnX2LM2vAEvf8KgvHtB7lk4PnT5jtpn+6Gpaoe5D+XKl5L10aUSDe72v/bH5H6cQXO9rWqtOR1BqC8oAS/vTbev9ZcGCJeb4Ndi3bT27dzAvfLA0/bxqOK33bxoCCCCAAAIIvPsCBFjv/jnmCBF4pwUCGmApho6g6TdguNNf93XKXtMm9e28dPSJFkHWV9rbvnHv+atXzm/Zsl06denjZFy+bCnp2aOD9evDR35j6l/ZPjxqYKAPzNWqVrAWmdaHWx0lpvVzHEe3uAuwNEwo/kUR62gV7WPI0NGm6Llj0xEUllpO+j13AZYGTXXrVLMGSLqsvp2sYeM2ZmSRbdOQaeniWSbk06BFQ6mfHGqHaUCg07G0GLXlbWoaJur2R4+bZN6caNu0HpVOf7MdbaFvhrt565Z5C5ntmx413NKRSgsXLTM1dhxb186tpXKlctYv+xVglfiiiClWrUGUY1u2fI0MHT7GacSd1uFp36653dvRNPzo02+oeeOkbQtIgKWBSOeufWXDxj+cppTp6Dx9I6Cl6Tl/WZtrglPNsc+LfSZDBvWyLusuwKpTq6o557YvMjCFtyd+7zQaqE2rJlK9WgW7EYL+3Wh0ZNrceYtk5qz55nz513TkW8aM70nD+rXMKCjbaYX6xs1RYyY6TcPr1bOTlCn1udtgzV2ApUX/u3dtJxoqW0JTy/4dP35SevUZLPv2H7Lusn42GzWsI3XrVLWrBaY1yrp27y+bNm0WvUdo05CqT69Odp87/ZxcvXpNoseIJtGiRrMGQrqOjtDaunWHmYLr2L4sXVz69O5s/bK7AEtrmg0b2lfSv5fWeh/R2mE9eg1yCv30zY36AovkyV5PDdR75LAR45xGbDWoV8N8ji33pqAOsCwH9tOsBTJx8jSnz9qIYf2k8GcF/Lt0+D4CCCCAAAIIvKMCBFjv6InlsBAIKQIBDbD0QV+DDn0boG0zD6Rf1TGjsNw1DVD+/nurmeZ34OAR8wCq099cPYx/VugTU/jb0nT00LDh45xGn2gQoyN48ubNLeXKlpIc2bO4ffh2F2AtnD/dbrqibvPHmfPMiBzH5vgA6C7A6t2jk5Qp84XdyAa169Cpp6zf8IdTv9OmjpMc2bOKTh/U0VeONcaSJU0iPbq3N28zs20aJmlIoyOHbJuOghk5or8kdhiFZlnmwsVLsnnzP7Jj5245eOioCVg0bHScdqXLN2tS325knbsAS6fG/TxvupnS5dg0JNOReGPGTbQroq5hXItmDc3UU9vAUcOavv2HiY5Gs20BCbC0Xlvbdt1lz979dn1ocfpvvxlhpq3ZNh35VaZcDadpnimSJ5PFC3+0LuouwOrXp4uULFHM7pz/un6TDBk2xhR3t21Nm9STurWrORWI9+++o8HNlq3bRafU6og2d2/fs/QTOnQoSZgggQwd3EuyZMlk7T4oAyx9u2LrFo2kWrUKLkfy/PnnFlNA3/ZNfxpyFfjkI0mbOpXIq9FIlp37ffM/cujQEeuxaX2s/v26mZcEuGp6zf799zbZuv1fOXDgiFy5etWMQnJ1X9F6ZqO/Hmjtxl2AlS1rZtGRh7ZBr44GbNKsvfmM2rbPixaSgQN62N139B7XsVMvuXX7jt2y1auUlw4dWhJg+Xeh830EEEAAAQQQ8IkAAZZPWOkUAQTelEBAAyx94Js9Z4EZvWHb9CFWH8rr1alu93WtZXPi+CmZPXeh6EOzp2/U0yluE74ZYe1L68o0a9HRTLlx95Y33QctAF+vbg3JmiWjUzjgLsBatGCGqQll2xYtWmberObYtHaRjhiytIAEWLrO8JHjZNbsn536HTGsr3nDoU5b1MBDp53ZNlPXqms7u2Lv+n0NAFu17uI09U8La383abSp32Npjx8/kZ27dps3uG3+c4vHl1j9utWlZYtG1uXdBVilShaT/n27uexXp3dO/f5HmTrtJ7vva22pDu1bSLGihey+HhQB1okTp6RL935y+PAxu75NXatBvczIHsdWolQV0XDPtmmI8ffm1dbQwV2A1b9vV/MSA9vpWBoS9tc39DmMumvauJ4ZrWUbkHh8QvS8P3psRpbNmDFHTp4+bUYd+vUWvPz5PpQxowZZ9y0oAyytTfXLop8kdmz7t1VajmfV6l/NyDYNrAPbdMScTs+0hJwaiJ44edqMSFu6bLV5u6QnLW+eXDJxwtfWRd0FWDp9cPJE+wBLa+vVqd9crjgUrNcRegP7d7cLsPYfOCTNW3ZyCtGqVS4vHTsSYHlyrlgGAQQQQAABBIJegAAr6E3pEQEE3qBAQAOsO3fuyPhvp8rceYvt9lKLb+u0qLJflrB+/f79B7Jy1TpTj+b8BftQwLKQPuy7GkXiGGDp8qfPnJP+A0bI/gMHRft21yJHiiQ1a1SWmjUq2U1b/C8EWFpEe/J30512vX+frlKq1Ody5MgxUydq1+59dsvkzp3D1AHSouOOrWXrzqbejm0LHz6czJr5naRJndIEfjpq5KdZ8+XnhUudphVZ1tNwwFU46GmApSPgetlM+7TdHx0lM2HiVJkz177eWaKECaRTx1am8LhtC4oAa8+e/dKr7xBT08y2aQ2gPr06ixbodmy16jSVvfsOOH39tw3LrNfSfyHAsuygni8tzL9i5TrZvXuvCd80qHTV5vw0RbSOmragDrBWLJ0r0aNHc7ldfQPm2HGTnUYjBeQ217dPFyld8mWAZa3hNfVHOXvugstu3N1XvAqwLl6SOvVcBFiffyYD+9kHWAcOHjaBu+MoMAKsgJx1lkUAAQQQQACBoBYgwApqUfpDAIE3KhDQAEtHCOmUtYOHjtjtpxbs7tKpjeT7OI/5uoZSa9dtFK1d5VifKVLEiGbKno4O0lEbs2Y7F1t2FWBpv1pPSwMEHUGk04x0ZI+rZikq37BBLeuojf9CgDVqzLdmBJRjm6BvJ/sojxlVMnjIKDPN0rZlz5ZFunVta4pE2zat89SydRfz9jbbFjNmdPPmPx1Zpm8+nDFzrsz8aZ5T8KdvSkyTJqUkTZJYQoUOZeqbObagCLA0kJo4aZqp7WXb4sePKx3bt7Qb1abfD4oA6/Dho9K950A56lAIXqdh6ogZfdueYytXobZ5G6Ft09pRm39baa099l8KsCz7qSOyDhw4JGt/3WReduBqKmiPbu1NsXxtbzLA0hFSo8d8K9dv3AzUvU2nmerIPssUwvUbfpMhQ8eYe4Ft05pfqVK+vK/EiaP3FeeRjgRY1MAK1EXISggggAACCLwjAgRY78iJ5DAQCKkCAQmwnj9/YaYPjvvmOzN1zbZlz57FjELQ+kLatFbPV43bOI1m0WCldq2qkveD3ObtgTr9KM9HRZ343QVYuqBOQ9RXxe/cuUf+/GuL+c/VqBMtVq7T6DRc0/ZfCLBat+0qv/3+l9PxLpg3zbwt7tKlK2aa4a/rf7NbRkdeaQ0sfZufbdNwsH3Hnk4jtlKnTiFjRw0x50PDxnbte9hNjdORLGnSpJIa1Sqa6ZYJEyaQy1euSvmKtZ32LSgCLK2vNfX7mebNd7YtSpQo0rZ1E2uwYvleUARYaqk2jm89VMtvxg5zqtWlQV+J0lVEa7XZNg3ZVq94Hby9rQBLQ2Ed0aOjHW0Lstvuqx7DqNHfys+Lljqdxzq1q5pRktrcBlg9Opri9u76d1XEXT/Dfo3A0oLsQ0eMFZ2CZ2kaMOuU05w5sjq9bMFxx3VqcM6c2URH66lBvQYtZfce+xGK+oIIPb4P87xvrnl39xUCLAKskPqznuNGAAEEEEBABQiwuA4QQCBYCwQkwNK6TD17DRItjm3bwoULKxXLlzFvkrM8+J49d17Klq/l9Br5xo3qSt3ar988piOIPviwiJOhXwGWZWFd98bNW3L82AmZOPkH2blrr0M4EtmEap++mp72tgOsCxcuSsNGbeT8hYt2+xk5ciRZvXKBRI0SxYyW0lFaOtXPtukoFB3hpuGCbY2lP/742xTIPn/evs8P8+SWfn27mjpPK1auNW9Ps50eqG9w7Nm9g2ixfMtb43SqXTkfBVgaPGi9Iq2FpPWLLE2DtJrVK0mTxvVEHSwtKAIsrYvUqk1Xp/pgGoiMHTVIPvzwAzvjjZs2S5du/ZzqKeV5P6dMmjjKuuzbCrAOHTpqgiA9Z+W+LGlCGldt9uyfZdjIcU7faqwvWWhcz3xdr4mvR3/rNDqyQ7sWUrnSl27fjhiYAEvr1vXrP1yOHT9hd9717aFaC0yvRU+b1p8qXqqK031F37TYoH4N6xsN9Rp7P29hp25DSoDl7u2X+rZEfeOq7T3EU3uWQwABBBBAAIHgL0CAFfzPIUeAQIgW8CTA0ofGOXMWyg8/znFZryp2rJgy6utBki3r67ecbf7zH2nR6vXr6i3IUyePkVy5slvNd+3aK3UbtHA6B64CrOXL18jxkyelUcM6EiFCBLt19A1h9Ru2ktt3Xo+e0bfidenUWsqULm6WfZMBlj6YN6hf0xroaZgyeuxE+XnhMqdC9lr/Sd9uaAn/XtYM+k5u3b5td4yfFvhYdBqYZerb/QcPzGi4+QuWOD3Qt2yub/arLFoLa9Lk6TLpux/s+ooTJ7b8NGOiJEgQ3/p1d4Xrg2IElm5Ep34NHqpv5LOf+qXTF/v27mxG2ViKdOsUysFDRsuJk6fs9jsgbyHUFbVo/OTJP8jjJ/Z1oT7J/5GMHT3Y2vfDR4+kW4/+snHjZqc6YFo8v2KFMtZl30aApbXnqtdqbN7kp0bv584urVo0snuzoO7grVu3pXHTdnLo8FGnz9TQwb2txfJ1hN+wEWPl8uWrdsuVLVtS2rdp5jZUCkyApdd+xy59RMNW2xBVA0t9e1/BAvb1zyw7pNOD9fq1HQ22Zeu/5vgc25RJoyR37pzWL2toVqdeM6fl/msBlk777NVniNM01/LlSknrlo3t6orNnvOzTJj4vVMNO9vzajngRYuXy9hvJjvV4Kpfr6Y0rF9T9N5IQwABBBBAAIGQJ0CAFfLOOUeMwDsl4C7AKlumhNy9d08uXrwsx0+cdFs0XUfv6Aia1q0a27ls375LGjZu7WRVqOAn0qRRXdFRW1p8WouaO07Z0pVsAyx96N23/5C0bd9Nrl+7IenTp5Pq1SqKvuo+YqQI8uL5c/n9979kyPCxdkGOjlDRt83pG9i0vckAS7enbyvUcEpHT63f8LvoCB/Hml3hwoaVnj06SKlXBap1PX17Xp9+Q2XP3gNOYYr6Va74pYQNF0bWrN0oy1escTo3yZImll49O8n7uXOY9X+YPts8zNq2iBEiGMOSJYvJs2dPRcPB6S5qc+k6QRVg6XENHDJKtm/f6XRdJEmcUKpULifp0qaWQ4ePyYKFS+Xs2XNOywU0wNKabQ0atXb5Bjw9PxXKlZYX8kKWLV9jAjad+mrbEiVKKFMmjTbTXS3tTQdYWjuqa7e+smWrfV003R+tiab10bSA+vUbN+Svv7fJpUuXna4brQm1ZOFM0Smb2rTAfc8+g+XUqTN2x6ufmWZNGsjHH+eRBw8eiLx4YT5vlhE7gQmwdAM/L1omo0ZPMCMMbZtO/atcqazom/w0VHnx/IU5jpUr15l6Xs2bNpByZUtag03d79ougqkCn3wszZrWl/DhwsnW7Ttk0qQfXNbc+q8FWOfOXTA1BR2nuWodrxbNGprPcKxYMQ1ZQAKs33Vk5pBRTm/U1L7atGpsrpl79+9L2DBhJF26NP5O43ynfuhxMAgggAACCIRgAQKsEHzyOXQE3gUBdwGWJ8cWPnx4KVzoE+nerZ31wdiy3uXLV6R8xTrmIcm26eiRSJEiSdiwYcxIAldvINTlbQMsrZ2j0+Q2b/7HuryOytCaOAkSxDP1uA4ePCI6pdC2pUieTKZ+N9YUdNb2pgMsTwzz5MklvXt2ksSJXgcklul2rkZb+Nen2uoUsPp1a1hHb2zY9Id06txbnj59PXVP+9FQQqdv6XQrfaujqzcQ6nJBFWDp+dE6WNN/nOO2+L5/xxfQAEv7m/L9jzJl6o+ihc4D0tSmQb0aUrVKBdEC4Zb2JgMsrTs3ZeoMM5LssUPdOU+PRQPUBvVryVcNallX0dC4Q+desm3bTpfnXY9da83l+ziveXlAnNixzbqBDbBu/L+Ae59+w+S33/90udsaXumoQD3Ga9dumGtS7xU5smeR/n27SpIkL+vYaQ2wUl9WcwrCbO8r9+7dk2fPnrvczn8twNJ7YIdOvcw0V1efv47tW5igWVtAAiydrqyj3vbtO+jSIXq0aPLg4QP54vPC0rVzG3NPpiGAAAIIIIDAuy9AgPXun2OOEIF3WiCwAVbMmDGkZPGiUqdONYnn4m1u+vDbs/cgWb1mg79+rl55bwmw9KFu8ZIVLqfD+NWx1jnSh79KFb+0LvamAiw9Ht1vd4GQZYeSJkkkbds0E50a6Fg0W0eq6Fv7Zs9d6DQ90N1xax/aV5vWTSRZ0iTWxXTamdZ2chzl4e+JebVAUAVY2t2ZM+ek/8ARsm276+DEv30KTIClo6q03tPiJcudpm+6256GPvpw37RJfUkQP57dYm82wHpuXlIwfcYcYxbQpiMkixUtZEZIxo8X1251vba04Lt+Vt21LFkySrcubSVjhvfMIoENsHTd48dPSt/+w0Sn93naNEjT4K1a1Ypm1KZ+pnr0GigrVq7ztwtX95X/WoClxzN+wlTzllBX56F0qS+kX58u5lgDEmBpCK6jW3X0pWOwbwuXN09uc351xBcNAQQQQAABBN59AQKsd/8cc4QIvNMCAQ2wokSOLDpqSB/u9eFH34jmqumD2a7de2XQ4FFy5NLVGzkAACAASURBVOhxt4b6hsDyZUs5TXGzDbDOnD1n6jxpjaZ79x/4ez60tk69OtWlRvVKdrVe3lSAVaxIQbl67brs2LnHbYiVMGF8adakvhT+7FO74uW2B6ejVlauWmdGD2mxer+aPqxXqlDGjNZwfBjVB+MVq9aZeln61kJ3TWuYpUubxukNdkEZYOl1ceDAYVP3x7aot+M+6Wic/Pnyyh+b/7Hb58AEWNr31avXRWuLaXFr/yx1tJUGn1UqlTNTBy11uSz7+CYDLN2mmp06fcZM81y2Yo2Z1utJ0/CnVIli5prQz5njcdy6fUcGDBwh637d5LY7HeHYrUs7KfDJR2YZbwIsXf/w4WMyY+YcWbN2gzx5Yj9i0nEnQoUS83ZM/Zzo/cbysoF9+w5I/4EjXdb5svShbyKsUqmsCS5t238twNJ90/p9zVp2dKpHpt977700MnfWVHMIAQmwdHmtb9atxwDZ/q/74FPfyKkBVu7cOTy5pFgGAQQQQAABBIK5AAFWMD+B7D4CIV2gWYsOpm6Oq6YjerRmSsIE8czb7DTgKFSogMSNE8u87ctx1JBjHzoNSIu0jxs/xbz23na6oNba+aJYYalbt5p5+16J0lXsppU5FnF/+PChnDt/0QQQGzb87vQmRN22PuBqXaz69aqb2jGOhd7dBVhLFs2U5MnsRyC4K2g+fGhfU9vK0lasWCtDh4+1Fo/XkV+dO7Yyb4qbNXuB/DR7gdN0OR0l1aBeTcmQ8T3RGlh+NQ2fDh46Yo7799//ljt379otrsecO1d2qVG9oryfO6fb4sw6fU6Dim8nTjWOtk2nh9WoXkEqlC8jWlS6SfMOdt/3NMDSAK1bV+cC247Hp4GMhnMazC1ZutKuhpeGLO+lSy3NmjYw51IDVtsANLABlu6DFhPfvXufzJu/RH7f/JfTlEK9nj/+6AMzZTBXzqzWN9o57r+7AEvfePnFF4Xt3vCm0151xNmly1fsutEi/3XrVBOdhutp03N48dIlWb1mvflP61e5miqnI5U+LZBPypYpLrly5TDTHx3DK8s2dQqbnof5Py9xWedOa1RpwKEBkjZ3Adaq5fM9epugnnudvqj3nPkLFptaXE8cpv7qdrT2mO5/8eJFJEH8+KaYu6XpfWTP3v0mkNU3j9q+1VLDax1xpgG23rMKFyv3spbXq+ZpgJUrZzb5dvwIu/OjgVCtuk2cgqYSxYtIvz5d7e6Hhw8fNZ8jvc5tW60alaVtm6Z250OP5+9/tkvffkPl8hX7ovr6+d782wqzH64CLL1mtc6f7T3JdnvXr9+Q8RO/l2XLVrucgqrTsHWKqKVOoKfXIsshgAACCCCAQPAUIMAKnueNvUYAgTcooCHM/gOH5ODBw6YOk46q0KlJOqXJ3YO1X7unQcTRo8fl6LGTom9nCxU6tCRMEF8yZnzP/O9/6RXx+lY4rW+jI5/ixoltCmInS/Z6el9AToP2oaOWTpw4Y8LAJEkSSto0qcybBP0LEy3buX//vuzYsUdOnjpj6pDpaK2sWTJK1KhRA7IrQbasPuBriHH+wstQzRQl/3/dI0+PJ7A7ojXa1FKLaGudKR1ppdvW0CMw12Rg9yOw62kQdObseTl18pRcunJNNOCNGSOG6Mg+PQ4t6h6QprWl9DzoaEcNxeLGjW3qsqVOnVI0xPJF02M4e+68aKH98+cvmil0sWPHkgwZ0plA2b/PsSXc1dD18eOn5rOfJWtGM+UzOJxDR9OHjx7Ljh27TDCp98lYsWNK5ozpJWXK5F7xq7PWFduzd59cvHhFnj1/bqZ96/1DR2BFjhzZq/5ZGQEEEEAAAQSCjwABVvA5V+wpAggggAACCCCAAAIIIIAAAgggECIFCLBC5GnnoBFAAAEEEEAAAQQQQAABBBBAAIHgI0CAFXzOFXuKAAIIIIAAAggggAACCCCAAAIIhEgBAqwQedo5aAQQQAABBBBAAAEEEEAAAQQQQCD4CBBgBZ9zxZ4igAACCCCAAAIIIIAAAggggAACIVKAACtEnnYOGgEEEEAAAQQQQAABBBBAAAEEEAg+AgRYwedcsacIIIAAAggggAACCCCAAAIIIIBAiBQgwAqRp52DRgABBBBAAAEEEEAAAQQQQAABBIKPAAFW8DlX7CkCCCCAAAIIIIAAAggggAACCCAQIgUIsELkaeegEUAAAQQQQAABBBBAAAEEEEAAgeAjQIAVfM4Ve4oAAggggAACCCCAAAIIIIAAAgiESAECrBB52jloBBBAAAEEEEAAAQQQQAABBBBAIPgIEGAFn3PFniKAAAIIIIAAAggggAACCCCAAAIhUoAAK0Sedg4aAQQQQAABBBBAAAEEEEAAAQQQCD4CBFjB51yxpwgggAACCCCAAAIIIIAAAggggECIFCDACpGnnYNGAAEEEEAAAQQQQAABBBBAAAEEgo8AAVbwOVfsKQIIIIAAAggggAACCCCAAAIIIBAiBQiwQuRp56ARQAABBBBAAAEEEEAAAQQQQACB4CNAgBV8zhV7igACCCCAAAIIIIAAAggggAACCIRIAQKsEHnaOWgEEEAAAQQQQAABBBBAAAEEEEAg+AgQYAWfc8WeIoAAAggggAACCCCAAAIIIIAAAiFSgAArRJ52DhoBBBBAAAEEEEAAAQQQQAABBBAIPgIEWMHnXLGnCCCAAAIIIIAAAggggAACCCCAQIgUIMAKkaedg0YAAQQQQAABBBBAAAEEEEAAAQSCjwABVvA5V+wpAggggAACCCCAAAIIIIAAAgggECIFCLBC5GnnoBFAAAEEEEAAAQQQQAABBBBAAIHgI0CAFXzOFXuKAAIIIIAAAggggAACCCCAAAIIhEgBAqwQedo5aAQQQAABBBBAAAEEEEAAAQQQQCD4CBBgBZ9zxZ4igAACCCCAAAIIIIAAAggggAACIVKAACtEnnYOGgEEEEAAAQQQQAABBBBAAAEEEAg+AgRYwedcsacIIIAAAggggAACCCCAAAIIIIBAiBQgwAqRp52DRgABBBBAAAEEEEAAAQQQQAABBIKPAAFW8DlX7CkCCCCAAAIIIIAAAggggAACCCAQIgUIsELkaeegEUAAAXuB589fyIkTJ+XZs2cSOXJkSZAgvoQLF9ZPpqdPn8qlS1fk3r17ZrlUqVL6uw7uCCDgvYB+Tq9evSa3bt2W+AniS8wY0b3vNAT3oJ4nT52RmzduysNHjyRSpIiSPFlSiRMntoQKFeqdkrl+/YZcu3ZdXrx4YY5P/3uX2rlz5+XevQcSJkxoiRc/rkSPFu1dOjyOBQEEEAjxAgRYIf4SAACB4Cfw/Plzefz4sej/etJChw4tESJEeCsPIvqQoPuqD0jaIkaMKLo/tu3Jkyei/2kLGzachAsXThyfmbQPDYw8bXq8YcKE8XRxefTosTRt3t5sI0uWTFK/Xg2J68+DzeUrV2XaDz/Jvn0HzXa+HjFA4saN4/E2WRCBkCzw8nOvn+kXEiZMWIkQIbwTh943Hj16ZL4ePnx4CRv2Zah88uRp+W7qj3L69FnJmPE96dKptdN9JSC2Dx48lBcvnO+n4cKFf+dDab33rft1oyxavFzOX7go9+/dl6jRokrzpg2kWNFCdvdR/Znz6PFjeeHws0dDLj0/AbnnBuT8BOWyCxctkyW/rDTnu3y50lL2yxJB2b3cvnNHrl+7Iffu3ZfIUSJLwgTxJFKkSEG6Db866z9whBw5ckyiRo0qtWpUlo8++uCNbZsNIYAAAgj4XoAAy/fGbAEBBIJY4MzZczJr9gI5efKMRz2nSJFUGjeqK7FixvRo+aBc6ObNWzJ/wRL5d8du0233ru0kadLE1k3oX/uHDB1tRjKFDh1KCn/2qZQsUdQEbrZt9tyF8sfmv+X5M89Cu8Zf1ZEcObJ6fCj6APvxJ1+Y5T/68APp2b2DJEqUwM/1T585KwMGjZStW3eY5VYsnSOJEiX0eJssiEBIFlj36yZZvmKNPHz4SD768H2pXauqHceLFyK7du2RSd9NN18vUaKolPiiiAlJNv22WTp27m0CMA21fl27yDrSRIODCxcvmVA8frx4EidOLH+Zhw4bY0YgOTbtO1asGJI1S2b55JMPJUH8eF79IeDMmXNmxKb2myZNKq/68vegPFzg3393ydDhY+XI0eNmVJK26NGjmXtg4c8K2O3jhQuXZNoPs0R/Btk2DbDChA0jCRPElxzZs8gn+T8yffwX2zfjv5Op034yu9a0cX1p9FVt627qyKwrV66a86P38ihRInt8CBr+rV23Uf75Z7vcuXPH/FEkfITw5prRIFD/exOj2WrWbiL79h80oxI7dWwtxb8o7PExsCACCCCAwH9fgADrv3+O2EMEEHAQOHToiAlO9r4a+eMfUKZM6eXr4QMkQYJ4/i0a5N/Xh4HhI8bJ2l83mb7nzJoi6d9La/6/PiyNnzBVpv84W54+fSYZ0qeTrp3bSNasmZx+0R80ZJToX84tI7n829GRw/vJZ4UK+LeY9fsEWB5TsSACQSLw48y5MnHydLl//76UKf2F9O3dxa5fvT9s2PiHtO/Y03y9Xr0a0rRRPTMiatfuvdKj1yA5e/a8pEqZXBbM+8E6Amvzn1tk7LhJcuXqNdEgu0rlcv7ub606TWXvvgMulwujI1gjRpAUyZNJr54dzX0qMO3Zs+cmdNNQTkdqzpwx0Yw2fdttytQfZfKU6SYMzJI5g3Tv9nIkauLECSV2LPvw7/jxk9Kt5wA5dOioy90OGzaMGWX7fq4c0rpVY0mZMvnbPjyn7fsVYOmI2pmzFphphTqqL1fObP7uv16nBw8dkTFjJ8qu3fvl4cOHduvoH2Z0WnqxIgWlS+e2Ph/RR4Dl7yljAQQQQCBYCxBgBevTx84jEDIFjp84aYKfI0eOGwD9BfrO3bumHow2/ct3jOiva8KkTZNKunVtJ3HjvvlaH+4CLJ2KsnbdJhk2YqxoTZLYsWNJ+zZNpUSJYi5P6reTpsnq1eut0yZ1WtH1GzfNg5b+VTtpktejurSDLp3byMcBmDpBgBUyP0sc9dsTCHCAVbe6GTGjAZbe8y5evCQXL16WdOnSSNSoUawHsmz5ahk1+ltzf2jTqrHUqV3N34O0BFg68iZlimQSP35cMzJMRxzduHnTjKbRbWqgMXniqEBNlbt1+7a0btNVdu3eZ/pftmT2Ww+wdGr2mLGTZNacn41Rz27tpXz50m69bAMsDasyZkgvUaNGljt37xkrHXn0+PHL6eA1qleSpo3rBWgUk78nKggW8CvA0ul3+oeSePHiyoB+3STPB7n83aKGqD17D5Kdu/aaZXX0sI7e1evowoWLcvLUWTONXsPB7yaNdhpd7O8GArgAAVYAwVgcAQQQCGYCBFjB7ISxuwgg4Czw5OlTmTN3oXw9aoL5Zts2zaR2zcouqfShTEOlu/fumQeyiBEimF/Wo0WLare8fu/KlWvmF++o0aJItKhR5dq1G3Ljxg15+uyZ+St7/HhxzYOjX9MiXAVY6dKmlr17D5hpK/sPHDLTNerUripNm9QXHe3gSdOHBR2FduzYCRN+/bpmkcvVHjx4IFevXpd79+/Ls6fPzEiK6NGimmO23W/bAOvjj/KYAExLF9+5c9c46VSS+FrLJGJE63Y8mUKoD3OXL18xAaPxjhjRTClxNTVFH5IvXrokD+4/kGfP9dyENyMBYsaM4QkJyyAQrAS8CbD0vnT9+ssAWz/T8eLGMVMGr12/IYsXL5eZs+abGkR161STCuVKm8+6TiXUz5+rZgmw4sWLIx3bt5SiRQqaxXRk6PoNv8m48d+Z0V7aFi2YLilTprB2o/cYvTfqPVVHiGotKP0Dgm5PpztqWK/3Ef3Dw6DBo+TosRPmcz1l0mhz74scOZL5jFtqA+oxaX+3bt2Sx0+emHt0rNgxzRRwx/qBro5F7zN67FevXTej27Tp/SZunDhmJJClvqBuR+9hOgJr5apfzXLdurQ1U6j1vu7qvmMbYMWIEV2mT5sgKZInNevqNpcsWWGsdGp4hgzpZEC/7pImdUrrbuo97uq1a3Ln9h159vy5uZ+qhf7RxfHniI5k0nu3uuq+qkNsvR/GiG510POt98tQoUNJnNixJWLEl1PP1eD27TvGXZv+8cZy7l0FWLrvunzf/sPkny3bJU7sWObnaPZsmc3USL1nu7LX7YweO1Fm/DjXbCd5siTm55heP3ru9RiWLlstv/3xt/Tq3t783LE0vS5u/D9kvXnrtqnzpsevxfPjx48nkd3UzNLry3ptPH5i9k3Pk/4stuzf6wArhnTu2Ery5//Q/My/f/+BhAsfziyvIwBDuyjOr9eyjly8e/fli0n0eokXN7ZEjhLF/DykIYAAAgi8fQECrLd/DtgDBBDwUsDTAOvcuQum5szWbTvk7LkL5sEqdqyYZlRB4cIFJFvWzNYiyTqd5OvR4+X48VOSM0dWSZw4kfz+x19mqsTDBw/Ng8T7uXNI5Upfmqk17pqrAEvDsFFjJsqGjb+bfShZsph06dg6QH+p9y/A0geH3bv3yz9bt5sRDzpaQ8O7WLFimr+Mf1mmuPnruj5sarMNsHQKY76P8sqOnbtNXRzdx8SJEpi6LhXKl7Y+2PkXYF26dFlWrFwnf/+9Vc6cO//KO5bkzp1Dviz9haRNm9rKpssuWbpK/vpri2hx+CePn5h9zZw5gxQpUlBy5cjq9uHby8uH1RF4KwLeBFjHT5wytZg0HNaApFPHVnLq1BkZM26yHDt+Qs79f1SMBiTJkiYxo2H04V5rHeXIntVl4O4uwFIYDTbGT5gi8xYsMU6jRg6Ugp/mM/eMgwcPy9//bJcdu/bI+fMX5NHDRyaMSZ0qhXzxRRFTQ+ru3bvy88Klsun3P83UOw0SwocPJ9myZTEhgt5/a1SvaIpua3CwcdMfsmHDH3L0+Am5d/eexIwVQzJlTC8lixeTnDmzWu9Zrk6aTlM8evSYrFq9Xv7dsUsuXrosoSSUJEyUwNyvPy9aSFKnTmXeUKf3xAGDvpajR4/LpctXTHdal0vDm0KFPpHKFb90Cm38CrB0fb1XaoBy4OBhE/qMHNFfMmfKIFpa6+rVq7Ju3Sb5ffPfcur0GfPHEQ1ScmbPKqVKfi7p06e1jmzTnxvLV6yVP//aYgrLq7X+rNL7YaFP80uePLlMYfTvpsyQbdt3SsRIEc10UXXSpgHa8uVrZM3aDebfzZs1lGxZM5n/7xhgNahfQ9Zv+F1+WbpKdu/ZZ853+HDhJHXqFBI9enRzPnv37GQ3ys9ir6P8KlaqIzdu3pJYMWOYmlMvw6vXf4gxI6Tv3LXWBFMjHTmo5+evv7eZQPPmzZvm2NUjb57cUr5sSad6itqHHs/f/2yTY8dOmmLxGtjpH4SKf1FE8n2cR6JEiWL8tQaWBow1qlU0Fvoz6PLlq6Y4vwaLVSqVMx6W0Ev3UeuzrVqzXv75Z5vo7wpaDU0L0Of5ILeUKllMkidP+kZqeL2VmxEbRQABBIKRAAFWMDpZ7CoCCLgW8CTAOnf+ggwYMEK279j16s1fr/vSX2L1l1qd7pHv47zml1R9uPiqSVvZvXufeaDRh0EdEfCqxq9ZWX/hLlDgYxk+pI/bKTWOAdaMaeNl3frfZN78xSZQ0ml+fXp1tvvLtCfn2b8Aa+fOPeav6RoyPX/+sjCxpWlNkgzp35P27ZpJrpzZzZdtAyz9q7M+ZDjWMtG/jtepWVUaN65r1vErwNIHwpFfjzcPoxoGWkYXWIokF/jkY+nUoaUkSZLIjBzpN2CErFy1zozgsNTFsbyZMW+e92XQgO5mpBkNgXdFwJsAa8+e/Wba1il9C2GG92TWzMmye89+adCwpRkh6qoNG9JHihT+NMABlk7N1tBjwcKlptuxo4fIJ/k/lP37D8nXoyeY7Vo+q7bb1RpS5s2kceLI0GGjrXUAHfft00/zSa8eHSRmjBgmlJszb5FcvXrNLKb3Zr0X6f9q7cDOnVqb4MHdqFcNowYPHS179h5w2icNzXLmyCYdO7Q0oZ8GJ5Wq1HNpVa1KeenQvkWgAqxqNRvJ4cNHJVHCBDJieD8TKmkwp1MVV69dbx0VZTm2cGHDygcf5DI1p5IlS2LuuzNmzjOjmiwF73Wkmn5d19GC/927tjfBZJeufWT12o0mXNLzq6PHtGlIqHW9ps+YY/49ZvRgKZD/I/P/HQOs+vWqyw/TZ8v4b6e6tNAAa/HPP5o/KDg2fZthn35DzZc1rFRbDe78aub4fpwrs+cslJu3bjktqseqQWPfPl2sP1fVT681DQB1NK9t02tBQy+d8qij2SwBlv4c0ZGJOkVfQyxL05/b+jlo27qJJEgQ33xZg06tVfnnX1udfu7pyDcN5dq2aerS4F25H3EcCCCAQHARIMAKLmeK/UQAAbcC/gVYOg2mZ59BsurVNBEtelyxQhnzF+FZs382fy3XBwMNk3T6jP6l1TbA0g3rX3rLfVlSsmXLbP5KrdMi9Jdq/WV7+NC+ZkSCq+YYYFWpXFaWLV9jpptoGzq4lxQr+lmAz65/AZbWm6lZu6nolIjinxeW7Nkzy/NnL2TSlB/MqDLdb33FeKOv6phjsw2wdGf0L+E6ukzfmPjbb3+JvjFNp7Hog5IWjNaHFHcBloZQY8dNFn1z4rNnTyVLlkxSp1YVM61ozryFsu7X38xUkQb1akqD+jWNf7MWHUXf2JgqVQpp3aKRxIkbW3bt2ivTps82/y5evKhozRkaAu+KgG2ApcW+neoNvXhh3rS6Zdu/5pDr2dTAchVg6WiYjRt/N/eXHTv3mHUKfppf8uZ9WcdIR1VqQOKquRuBpeGRjoocOGSUqfGkTWtXafCsD/3Dho81tY/MPSZbZvP9RUuWyz9b/jXT2HT05MB+3cwyv67fJKvXbDC1CnUUqr4ZNkzY0JIkcSIT4OgfCzp07GUCiuTJkppp1Rpabdn6r0ydNtPco/S+3arFV2akjavWvGVHM6pHt61vAyxXtqQ8f/FC5sxZKIcOHzUjg4oWKWTCDp1W/csvK2X12g1mSre28uVKSbp0qeW9dGlM2OUYlPk1AktHfy34eYkJWnTqtI6W6t+nq7mnzf95iYz8eoKZKqcjXOvWrirx4sWTVavWWUe2tW7xlVSrVtGMZmrStJ0cO37SjO5t2+Zl0LJv3wFZtnytFCta0NTpihA+fJAEWF81rGVsdCTdT7Pmm/BQ7/MlSxSTlCmTSfhw4V2+GVe99A26c+cvNnbNmzWQurWrWUcxu/uc6jW1ZMlKM9VS+y9atJAkTZxIdu3ZZ+pv6bRCnVY6euQg+eCDnKabiZOmmZ8F+nM5SuTIZsR0/nwfyvnzF2X23J+lfdvm8lmhT0zgZQmwdD39OZc7V3bRP5icOXtW5sx9OdVew79e3TvKhx++b/6t4aJOu9WfcQU++UiqVatg1l2w4BdZvWa9+Rk5aEBPKVQw/7ty++E4EEAAgWArQIAVbE8dO44AAhYB/wIsHY3UuWtfMzVN/yLbpVMbKVTo5S+i+lBUoVId8zCmxWf1wUb/kqwjCiwjsLQ+Vr8+XeST/B+Ljl7SdcZ9850JY7TpqK1vxr78K7Rjcwyw9IHIMgpJl/0wT26ZMH5EgKcm+Bdgad9aH0v/am77l3Ndr37DlmY39bXmHdo1N6O/bAMsnWLYv193M3JAy4Tog+vwkeNk46bNZr3mTRtIwwa13AZYR44ck159h8jBg0fMNI4fpn4jKVIkN33p9JQSpauakQWfFsgn/fp0Ng/b3XsONKFe3ry5ZcyowebhTJ00DNOHkjfx+nU+UQi8SQHbAEu36/oaf2Ed9elfgKV96GdG31i64OdfzKHom/Dq1Kpq/r9fnyFLgKXBso5mSf3/aYk6iufkyVOyZesO68sj8n+cV8aOGWLt6+zZc6ZOkNYVsvS/+c9/ZOiwsXL23HkTRGz+baXZL50Op/umoYPWLFq6ZJZ1tKWu27xlJ7OMTkXTkTyfFyts7rd6rxg9dpI5Jr03Tfz2a5ejfPQtirXrNjPb0mllvXt1sk6p05C8c5c+Zuq4bmvp4lkmhNP6UqPHTDRTHLWNGjFAdESYOy/bACtChPBSongxc4/TmlY7d++VEydOWke8NqhXQxo2qG3Cjy/L1TT3yxQpkkmvHh1fhWMvR/4MHDhS/vjzH+M++utBZlRSxcr1zHEXLJDPHIf66nFp+BMqVGjjoi0oRmDp1FJtut2GjVqb6Xn6M6F/367WUNXdtdO6bTf57fc/zbTOju1bmIDRk6bXlk7h1D8WWe7vGk716jNE1q7baP6gpNduzeqVzBTKtu26y+Ejx8x29I9ALZt/ZTfdX19sYNlH2xFYpUsWk9atmpgalzp6umnzduZ61nPXt1dn+fzzwiZULFysvPHWKao9u3eQVK9qvB0+fEx69RlsAj6d9t7H4U2hnhwryyCAAAIIBK0AAVbQetIbAgi8BQH/AqyZP82TiZN/MAGJ/lX+2/Ej7OopTf1+pnwzYYrZ8/rmoaOWKaZuCbB0FJI+2NjWbNJaWl/rm76u3zAPQvpA5OqXfMcAS7ehUxt0OosWGNZfqgf26y4lShQNkJwnAZZ2qNvQv+hfunTF1KvRX8S11ok2HfHRtUtb81Do11sI/8feXYBHdbVrH7/jwd0J7lIohQoVqBdrS0tLC28pbak7dRfq7kqFKlXqblgp7lY8JCHBkhDiMt/3bBoOhUAZ9khm8t/Xda73FGavtfZvrUyYe5bYh6axb77r7Ldis9kGDTxJ9997+14DLNsQ2WYh2Df5tlfLLTdd+69nu+feR2QfNm3vm7vuvEklxcXODCxbdmghoi2ROfPMU9W+bWtn2aB9wOFCINwEdg2wbINtmxH678vjnP5Xerrq/gRYdv+DDz+1M8Dy9hTCvRlbCGNLFW2ZW7t2bf71MgsjbHm1ba5tQZHtnWezoGxGpe1x9fuvgffRCQAAIABJREFUXznP9uefOwIsW869+ymE9t58VJ/+TrmdOrXXpRePdGZ/2mUhtm0k/8qrbzuhxeefjCtzJtmzz72it/9ZMjfsnDOdfZ8sQLPL2cfr5Tecpdt2jb7+Sp03/Cznd8LTz768M8B65skHdwZYZVnsGmDtzco2jLcvNa64/CJng/e1axM1eMiOkKjPMb2djfVtbym7bIbsJ59+KVuKZ0suPxn/lrOE7brRd2jR4iXO74ejjzxcZ511mtq3a6uaNav/aw8wXwZYNmv3oostwFqz36cQXnHljZo2fZbz++zG0VfprCGn7fePqfWr1ZmZsc3ZE8y+8Ph94hStXLnG+bLDwqvrrr3cmf1rp/XaoSo2E+21l59ygq+9Xfs6hfCJJ1/U+x9+4tx61x03afDp/TVl6l+65rrbnD+zPR7POvNUxfyzN6T9frdlrRas9ujRTW+89ux+Px8vRAABBBDwjwABln9cKRUBBAIo8F8Bli1VsKURtqyj3ynH68Exd/6rdVOm/KWrr7vV+bPTT+2v0aOvcGYA7SvAmjx5mnOKoH0Yq1qlin7+8fOdJ0DtWvjuAZYtYbGlDzZDwPaUsQ95thxv7OvPqmmTHR/Y9uf6rwDLvq1fuGiJfvttsrN5sm1Qax8Y7MNV6fJF25ze9lJp3brFPgMsa89HH09wlnzYvb16dtdrrzyz1wDLPiTaa0tPcoreLYAq3aOnS5eOzrH1bdu2dvrnw48mOBtB22XfkNsSHluaZDMibJYDFwLhJLBrgGWBhy2n/dfl8Th79r340o69iQIRYNkyXXsfsuDY3tss+LbLwu6bb7zG2di7NKi35VYrVq7Wb79NcmZn2sby9r5js2FsOZ2939hrv//mYzVoUG+fAVZiYpJOO2PH89s9NgNn11PfbA/C0pmrn378llq3arnHULjjrgecQyPsGSw8uuD8YTtfY8H7u+9/5Cxttmv4uWfqxhuudhVgWbBu7+MW7tlhF/ZebteJJ/Z1DuUo3bPPNhC//Kqb/vPZ7D3u26/GOwGVLbd8/Y13nI35zdJmXHXr1tV5P7RloXaqoDkFO8CyLyO++mbHFyI2M9fCOQsZ/+uyZYJ22qHNtrJN6C1gtPvsmWxc2f8OOWOQ8wWLLSt8/oXXnNMK7Uukjz4Yu8/TKPcVYNlhBGPffM9p3p233+AsMbXfbY898bzzZzbudj2d0HaPtC9wbOy1b99W499//b8ejb9HAAEEEPCzAAGWn4EpHgEE/C/wXwHWcy+8pg8++NQ5kr1/vxOco813vWzJy1XX3OL80amDTnG+SbYAZV8Blm1Obv/oteV1FmD98tPnzuyh3a/dA6wO7dvq3ntucTYstm+V7YOf/QPZvrm25XylpwL+l9p/BVjz5i/Ug3Zk/crVziyErl06qUvnDs5pimMefMIp3psA6/0PPtWLL491gq7DDztEL7/45F4DLPtAYDPaLMCyTXXbtN7zw6bVb8uU7Ft2m3lgBpOn/KWJk6Y6e96Yq/2ZfTi0DZXtw/3e9r35Lyv+HoHyKODrTdxLn9HNDCxbqmZ709k+QHPmLdCYB55wfg7thLw7bh3t7N9kl32gtxkzNtPS3mssZLG9hux9Jio6Sj/99Lvz/rC/AZYFNaefeZ5Tdo3q1dSiZXPZ5tm7XxH/f+ncvXfdvHPz7V3//vY7x8hmf1oQUrofU+nfW5j27nsf69nnX3X+yN5T7ORGNzOwbJ+ohx+8y9nDy0L7CV9+5yxHs5k6tu9Xw4YNnLr+nDZdV1694/dLvXp1nP29ygp5bJba/ffe5rznWTn2Hm9fQEybPtP5AsIue82pg/rpwpHDnKXhpQGWfTFhezEeyCbupUsID2QG1ltvv6/nXtgR6thJfTZjyg492ddl5vY74p33PnJmF9qy/sMP6+n8Ppi/YJGm/jnDCT9LAyxb3mlfiNhrLTD86MM39rkcdl8B1ssvv6HX3njXaV5pgGX7YD759IvOn1l4a7+PyppN3bJlsz1mE5fH9xXahAACCIS7AAFWuPcwz4dABRD4rwDLPri8aksIc3Kc0OalFx7/1xLCt8Z9sPObeftgYPuW2EypvQVY9uHNPrC88OJYZw8VW+ry1YT392sJ4eOP2klgfZ0PgL//MUUPP/K0Nm/Z6szCuv220c4Hx/25/ivAsj2/7MhxW5p02qn9ZEtqGjas7wRkB/fs61SxvwGWLWN66eU3ZEsxbUNkm6Vm+7LsbRP3777/2VleuWXLVue0ryefeKBMm/i4WGeWQumHOTOxD1G2cbXN6vj8i2+dfUms3ffedYuzPxYXAuEiEIgA65qrL/nXTKS92ZW1ibuFKDfdfI8mT/3L+Rm195CLR41wNvi2v3v/w0/18itvOTNmzj7rdOfvbaaVhc8WfM2dv3DvAdY/e2CVBvZZWdt1zLEDneZZkGEnwu6+VNH+zpaW2el+ZQVAthTQTreza/iwIbry8lHOYRF2Wfm2hNCCE7tGX3e5zvvfUFcBls2YGvfWS84yQdv7avRNdznvXbbJuC1DH3HeUGdGz8pVq3XW0Audenv1PNg5OKN+GSf12cwxe7ZdT2y1mUm2l5gtYfvgw0+VkbHN8X/x+ced0xhvu2OMfvjxV2fW25OPj9HR/5w0aL/rXnt93E6PfZ1CuLcAyzag/6/3XFseedY5FzhLyy2Ievihu52l4bsHQLl5eaoUv6MvFi9epgcfeUpLl/7tHOzx4Jg71LFjO2eW7Ztvv68333rfmS1dGmDZ77HHn3zBWZJuSwjHvvbMPmcrextgTZo8TdffsONLrX6nnOAcblKl6p6HBFigaktfuRBAAAEEgitAgBVcf2pHAAEfCPxXgDVnznzdesf9zh4atnmwBUW2F4ldtgfJ2edeqKSkDU64YxvX2hHb9qGsNMCycMk21+3Qoa1zT2rqRj3x1Av67ffJThA19KzTdest15X5JLvPwBr/wVjnZC27bKN427TWPoDYP/j79j1Kd94+WrVr7fsbbLt3XwGWbYZ7zvCLtWbNOif8ueeuW5xZU3bZEr0Bp57r/P97C7BsJsV999zq7O1l17LlK5wPpEuWLnf+277pN6PdAyxb/mLfXtvr7Gj1FStWO0sWx9x3+3+e3jRz5hwdfPBBzgdTM7XQ7LY779cff0x1NjAefe3lGvT/N9HlQiBcBPwVYD39zMtO2GFLdYefO0Q33nDVf5Lt7RRC2zNv5IVXKi8v35nx89wzD6tL547ObJgnn35JX/+zfOyLz951Nii3y04PtVlgtrxw1xlYc+Yu0P1jHtO6xCRnZuYH7766M8ixn/lRl1ynOXPnOzNZL7tkpM4950xnJuz+XvaeeMFFO57V3mPvvfuWne/ZS5et0G233+fUbaHShE/HqVmzBJ8FWNb+ce98qGf/WaJoM9Vuv/V62Yxb+10y6PThzqblFtLccdto56AQa0dZl4VByckpql69qmr987vA9sV6e9yHevX1cc4tzzz1oHOy3mOPP7/zMBGrz5bE2XuovWffffdDWrFqjfP6vQVYl116gS69+HznNfaeO2Lk5c5m6bVq1tQtN12jk0/e9wm5NjvP9i+05YDW1z0O7uacrGv9W3rZqb2PP/G8Rpx3rk48oY8mTvpTDzz0hDZv3uoc5PHUE2Mci8LCIj39zEvO0vpdZ2BZSHbjzXc7pzJaiHTeeUOdNpfujWg21vbSZebeBljZ2bk6uf+Zzuxim01ngZqdNszBIfv7k8frEEAAgcAKEGAF1pvaEEDADwL/FWDZP4ZvuPkuTZz4p1N7q5bNdc7QM1S7Vk298db7zsbD9o9VO7L7tpuvkx1pbyFQaYBl9zRt0sj5h3Od2rX1ww+/6tffJzlBi33A+uDd15xZA2Vd+wqw7PVr1yXq3OEXOx8QbXnI9dde5iwR2duHm9I69hVgWbtGXHClFi1a4szAGnxaf2eJon3z/cTTLzkbLtu1twDL/q57t64aevZgFRUVOhtCz1+w2LknIaGJPv3obWfT3rS0jXrgnxO07O9uu+U69e93ojPrwTZr/urr73d8M1+vrrPkxfb5yc3LdZbFWPsfeuBO50OxBYEW5DVp3FBXXXmxc3KYHXl+z32POktnLISzQM324eFCIFwE/BVg2X5ydmiFLeG1GSO33XK9cwpbs4Qmzs9iWdfeAiwLBp559mV99MkXzvudzR61ZXM2A8vqsFmZdp199ukaMfxsWVBkhz1YCGLXrgHW+vVJuuW2+533W/uywMKWgf1PdIKI1q1bOhu/33zLPc5Sb1uWbe9ZAwacpJjoaM2cNUd/TpvpzI7p1q3LXsMFO2HV3lusrd27d9U5Zw2WIiP05pvvOW1yvijoc6QTwlu9bpYQ7joDy57VgpQzzx7pnLJoZY+68H8aef4wZ0nguHfGO8vg7HeRzTq1w0L6HN3bucdmAK1es1aXjDrf2ZzcTr678pqbVLduHWc5px08kpWVrfvGPOYssbMZWHYQiQWJ4z/63FnKbs9rs5OsD2zzMFsWZ3uYlV67Blg2w+nV1992ZjnZ0r2777xRjRo1dF561TU3O0v4bAbyEUcc6szeswDOfh/Ye35Z18KFSzT6pjudTfytHRZe2Yl9tlzdlrDbJuw2y9h+L7z1xgvOXmEPPvSk1iftCOkeffheZ9nhx59+KTscxYIk+/1XOgPLynz4kWf0+RffOH72/P1POcEJv9YnJWvcu+OdZZt2umNsTIy8DbCsrgcfesop3wK5hKZNdMVlF+qgbp2VvjVDP/70245TiS8+3/k3AxcCCCCAQHAFCLCC60/tCCDgA4H/CrCsiqSkFN12x/1atnyl8w/yXS/7B6wtdbv8sgucDXLtQ86uAZYt7bA/s2+Id71q1qjuLBO5YOTwvT7FfwVYduPYse/o5dfedv7xbEtM7Jt0C9H2df3XEsJ33h2vF156w/mH966X/QPcNqa1TXT3FmBZkGYfIna/15a32Ka6Rx91uFOkvebxJ593TjW0DxY2U8pOKTv5pOOcD09jHnxSNvtt93LsXvsQZ8t4bCaCzeSwzZftxERztg9/ZmH/Z7MJTj7pWOdDuM3m4kIgXAT8FWAtXbpc9z3wuJYvX/kvKguYzxg8sMzld3sLsKyARYuXyfaXsjDZ3ivtRNYjjzzMCSbsIAt7Lym97OfXgh17P7Ble7sGWLZP1pNPvaBPPvvqX+/B3Q/qokcfvVd169R2Qp4vvvxu54bouz6ALZOzzdnPHbr3mVk2Y+ze+x5zlu3t/j5vp7/aUjXb+8j2UrLLlwGWlWdhvFlZ8Gcz0u67+xZnNo9ZPPTo07IDQ0oP0dj12WyfQtv/6ti+R2nsG+/qg/Gf7Tx90sI++31kl31hcspJx+vqqy52giLb/P6Kq29ScvL/hVX2Ogt57MuW1LQ0py27BlgWyDz51IvatHmL058nHt/HWfpnfWUB0gMPPeUEa6WXuX360Vt7PfnPwkzbe8yCpNLDQnb/GbXwyoJHm31m9Tz19EvOTCwbJ7vWY19o2Ml/9t5fGmDZ39vywTvvfsg54dKCt90vC0DvufMmZ4+2AwmwbMab/b6y36v2PLtfFrDZ7MNOnTqEy9sPz4EAAgiErAABVsh2HQ1HAIFSAVsqYx+mxo//3PmjoUMHO6c17X7ZP64/+mSCFixcoi2bt8pOtqpWrYoz48dCF5vhU7q3yq4Bls1iOOrIw7RixRpZIGWBln27bB82bLZU6VHtZfWIfbiz5TwzZ81z/vqB+2/feTx86evtA83d9z7sfINt33Lbt/PWln3NwrLlObakxD642LfYzz3zyL+qt9kXY998V39Nn+UcUx4dE63mzRKcDyspqWmaPn222rdrrREjznGWTdiHnEsvH+2cdmXfytuJT7NmzVXW9u3ObImWLZpr0MCTnGUr9oGm9LKlIza7YM3aRNmeVvaN/amn9nP+OmVDqjN7y7xttlZBfoHzfDZToOch3Z1liHaqlD3Dz7/+oRkz5jjBl32AsDotELPljPZBpokXJzTyk4FAKAjY0mELa2z2pe19Zz/3u14288SW1D3/wljnjwf0P1GDT7cAKkqrVq1xTqlLTd2kFi0SnOVypZeFAhZSTPjiW23cuNkJP+IrxTtLne3+spbl3f/A41q9ep1q1aqhYecOcYL0Xd+fPp/w9T9Lpm0GazPdeceNTsDy5dffO/vVbdy02Xm/sg3Kjzv2aGcfLJu1ac/w9JMPOD/LdtkSPnvfWrx4qbN/YIQinLDe9tSz5d3bsrL0w4+/yU55tVDBXhMVGeVsft65UwedeEJfJxDa20l3FpItWbLMORnPZpza+68F9nXq1HL2jBo44GRnWd/O5Wf5+c6+WL//PsVp37VXX+IsZd7bZe9Pr742zgmOqlatrLvvvPlf+yKZ/UMPP6VVq9c5RZx5xkD1O2XHLLO0jRv17bc/OYdU2HLCnNw85/3QvhjodlAXZ/8lOxHW2vzTL79r2rSZSlyf7Cxzj46KdkJ/C4FsRm3LljtOg7T3betre97UDWlOIGS/r2x2ks2W/f6HX7R1a4ZuuP5yde3a2WmTjYm33/nQ2VcrJyfX2bPq/ntvdd5z7b/ttMZJk6Y5/WtBkoVhd91x484N/MuysTE2e858/f77ZGcJeWZm1o5xFx/vLCvv0eMgnX7aAGefLBsTs2bN08effuHMisvLzXNCTzPo3r2L0/+296GNo//ZjLJ/LjsR8+NPJmje/MXauGmTE2TZ7DabMWV7f9kXHTbObKbamjWJTrvtkJDDD++5sww70dC+cLHLTky0rQTM0dpkS+6/+fYnJySzcM9+X9nPjf1+7HlINw3of7IzG5gLAQQQQCC4AgRYwfWndgQQ8IGA/ePTliXYt7R22dIL+ya3rMs+DNiHAnu9p8TjhE+2bKP0A1bpPbsGWLb05tGH71FERKTz4SIqOlL16tZ1Qqy9LasoLcdmAdjeW9u3b3f+yD6s7RoAlb7Owp7s7dnOf9auU9tZqrCvPThs9tPGjfaP+ALnw1FZSxjzCwq0YsUqZylRdFSUcyqW7Wtlm6vbc1SqVMnZg8aewT6o2Idiq9P+zIKs1WsSnVlR1t7GjRo6H4xKP/iVtttCQNujxII9u9cs7QNZ6WWzryw43LI13ZmJZWXZBzH7oGszKkovq982KzYreyZ7nS17suWeZXn5YNhQBAJBFbCfQfu58JSUqEaNGmVuEG0/uxs2pDrttP2QLIixnzObIWN78dnPlO0ZZT93u17282ShckZ6hmyGalxsrBo3aeQECGUF47a8z4I0C4ZsmaF9+N/1svdL+1Avj8VBcoJna4cFHrYXnj2LlWv7Bdp7jIUfznusx+O8N+36vmF/bu8JObm5tshQNpO1Vav/+zm398y0jZu0MW2TbPNvK7dWzRpOiL17u8rqQKvTZjzZrFsLxKzN5muHbdh7yr+cPB7n90Zmxo5l1Ra27Ou0U3tvMncL2SOjopwN3HcP0+y90J7RrqrVqqpB/frO+6lddr8tMbQldRY+2XugzaSy5dMW9pReZmChYFrqRuXl5zt+tuG52e5uYG2xLwGsTOt3+93XskUzZwaahVU2RuzZ7f2+9LJntn4r3dusXdvWO/vIZhqvWLnj94aNzUqVKzvvw/tjb/fYsj77X2dsxsaqbr06zu9KWwpaelkfWYhnFvZ7ysq23wmVq1RWclKKs/TcfidbcLnrZX7r16doa3q6igqLFBsX6/zcWMhUOq7tufLzdvSPhaK79rn97rMZXnbVb1DPMd31sn8f2H6Y6RkZzoxrC3utDPvd+V+/64P6ZkLlCCCAQAUSIMCqQJ3NoyKAwP4L7Bpg2T/+bdmMfWjjQgABBBBAAAEEEEAAAQQQCLwAAVbgzakRAQRCQIAAKwQ6iSYigAACCCCAAAIIIIBAhREgwKowXc2DIoCANwIWYF12xQ3O/k12AuETj49Rm9YtvSmC1yKAAAIIIIAAAggggAACCPhIgADLR5AUgwAC4SVge3B8OP5TJSenqmbN6jrzjEF7PYI+vJ6cp0EAAQQQQAABBBBAAAEEyp8AAVb56xNahAACCCCAAAIIIIAAAggggAACCCCwiwABFsMBAQQQQAABBBBAAAEEEEAAAQQQQKBcCxBglevuoXEIIIAAAggggAACCCCAAAIIIIAAAgRYjAEEEEAAAQQQQAABBBBAAAEEEEAAgXItQIBVrruHxiGAAAIIIIAAAggggAACCCCAAAIIEGAxBhBAAAEEEEAAAQQQQAABBBBAAAEEyrUAAVa57h4ahwACCCCAAAIIIIAAAggggAACCCBAgMUYQAABBBBAAAEEEEAAAQQQQAABBBAo1wIEWOW6e2gcAggggAACCCCAAAIIIIAAAggggAABFmMAAQQQQAABBBBAAAEEEEAAAQQQQKBcCxBglevuoXEIIIAAAggggAACCCCAAAIIIIAAAgRYjAEEEEAAAQQQQAABBBBAAAEEEEAAgXItQIBVrruHxiGAAAIIIIAAAggggAACCCCAAAIIEGAxBhBAAAEEEEAAAQQQQAABBBBAAAEEyrUAAVa57h4ahwACCCCAAAIIIIAAAggggAACCCBAgMUYQAABBPZDwOPxqLjEsx+v5CUIIFBRBKIiIxURUf6f1t6/Sko8Ss0qUk5BiZrVilFUZAg0vPzT0kIEQlLAfvojQ+T9KySBaTQCCPhNgADLb7QUjAAC/hSwD2MbN21RyoaNatGssWrXrin7kJa4PlXJKamqUb2a2rVtoaioKK1P2qDklI2qUaOqOrZv5fyjzdursKhE+QVF3t7G6xFAIIwFKsfHKPIAgiB7r8rIzFJycprq1KmpRg3rOUqbN6drzbpk532rS6c2iomJ1patmVq9Zr1iY2PUuWNrxcTEeC1aXFyi/MJijfl+gxak5Oq5IU3VoJr35XhdMTcggEC5FLD3rbjYaILsctk7NAoBBPYlQIDF+EAAgZAUKCgo1Jx5SzR9xgKdcNwR6typjVLTNmvqtLlq1rSh1qxNVscOrZ0PhzNmLVTD+nW0YtU69Tqkqzq0b+n1M5f8M4PB6xu5AQEEwlbgQGdgFRUXa8WKtc77VaeObdT78O7avj1Hf82Y7wTs6RnbVK9uLR1ycGf9+dc8RUREKHNblpolNFKvQ7p47Vk6A2vkO2v0xbx0/Xxte/VsXsXrcrgBAQTCQ4AZWOHRjzwFAhVRgACrIvY6z4xAGAjYB7L8/AK9/e4X6n34wTqoaztNn7nAmdXQ95heWr0qSYuWrFCzZo2UlZWtI4/ooSVLV2rl6kQNHdIvDAR4BAQQCFUBe/8qLCzSdz9OUp06tXR07x5an5Sq2XMWq/cR3VVYUKz3P/pGI4afqomTZ+n4vodpa3qmfvltmq649NwDfuwbPl2vVyanacKlbXVSpxoHXA43IoAAAggggAACwRAgwAqGOnUigIDPBF574xMdfmg3J8D69Y/pqhwfq0N7dVPW9mx99c1vatyovqpXr+rMZNi0aau++X6iRl1wps/qpyAEEEDgQAW++W6iataspqN699Cq1eu1aPHfOv7Yw1W5ciU99NhrOvvMU7Rg0d8a1L+vcnLy9OobH+vWG0cdaHV67vc03fL5er00rLkuOGLHskUuBBBAAAEEEEAgVAQIsEKlp2gnAgiUKbBrgPXbH9MVFxfrBFqZmVlOWNW4cX1Vq1JZPQ/prNS0Lfrhpym6aOQZaCKAAAJBF9g1wFq9er0WLFqh4489TJUqxeuRJ17X2UP6acGC5RrYv4+yc/I09q1PdcsNFx1wu7+Yn66hr6/U3QOa6I5+jQ+4HG5EAAEEEEAAAQSCIUCAFQx16kQAAZ8J7Bpg2fKbtE1bdOJxvbV02WqtWp2ohIRG2ro1Q8cc1VNz5y9VaupmDT7tBJ/VT0EIIIDAgQrsGmDZQRMzZy3UEYd3V25uvr746hedO3SAJk2epT7H9HI2eP/zr7kadcGQA61OU1dv17FPLtWVxzbQ00OaHXA53IgAAggggAACCARDgAArGOrUiQACrgVsw/ZFi1do7vxlatigjrp1ba8mjRvoj0kzFF8p3gmtDu15kGrVqq6pf85RdEy0s4Tw2D6HqWWLJq7rpwAEEEDgQAW2ZW3XosUrNW/+MsXFxahly6Y6vFc3ZxN328fPNnTv0L6VunZu42zibpu65+bmqftBHdW1S9sDrVarN+er3d3zdU6vOnrvgtYHXA43IoAAAggggAACwRAgwAqGOnUigIBrAZuhYB/qSkqKJUWoSuV41axZ3fmzLVsyVLVqZdWrW9s54j4jI0tb0jOdpYT16tVWVFSk6/opAAEEEDhQAdvA3d6rCgoKnPcve09q2KCusrNztWnzVkVHR6tBgzqKiY7W9uxcZ/ZVTEy0GtSv4/zvgV4FRR7FXz1Tx3eorp+v7XCgxXAfAggggAACCCAQFAECrKCwUykCCPhTwOORIuyM6F0uj/MxkQsBBBCo2ALNb5+nRjVi9d1V7VW7SlTFxuDpEUAAAQQQQCCkBAiwQqq7aCwCCCCAAAIIIHDgAoc8vEgW8k+4rK2a14478IK4EwEEEEAAAQQQCLAAAVaAwakOAQQQQAABBBAIlsDZr6/U/KQcvXV+K/VuVTVYzaBeBBBAAAEEEEDAawECLK/JuAEBBBBAAAEEEAhNgdGfJmrC3HS9dG4L9etSIzQfglYjgAACCCCAQIUUIMCqkN3OQyOAAAIIIIBARRR46tdUPfHzBj05pLnO7Vm7IhLwzAgggAACCCAQogIEWCHacTQbAQSCI2CbwWfkFCttW6HPGxATFaEG1WNUNY5TEn2OS4EIIOAIvDdjs675KFFjBjXRlX0boIIAAggggAACCISMAAFWyHQVDUUAgfIi8OX8dNk+MoXFFmf57jqsZVW9OryFDmpS2XeFUhICCCCwi8CilFwd+vBi3XxyI907sAk2CCCAAAIIIIBAyAgQYIVMV9FQBBAoLwIwyj4TAAAgAElEQVRf/RNgFRBglZcuoR0IILCfAimZhWp15zxn9tXjZzRTZMR+3sjLEEAAAQQQQACBIAsQYAW5A6geAQRCT4AAK/T6jBYjgMAOgW15xWp553wN7l5Lzw9trkoxLFlmbCCAAAIIIIBAaAgQYIVGP9FKBBAoRwIEWOWoM2gKAgh4JbA9v1i9Hl6ibk0r64Vzmqtu1Wiv7ufFCCCAAAIIIIBAsAQIsIIlT70IIBCyAgRYIdt1NByBCi+QU1Ci015eoahI6cVzW6h13bgKbwIAAggggAACCISGAAFWaPQTrUQAgXIkQIBVjjqDpiCAgFcCeYUlGvH2auck1ZfObaHOjSt5dT8vRgABBBBAAAEEgiVAgBUseepFAIGQFSDACtmuo+EIVHiBgiKPbp6wXn8s36aXh7XQEa2qVngTABBAAAEEEEAgNAQIsEKjn2glAgiUIwECrHLUGTQFAQS8Eigs9uiRHzfo3b8265XhLXRc++pe3c+LEUAAAQQQQACBYAkQYAVLnnoRQCBkBQiwQrbraDgC5VagpKREySkbtXZdiipXjtdBXdopOjpKmzana+WqRMXGxjh/Zv/r5iou8eid6Vt0y+eJenV4S+c0Qi4EEEAAAQQQQCAUBAiwQqGXaCMCCJQrAQKsctUdNAaBsBDYtGmrpk2fr/r16yg5OVUN6tdV9+4dNHXaXMVExygjI1ONmzTQ4b0OcvW8Ho/0zcIMnTN2pV77X0sNP7SOq/K4GQEEEEAAAQQQCJQAAVagpKkHAQTCRoAAK2y6kgdBoNwIrFqdqAUL/9YJxx2hzG3b9eHH3+m8YYM0cfJMnXDsEUrP2KYffp6iqy4b5rrNU1dt10nPLdNjgxN02TH1FRUZ4bpMCkAAAQQQQAABBPwtQIDlb2HKRwCBsBMIRoA1Y222Ppi5RVn5xT71rBoXqTv7NVG9qtE+LZfCEEDAO4F1iSn68695OvKIg5Waukk//fqnhp8zULPnLtGg/n2Vk5OnV9/4WLfeOMq7giUVF5cov7BYJSUe594563M0ZOxqXXhEHY0+roEqx0Z6XSY3IIBA6ApERkYoLjaa8Dp0u5CWI1BhBQiwKmzX8+AIIHCgAsEIsD6fm64rPlyrjVmFB9rsMu9rUitWU2/spGa1Y31aLoUhgIB3Anl5+Zq3YJlWr0lSjRpVNX/Bcv3v3EGaMXOBBvbvq+ycXL3x1me6+YaLvCtYcoKrwqJi/ZNfafXmfF3+4To1rhGjRwc3Vf1q7vbV8rpB3IAAAkEVsEmXMdFRsiCLCwEEEAglAQKsUOot2ooAAuVCgACrXHQDjUAgrASKiopVWFik2NhozVuwXPMXLHOCq4mTZuqYo3tq8+Z0TZ8xXxeOPNP1c1sQfvPn67UoJVfjR7VWm3rxrsukAAQQQAABBBBAwN8CBFj+FqZ8BBAIOwECrLDrUh4IgaAL2B5Xs2Yv0vbtOcranqOjjzxEDRvU1bTp82QbvOflF6hnj87q3KmN67bmFZbo0R836IlfNuinazroiFZVXZdJAQgggAACCCCAgL8FCLD8LUz5CCAQdgIEWGHXpTwQAkEXsBlYFmJlZ+eoSpXKqlOnpmxxT25unrZszVRMTLTq1qml6Ogo1221nbDenLpJ1368Tm+OaKWzetRWBCuJXLtSAAIIIIAAAgj4V4AAy7++lI4AAmEoQIAVhp3KIyFQwQR+WbZNV364VgO71tJjZzRlM+cK1v88LgIIIIAAAqEoQIAVir1GmxFAIKgCFSXAsg2ft2YX+cW6enyUYqOZ8uEXXApFYD8ElmzI1WUfrFV8TKS+u6qdotnMeT/UeAkCCCCAAAIIBFOAACuY+tSNAAIhKVBRAqzt+SXOyYf+WFp084mN1LlxpZDsfxqNQDgIZOYW65L312jyyiytuL+bqsRGhsNj8QwIIIAAAgggEMYCBFhh3Lk8GgII+EegogRY9gG31ujZfkGcdGMnHdWajaP9gkuhCOyHQHGJRzd9vl4v/pGmGbd2VremlffjLl6CAAIIIIAAAggET4AAK3j21IwAAiEqQIDlvuMIsNwbUgICbgVenrRRd36ZpIdPT9AlR9dzWxz3I4AAAggggAACfhUgwPIrL4UjgEA4ChBgue9VAiz3hpSAgFsBWz54/turdWz76nrjvJZui+N+BBBAAAEEEEDArwIEWH7lpXAEEAhHAQIs971KgOXekBIQcCuQklmofs8vV3pOkdY92N0v+925bSP3I4AAAggggAACpQIEWIwFBBBAwEsBAiwvwcp4OQGWe0NKQMAXAv1f/Fs/LspQ0iMHq1GNGF8USRkIIIAAAggggIBfBAiw/MJKoQggEM4CBFjue5cAy70hJSDgC4EbP0vUM7+m6psr2+uUzjV8USRlIIAAAggggAACfhEgwPILK4UigEA4CxBgue9dAiz3hpSAgC8Exs/aovPeWq0xpzbVrSc38kWRlIEAAggggAACCPhFgADLL6wUigAC4SxAgOW+dwmw3BtSAgK+EFizOV8d7l2gkzvV0FdXtPNFkZSBAAIIIIAAAgj4RYAAyy+sFIoAAuEsQIDlvncJsNwbUgICvhJodMtc1agUpVm3dVHVuEhfFUs5CCCAAAIIIICATwUIsHzKSWEIIBBsgaKiYuXl5ys6Kkrx8XFOc+zP8vMLFBsbo5iYaNdNJMByTSgCLPeGlICArwROe3mF5iRm6+OL2+iIVlV9VSzlIIAAAggggAACPhUgwPIpJ4UhgEAwBSykWrx0pbZty1ZJSYm6dmmn6tWqaOmyVdqasU1REZHqeUgXValSyVUzCbBc8Tk3E2C5N6QEBHwl8PAPKXrql1Q9O7S5hvWq46tiKQcBBBBAAAEEEPCpAAGWTzkpDAEEgimQuH6D/po+Xz0O7qRVqxMVERGhVi0TtGDhcnXo0EoLFv6tFs0a6/DDurlqJgGWKz4CLPd8lICATwWmrd6u455eqqv6NtTjZyb4tGwKQwABBBBAAAEEfCVAgOUrScpBAIGgCyQlp2nipJnqc0wvWZiVnZ2jqlWrqKiwyAmt1qxN0oxZC/W/cwd53dai4hIVFpVIHo++WZSp895eo4Jij9fl7OuGXs2r6Pmzm6lr4/g9XvbFggxd98l6bdpe5NM6G9eM1W/XtlNCzZg9ys3MK1bj2xb4tL7Swn6+pp16t6yyR9mFxR5l5ZdIET6u1iPFxUSoSsye+/vkF3mUW1iiEh9XacXFREaoGnsK+UG2fBQZFxetyAhfD9bAP1teoUf1bpqjkzpW17iRrdkHK/BdQI0IIIAAAgggsB8CBFj7gcRLEEAgNATyCwo14ctftC4xRbEx0Trn7P5asXKdKleKd2Zlbd6Sri+/+V0XXzDE6wey8Cq/YEd49O3iTI0Yt1YWtvjy6tW8sp4dkqAujfdc4vjlggyN/izJDwFWjH6+qq0SasXuGWDlFinhzkW+fMSdZf1wVRv1brnnXjvL0/J0/WdJmp+c49N661SJ1l2nNNJZPWrtUW7qtkKdN26tlqTm+rROK+yVc5ppUNeaPi+XAsuHQOX4GEVGhn6AZZq9HlmsSjGReuO8lmpbf88QvXyI0woEEEAAAQQQqMgCBFgVufd5dgTCTMBmV6WnZ+qo3j302x/Tnc3b69atpaioKB3as6uSUtL0x8QZGnne6a6enCWErvicm/e2B9biDbm6cNxqzVyX7b6SXUqoVy1Gj5+RoBGH192j3JTMQg18YbnmJfk2NLOKbFPsIT1ql/ksOQUlKvH4NgS1iqIjIxRfxkwzn4JSmF8ECgoLlZdXIMmjKpUrOe9dhYVFys3Ld2Z62f59tjTaH9cl763RH39n6flzmuvkTjX8UQVlIoAAAggggAACrgQIsFzxcTMCCJQngUlTZqm4uETdD+qgjZu2avacxWrfvqVSUjbqkB6dNH/h34qOitSJx/d21WwCLFd8BFj/8D3+c6qS0vPdY+5WwlGtq+msQ8oOzXxeGQX6TMAOoZg7f5mz1LmgoFBdO7dVl85tNW/Bcq1cuU4eeXT0kYeoWUIjn9W5a0Hj/tqs0Z8kOntgXdi7nl/qoFAEEEAAAQQQQMCNAAGWGz3uRQCBciWQmrpJCxevUExMjHJz89S0SUO1aN5Ys+ctUUF+obJzcnX0kT1Ut86ey8i8eRACLG+0yn4tM7Ckvk8t06QV29xj7lbCTSc10qOD2Yjb57B+LnDr1kxN+XOOOnVsrdzcfE2eOktnn3mKfp80Q70O6aKNG7fq75VrD2gPv/1p+sy12erz1FLddkpj3XpyI8VE+Wem1/60hdcggAACCCCAAAJlCRBgMS4QQCCsBLZlbVd2dq5iY2NUs0Y1ZwmO/XfW9mxVio9TjRrVXD8vAZZrQpYQigDL/SgKrxIsdJ82fb5ycnbsxRYbE+PMwJr611wNOKWPtmfnaNx7X+im6y/0+sFLSjzOIRSefSxZXbe1QKe+skKHNq+qh05ronpVo72uhxsQQCA0BGwpckx0ZNjs4Rca6rQSAQR8IUCA5QtFykAAgQolQIDlvruZgUWA5X4UhVcJ27fnaNLU2c7pqcnJaerRvZNatUrQ9BnzNXBAX2dW1iuvf6Rbbxzl9YPb0ur8wmJZkLW3a2t2kW6akKzkzEI9d1ZTtWMjd6+duQGBUBGwwyfiYqMVFSaHUISKO+1EAAH3AgRY7g0pAQEEKpgAAZb7DifAIsByP4rCq4TVa9Y7S6CP73u4cnLz9NobH2vY0IGaOXuhTjnpaGVmZumzCT/p+mvO98uDb88v1pjvUvTJ7K16/6LWOqKMU0L9UjGFIoAAAggggAAC+ylAgLWfULwMAQQQKBUgwHI/FgiwCLDcj6LwKiEpOU2zZi9y9sCyGVM///anzj17gDMDq0GDutq0aavi4+J03LGH+eXBbXLWBzO36LL312j8qDYa0KWm/HTgoV/aT6EIIIAAAgggEP4CBFjh38c8IQII+FiAAMs9KAFW4AOs4hKPtuUVq6Bo78vIDrRn42MiVS0+SqxGOVBBOScPLl+x1jk1tbi4WO3atlSrlk20LjFFS5evUUx0tA4/tJuqVat84JX8x50/L83U+eNW64YTGunqvg0UG81G7n7DpmAEEEAAAQQQ8FqAAMtrMm5AAIGKLkCA5X4EEGAFPsDKyivW+zO26Kelme47cLcSTupUQxf2rqdYTq5zbVtUVKTISNtcOXJnWUXFxTv+zM9TouYn5ejyD9aqTf14vXBOc1WPj3L9PBSAAAIIIIAAAgj4SoAAy1eSlIMAAhVGgADLfVcTYAU+wErPKdbdXyfpxT/S3HfgbiVc3qe+nj6rOQGWz2UDW+CGzEJd/8k6rd6cr++uaq+6nEQY2A6gNgQQQAABBBDYpwABFgMEAQQQ8FKAAMtLsDJeToBFgOV+FFGCrwUKij26bcJ6jZ26SUvvPUiNa8T4ugrKQwABBBBAAAEEDliAAOuA6bgRAQQqqgABlvueJ8AiwHI/iijBHwLP/paqu75Kdk4iHNS1pj+qoEwEEEAAAQQQQOCABAiwDoiNmxBAoCILEGC5730CLAIs96OIEvwh8O2iDF09fp1GHlFXdw9o4o8qKBMBBBBAAAEEEDggAQKsA2LjJgQQqMgCBFjue58AiwDL/SiiBH8ILEjO1QXjVqtetWj9cHV7f1RBmQgggAACCCCAwAEJEGAdEBs3IYBARRYgwHLf+wRYBFjuRxEl+EMgI7dYZ766QrPWZWvDowercuz/nYboj/ooEwEEEEAAAQQQ2F8BAqz9leJ1CCCAwD8CBFjuhwIBFgGW+1FECf4Q8HikC95ZrfdnbNGCu7qoY8NK/qiGMhFAAAEEEEAAAa8FCLC8JuMGBBCo6AIEWO5HAAEWAZb7UUQJ/hJ47vc03fHFej16RjNd0ae+v6qhXAQQQAABBBBAwCsBAiyvuHgxAgggIBFguR8FBFgEWO5HESX4S+CXZds09PWVGtC1pt4Z2cpf1VAuAggggAACCCDglQABlldcvBgBBBAgwPLFGCDAIsDyxTiiDP8IpG4rVI8HF6lKXJSW3NNVMVER/qmIUhFAAAEEEEAAAS8ECLC8wOKlCCCAgAkwA8v9OCDAIsByP4oowV8CRSUeHfn4Eq1Iy9Os27uoVd04f1VFuQgggAACCCCAwH4LEGDtNxUvRAABBHYIEGC5HwkEWARY7kcRJfhT4KbP1+uVSWkaf1EbZykhFwIIIIAAAgggEGwBAqxg9wD1I4BAyAkQYLnvMgIsAiz3o4gS/CnwyZytGvHWat1/alPddGJDf1ZF2QgggAACCCCAwH4JEGDtFxMvQgABBP5PgADL/WggwCLAcj+KKMGfAis35avTfQs0uFstjR/VRhFsg+VPbspGAAEEEEAAgf0QIMDaDyReggACCOwqQIDlfjwQYBFguR9FlOBvgRZ3zFeTmjH6+op2ql0l2t/VUT4CCCCAAAIIILBPAQIsBggCCCDgpQABlpdgZbycAIsAy/0oogR/Cwx5baWWp+Zq3MjW6tGssr+ro3wEEEAAAQQQQIAAizGAAAII+FKAAMu9JgEWAZb7UUQJ/hZ45McNev73VD05pLnO6Vnb39VRPgIIIIAAAgggQIDFGEAAAQR8KUCA5V6TAIsAy/0oCq8SsrNzlJSUqhKP558Hi1Cb1s1UWFikdetTVKVSJSUkNFREADejmrE2W8c9vVR39Gus205pHF7gPA0CCCCAAAIIhJwASwhDrstoMAIIBFuAAMt9DxBgEWC5H0XhVUJq6mZNmTpbJZ4SpadnKXNbli4aeaZmzFqoremZysjI0tFHHaKDurQL2IOn5xSp1Z0LnNlXT5/VTPExkQGrm4oQQAABBBBAAIHdBQiwGBMIIICAlwIEWF6ClfFyAiwCLPejKDxLKCgo1Nff/qG2bZqrYYM6mjhllvoec6i2bMnQ5D9n6+ILhnj94Dapy5nZtXN21/4VkZVfon4v/K2alaL03NnN1Kpu3P7dyKsQQKB8C0REKDIigtNFy3cv0ToEEChDgACLYYEAAgh4KUCA5SUYAVaZYH2fWqZJK7a5x9ythJtOaqRHByfsUW56TrHu/jpJL/6R5vM6L+9TX0+f1VyxURE+L7uiFbhi5TrNnrtEQ4ecopQNGzXtr/ka2L+PcnLyNPatT3XzDRd5TVJcXKL8wmKVlJQuT9y/InILS3Tj58mal5SjZ4Y0Va/mVfbvRl6FAALlWiAyMkJxsdGKiuQ9u1x3FI1DAIE9BAiwGBQIIICAlwIEWF6CEWARYLkfMhWmhB9/mapaNarr0F5dlZySpmnTLcDqq5ycXL3+5qe65QACLI/Ho2ILr7zLr1RU4tHrUzfr3m+S9OqwFjq9W60K0w88KAJhLRAhJ7wK5J56Ye3JwyGAQMAECLACRk1FCCAQLgIEWO57kiWELCF0P4rCrwRbPvj5l7/oqN491LRJA6WlbdHEKTN1/LGHKz19m375bZouu3hoQB/81+XbdOqLf+uh0xN0RZ/6imGWXUD9qQwBBBBAAAEE/k+AAIvRgAACCHgpQIDlJVgZLyfAIsByP4rCr4T0jG3O/lf9TzladevUUnZ2rn6fON05iXDzlgx1P6iDevXsEtAHX5ico+FvrtKx7avr/kFNVaNSVEDrpzIEEEAAAQQQQKBUgACLsYAAAgh4KUCA5SUYAVaZYOyB5X4chVsJubn5Wp+0Qc2aNVZ8XKzzeHb64N8r1qpSpTh17tRGkZGBPQlw9eZ8XfbBWhUVezRuZCsl1NrRLi4EEEAAAQQQQCDQAgRYgRanPgQQCHkBAiz3XcgMLGZguR9FlBAIgYzcYt31VZLsfe/HazqoQ8P4QFRLHQgggAACCCCAwB4CBFgMCgQQQMBLAQIsL8HKeDkBFgGW+1FECYEQsI3cn/k1zTnB8oer2+uYttUCUS11IIAAAggggAACBFiMAQQQQMCtAAGWW0GJAIsAy/0oooRACXwyZ6uu+Widbjm5ka49rqEiAlUx9SCAAAIIIIAAArsIMAOL4YAAAgh4KUCA5SVYGS8nwCLAcj+KKCFQArPXZevyD9eqY8NKevv8VoogwQoUPfUggAACCCCAAAEWYwABBBA4cAECrAO3K72TAIsAy/0oooRACazdkq9L3lujTduLNPv2LookwAoUPfUggAACCCCAAAEWYwABBBA4cAECrAO3I8D6PztOIXQ/jighMAKFxR7nJMKPZ29V6qMHq0pcYE9CDMxTUgsCCCCAAAIIlHcBlhCW9x6ifQggUO4ECLDcdwkzsJiB5X4UUUIgBR75cYMe+j5FX1/ZTn3YyD2Q9NSFAAIIIIAAAv8IEGAxFBBAAAEvBQiwvAQr4+UEWARY7kcRJQRS4Iv56brig7W69Oj6umdgk0BWTV0IIIAAAggggIAjQIDFQEAAgbASWLsuWZOnzpGnpESHHNJFHdq11Jx5S7Rw0Qo1alRXJx7XW9HRUa6emQDLFZ9zMwEWAZb7UUQJgRRYmJyrM15dofrVozX1xk6BrJq6EEAAAQQQQAABAizGAAIIhJfApk1b9eW3v6tXjy6qW6emMjKzFBsXqzlzF+vo3ofol9+nqU2b5up9WHdXD06A5YqPAOsfPvbAcj+OKCFwAjkFJer92BIlphdoy5M9xD7ugbOnJgQQQAABBBDYIcAMLEYCAgiEjcDsuYuVmrpZh/TorJiYaFWvVkUzZy9WYWGheh9+sFatXq8ZsxdqxLBTvX5mj8cjj2fHbV8tyNA5Y1eqoPifP/C6tLJvOKxFVb08rLkOalJ5jxd8Pi9dV41fp41ZhT6qbUcxTWrFavLojmpWO3aPcjNyi1X3xjk+ra+0sD9Gd9RRravuUfbiDbm66N01mrUu26f11qsarUfPSNCIw+ruUW5KZoEGvbRC85NyfFqnFTZ+VGudeXDtMj/sH/vMMk1ekeXzOm84saEePT1hj3LTc4p0zzfJemniRp/Xedkx9fXUkGaKjapYsUZkBTuOb+jrK/XJnK2adXsX9UjY833K5wOLAhFAAAEEEEAAgV0ECLAYDgggEDYCEyfN1Lr1Kapfr7ayc3LVonlTZWfnKD4+Tocc3Fk2Q+ub7ydq1AVnev3MhUUlyi8ocu77dnGmRoxbKzuZy5dXr+aV9eyQBHVpXGmPYr9ckKHRnyU5x9j78mpcM0Y/X9VWCbX2DLAyc4uUcOciX1a3s6wfrmqj3i33DLCWpubp8vGJmrPet2FS3arRemBQYw3rWXuP59mQWaghY1drYUquz5913IgWGtytZpnl9ntppaau2u7zOq89tr7GDGy8R7kWSI75YYNen7LZ53WO6l1Hj5zeRLFRFet0usrxMapIIdZTv6bqps8S9dzQFrqyT32fjyMKRAABBBBAAAEE9iVAgMX4QACBsBGYNGWWNm1K13HHHuaEVdNnLlCjhvVVqVKcDut1kJKSU/X7xBm6YMRgr5+5pMSj4pIS576vF2Rq2JurfD4D69AWVfTSOc3VtcmeAdaEeRm65mObgeXrACtWE69vX+YMrMzcYtW/eZ7XVvtzw2/XtdeRZczAWrIhTxe/v9YvM7AePr2pzjuszh7NS8ks1Okvr9T8ZN+GZlbRBxe20hndaymijIlJJzz7tyav9P0MrNEnNNTDp+25yXZGTrHu/TZFL0/y/QysS4+upyfOSFBsdMWagRUdFamIsjp3f34IQvA1vyzbppOfW6aLjqyv14a3CMEnoMkIIIAAAgggEMoCBFih3Hu0HQEE/iWweMlKLV2+WgP79VXi+g2aOXuhOnVsreTkNB3b5zBNmTrb+bB50olHupJjDyxXfM7NbOLOJu7uRxElBFogLatITW6Zox7Nqjg/w/EVLLAMtDf1IYAAAggggMC/BQiwGBEIIBA2AgUFhfrx56latWa9M+Pl5BOOVELTRvrxl6lauy5FcbHRGn7OINWsWc3VMxNgueIjwPqHj03c3Y8jSgisgC2aPvjBRcotKNEv13Uoc+lxYFtEbQgggAACCCBQkQQIsCpSb/OsCFQQgR37XsUrapf9eGxPrCqV91yadyAkBFgHovbve5iBxQws96OIEoIhcNkHa2Xvga+f11IDupS9v1sw2kWdCCCAAAIIIBD+AgRY4d/HPCECCPhYgADLPSgBFgGW+1FECcEQeH/GFl3x4VrdM6CJbL81LgQQQAABBBBAIFACBFiBkqYeBBAIGwECLPddSYBFgOV+FIVfCR6PR+kZ25Sbm6+6dWoqLi5WhYWFSs/IUkxMtGrWqBb0TePXbslX5/sXalivOnp5WAtFR1asjfvDb9TxRAgggAACCISOAAFW6PQVLUUAgXIiQIDlviMIsAiw3I+i8CrBTjpdsXKdFi1eoZiYKHk8Uv9Tjtb8hcuVlJym/PxCHXnEwWrapEFQH7yw2KO29yxQl0aV9OaIVqpfLTqo7aFyBBBAAAEEEKg4AgRYFaeveVIEEPCRAAGWe0gCLAIs96MovEqwmVdTps5Rq5ZN1SyhkfLy8xUZEak/Js9U94M6aOPmrUpMTNHQIf2C/uBnv75SiVsL9MrwFuretHLQ20MDEEAAAQQQQKBiCBBgVYx+5ikRQMCHAgRY7jEJsAiw3I+i8Cohcf0GzZqzWO3aNHeWC7ZqmaBNm7dq6p9zNaBfH9nhFG+/94Vuuv5Crx+8uLhE+YXFsllevrie+CVN78zYoicGN9VJHav7okjKQACBAApERkY4JzNHsQQ4gOpUhQACvhAgwPKFImUggECFEiDAct/dBFgEWO5HUXiVsHpNkr7+7g8lNGmgouJiZWZu10kn9Nas2Ys1aEBf5eTm6ZXXP9KtN47y+sEtuCooLJbtseWL64el2zTi7TUaM6iJLjmqrtgFyxeqlIFA4AQiIiMUGx0lC7K4EEAAgVASIMAKpd6irQggUC4ECLDcdwMBFgGW+1EUXiWsS9ygGbMWqM/RvVS5cryeef4dZ7ngvPnLdPJJR7tYrvIAACAASURBVGrbtmx9NuEnXXvVeUF/8OVpeer71FKNPKKu7urfRJVjI4PeJhqAAAIIIIAAAuEvQIAV/n3MEyKAgI8FCLDcgxJgEWC5H0XhVYLtgTV56mzVr1tb0THR+nPaXJ07dICm/jlHDRrU1ZatGYqKjFS/k48O+oOvTy/QsDdWKaFWrJ4c0kyNasQEvU00AAEEEEAAAQTCX4AAK/z7mCdEAAEfCxBguQclwCLAcj+KwquEkpISrU9K1YpViSouKlaH9i3VtGlDJSZucE4njI6OUs8enVW9etWgP/iW7CLd+FmiFiXn6q3zW6lL40pBbxMNQAABBBBAAIHwFyDACv8+5gkRQMDHAgRY7kEJsAiw3I+i8CvB9qgq3Wg9KmrHsrzSP4uIkCIjy8dSvYIij16YmKaHv0/RhMva6qg21cKvM3giBBBAAAEEECh3AgRY5a5LaBACCJR3AQIs9z1EgEWA5X4UUUIwBT6bm67z316lsee10tmH1BZ7QQezN6gbAQQQQACBiiFAgFUx+pmnRAABHwoQYLnHJMAiwHI/iighmAITV2Tp4vfWaGDXmnrwtKaqFFM+ZocF04S6EUAAAQQQQMC/AgRY/vWldAQQCEMBAiz3nUqARYDlfhRRQjAFFm/I1ZUfrlVcdKQ+ubiNqleKCmZzqBsBBBBAAAEEKoAAAVYF6GQeEQEEfCtAgOXekwCLAMv9KKKEYArYRu6jP0nUr8u3ad4dXVS3anQwm0PdCCCAAAIIIFABBAiwKkAn84gIIOBbAQIs954EWARY7kcRJQRTwOOR7vo6SY//tEHTb+ms7gmVg9kc6kYAAQQQQACBCiBAgFUBOplHRAAB3woQYLn3JMAiwHI/iigh2ALv/LVZN3++Xree0kjXHdcw2M2hfgQQQAABBBAIcwECrDDvYB4PAQR8L0CA5d6UAIsAy/0oooRgC/y8NFNXfLhWh7WspvcuaBXs5lA/AggggAACCIS5AAFWmHcwj4cAAr4XIMByb0qARYDlfhRRQrAF1qcX6OzXVyojt1hL7+ka7OZQPwIIIIAAAgiEuQABVph3MI+HAAK+FyDAcm9KgEWA5X4UUUKwBYpLPBo6dpW+XZSh5IcPVu0qnEQY7D6hfgQQQAABBMJZgAArnHuXZ0MAAb8IEGC5ZyXAIsByP4oooTwI3P5Fkp76dYM+u7StBnSpWR6aRBsQQAABBBBAIEwFCLDCtGN5LAQQ8J8AAZZ7WwIsAiz3o4gSyoPA53PTdcE7q51N3O8b1KQ8NIk2IIAAAggggECYChBghWnH8lgIIOA/AQIs97YEWARY7kcRJZQHgaWpeTr6iSU6rGVVfXtlu/LQJNqAAAIIIIAAAmEqQIAVph3LYyGAgP8ECLDc2xJgEWC5H0WUUB4E8oo86nTvAnkkLbyri6rGsQ9WeegX2oAAAggggEA4ChBghWOv8kwIIOBXAQIs97wEWARY7kcRJZQXgSGvrdRvyzP14zUd1Kt5lfLSLNqBAAIIIIAAAmEmQIAVZh3K4yCAgP8FCLDcGxNgEWC5H0WUUF4Envo1Vfd8naQXz2mhEYfXLS/Noh0IIIAAAgggEGYCBFhh1qE8DgII+F+AAMu9MQEWAZb7UUQJ5UVg4oosnfTsMl16TH09d3bz8tIs2oEAAggggAACYSZAgBVmHcrjIICA/wUIsNwbE2ARYLkfReFXQklJiUpKbDcpKSIiQlFRkfJ4PCouLtn53+XxqbPyilXnhjka0LWmPru0rSIjymMraRMCCCCAAAIIhLoAAVao9yDtRwCBgAsQYLknJ8AiwHI/isKrhPz8Aq1ctU5bt2YqMjJStWrVVIf2LbQhdZPWrktRdHSUOndso6pVK5fLBz9ozCLFx0Tow4vaqHW9uHLZRhqFAAIIIIAAAqEtQIAV2v1H6xFAIAgCBFju0QmwCLDcj6LwKiEjM0sTJ89Upbg41a5dQzWqV1ODBnX0x+SZqlatihNs1a5VXcf2OaxcPvhV49fp+8UZzj5Yp3SuUS7bSKMQQAABBBBAILQFCLBCu/9oPQIIBEGAAMs9OgEWAZb7URReJWxNz9TUP+eoTu2aaty4vpo3a6y0jVs0ecpsnXRCb1nA9dW3v+vqy4eXywd/68/NuunzRD14WlNdenT9ctlGGoUAAggggAACoS1AgBXa/UfrEUAgCAIEWO7RCbAIsNyPovAqITNzu/6aMV8eT4k2b85Q/QZ11KlDK02fsVCDBvRVTm6eXnn9I9164yivH7y4xKPCwmKVeHbsr+WPa1Fyrno/uUxX962v+wY0VnQUG2H5w5kyEfCFQGREhGJjohTJhnW+4KQMBBAIoAABVgCxqQoBBMJDgADLfT8SYBFguR9F4VtCatoWvTnuU40YdpqmzZivgf36KjsnV2+O+1w3j77Q6we3TeDzLcD6Z4N4rwvYjxu25hTp2GdX6OCmlfTY6U1Uv1rMftzFSxBAIBgCFlzFxUYrigArGPzUiQACLgQIsFzgcSsCCFRMAQIs9/1OgEWA5X4UhVcJOTl52r49W1WqVFJKykZ99d1EnXfuIE2aMks9D+msLVsytHTZav1v2KBy+eDb8oo1/M3V2pZbpJfObaHOjSuVy3bSKAQQQAABBBAIXQECrNDtO1qOAAJBEiDAcg9PgEWA5X4UhVcJyclpmjNvqRNg2YbtLVo0UdfObTV3/lJt3pKhvNx8Hdy9o1q3SiiXD55XWKIx36Vo/KwtGvu/ljq2ffVy2U4ahQACCCCAAAKhK0CAFbp9R8sRQCBIAgRY7uEJsAiw3I+i8CrBlvllZmYpc9t2xcXGOBu525Wbm69Nm7cqJiZaDRvUVURE+dxbylYnTpiXrpHjVuvlYS00rFcdsTopvMYoT4MAAggggECwBQiwgt0D1I8AAiEnQIDlvssIsAiw3I8iSihvAlNXbdcZr67Q1X0b6IYTG6pSTGR5ayLtQQABBBBAAIEQFiDACuHOo+kIIBAcAQIs9+4EWBUnwHr85w2asWa7fL1/+FFtqunKvg0Uy2l37n8gfVTC0tRcjXp3jdrWj9eTQ5qpTpVoH5VMMQgggAACCCCAgESAxShAAIGwE3BO3MrPV1x8nKIiI1VQUOj8X1RUlOLj4+R2BQ4BlvshQ4BVcQKsi99bo3HTNqvIxwnWyCPq6qVhLRQfzSwf9z+RvikhdVuhbvwsUWs2F2j8qNZKqBXrm4IpBQEEEEAAAQQQEAEWgwABBMJMwOPxaMHC5Zr611ydNvB4Va9eRdP+mq9Nm7bKjo0+8YQjVbdOTVdPTYDlis+5mQCLAMvtKCLAcivo+/sLijx65McUPfNbmibd0FFdOInQ98iUiAACCCCAQAUWYAZWBe58Hh2BcBRI2bBRP/w0RdnZOTp14HHOhsjr1qXoqN49NGPWQpWUlKjfyUe7enQCLFd8BFj/8PV9apkmrdjmHnO3Em46qZEeHbznSXXpOcW6++skvfhHms/rvLxPfT19VvMyl/MxA8vn3OW6wDf+3KQbPknUGyNa6cyDa5XrttI4BBBAAAEEEAgtAQKs0OovWosAAvsQyM7O1Y8/T1HLlk2dsOqUE4/S+qRURUZG6tCeXWXH1P82cbouGDHYa0dbllhYXCJ5pG8WZep/b61WQbHH63L2dUOv5lX0wtBm6lrGrIUv5mfo2k8TtSmryKd1Nq4Zq9+vbVfmUp/MvGI1unW+T+srLeyXa9upd8uqe5S9JDVPl36wVrMTc3xab92q0Xr4tKYa3qv2HuVuyCzU4NdWakFyrk/rtMLeG9lSZ3Qv+0P8SS/8rSkrt/u8zuuPa6AHT22yR7kZucW677sUvTp5k8/rvOSounpscEKZAdblHyXq/elbfL6E8H+H1tbzZzdXXHTwTuWLjY1SpNs1yT7vjeAW+P3iTF09fq3OO6yu7hm45zgMbuuoHQEEEEAAAQRCWYAAK5R7j7YjgMBOAVs6OGPWIm3eslXHHNlT74//Rice31vJKWmqFB+nQ3p01sZN6frmuz806oIzvZYrLCpRfsGO8OjbxZkaMW6tCn0eYFXWs0MSylx28+WCDI3+LEmbtvs6wIrRz1e1LTvAyi1Swp2LvLbanxt+uKpNmQHW0tQ8XT4+UXPW+z7AemBQYw3rWXaANWTsai1M8X2ANW5ECw3uVvaS1X4vrZSd2ubr69pj62vMwMZlBlhjftig16ds9nWVGtW7jh45vYlio/bcj+qqj9fr/ZlbVezjPbCG9aylZ89qFtQAq3J8jLM0mev/BOYn5ejS99fKQuNvrmwHDQIIIIAAAggg4DMBAiyfUVIQAggEU2D79hz9/Ns0/b1irdOM/PwCNWlSX7Vr1VTtWtXV+/CDtWr1es2YtUAjhp/mqqksIXTF59zMHljsgeV2FLEHlltB/9y/LbdYI99ZrRlrsrX+ke4i3vOPM6UigAACCCBQEQUIsCpir/PMCFQAgVff+NhZQmhL/+YvWKaDurbXrNmL1KpVgnod0sWVAAGWKz4CrH/42APL3TgiwHLn58+7r/lonV6dvFHz7uiqjo3i/VkVZSOAAAIIIIBABRIgwKpAnc2jIlCRBCZNnqXOnduoWrUqWrR4hdYnpalqlUo68ogeio93d7Q7AZb7kcQMLGZguR1FBFhuBf13/3O/pzkHBjwyOEGXHV3ffxVRMgIIIIAAAghUKAECrArV3TwsAhVXoLCwSDEx0T4BIMByz0iARYDldhQRYLkV9N/9Py/N1AXjVuuEjjX09vmt/FcRJSOAAAIIIIBAhRIgwKpQ3c3DIoCALwQIsNwrEmARYLkdRQRYbgX9d39SeoGOf2aZikqkVWMO8l9FlIwAAggggAACFUqAAKtCdTcPiwACvhAgwHKvSIBFgOV2FO0rwNqUVaSs/GK3Vexxv504mFArRlERbE2+L1yPRzrqiSWasTZb6x/urobVY3zeFxSIAAIIIIAAAhVPgACr4vU5T4wAAi4FCLBcAnIKoQPIJu7uxtG+AqznfkvTdZ+sc1dBGXc3rRWrxIe6+7zccCzwhk8T9cxvqfrkkrY6o3utcHxEngkBBBBAAAEEAixAgBVgcKpDAIHQFyDAct+HzMAiwHI7ivYVYL3wx0Zd89Fat1XscX+z2nFa+2A3n5cbjgW+NnmTLv9gje4e0ET3DGwSjo/IMyGAAAIIIIBAgAUIsAIMTnUIIBD6AgRY7vuQAIsAy+0oIsByK+jf+5el5anTvQs0+ODa+uySNv6tjNIRQAABBBBAoEIIEGBViG7mIRFAwJcCBFjuNQmwCLDcjiICLLeC/r2/qMSjJrfOU9OasfpjdAdVi4/yb4WUjgACCCCAAAJhL0CAFfZdzAMigICvBQiw3IsSYBFguR1F4RpglZR4tG5dsurXr6MqVSopNzdPiUmpqlwpXk2bNFBECG0g3/+F5VqWmqfxo9ro0BZV3HY59yOAAAIIIIBABRcgwKrgA4DHRwAB7wUIsLw32/0OAiwCLLejKBwDLDu9b/6CZfrp1z81oN8xatUyQRMnzdDGTVuVkZGl4489XJ07hc5yPNtM/8Hvk/XUWc01/NA6bruc+xFAAAEEEECgggsQYFXwAcDjI4CA9wIEWN6bEWDtacYphO7GUTgGWGkbt2jipJlKTknTSSceqXp1amnilFnqe3Qvbd6SoanT5mrUBWe6gwvg3dPXZOv4Z5bq5pMa6+4BjQNYM1UhgAACCCCAQDgKEGCFY6/yTAgg4FcBAiz3vMzAYgaW21EUbgGWLRX8a8YCVaoUp6XLVunQXgepZo1qmvbXfA3s30c5Obka+/Znunn0RV7TeTweFZd4ZDO8AnllFxSr2e3zNbh7Lb0wtLniYyIDWT11IYDAXgRsJXJUZERILUmmMxFAAAETIMBiHCCAAAJeChBgeQlWxssJsAiw3I6icAqwLGBavmKt/vprntq3a6n5i5Y7ywebJzTSwsUrNLB/X+Xk5On1Nz/RLTd4H2AVF5cov7BYtr9WIC8LzE54foWqxEbqubMS1KJObCCrpy4EENiLQGRkhOJio50QiwsBBBAIJQECrFDqLdqKAALlQoAAy303EGARYLkdReEUYDkbtyemaNXqRMXFxWregmVq0riBOnVopQWL/nb2vkrPyNLPv0zV5Zec4zWdBUkWkgU2vtpR53WfrNfkldv0wtAW6t26qtdt5wYEEPC9gMVWdiBECJ0J4XsESkQAgZAUIMAKyW6j0QggEEwBAiz3+gRYBFhuR1E4BVhm4QRM/6zxe3/8N+reraNaNm+i3ydOl02c2rwlXV06ttFhhx7kli5g91tg9vrkTbrjq/V69uzmGtaLjdwDhk9FCCCAAAIIhKEAAVYYdiqPhAAC/hUgwHLvS4BFgOV2FIVbgLWrx/K/16hevdqqXauG0jO2adnyNc7eWAd1aafIyNDaR2rqqu3q+9RS3TOwiW45qZFioliy5Hbscz8CCCCAAAIVVYAAq6L2PM+NAAIHLECAdcB0O28kwCLAcjuKwjnAcmtTnu5fnpan/i8s18mdauiB05qqduXo8tQ82oIAAggggAACISRAgBVCnUVTEUCgfAgQYLnvBwIsAiy3o4gAy61gYO5PySzUpe+tUW5RiV4d1lKt68UFpmJqQQABBBBAAIGwEyDACrsu5YEQQMDfAgRY7oUJsAiw3I4iAiy3goG5PyuvWA98n6LxM7fos0vbqmfzKoGpmFoQQAABBBBAIOwECLDCrkt5IAQQ8LcAAZZ7YQIsAiy3o4gAy61gYO4vKvHolUkbdd3H6/TlFe3Uv3NNTj4LDD21IIAAAgggEHYCBFhh16U8EAII+FuAAMu9MAEWAZbbUUSA5VYwcPd/szBDo95bo5tObKRrjm3ARu6Bo6cmBBBAAAEEwkqAACusupOHQQCBQAgQYLlXJsAiwHI7igiw3AoG7v6563N0+Qdr1aVxJT1/TnNVigmtkxQDJ0VNCCCAAAIIILAvAQIsxgcCCCDgpQABlpdgZbycAIsAy+0oIsByKxi4+5PSC3T1R+tk//vr9R1UPT4qcJVTEwIIIIAAAgiEjQABVth0JQ+CAAKBEiDAci9NgEWA5XYUEWC5FQzc/flFHt38eaLe+nOzlt7bVU1qxgaucmpCAAEEEEAAgbARIMAKm67kQRBAIFACBFjupQmwCLDcjiICLLeCgb3/0Z82aMy3yZpwWTud2LF6YCunNgQQQAABBBAICwECrLDoRh4CAQQCKUCA5V6bAIsAy+0oIsByKxjY+yfMS9e1H6/T5cc00G2nNAps5dSGAAIIIIAAAmEhQIAVFt3IQyCAQCAFCLDcaxNgEWC5HUUEWG4FA3v//KQcnffWKrWuF68Jl7UNbOXUhgACCCCAAAJhIUCAFRbdyEMggEAgBQiw3GsTYBFguR1FBFhuBQN7//b8Ep360t9alJKj5EcOVkxURGAbQG0IIIAAAgggEPICBFgh34U8AAIIBFqAAMu9OAEWAZbbUUSA5VYw8Pdf+M4avTt9s+be0UVdGlcKfAOoEQEEEEAAAQRCWoAAK6S7j8YjgEAwBAiw3KsTYBFguR1FBFhuBQN//xM/p+qur5I09ryWGn5oncA3gBoRQAABBBBAIKQFCLBCuvtoPAIIBEOAAMu9OgEWAZbbUUSA5VYw8Pd/tyhDQ8eu1HmH1dVL57YIfAOoEQEEEEAAAQRCWoAAK6S7j8YjgEAwBAiw3KsTYBFguR1FBFhuBQN//8asInW6b4EaVI/Rwru6KpJtsALfCdSIAAIIIIBACAsQYIVw59F0BBAIjgABlnt3AiwCLLejiADLrWBw7u/2wCJtzCrUtJs7q0Wd2OA0gloRQAABBBBAICQFCLBCsttoNAIIBFOAAMu9PgEWAZbbURSOAVZeXr4yM7MUExuj2rVqOESFhUXK3JalmOhoVa9eVRERoT1t6aJ312jCvK16Z2RrDexa0+0w4H4EEEAAAQQQqEACBFgVqLN5VAQQ8I0AAZZ7RwIsAiy3oyjcAqyMzCzNnrNYubn52p6dox7dO6pli6ZatHiF1ienqqCgUL0P667Gjeu7pQvq/W9P26wrP1yrO/o11u39Gge1LVSOAAIIIIAAAqElQIAVWv1FaxFAoBwIEGC57wQCLAIst6Mo3AKs3Nw8bU3fpsqV4jR73lKlpm5Wv5OP0sRJM9Wlc1tt2pyulA0bddYZJ7ulC+r9f2/MV+f7FujcXnX0zshWQW0LlSOAAAIIIIBAaAkQYIVWf9FaBBAoBwIEWO47gQCLAMvtKAq3AMs8PB6PE2L98NNkNWlcX+3attDUP+dqQL8+ys7O0bj3vtSN11/gli7o99ccPUeHNKusTy9pq1qVo4LeHhqAAAIIIIAAAqEhQIAVGv1EKxFAoBwJEGC57wwCLAIst6MoHAMsm2E1afIsbU3P1KABx8q2u5o+c6EG9e8rm6H18usf6dYbR3lNV1xcovzCYpWUeLy+1x83DH97jVZtytcLQ5upZ7PK/qiCMhFAYB8CkZERiouNVhRHgTJOEEAgxAQIsEKsw2guAggEX4AAy30fEGARYLkdReEWYNnsq9KAae68pZo0dZbOPau/pvw5R6ecdJS2ZWXrk89+1HVXn+c1nZVbVFyiEk/5CLCe+S1NL/yxUY8NTtD/Y+88wKsuzzZ+Z++99yAkQMIm7L2nilsUHHXPam2rVaut+lm/Olqtq+4tiiICyt4r7EBCIGTvvff8vufFICRhJP9zkpPkfnt5acN51+99zwn/+zzP/Vw9nEbuHT5QdiABjQSMjYxgamoM+TcbCZAACfQkAhSwetJpca0kQAKXJCBGyFLFy9HRHg72tur1VVXVKCwqVf9fqnhpbRSwtBIEKGBRwNJ6i3qbgJWbV4DEpAy4uzsjIyMXsXEJWHL9AmzbuR8+3h4oKCxBc1MzFsybrBVdt/ffdLIMi9+Nx98X+eLRGZ7dvh4ugARIgARIgARIoGcQoIDVM86JqyQBErgMAqfiU3A8Nh421lYoLCrBzOnjYG1tiV27D6OxqQmFhSXKS8bN1ekyRrvwSyhgacKnOlPAooCl9Rb1NgGrrKwCcaeSUFJahuYmICI8BF6ebkhJzUJCUhpMjE0wasQgJc739JZeXIfhL8Zg2VhX/M+VvrA0M+7pW+L6SYAESIAESIAEuoAABawugMwpSIAEuoZAbm4BTE1NYWtrjfUbd8PR0Q6ODvaqBP2EccNx8HAs6uvqMW/OJE0LooClCR8FrF/xTX3tJHacLtMOs9UIf5zthZcX+7UZt7iqEX9dnYG3tuXqfM77prjj9esCYG7SNh3lri+S8eneAjTo2H+ptwlYciiNjY0QvyrJ6jEzM1PnpNL/GhpgZGQEMzNTnZ9ddwxYVNmAa/6bAAcrE7xxfQD8nc27YxmckwRIgARIgARIoIcRoIDVww6MyyUBErg0AXng+2X9Djg5OaCpqUlFLkSOikB2dh42bd2H25ctvvQg7bxCPGqk/XSsBDe8n4C6Rt36yYwJtMW7NwdiiI9Vm9l/OFqMB75ORV55fafWfqFOPk7m2PWHge0+QJZUN8LlD4d1Ol/LYNv/MBAT+7VN54zNrsYdnyXjYGqlTud1szNTfjvLxrq0GTertB4L34pHdEaVTueUwZbfGYJrRjihPZeRaa+LgFWu8zkfnyUClm+bcc8IWJl4e7seBKzJ7njtOv/2BawvU/CZHgSsW8e64u0lgbA0bUv3rW15ePjbVJ2z9Xe2QPILQ86OK6ISW8cJVNQ24U8/pGN/SgXeuzkQI/1tOj4Ie5AACZAACZAACfQ5AhSw+tyRc8Mk0LsJiMgUH5+CHbsP4eorZyofGStLS4wcMQj5BcVYvXYb7rz9mg5DqG9oQm1dg+q3NrYUyz5NQb2OBazIAGv8+1o/RHi3FbBWHSvBY99nIL/izBp01bwdzbDxwf7wc2obAVFa3QC/p2N0NdV546x7MATjg9oKWHE5NbjvmzQcTtetmORqa4oXFnljySjnNvvJLq3HtR8k4XhWtc73+umyQCwe2r5J9by3E7A7sULncz4yzR3PL/RuM64Iks+vy8b7uwp0Pued413wj6t8YG7SNhXswW/T8eWBIjTqOAJrySgn/Ps6f1i0I2D9d1cBHl+ZofN9+jqZ4cTT4WfHtbY0g1TzYusYARH/392Rh7+vzcTntwdjXjiN3DtGkK8mARIgARIggb5JgAJW3zx37poEeiUBEa8Sk9KVeDVh7HCEhQZiX1Q0auvqMW7sUCQlZeDQkVjcfOPCDu9fHr4ltUfa6uMluPmjJJ1HYI0OtMFbNwRgcDsRWCuPFuOR79KQV65rAcsc2x4Ng387AlZJdQM8/xzdYVaX02HzI2GY0E4E1onsatz1ZQoOpelWwHKzNcVLV/niltHtRWDV4ap3E3AsU/cC1pe3B+PqYU4qJax1m/lGPHYl6D4C67EZHspXqHUrrmrA39Zm4d2d+ZdzRB16zd0T3fDK1b4wN20rYN37dSq+iCrUeQrh0tEuePMG/3b9k97ZkY9HV6R1aA+X82IRek//bfDZl5qZGqvUPraOEZBg1rUxJVjyYSL+db2/8sIypRDYMYh8NQmQAAmQAAn0QQIUsPrgoXPLJNBbCYh4tWnrXri6OGFgWDBsbKxQW1uH6OOnENY/CNExpxAWEojRkb89gHaGBT2wOkPt/D40caeJu9Zb1Bs9sLQy6Un9D6RWYunHibhiiBOeWeANOwuTnrR8rpUESIAESIAESKAbCFDA6gbonJIESEA/BOJPpyApOR0WFhYqrcfRwQ6h/QORmJyB9IwcONjZYuTIcFiYnzFH7myjgNVZcr/1o4BFAUvrLaKApZVg9/ZPzK/Fg9+kQJwEP7k1GJ722j6Xu3c3nJ0ESIAESIAESKArCFDA6grKnIMESKBXEaCApf04KWBRwNJ6iyhgaSXYvf0LKxvw5MoMbDxZgs2/H4hgV4vuXRBnJwESFbRVgAAAIABJREFUIAESIAESMHgCFLAM/oi4QBIgAUMjQAFL+4lQwKKApfUWUcDSSrB7+zc0NePl9dl4bk0mtj7WflXS7l0hZycBEiABEiABEjA0AhSwDO1EuB4SIAGDJ0ABS/sRUcCigKX1FlHA0kqw+/t/daAQj61Iw/OLfHHXRLfuXxBXQAIkQAIkQAIkYNAEKGAZ9PFwcSRAAoZIgAKW9lOhgEUBS+stooCllWD3999+uhwPfJ2CMUG2+HBpUPcviCsgARIgARIgARIwaAIUsAz6eLg4EiABQyRAAUv7qVDAooCl9RZRwNJKsPv7pxXV4fbPkpBdWo8Tz2qrDtv9u+EKSIAESIAESIAE9E2AApa+CXN8EiCBXkeAApb2I6WARQFL6y2igKWVYPf3r65vws0fJUI+UwtfGwkHS5PuXxRXQAIkQAIkQAIkYLAEKGAZ7NFwYSRAAoZKgAKW9pOhgEUBS+stooCllaBh9H/6pwy8vikHq+4PxcwB9oaxKK6CBEiABEiABEjAIAlQwDLIY+GiSIAEDJkABSztp0MBiwKW1ltEAUsrQcPo/93hIuWD9ch0Lzw1z8swFsVVkAAJkAAJkAAJGCQBClgGeSxcFAmQgCEToICl/XQoYFHA0nqLKGBpJWgY/Y9mVOHKt+MxwNMK6x8OM4xFcRUkQAIkQAIkQAIGSYAClkEeCxdFAiRgyAQoYGk/HQpYFLC03iIKWFoJGkb/yromTPznCaQW1SLzH8NhZWZsGAvjKkiABEiABEiABAyOAAUsgzsSLogESMDQCVDA0n5CFLAoYGm9RRSwtBI0nP5LPkrE94eLcPDJCAz2sTKchXElJEACJEACJEACBkWAApZBHQcXQwIk0BMIUMDSfkoUsChgab1FFLC0EjSc/i+vz4aYuX96WzCWRLoYzsK4EhIgARIgARIgAYMiQAHLoI6DiyEBEugJBChgaT8lClgUsLTeot4mYDU1NaGiogqVldUwNTWBs7MjTEyMUV1di9KycpgYG8PFxRHGxr0vxW7TyTLMfeMk7pvigTdvCNB6NdifBEiABEiABEiglxKggNVLD5bbIgES0B8BClja2VLAooCl9Rb1NgGrqLgUhw7Hoqq6BqWlFRg3Zij8/bxw6MgJZGbloaGhAZEjIxDSz18rOoPrX1LVCK8/H8GEfrZY93AYTI2NDG6NXBAJkAAJkAAJkED3E6CA1f1nwBWQAAn0MAIUsLQfGAUsClhab1FvE7Ak+qqwqARurk7Yt/8YCgqKMW3qaGzdfkCJWfn5RTgWG4/bbrlKKzqD7D/4+Rg0Nzdj9QOhCHKxMMg1clEkQAIkQAIkQALdS4ACVvfy5+wkQAI9kAAFLO2HRgGLApbWW9TbBKxzeaxdtwNGRkYYOjgMe/YdwcJ5U1Rq4UefrcSfHrujw+iamppRV9+oBCJDbfd+nYZNp8rw7+v8sCDcwVCXyXWRQK8gYGRsBHNTExgz2rFXnCc3QQJ9iQAFrL502twrCZCATghQwNKOkQIWBSytt6i3Cljxp1OxZds+LF1yBYpLShG1/xgWLZiKqupavPv+cjzx+J0dRtfY2ITa+kaIkGWo7eN9hXh2TRaemeeJuya4GeoyuS4S6BUERLiyMDeFCQWsXnGe3AQJ9CUCFLD60mlzryRAAjohQAFLO0YKWBSwtN6i3iZgNTU3IzsrD1u278eokeEYGBaMnJwCbN91EHNmjkdxSTnWrN2Khx64RSs6g+yfXFCHAc9F466J7njjhgDwudogj4mLIgESIAESIIFuJUABq1vxc3ISIIGeSIAClvZTo4BFAUvrLeptApb4X639ZTvMzcwQPigEZmZmcHd3xr6oaNjZ2aCoqBTOzg6YNGGkVnQG2b++sRkhz0RjVIAN3rs5CK62pga5Ti6KBEiABEiABEig+whQwOo+9pyZBEighxKggKX94ChgUcDSeot6m4AlVQhjYhPO+lRJis+oEeEoLCpFYlI6zMxMlSeWjY2VVnQG2b+hqRlXv3saBRUNeHtJIIb5WhvkOrkoEiABEiABEiCB7iNAAav72HNmEiCBHkqAApb2g6OARQFL6y3qbQLWxXiIh5UIWmLs3lubpFA+uzoTn0cV4q2bArAgwrG3bpX7IgESIAESIAES6CQBClidBMduJEACfZcABSztZ08BiwKW1lvUlwQsrax6Qn8pkPjD0WIs+zhReWD9jkbuPeHYuEYSIAESIAES6FICFLC6FDcnIwES6A0EKGBpP0UKWBSwtN4iClhaCRpe/+OZVZj571O4d7I7npjjBSszY8NbJFdEAiRAAiRAAiTQbQQoYHUbek5MAiTQUwlQwNJ+chSwKGBpvUUUsLQSNLz+yQW1WPpxInwczfH69QHwdjAzvEVyRSRAAiRAAiRAAt1GgAJWt6HnxCRAAj2VAAUs7SdHAYsCltZbRAFLK0HD6y8G7n/8IQ2xWdX47LZ+GOBpaXiL5IpIgARIgARIgAS6jQAFrG5Dz4lJgAR6KgEKWNpPjgIWBSytt4gCllaChte/ur4Jr27MwRtbc7H2gVBEBtoY3iK5IhIgARIgARIggW4jQAGr29BzYhIggZ5KgAKW9pOjgEUBS+stooCllaDh9W8G8NX+Qtz/dQo+vTUYVwx1gnHvLbxoeAfAFZEACZAACZCAgROggGXgB8TlkQAJGB4BCljaz4QCFgUsrbeIApZWgobZf/vpctz3VQquHu6Evy7wgbkJFaxLnVRJdQPMTYxhbU7T+0ux4p+TAAmQAAn0bAIUsHr2+XH1JEAC3UCAApZ26BSwKGBpvUUUsLQSNMz+J3NqVASWrYUxlt8VorkSYVVdU4eEneZmoLG5GSZGRjDqgHZW19AMc9MOdABQ39gME2MjTVFmNQ1N2BZfjn6uFujvbhieYRW1jdh8qhxXDnE0zEvGVZEACZAACfRYAhSweuzRceEkQALdRYAClnbyFLAoYGm9RRSwtBI0zP6FlQ146JtU7EosR+xfB8PO0qTTC43PrcGqYyX44yzPyxpDxKuUwlrEZldjfLAtnG1ML6tfRnEdNp4sw+3jXC/r9fKi8ppGrDtRisn97eBh1/lqi1ml9XhvZx4WRDhitIF4hkk1yZc3ZOOtGwOUQHexVlbTCHsNZ3zZwPlCEiABEiCBXkGAAlavOEZuggRIoCsJUMDSTpsCFgUsrbeIApZWgobZv7GpGU+sTMc7O/Jw+C8RCPXoXFTRscwqPL0qA/uSK3H06Qh4O1xaJMourcOTP2bgdF4NXr8u4LIEodSiWvxzQza+P1KME88OgZP1pQU3EW1eWpeFn6JL8K/r/TFroEOnDyM6owqPrUjDH2d7Ye6gzo/T6QW00/HbQ0V4e3suvr2rP9ztLi4Cvr87H3dNcNPl9ByLBEiABEigFxOggNWLD5dbIwES0A8BCljauVLAooCl9RZRwNJK0HD7/3dXPp76MR0vXumHuyd1XNxoEa/WnyiFqbERPr+9n/LUulgrqGjAPV8m4+eYEliaGePDpcGX7JNdWo8Xf8nE51GFKqLqp/tDsXDwxdPmSqsb8ezqDLy/Kx/GxsBf5nrjybnenT6MTSfLcMtHifjfq/1w82iXS0Y8Xc5EWaV1WHOsBLeMce1Q+mXL2Pd8lYyopEp8uCwII/0vXkly/D9P4Os7QhDgYn45S+NrSIAESIAE+jgBClh9/AJw+yRAAh0nQAGr48xa96CARQFL6y2igKWVoOH233yyDHd/mYxJIfb45NagDi1Uoqf+sCJNpecN9rHG8YwqPDzdE69c43fBcUS8WvpxIrbGlyHIxQJ55Q14fJYnHp3hqcSs9pp4a/3phzR8uLsAfs7myCqpw9KxbnjnpoCLzvPcmkx8ui8fc8MdIQLbtcOd8O7NQZ0yq29oasbHe/KV6b2s9bmFvrCx0G7kLvxv/igRT8/3xp0T3C7I4EIbDflrtPL3+td1AVg87MLCoUSiBT8djfduDsQ1w507dM58MQmQAAmQQN8kQAGrb547d00CfYpAfX0DGhoaYGxsDAsL7d/yUsDSfn0oYFHA0nqLKGBpJWi4/RPza3Htf0+jrrEZMc8Mvmwz9YySOuWf9UtsCR6d7olHZnjC/y9HMTXUHivv6d9G3BHPq+yyOjz8TSrWxpSoVL5nF/rioW9S4O9sgTdu8Id7O/5UIl79eWU6/rszD1cOdcITc7yVAJZTVo/8V0a0a8qeX9GAv6/NVILT4uHO+HhpECa9GqeEq3eWBGKQl1WHD0TM0kUQe21TDhYMdsSntwZftm9Xy2SyFxnHzdbsLOeP9hTgzs+T4Ghtguev8MVtY90uWxhLKqhFyDPRyrtM+j48zePsvoT3ucb4206XY94bp/DIDA+8dJUfOmaB32Fc7EACJEACJNALCFDA6gWHyC2QAAlcmEBFRRX2RB1FTk4BzMxMMGfmRDg7a/MJoYCl/cZRwKKApfUWUcDSStBw+9c2NGPR26ewOa4MGf8YDq/L8K8S83WJvJLoIYka+tMcLyU+TX41DkWVDfjqd/0wxMf6PDFF+vxtbSbkM10iot5fGoSa+iY8+WM6NsWV4ZeHwhDWyoMrragOf12dgRWHi7BsrJuKUhJ/rUVvx+OXmBJEPzME4V7n+3blldfjfzfk4JO9+Soi6R+L/ZRX1rOrs/DNwUK8dVMAZl/EByu7rB625sZtDO1lXImUkj3L3tY/HAYP+0t7fZ178rKf/SkVmDHA4ax/10vrs/DSL9lwsTVFWXUj7pvijheu8L2sCyOG8hIRJubtIuw9t9Bb/beIV4kibrlZnB3nX5tz8diKVMwYYI9v7gyBy2Wa5l/WQvgiEiABEiCBXkmAAlavPFZuigRIoIXAsZh4pKRmYuL4Edh/4Dia0Yx5sydpAkQBSxM+1ZkCFgUsrbeIApZWgobd/w/fp+HNLbn48b5QzI+4+JcOMVnV+MuP6dhyqgz3THLHH2Z6wdvxjJDzysYcvLYpG69e64+bIl3OblpSDf+xLlv1keilZxf6wM3WFE3NwJtbc/H0Txn4/u4QzD7HGF2qGj63NhOrj5XgrolueGqe91nR5fXNOXj8+zS8cUMgHpjifnYeSU98/ucsfLW/AFcPd1Z9/J3NlaDz07Fi3PJxEv7nSl/cP8X9gv5VT/yYjmmh9pjTyqRdDOTHvXwCMoekDh54MuI8gehyTvhgaqWqYihiU79fxaVbP03CiaxqPDjNQ5mxx2RWI+d/R8DO8tLpide8dxqrootV2qHs97Vr/eFqawpJd5RoMdm/1a9pmXd9kYIPd+dhgKeVikKb0t/ugktmtcLLOU2+hgRIgAR6PwEKWL3/jLlDEujTBHbtOQxjYyOMHjUEGZm52Lo9CrcvW6yJCQUsTfgoYP2Kb+prJ7HjdJl2mK1GkGpkLy9u6/dTXNWoIkfe2par8zklQkOqtkk6VOt21xfJ+HRvgXqA1WWjgKVLmoY3lqSxPfB1Cp6a742n513Y5Fyq8D3zU4YyXxfh6tGZnvA8JwopOrMKY16KVemEL17pq0zd04rr1NjSVwSvuya6w83O9GwK25rjJSoV8XcT3NT8cqsT8mvx3OoM/BJbigemeuCxmZ5wtPqt4uChtCpEvhSD60a6YPmd/RRQEX5e3ZyNlUeLVVTYQ9M8EeD8Wxp7XE41Fr0Vr4SpF670hZN124p9xVUNGPx8jDJob/2+3hBXiqvfPa2iriQaa80DYRcVgVqfslR8/PJAId7alof/3BiAyIAzhuvy2WRsBBWR9sLPmfgiqhA7Hh+IcUG2F70oYlA/+PnjkLTEAR6WMDExwts3BSLcywpS4fHKd07jo2XBiPA+ky457MUYHMuogr2lCf7nKj8l4l2oSfplf3dLJTbK69lIgARIgAT6JgEKWH3z3LlrEugTBJqbm7Fz92FYWZpj5Ihw5OUXY83P23Dn7ddo2j8FLE34VGdGYDECS+stooCllaBh9z+eWY3x/4zFhH52WPdQWLuLPZpRhSdXpmNfSiXeuN4fVwxxgsM5opJ0ElFl7MsnMMTHCm/eGIjq+ibc+EECTuZU4/czzhi1txZEpIrhvV+lwMLUGFt+PwB5FfV45Ns0rI8txe9neOCR6eeLVzKPmJYHPRUNZxsTbHhkAAorGvDod6nYfrpczfPEHK82ApVUMRQhrbCqQVU9PDe9rmXDYkY//81TisOaB0LP298Lv2QpH67x/eywO6FcRUz9ebbXZR+sCE33fZ2CTXGleP+WIMyPOFNBMejpaAz1scbHtwbjnR25eOHnLCVEyXvuYu1AaiVm/eskRgXaYrivFX6OKcUHS4MwLtgWH+zOV9UX37whUFV3lLn9njwKiawSIVCitVpSK9ubo/9fj6GqrhG3jnVVVRvFY4uNBEiABEig7xGggNX3zpw7JoE+RWD33iNoaGjE+LHDkJScjqj9x7Dslis1MaCApQkfBaxf8TECS9s96m0Clgju6Rk52Lc/GgH+3hgTOQRNzc04FZ+CTVv2wtbWCtdfPRc2Nh03+9ZGuvt6Bz4VDaAZsc8OgY35+elrEhF16yeJKopKqvgtiXSG8bkO4b8uWzytln2SBEkZ/Ms8b0iq376kCjwx11ul7rXXxIPrjs+SIJFYR54ajJs+TEBcdrVKf3t4usfZFLjWfW/7NBmbT5aqeeT3hFQZvFBEpPQVEeflDdl4e1su1j4YhtGBZyKgzm1XvhOvUhYDXSzw4dIgTAuzP/vHs/99SkVe3T7eDR/uzkdkoI16zeU2EfdG/SMGGUX1+GhZ0NkUS+P79quIr89v76eix277NEmJdn9f5HPRof93Q7YSqf51faCKxhR/qy9u76eipuTz7mBqhfIm++t8H4j4OOmVE4jwtoa7rRnKahrw9pJADPRse7/l7Ia9EKPER2nD/ayV4b6VubHyOVs6xhW2Oqi+eLnc+DoSIAESIIHuI0ABq/vYc2YSIIEuIJCUlI7o46cwfNhAJV4FBfli9KjBmmamgKUJn+rMCCxGYGm9Rb1NwGpsbEJaRjZ27DwAP18vTJ86BsXFZdi8bR8GDeiHrOw8VFRW4apFM7Si6zH95755CkfSKvHFHSEY4PmbMXplbRPu+SoZp3Jr8Mx8H9wx3vWCopKkyX2wuwBPrUqHmYmREgXvnOCu0gkv1v5nXRZeWpcFB0tTVNU34sGpHvjTbC/YWlw48ue7w0W45aNE2FiYQOa9d7I7/rbQR/lBXagtP1iEu79Mxr+uD8CyMS7n+WBJJNj8/8SjoqZReXM9Oc8bT8z2UpX8ZPyw544h1N0Szy30VdFe1fXNOPyX8HanEs8tGa+itgnjg23VGLsTyzHplTj1+hev9MOjMzwQm1ODyf88gcdmeeL5Rb4Qj6zZb5zEnEGO+Pp3Z1Ij22uynjs+T8byA4WIejIc+eUNWPzuabxyjZ9Kaxz0t+Oq25JIF7x3SxD2JJarP79ltCtC3C3x7y05KuJr5gB71DU0o7ah6WyU1af7CnDPF8kqdVM4iIF+S0pyiaRY+lirsxkdeGZfbJcmIIKwM03zLw2KryABEjA4AhSwDO5IuCASIAFdEqirr8ex4/FIT89REQyTJoyEpeVvVZA6MxcFrM5QO78PBSwKWFpvUW8TsFp4bN66DyYmJpg6ORJZ2fnYtecQ5s2ZhPKySnz93c/4wyO3dRidRHeJwADd2pB1eB0d7fDPjTnKNH2glxUczkkZyytvgAgXj830UN5SdhcRlWTLuxLLcd37ibA0NcIfZ3nivsnu7UZrnbu+tTEluP+bVJWC+PBUdxVJdbF5pK+sq/+zx2BhaoTbx7vi8ZmecLO9eFXAqJQKPLg8DWEeVvjglgBYmv4mdv1jQzb+sT4bd090g4g4Mwc44M0b/OFsbYrU4jolCol49+o1/ljyUSI2nSxD5kvD2kSrydoq65rwyqYclFQ34tn53ipt75k1mXhlYzZMjIywbJwrXlzkgx2JFbjjs2Q8Pc8Lj073RGlNo5rH1dYMh54cpDzE2muZpXWKsUSEJfxtCPanVqrIrUVDnJRQIj5llmZGmBBsp6ouSmTXs6sz8eaN/iqK6vbPkvH4LC9MDbVXEXIiuD0y7Ywn1sPfpeH9XflYc39/jPC3xpG0KrUuadtOlWFHQjlKqpuUOf6F1tfRu9fbXz9zoIM6YyMqfr39qLk/Euh1BChg9boj5YZIgATaIyBClrlZx8qLnzuOPPxJhIQ8DO1NLId4j6gHQh02eYCR9JR+bueXYJcpdiWU4z9bc1FS3aDDGaEehOSbf/d2Sq+X1zTiuv+e1ul8LYO9fLU/hvr+VtK+5ecpBbXqgSohv0an89pbmuLOiW7nVRRrmaCgvB5/XZ2JpALdzinji1fLlP72OOsOfc6uHv0uDXHZVTrdpwy2eJgz7pnc1gxZzvOTvflYe7xE53NKitC9kz1UhEvr9urGbGw+WaYiX3TZJIXo4WmeMDNtO+fKI8V4b6fuzerlIf6LO36LQjE3Ndb5A+C5ApYUnpCUwkXzp6K6uhbvfrAcTzx+Z4cxymdXbX0jmnT8mdXhhXSwQ3RmNd7Ylteml6QKjg+ywbXDHS/LC0nSDV9cl4OxQda4OdLlstLNMkvqsPSzVCyKsMddEyRF7dKeS3LFr/8oCQM9LHHfJDd4OVz6d44IPk+sysLOxAp8fEsAJvY7Y5QuQtMDy9OxK7EC234fir+ukc+oOrx+ja9KNfzqYBEe/yEDT8/1wv2T3fDHlZn4aG8B1j0QctaM/VxwOWX1uOurVKQV1ePtG/0wPsgWk18/hazSemV6L2t98zo/fLyvEO/vLsDLV/ng+hFOaoiRL8ehuLIRh54YCCfr9jlsiS/H71ekY0qIHd683g/JhXX4ww8ZqGtogswtZzAzzA5pJfVqDz9Gl+CDPYXY+FCIip576Nt0lNY0KZFL/M/EUH75HUGwNjfG9R8m4UBaFeKeHtQmakh+D+9NqsD6uHJkldV38Ib13ZeLp5pEtJlcQJDsu2S4cxIgAUMnQAHL0E+I6yMBEjAIAvUNTaitOyMeyTfZufIXZd0+j8PCzEiVGxfj4NZNUmYKKurReMYCRGfN2BjwdTSHaTvCgzwYpBbW6WyucwfydDBTDyatm6SOyAOd/FuXTfYpUQDtVa9qaGxWD1i6nlPW72ZvesGojYySOtTV63afMqe9lYm6R62bnGdRZQPKa3R8iQDYyZw2pu2m78h5StqSrt8vtpbGKrqlvQCCkqpGtVddNxMTIMD5twhOa0szVeVUl+38CKw87Np9GPPnTUZ5eSW+/HoNHn/09g5PJ8KKEhB1LCJ2eCEd7NDQBBRe4BxFSGmv6mV7U8hndkZJPbwdzGB3mV5Jjc2AmJKLmbmV2eWdsbybY7Jq4OVgqt4Pl9NEU1wbW4pHlqeqCoVrHwyFtZkxRBB6aHmqMm9/96YAfHu4CPd/nYpXr/HDsrGuytdrW3w5vrwjGFP72+HtHfl4alUGXr/Wr12zdRF55v0nXvlISTrkjZEumPH6SYwNskV/D0tsPVWGVff1x9/WZmJ3YgW+uD0YE4LPiGk3fJio/nz9w2EY3s4XDzLmc2sy8Z/tefjpvv6YEWaPoqpGtZ6vDxRCfMiG+tmoeR/+NhVvXOePbw4WYmNcGYpfG6EM8P+yKkNFWU0MsYMIw6dzq/H2TQHK++uGDxLVzw78eWC7SIVheW2Tmoft8ghIWqtUvWQA1uXx4qtIgAQMhwAFLMM5C66EBEjAwAlIGg4bCZAACbQQ0Ef6zbkCVlFRKbbu2I+RwwchMzMXuXmFuPqqWTyAThCQT+/Lk6F+G1w+8jv6gN+ZPiLgiLDz8Z58/Pv6AFw3wlmJP1K57+cHQ5VhufhXXfNeAq4a6qSiV+//OgUuNibY++dwFUG18WQZlnyYgJsiXVVFxtZNIltlTIles7EwVl5U7+/KU2b2knb38vps7P7jQOVjJeLv6gdCMehXQ3Xp959tufjstn64cqgjPo8qgIjED03zUNOIyfydXySryLAv7+inviioa2zG82sz8eIvWeo1790cpMzXp7wWh1vHuqmo4obmZpz462Clq246WapM7UXASi6ow8R/xuL+qR4YE2iLP3yfhnsnuePp+d6dOHl2IQESIAES6E0EKGD1ptPkXkiABEiABEiABHokgZKSMoh4lZqWrZQWM1MT3HfPTYg+dgp7o47CzNQU1y6eDRcXxx65Py764gRisqox5dU4mJsaob+7JQ6kVGBkgC1W3B2iBCpJaXzwm1RsOFGKxuZmldIoBvaPTD8jIqUW1WHCP0/Az8kce/80qM1kMrYIZZND7fDJngIV6WpnaYINj4QhLrsGv/82FZ/c1k9VX/RxNMP+J8LPGuOvOFKEZR8n4dmFPsrXS9Kf39uZh6uHO+F3E9zw2qYcVQ1SzPYlGqxF9JPX/OmHdBUZlfj8UEh1R6noKBFxEvU6OcQOK+/t32at8nqpWihRs5LauPxgIX56IBTTQ3+rwMj7RAIkQAIk0DcJUMDqm+fOXZMACZAACZAACfQQAnV19TAxNYGJ5MKy9VoCDy9PxdvbcxHkaolrfhWHxBNRslQlOkmipN7YmoOJ/ezw3CJfjPT/zUdQRJ9hL8Ygp7QeaS8NOy9duqiqAYF/icaCwQ544Qo/Fe21PrYEga4WOP7MYGw7VY4Hl6cow/U3t+YoI/XNvx9wlvPhtCqMeTlWpS4+PssTd3+RgricalTXNalUcEkhvH+KB56Y66V8FVuapAg++E0Kwjws8dP9oSioaMAff0jHp3vz1UteuNIXf5nbNqpKKgyqlMStv/nYZb08vN208157GbgxEiABEiCBdglQwOLFIAESIAESIAESIAESIIFuJpBSWKtEKimKMGOA/dkIqJZl7Uwox77kCtwU6aK8C1s3SeP7MqoAr14bgLsnuZ2tyPf2jjw88UM6nlngjT/O8sLnUYVKWFLRU9f640BKJe77OkVFElgcAAAgAElEQVSJZCdzqpWH1kfLgs8OL4by3n8+gulh9lgy2gWPr0jDtSOc4eNojhWHi+BobYLXrwtAhLfVeUuStMe7v0hWBR5kTBG6XtmYg2dXZ6jXfXd3fyXUtdf2JFVg0VvxKK5qUPOKN1h7/pDdfGScngRIgARIoIsJUMDqYuCcjgRIgARIgARIgARIgATaI1Ba3QgHq/Yr/UkKnjSLdipvys+PZlThqnfiVfTVf24MxOT+dur1k16JQ3JhLb7+XT9MCrFTFQ7ldZISOC3UHunFdUpo2nKqTKUZPrvAR/3Zua3fM9FqXZGS1ni4CKvuD1UVE6OSK1RKoIzbugqpFDsR/6o/z/bCYB9r5XX1WVQB7v8qRYlZR58ejCE+54teLXOKmCeRXuKN9cfZXnjxCt92i43wFpEACZAACfQtAhSw+tZ5c7ckQAIkQAIkQAIkQAK9kIBU4xOPrBs/TMDU/vZ45Vo/FYUV8ffjGOlvgw2PDDgrfkkFw3HBNiqqScSkOz5LVl5T0iT6SiKmzm2L3zuNjSdKYW1ugmBXc3x7V3/4O5srUUoqXJq0U41TKp/+HFuqqhmKn5U0Ecnu/SoFJVUNiP/7UDheRKwT4/lnfsrAj/eFYtFgxw4b6vfCI+aWSIAESKDPE6CA1eevAAGQAAmQAAmQAAmQAAn0BgJS/e/vazLx0voslYJobmqsxKK/zPPGC1f4XnCLYrYu/lp1Dc2IejIckf42571W/lwEJWlPzfNW1QttzC/tySZpiRZmRjD51dk9NqtaVVAsr23Czj8MVBURL9R+OlaCl9Zl4d0lgaryIhsJkAAJkAAJUMDiHSABEiABEiABEiABEiCBXkIgo7gOL/ychQOpFWhogoqS+mBpEEYHni9Knbvdd7bn4amf0lFS1YikF4Yi0MXiPBrv787HPV8kw9XWFB8vC1Y+XZ1pkiL5yLepaGhsVmuyNLuwgCVpj5KueN0I5zbr6czc7EMCJEACJNDzCVDA6vlnyB2QAAmQAAmQAAmQAAmQwHkEJBqrorYJTU3NSni6WJNop/u+SkZhZQNq3oxs89KolAqMe/kEJobY4e2bAtsYtncE/d/XZsLY2Eh5Y7X2zTp3HKlGKP5c7rZmF43U6sjcfC0JkAAJkEDPJkABq2efH1dPAiRAAiRAAiRAAiRAApoIxGZXY/E7p2FuZoyYZyLajJVRUodhL8Tg1rGueP4KX1hfRvrghRb02b4CeDuaq+qC7VhnadoHO5MACZAACfRuAhSwevf5cnckQAIkQAIkQAIkQAIkcFECkto36ZUT8He2wJoHQtu8tvj/TdeXfJiIGyNdlIilpR1Nr4KXgxk87M20DMO+JEACJEACfZAABaw+eOjcMgmQAAmQAAmQAAmQAAm0EGgGsPA/8RgRYI3nF7U1ey+vacS/tuTihlHOCHW31AROqhYayf+MNA3DziRAAiRAAn2QAAWsPnjo3DIJkED3EKirr4e5mf6+cW5ubob8Y2QkDwZnngwaGhrUf5uYmOhl0y1zGhsbo6mpCfUNDTA1MdHbfK030djYhMbGRpiZmZ7dsz42Kh4y4tlyhmmjmlP2LPPqq8neZE45P5mvvr4BRsZGMDM1O7sWXc9dV1f/6xz621d7a5a9yl0yMTFWexXGpqamMDXVz72VNch8wvTMwzTUnZV/+FCt61vF8XoKAak0OMTXGreMdmmzZKlOeCyzCqMCLmwE31P2yXWSAAmQAAn0XAIUsHru2XHlJEACPYzAlm1RmDh+JMzNdS8OyEN/ckomysoqYGdvAx9vD1hZWiD2RAJsba0RGOCjc1oidqSlZ6OktBw+3u4oKSlHSmom3NycMWhAP1hba/uWvr0Fy5x5+YXKlFhaUVEJ8guKERToC1cXRzg62ut8nyLMJaVkwNvTXYl0x2LiUV5eqfY3aGA/uDh3rhrXxRYq53k6IRWurk5wcnTAwUMxyC8shoW5GcJCg+Dr46EENF237TsPKGEnfGAInJwc9Cogtay9qqoGJ+OTUVNTCy9PV6Rn5EB+5urihMER/WFhYa7rbSrhKiMzR71nKiqrYGZqCidHe/j5ecHTw6XLBFidb4wDkoAGAu/uyMNwfxuMaadaoVQyrG1oumjVQA1TsysJkAAJkAAJXBYBCliXhYkvIgESIIHLJ5CckoH8/CKckVh+azt3H8L9d9+kF2FHhKSt26Pg4e6KqqpqWFlbInJkhBKwnJ0cMDiirafJ5e+o/VfKw3/UgWOws7VGYVGpilwJDvJTAsTwYQMRGhKg86ioouJSfPf9eiWyeHm5KaGjvKISbi5OCAsNxKCBIVq31aa/iGarVm/BpAkjkZqehdzcQgT4eyMnt0DieDBz+jidCx6lZRXYsesghoT3h62tDb77YT0mjBuuREI530kTR8La2krne12+4heV2mNjYwUbG2u4uzkrAdTMzEwJOy2RfbqcWO5ozInT8PZyR1JyhhJ45b7Kf0cM6o/goLbpTFrnl7GPHT8FDw9XVFfXKCE2MMAbBYUlmDJxlBJh2UigrxHYk1SBgZ5WcLLWX+RjX2PK/ZIACZAACeiWAAUs3fLkaCRAAiSAnbsOITYuAf2C/c6jcSQ6Dg/ee7NeBKzDR2KRX1CC6VPHKEFHHs5TUrNga2OthB19CFjRx0+hoKAYY8cMxabNe2FtZYGZM8Zjx86DsLe3xdAhYTqPEpLImbiTSdh/8Dg83F3g7u6C4pJSDA4PhZOTPayt9BP19cOqjRgzaghOnk5RwpycbV5+kRKZFsydDCsdz1tRUQWJ2AsK9IGvjyd++GkTbr35CqSl56i7NXVyJOxsdZ/KIwLWkPBQ2DvYIisrTwmTEqEkotmN182HubnuU2DlLGW/A0KDsGrtVsyZOR5+vl44cPA4HBzsED5I96Lk/gPH0dDYiMhREaitqcOPqzfj2sWzsWnLXgQH+2FgWD+DSCUUoTYrOx/HjsfD0tIc48cO00tEGj+2SUAIiM+VnSXFK94GEiABEiABwyVAActwz4YrIwES6KEEMrNyEX86VT1sntv++9F3+N2t1+hFwJI5t+04gEULpsLezhYSNRQdE4/dew5jxtQxehGwJF0w+ng8Jk8cqYQq8RESz6LNW6MwICwI/UMC9HKCksZXXFIGESFEpPPz88T0KWP0wlU2IKLZl9+sUamStbV1GD9uOCaOG46Tp5JwKj4FVyycrnNPKhEuEhLTsGPXIeVJVVpaDntbG+XXNHL4IAwZHKaX9D4RsIYNHoCwsCDlRVVbV4+G+gaIR5Wjo51eIrCys/Ox+udtqK2rg7eXG0qKy+Ht446iolIV3SZCpa5bamoWtu86AHt7O5QUl8LRyR6zZozHug27MHJEOAL9vXU9ZafGKyuvhKR1ujo7KsFUBD0RL9lIgARIgARIgARIoC8SoIDVF0+deyYBEugWAiIqiem3iBO69i8S0+us7DzlA9WSWibziMAjXlgSqdRiQq6rzYsPVUlpmUoxazGnF28oiRgRTyxJYzTRg09Ty/plzzGxpyHpdmMiB8PS0kIJLWIErq8mpvhydvKPiJQ21pYqlfFc43xdzi3imaSkSiSUpYUZ/Py8leeWiHj62KdEt3l4uKi009btXMN+Xe5RxhKu4rEj74+MzFykZ2SrdFQ3V2cVCaWP1MXc3AKVpihzDh0yQJnGl5SUqveP/Lc++HaUW3ZOvoponDt7okofXbl6E37/4LKODsPXkwAJkAAJkAAJkECvIEABq1ccIzdBAiTQUwgkJKSioFDS7s6PztLn+uNPp6CyqhpDIkJ17tV0oXWLP1T0sZOYM2uiPrd23tgi6qyWFLTZE2FpYdEl81ZWVuF47GkEB/oqkbCr2spVmzBzxji9pBFeaA8ScSaeYyOGD+qqbapUWBGYxLhe16LvhTYhqZOS7rtg3pQu2+eFJpLIyr1R0Vg0fyqqqmvw3gff4onH7+z2dXEBJEACJEACJEACJNAdBChgdQd1zkkCJNBnCZw+nYLCopLeL2Dl5CP62CklJnVVEwHrpzVbMXdO1wlY4t0kUWBiNN6VAtYPP27ErJnju1TAijuZiOrq2i4VsMRnTQQs8cfqKgErMzMXR4+dNBgBa8++o1g4bwoqKqvx8Wcr8afH7uiqtxTnIQESIAESIAESIAGDIkABy6COg4shARLo7QQoYOnvhClg6Y+tjEwBS7982xs9v6AY23ccUBUoc/MKcSzmFJbdfGXXL4QzkgAJkAAJkAAJkIABEKCAZQCHwCWQAAn0HQIUsPR31hSw9MeWApZ+2V5odCkaEHXgGE4npClT/RnTxrapbto9K+OsJEACJEACJEACJND1BChgdT1zzkgCJNCHCShD7sJSjBoZ3mUUEpPSUV1dg4ED+nWZMXV+fpHyhpo+dUyX7VMErPUbd6s5LSzMu2TeqqpqiPG5v7833FydumROmWTtLztUNTobG6sum/N0Qqq6R1IBsatabFwizExNEdLPX+dFCC60B/FvO/7/FTylKqEhNClMIB52kkppaWGuF0N7Q9gn10ACJEACJEACJEAClyJAAetShPjnJEACJNBJAiJWHTkaBxsba0SOikBCQpr6tz4qqskSpSpgVlYujsXEQyqs3bZsMRIS0+Dq6gQnR/tO7uLS3QoKinHgUAxKSsqUt5dUq3N0sIOzc9tKdpce7fJeUVlZjYOHY5CekYPxY4erSnXm5mbw8fa4vAE68SqZU/yuRMiJiOivjNul4mJYaKDezlQqLYqR+enENDg52GHkyHBUlFfBx8ddVcrTR2tqbkZiYpryMHNydkDkiHC173Fjh+ltnyI+pqVlK9EzP78Qy265UlXQdHdzhr29rT62qcbMyyvE/kMxqK6qwdgxQ5VJvbeXG+zsbPQ2Z3cMLCJYbX2j+oxgIwESIAGpSmxhbgoTYyPCIAESIIEeRYACVo86Li6WBEigpxAQEeeDj1cgtH8g6hsaMXzoAHz3/XosuWGB3h7Iy8oqIIbPDva2OHw0DvffcyN27zkCW1trDBs6QC/oZJ/LV6xDgL83iopKENIvALl5BXBydED4oBC9Rc3sP3AcWdl5MDE1QUiwP+rq65UAsmjBVL3sUwYVY28RzExMjOHgYI/QkADs3HVQmX3rK+JLBMg9e49g+LCBiDuVrLyQREwaP26Y3gzca2rr8PXytQgM8FFi5KgR4fjgk+9x1+3X6k3YKSoqVXfX08MF23cdxEP33Yx9UdFwc3PGwAHBejlT2dunn69CWFiQEl+l0qFU7JRoL/mnNzURruobmtR5spEACZCAfJFmZmqst9/RJEwCJEAC+iJAAUtfZDkuCZBAnyYgD4zvf/SdSvMSI2Y/X0/8vG4Hbrlpkd5EgOKSMhw8FKMevjds2os7bl2MzVv3wcvLDUP1lPYlD8Sff7Ua06eMRlJKhhKusnPyVRTLoIH6E7B27Tms7pdwdnF2UAJESWkFFsybrJd7J8/9h4/EqlQuEaskosXD3UVFR82fO1lvAtaJuAQV8TVh3Ahs2bYfI0cMwqn4ZEyeOEoJk/poUmlw+YpfMHrUYBQVlyoh67vv1+GuO67T25yScnokOg7hg/rj2+/X457fXYsduw6puQeEBeljm0rM+e+H32HB3MlITs2Ei4ujipIU4bVfsJ9e5uSgJEACJEACJEACJEACnSdAAavz7NiTBEiABC5KYMeug0psaGhsVD4+vj6emDNrgt7SsOobGnD8+CmcPJWMtIwcBAX4wNTMFDOnj1NRWfpqsScSlNG0RO6YmpgoIWDKxFEqdVFfTVIkt2yLUgKLCEqmpiaYN3sSPDxc9TUlcnMLsXvfEVUNTrIurKysVGTd4IhQvc1ZWVmFdRt2oaKyGoVFJSqlLnxgiJpT9qyPJmbhcneVcXhTk7q7Af5e6h7pK/21rq5eCYSJyRkqdbBfkK8Sy6ZOHq030UzYSVTdocOxqK2rh5mpCdxcnTFt6hi9vl/0cWYckwRIgARIgARIgAT6AgEKWH3hlLlHEiCBbiEgD+XiD5VfWKw8qCRiR1+pZi0brK9vQHFxKdIzc+HkaAdPD1cltIhHlL6aRCOVlVcgIyMHZmbiQ+WufL/EY0NfTaJnSksrVLQX0AwvTzc4ONjpTWCRfUi0l5i2Z2bnoaqyGv7+XnCwt9ObkNTCTnyZJEKpqKQUXh5uSiAUQ299Nql+lydzFpXA1cVJpfKJx5g+m7xfRJCUNE0xxJf3i5WVpT6nVJX9SkrLkZWVB0tLC3WPxBhfX0KdXjfDwUmABEiABEiABEiglxOggNXLD5jbIwES6FoC1TW1qCivbGOW3IxmFekxdvRQJUDosomAJEJZ6yZzZmbmwtraUlUg1GWTB38RkEQwa91S07PgaG+HkBCpHGess2lFQJJUwfbmLCgsVt5b06eO1dl8LQOVlpWjprquzbhV1dWK74jh4YqxrpqkK0q1v/LyyjZDipF8ZnYuRgwbpPMKhCKUVVRUtfFJknskflRTJo2Ck5NujfkvdHcl8iszS0RYe537UUmkovjFNdQ3tuGbkJQGb083BAb66lX01dVd4TgkQAIkQAIkQAIk0JcIUMDqS6fNvZIACeidgJhAH5SUpNq2goelpTkWXzFTRXrosonQsWLlhnaHtLa2wtjRQ5TJui5baWm58igS4ah1k+p4kyaMUHPqMpKlpqYOm7buVdFIrZvMIz5fYnau67Z1x36kpGS2O6d4JY0bM1SnFQFF1BHvK7lH7TXhOn7sMJ3fI0kFPXz0BKTyYesmd/bM3TXXKV4Rkr7/cWO7Y0r1wXGjh8Lb212nc4rYKx5q4hnXuklkm4ig4uHGRgIkQAIkQAIkQAIkYFgEKGAZ1nlwNSRAAr2AQEulr4aGBhQUlEAiPiwtzJUnlC4jks5Fde6c8mAu0TSSruji7Ki31K+WOeXfImSJ+bcIABI1o6/Ur3PnFOFOoqOMjU3g7GQPEev00c6dUyKURLyTZmdnA0dHe31MqcZsmbemphYFhSVobmqCnb0t7O1sVSVEfbSWOSWdTzy3RMyysrRQKYT6ai1zSmSdpBDKfkUwE3N+SUnVRzv3TKXIgswpKZISYSbvVTYSIAESIAESIAESIAHDI0ABy/DOhCsiARLoJQS27zyIjMwcWFtZoa6+TlVUGxM5RG+7EwHgeGw8Tp1KVgJAfUMjXF0cVdqiLlPcWm9A5jx69CSsrC1hbGSsTLfHjB6iVyPs7Ox87Nh9UEV4iYBlamKMqVNGw9HBTm98c3ILsG//MRVdZ2VlgbraOowYEY7gQF+9zVlWXokt2/Ypzy0RBZuamzE4PFRVydOXiCXpoXJ3c3IK1JnW1tYipF8ARo0I19s+henR6JNITE6HtZWlurueHi4YNTJCCWj6akeOnsDx2ATY/Cp+OjrZqfdLy//X17wclwRIgARIgARIgARIoOMEKGB1nBl7kAAJkMAlCTQ1NeGd95dj/pzJsLe3UX5GP6/bgduWXqW3SCExb9+7Pxq+3p7w9fFQXlF7oo5iQGgQBg4IvuSaO/MCiWT57MtVGD1qiIrSqa+vx4GDMegf4o8BYcE6TSE8d31SJU/8xkYOG6R+HHXwuBI6pk8d05ltXLKP7FM8zAqLSjF0SJiK1pG0wrSMbCyYO1lvkUKxJ04rgWXalNHKLD45JVOlUE6eOErnHlgtEMR/68tv1mDWjPGwtbVREWer1mzGvXfeoLfIurz8Quw/cBz9+vkr83bx+jp85AQiwvsrsU4fTd6j733wLWZMG6siFUVEkyqTo0ZEICjQRx9TckwSIAESIAESIAESIAENBChgaYDHriRAAiRwMQLvffgdlt606Gz00zv/XY6brp8PR0f9RAmJwfnhI3EICwtSlQBFdNm994iKJtGHN1TL3j/9chUWzZ+m0vikibgkFQEHh/fXW8rknr1HVQSSRHpJOxYTr8SdKxdO09ulPHTkhBIFI0eGw8TEBIWFJRB/rIXzpujcj6plE3Enk5CYlIaF86eqH2Vl56m9Thg7XKUw6qOJkLN8xTpcd/UcFWkm7dV/fYK77rgW4kuljyZpfNHHTmLYkAEq1VZSGPftj1YVEAcN1G0BgnPX/+77y7HkhoVKZJa2bsMuBAf5IbR/gD62yTFJgARIgARIgARIgAQ0EKCApQEeu5IACZBAawIiMCQkpinfq7S0bCVeyQN5dVUN0tKzcc+d1yvxQ5dNvKf2RB1RglVWVj4szM3g6uqIZgAZGbmYOjlSpS/qslVVVSM2LhFl5RXIySlEXV0d/P290FDfoFLPJk0YiWAdR86IeBR9/JTyvaqprlU8Q/r5w9jEGElJGRgxbCBG6iHNLebEaeTmFaK8vAoS5ebp4QpzCzMUFZXC1sYKc2ZN1KlQJ9UW0zNykJCUiqbGJrXnIRGhMDE9I5o52NupioC6LgYg0WTCUbzbZH47O2vlCSXpi6lpWbjv7ht1fnfFq23v/qNobmpW5+lgb6t8xZR/3P8LhFMmRapoQl02ubMiDFZUVqn3S1NTI3x9PVFfV4+s7HzMmz0RXl66NY7X5fo5FgmQAAmQAAmQAAn0VQIUsPrqyXPfJEACeiEg6V3ysC8CVnstcmSETivWyRwSrXLoSPsV68QEO9DfW4loumySvpeYmIbyisp2h+0fEgAXZycYGeluVjEUPxmfpNIx22teHm4I1EPqV0JCGvIL21Y+lDU4OzlA9qpLc34RIkUETElrW/lQ5nR0sFfCnRjm67LJnCJiiQdW+3d3sEpj1GWTaC+pfNhekyIEQQE+SkTTZZP0xMSkdFRWVbU77KAB/VQEIRsJkAAJkAAJkAAJkIBhEaCAZVjnwdWQAAn0IgIlJeXIyMpBXW392V2Jf5KuI7DORVZWVoHMrDyIj5E0ERwkukSEFn01mSs1LRsSldXSxENI18LDuesXkSUlNUtFgEn0jjR3N2e1V301iQATI3eJghL/JGliGi+imS4FrNbrz8jMRWFhMRobz8wp6W4B/j46F7Ba5hUBrai4DNnZeUocbWn6vrtSPVMiGGtr6tSU4jPm5+upVzFJIsBS0zJVBc2WJoKkvtIz9XU3OS4JkAAJkAAJkAAJ9AUCFLD6wilzjyRAAt1C4PuVGyAPyEbGxrC0NEdpSRluXbpY51EsLZsTIUmq5InwUFNTB28fd0i1vlnTx+lV2NmyLQoFBUUoKa1QRu7lZRWYNHGUXo2wT8UnK4N6MxNTZWYuKX4Txg3H4IhQvZ21eFGJsbiIO16ebiqCx83VWRnH60vAEsFMfJmkMp+ISeL7JYwlRVMilPTRRKhbtWYLKiurYG5uDjNTE4i4dPuyq/V2dysqqpRfW1FxqZpX+MqcM6eNhaenmz62qcZct2GnMqkvr6iGi7MDRACWlFBPT1e9zcmBSYAESIAESIAESIAEOkeAAlbnuLEXCZAACVyUgEQIvfv+t5g7e4KKiBo0MAQrVq7HrTdfddYYW9cIC4tKcOToSQT4e6qKbtcsno2oA8dU+mD4wBBdT6fGk0ikjz5dieuvmYNdew5j4IB+SEnNhJenK8JCg/RWhXDr9ihVEU88t1xdnVFRUYmS0nLMnD5OL/uUqKT9B48rnzERJcVcXHzGpOLignmTdZ4W2rKJo9EnkZtfiEEDghF97BQiBvVHYnI6xo4eqrcqhBJJ9813v2DcmGFKUAof2A8ff74S9911kxJi9dEkfVG8xqTi4NZtUbju2rk4fDgW3t4eKkVTH03u7n/e/QrLbr4S+6KilVm8rEHeKwH+3vqYstvGbGhsRNT+4zh2/BT8/T0xZ+ZEnYiRNTW1OBmfjOMxp3HVoukqck2EVvnciT2RgKBAX8yeOV7z54CIjHv2HVXp2f5+Xpg/d7IqqHAs5pQqXCE/k/e+CLxamqx92479SErOUBGdM2eMg72drfr/8nMnR3tMnTJa/VsXTfa1c/ch9fshOMhXec9t2LQbtrbWmDIxUidC6s/rdyInN18tN8DPC1MmjUZ2Tj42b4tCc3PTmS84fLRHrspeduw+pKJxQ/r5YfqU0SgsKlNFPUSglt+FPt7a/OyqqmuwacteFBQWn8Uvn1Penm7YvG0fSkoqMGXyKPQL0l65VO72+o27Fbshg8Mwcni4qja7ftMupKfnKM9F+bnWVG5hs/aX7eoLoFEjwzFsSBiMjIyxccsede/k81c+7yUi9UJNPAMPHIqBFHKJHDVY/X6SzzepfCy+fsOHDlCFXCRYee3P29XvlJHDB6l/9PXliy7eHxyDBEiABNojQAGL94IESIAE9ETg489WYurk0Th1Ohn2trY4cDgGN103D+7uLnqZUdLpDhyIUQ/8e6OOKuP2jKxc9dAyamSEXuaUQZevELFjOPLyC5GZmas8lOSBcviwQZofKC+06IOHY1BZUa2q4uXlF6G2rk49OF+7eLbe9ilm6uK/JYLg3n1HldCRnJqBBXOnqAdOfTSJ+jp0+IQSyX5as01FXxWXlGLOrAnqwVofTTiuWLlBPTTFxiXAw90V23fux+1LF+vcS61l/SKUiRgoVQh/2bATYf0DkZWTh9CQQL1G1X3y+Y+YMW0cMrNylCl/aVmFqp4ZPihEs+iij7Pp7JgnTyWrYgBS0EEEABFL5MFfaxPRWKIht2yNwj13XgdnZ0clXIlJ/vhxw7F67VaMiRyCYUMHdHoqeRA/nZCK3LwidS/kbk6cMAJuLk5KVJIHdhHMIsJD1cO/llZWVo7D0ScRGhKA7TsPKGFHIjs/+Ph7jI0cguy8AlhYWGDiuOGaBUDZ15bt+3E0Og6zZ05QIvUbb3+pBCXxaSssLsH0qWNhZXmmEmhn2/sfrcDkiSNhbW2lvjyRqrQrVm5U7zVjYyPIZ+mN183XFNEpYuLGLXthBCP1uyY5JV19gbF772El9llbW2Pj5t34/YO3wtS08yKjpFFLOnVtXb1K5RZxbOmSRYg+Ho/a2lpVYOPQkTgsu/kKzRQTJcsAACAASURBVOcjX1ikpGSqSrdbt+9Xn8FSFEVE7nFjhuLgoVhMHD9Cc3Sz3Gc5m2GDw7Bzz2GMGhGuCpUcORqnKtzu3H0YA8KCEBHe/4JXoLKqGjt2HlSRyLNmjFdViOXvAPK+ESFU9iIFTqRQhghaUyaNVBGvMpdUXWUjARIggZ5EgAJWTzotrpUESKBHEJC/IHp6uCA5JVP95V0ezsWoWgQHER6MdOls/isReZA0MTZWaVcSmSTfrG/eGgVbG2tMmjBCVXbTdSsrr4R4tIvXl1QClApy8kBZX9+IiROGq/Q6XTepHCfV4qQCn/D18/NUD695eUXq4dxbD9Xj5EFTHgzkQbK0rFKdrfzlX9L7IgaFqG/hdd1ERJKHEkkdlCiskSPDcfJkIo7FnIaYjEeEh+gl6kv8tiR6TqIoxDdNRCSJ2nF2csSsGeP0c3dLytXDpjB2cXZETW0Ntm4/oN4748cOUyKlrptEKkg0RX5BESzMzWFhaa4iYaR0p9yj3mbiLg/6EmkhomT86RQcPXYSS25YoDOsr/zrY9yxbLH6nJFITHl/ysPxwcMnkJ6ejWsWz9LJXBIB+e336xEY4K0El6ysPMybMwmHjpxQ0VnXXKV9HhFjCotKlUgdFOgND3cXrP55G+68/VoVESOirqSZWmpM4ZUiGFu2RylmIvbIZ/Xaddvx0H03qwgpETBEDJJIsM42EfY/+exH9d6V+y7vKYnUFUFjwdzJMDYxwcpVm9T7TEvUobx3JUJOBEYHB1sViVdbW48DB48r8VI+l1/796fqHmiZp4WDFPTYuHmPEqxE2Plp7VYMHRym0tY//uxHXLFgquYvio7FxOP06RQlkIq4PmVypJoztH+gimjasGmPSnUeMjhU0+fiu+8vx7QpoxWXbTsOwNXFESlpWeqODx86SKWtS7q6VGS92N8d5DNt/aY9SlQTAUvE+RHDB2FgWLD6bBO/xiPRcUoU9fZ2x+49h9UXL6NHDe7s9WI/EiABEugWAhSwugU7JyUBEujNBD785HvcfONC9RDXVU0eUO3tbDBs6MCumlI9nMhfqOWbXX2Icu1tRB4q8vIK9ZYq2N6cUinv629/Vt/069OA/9y55YHwRFwChg4ZoFcD/tb7ffPtL3HvXTdoTou53Eso9vs7dspDm5OKeuqqtm3nAbi7OmPggOAuu7tdtbf25pGUWwd7OyUmiMC+aete3HbLVTpbUouAJcLFth0H4eHhgiERoTgRl6gqpC5dcoVO5hKRSiLIFi2YqipJSvqVRJwcjz2NQ4djcdtS7XuSLwG27ziAgsISlf4o3oJ7o6LV2DJ/1P5jWLRgmqZUcPlS44cfNyFyZDiycwqUaGxqaqqEpduXLUZBQTEOHolVooyIJJ1t8tklIpmMXVlRBVtbG3h7uSE5JQPTp41VX3r8sn6nEoEkfbezLSMjR0UKSYEJ+V0gwtmQiDCcEgFoRLiKHH3vg+WYPDFSvee0NvnyQITS2TMmqLTm735Yr4QbEYE++eJHTBw3QlVq1dIk9V9S++T3uMwxb/YkfLV8rZpHPqs2b92n0rhF4BKOnW1yn0Uw9fP1gFS8DQ0NRPzpVIwZNRhhYUHqPSRfLEyfOvqiX1q0FrDefu9rteagIF8VjdXcDCVc33T9fNjZ2qgvfuSsRLxkIwESIIGeRIACVk86La6VBEigRxAQAUvSy8za8ayQBxKJNtF1kwfU0tIK+Pl5nTe0makpfH099CKCiIAlni3+/t5tRAD5JlwflQ8lGigm9jTCwto+BHm4O+vEy6X12chD4PsffYcxo4e28QtxdLRDUIDuqxDm5hYoQ34nZweV8nNuk0g3eVDT6r3S3h188+0vMDpyaLt3VNKzdC3giYC1ecteVQVQogLObRZ6rEIoAlZFeSW82onYk/Sx3laFUCI7JGIocpSkd2Uqz69blizS2cdQi4AlkWtKyLCzUZ47Ej0Yn5CCG66dp3kuibKUVNZ+/fwxfOhAFZmSX1iMubMmqgfzkyeTceP12ueR6Mf8gmIVaWVqbIx+wf7Kj6glAkvmmj9nkqYvKCQlTVL3ggN9kZtfpKJj+vfzV5FkIiCLgH34aJzyWZIIMC1NRD5V6CK3AFt37EdggK/ydZIoMhFeJHpp1IgITUU3MrNylcgn5yIRY198vVqJpRKdK/dAIqX+/Z/PsXD+VE1CWQsHOYPc3EIVFSVpkD/+tPnsHj76bCXmzJwAXx9tfltrftmuoopl7QcPx6pIJUmJlN/hEnW7cfNeuLg4qmgsLT5Scj7JqZkq9V6ERX9fLyQkpqm0wcERYYg+fhLFxWUqMvRi87QWsD74aAUmjB+hIsZk3RKZ3ZKW6ObmhN17jyphTqIy2UiABEigJxGggNWTTotrJQES6BEERMDy8HBV1dtat2lTxlzUjLWzG9yybZ8yi2+dbiLGrwPCgjV9i3+hNYmAFXcqCe5uLmidFSnfvkslN11HZomAJWa17T2ciKgje9V1EwHr7f9+jQGhweph6dwme5eHGa3m0a3XLA+bIgSISNXaOF2ilSIi+qvUN103EbDkgb29/Ujqia5FMxGwNm7ao1L5JHXm3GZlaYkBA4I1pVBdiI8IWJJ+JiJr67s7ckREm7XomnNXjyfvG0kLFaNzEbslqkSqZ+qqtQhY4oElD8k5eQWYOikSq1ZvUX544oelpUlU1Lbt+1Wk3ujIwSp9UKKhJGJp5rRx2LH7oIqoG6cxmkSEGCnSIL5AkkIoqdkShfXRpz/gyoXT1ZySxizpXFreC2J4XlNbBzEKP3L0BNzcXFRUj4gO4t9UWFwKSTEUgUaiZTrbJBWxvr4efr5eSEnNUkLGhHEjVPrYjGljVIVcqXIqqZdaRFsRT0SUkyqwct7vvP+NioyTlEsR6eR99ukXP+LhB25RQorWJilxTU3NKnrIyNgIUglX0uEC/b3x87qdiuHFTM8vZ34R4USskt8pP63ZqtIji0vLVAqm+ErJnJKiJ1/WaGliSG9rY4Py8grs2HVICX8SYSbVhEXwE/FZItjEcP1irbWAtWnLPpV6KD6cEuUa2j8I4qkoX6CJ/518DsjPRChjIwESIIGeRIACVk86La6VBEigRxAQAUv8ZSwt2/5FXQ/2V4qJGA6Lx1Z7KYT6mlMELHn6l79YS9Wkc5u+5pQHcYlOmDl9fJu7oK85z6QQrsUtN13RJgJJX3OKgBUbl6iMlp2cHLqErUwiAtY9d0oKYduKV/rYa0sKoUQyhA9sZVJsBOWxpo8mApaYgEvlwdaz6GOf+thDR8aU6m2SDiVpdxJVInfZzk574QH5DNi644BKs5NoTxGXRkcOUdXPJJpEPM1uveVKTQbhUkFRqqqK/9CZszFSYsu9d16vRBOJ8pLCGJLiK8KWliZfAkg0jwhmkm4nlRXFi2j/gWPYuGUfnBztcMXC6Zqje1rWKOciqXAS5SMplxJVJlUDJRVPzNylqquWJumia3/ZplLUJI1w5vSx6jNFREZJXWtqblbRSlpM9lvWJ+b9klYn0ZSDI/qrSpHyBYecW1lZJRbOn4xhQ7SnuIsPmpy7CFZSGVDEdnVuqzdDhMGZ08aqtD6tX56I+LZqzRaI35ZE9151xQyIqC7eUiK4Dx0ShulTxmgW5CRdddde+bLCTEVDiSgnVQU//+onFBSWqvsnZu4XExjlDgkTYSNfsogpv/hgSSEZ8aqUzzkReuvq69XPJMpQvBRFZNRXZVkt95Z9SYAESOBiBChg8X6QAAmQgI4J/LR6C+bOmQhzPUTIXGip8kBibW2pzIC7qok3hzxQyjfUWh8WLnfNkloh34BLZbOuavKXfSltLw9kWlJFOrJeqYiXlJyu0j/0YWJ+obVIRUmJxpCH3a5qUuBA/Jm0ePB0dK0iFIgYERjo22V3t6Nr1MfrpTBA65RUfcwjD9IiZMhnkj6bzCPvT4mG0tV7UyJ7JGpJIlXOTZkVc3dpWiKvLoeFzNOMZpi3IyJfTv/2XiNCmaTknrsf4Saf3+2J1Z2dR8aUMzlXSBSWIjrqm5uIPuLzJJ9duhKhJa1PBCyJ5mr5HSdFPeSMzv1ZZ3m19BNuMm5r38yqqmolkHX296uchUT5tY56kyhDfb83tTJhfxIgARK4EAEKWLwbJEACJEACJEACJEACJEACJEACJEACJEACBk2AApZBHw8XRwIkQAIkQAIkQAIkQAIkQAIkQAIkQAIkQAGLd4AESIAESIAESIAESIAESIAESIAESIAESMCgCVDAMujj4eJIgARIgARIgARIgARIgARIgARIgARIgAQoYPEOkAAJkAAJkAAJkAAJkAAJkAAJkAAJkAAJGDQBClgGfTxcHAmQAAmQAAmQAAmQAAmQAAmQAAmQAAmQAAUs3gESIAESIAESIAESIAESIAESIAESIAESIAGDJkABy6CPh4sjARIgARIgARIgARIgARIgARIgARIgARKggMU7QAIkQAIkQAIkQAIkQAIkQAIkQAIkQAIkYNAEKGAZ9PFwcSRAAiRAAiRAAiRAAiRAAiRAAiRAAiRAAhSweAdIgARIgARIgARIgARIgARIgARIgARIgAQMmgAFLIM+Hi6OBEiABEiABEiABEiABEiABEiABEiABEiAAhbvAAmQAAmQAAmQAAmQAAmQAAmQAAmQAAmQgEEToIBl0MfDxZEACZAACZAACZAACZAACZAACZAACZAACVDA4h0gARIgARIgARIgARIgARIgARIgARIgARIwaAIUsAz6eLg4EiABEiABEiABEiABEiABEiABEiABEiABCli8AyRAAiRAAiRAAiRAAiRAAiRAAiRAAiRAAgZNgAKWQR8PF0cCJEACJEACJEACJEACJEACJEACJEACJEABi3eABEiABEiABEiABEiABEiABEiABEiABEjAoAlQwDLo4+HiSIAESIAESIAESIAESIAESIAESIAESIAEKGDxDpAACZAACZAACZAACZAACZAACZAACZAACRg0AQpYBn08XBwJkAAJkAAJkAAJkAAJkAAJkAAJkAAJkAAFLN4BEiABEiABEiABEiABEiABEiABEiABEiABgyZAAcugj4eLIwESIAESIAESIAESIAESIAESIAESIAESoIDFO0ACJEACJEACJEACJEACJEACJEACJEACJGDQBChgGfTxcHEkQAIkQAIkQAIkQAIkQAIkQAIkQAIkQAIUsHgHSIAESIAESIAESIAESIAESIAESIAESIAEDJoABSyDPh4ujgRIgARIgARIgARIgARIgARIgARIgARIgAIW7wAJkAAJkAAJkAAJkAAJkAAJkAAJkAAJkIBBE6CAZdDHw8WRAAmQAAmQAAmQAAmQAAmQAAmQAAmQAAlQwOIdIAESIAESIAESIAESIAESIAESIAESIAESMGgCFLAM+ni4OBIgARIgARIgARIgARIgARIgARIgARIgAQpYvAMkQAIkQAIkQAIkQAIkQAIkQAIkQAIkQAIGTYAClkEfDxdHAiRAAiRAAiRAAiRAAiRAAiRAAiRAAiRAAYt3gARIgARIgARIgARIgARIgARIgARIgARIwKAJUMAy6OPh4kiABEiABEiABEiABEiABEiABEiABEiABChg8Q6QAAmQAAmQAAmQAAmQAAmQAAmQAAmQAAkYNAEKWAZ9PFwcCZAACZAACZAACZAACZAACZAACZAACZAABSzeARIgARIgARIgARIgARIgARIgARIgARIgAYMmQAHLoI+HiyMBEiABEiABEiABEiABEiABEiABEiABEqCAxTtAAiRAAiRAAiRAAiRAAiRAAiRAAiRAAiRg0AQoYBn08XBxJEACJEACJEACJEACJEACJEACJEACJEACFLB4B0iABEiABEiABEiABEiABEiABEiABEiABAyaAAUsgz4eLo4ESIAESIAESIAESIAESIAESIAESIAESIACFu8ACZAACZAACZAACZAACZAACZAACZAACZCAQROggGXQx8PFkQAJkAAJkAAJkAAJkAAJkAAJkAAJkAAJUMDiHSABEiABEiABEiABEiABEiABEiABEiABEjBoAhSwDPp4uDgS+D/2zgTcxup9w6+ZTKVEKSFNxsiPEqUiotmcREUKZcwYMmSKzMlcSSWVZk1kCCkNqCRUhgqFDClj///97r7TdpxhHw7OPudZ1+XC2d/+vrXutdZX7+N53yUCIiACIiACIiACIiACIiACIiACIiACErC0BkRABEQgAQL79u2z3bv/tEOHDlnmLJktV86cx4XXP//8Y3//vdf+/PNPy5o1q2XPfoqlS5fuuDwr0psePHjQtm//wy/PkiWL9yl9+vSRft2vO3ToH/v9962WPn06y5Urp2XOnDlJ309JF8ODtbB//37LnTu3ZcqUMSV1T31JJgJ79uyxPXv+8v2XLVs2O+WUbMl05+i+Det/585dxu+5c+eyTJky+YCC9xbvsCxZMlvO4/SOjJTe3r28s3d7/3LmzHHS36OR9lvXiYAIiIAIiIAIJE5AAlbijHSFCIhACiWAkICwFLtlyJDBMmZMHnHhy69W2PSXXnXhomyZUnbP3XceFxoIV6/OfMs+/fQLK3jeuXZfs7s8SDyZ7ddfN9tjA4Z6FyqUv8xuu7WW5ciRI0ld2rZtu3Xp1sfy5ctrdze5w4oUKZSk7x/rxQcOHPCAm5YhQ0bLmDHDUd2S4Hzlyu/tpRmv2e9bt1n166+xm26scVT3ivRLBw8eckFz167dPgaC8Vy5clmGDEkTESN9nq4LEZj52ts256P5liljJqta9WqreUO1iNHs27/fdu/a7e+LDBkzuGibM4l7JuKHneALP/9imb38yhsuYt1wQ1WrdUM1F4cWfPyJzZz5lu0/cMDKlClp9zRtlCw9i+/9Ht/NEaz4zqz3ZttHHy2w0/OcZs3ubWxnn31WsvRHNxEBERABERABETj5BCRgnfw5UA9EQASOkgCB5srvvj/i25kyZrQcOXNYkcLnWalSxS1/vjOP+l/h33t/jvUf+ITt3Lnbrq92jQ0a0Osoe2v2xx877I8dO925c8bpedzVFLQNG362+1t2sF9+3eQup8kTRlrp0iWO+lnJ8cWVK1fZHY1b+K1uurG6tWvzgJ122qlJuvX8BYusTbtuVuXqK61LpzaWL9+ZSfr+sV48b/4iW7hoid+m0pWX21WVrziqWyKEPTdtho0aM8FF09NPz2MfvvfqUd0rsS8hVv3003r7eOESW/vDT+6C42ennZrbLryoqLM895wCSXbDJfbc4/E57pyt27bZ/v0HvP8nW5SNZIwDB49woZL9eXeTBnZf86aJfg2n5lfLvrZPP/vCNm78xXYE+/yM063MpaWs0pUVkrx3En3oCbwAAXfgoOH2ysy3fC1ecvGFNnnSKMuaJYu98OIrNnLUeEO8q1a1ig3s3zNZejbj5ddtzdofjWdH0po0rm9ZsmS19h2724qvV/pXHuvbPUkCZCTP0TUiIAIiIAIiIAInj4AErJPHXk8WARE4RgKdujxqH3w4N8674MAiYC5atIj/K/ylpUscVcCfnALWs89Nt3ffnW1nnZXPWtzX1C684PyYvm/avMU6d+lty1d8466NpyeNtsKFzztGQsf29eQQsBD/EBrvaFjXHmzVLNmccZGO7Mmxk2zCpKl+Oa62B+6/J9KvHnYdotXrb7xjQ4c9aX/+uccuK1vaJo4fcVT3SuxL8+YttElTptkPP/xke/7667AAnjTOiy4qag+2us/XdEpvy5Z/bVOeft62bPnd6ta5xV18Kb0lVcA6eOiQTZkyzd54613bvPk3Q8wKWvp06ezU0061KyuWt1YPNHMnYjQ2RKSJk6balGeet7/++tsqV7rChg3tZ7hdj5eA1bZ9d0MAj1TAembyaDvvvILWp9/jNuejBZY1axYb8UR/K1/+smhErj6LgAiIgAiIgAjEQUAClpaFCIhA1BIIBCzSWHA0nXnmGbZv334PInfu2uXjws1E6l//fj0sb97TkzzW5BSwunbva+++N9vOO+9ce7RXZ7u01H8CBALJxp9/sTVrfrRzzjnbzi9SyIPDk9mOVcAi8Lzhxvqe1tO2zf12U63qJ3w4ySVg0XHqIn23arXt+GOHlS1b+ri4iZYt/8ZaPfiwPwt+rIHzixS27Nmz2arv1xr1mVjvPR/paLfekvLFIATmIU+MdgGr5QP3WPN77zrhayCpD0yqgDVsxFibPn2m7f1XuEJkLHp+Edu/f599t2qNO/Z4N40aPsguvPA/0Tqp/TrZ17Mmly//2gVc1n/gxjxeAla3Hv1s8aLPYgQs3iN/7/3b6+qxB2LXIxw9arAVL3aRbdnym3333Ro7/fTT7MILi1rmzKFaXWoiIAIiIAIiIALRT0ACVvTPoUYgAmmWQCBg5ciR3e5vcbc1aljHWRD4U5el/4AnbPOW3/xnTz05xCqULxfDimtwSlDwlwAToYtAh7Sh8OLpiQlYfJc0qf0H9ts/h/7x+5AimDVrNgtqsBN4kULV8sGHbdmyr61gwXOsa5d2VrLEJZY+XXrLli2r95m+HDx00H+GeyB2EXfS2HgWKTz/2D+WMQPPyXKEq+kQ9/r7b78nTjRqwyDs7d2718eKKMI4EwvsYgtYD7Vu4X1lPAyOVE0KzsdXk2ntDz9anXp3uxjXr083u+CC8505/Ys9RvqK24jGuOhbMP4Q47+NRKLMmTLFFI+OZOEnJmD5Oti/3/bB/uBBfya84Bq7YD384Qh7xh4UpPef79/vvLNlzWpm6Zx14MSBN4XAEyuAT3ppgzua2ebNW/zaUiWLW9uHWljJksW9CP76DT/bqNHjvbZPy5b3HhHAe4D/7/pgHMw944gthIb3N0N61hp9DjVY//X33//OQwYfYzAPf+7Z4z8P5oAxBvuHek/cBy7BHqQvb7w5y8aOm+Ipdc3vbWxNmjQ0jibInJl1G79Ai0jB/YM6SPBgHKy/2Bx9zIcOxqyb8H3CtcFaj+tQBPYla8vnPn06T4kbPuIpmx5hCuHHCz+xh9p29bnPkjmzVa9+rd3f4h47K/+ZzvKzpV/aU+OetptvqmE31qp+WOH/YM/7nvj3HZSJd1Bm1t7hBzgE7xDW3inZssXM04H9B3x+mKfgncFYcEnBIfRey+zF1cPHj9jG5xkzhOY4WDtBP0LM+M5/uwxWXBd7/UciYMVem6F35JFzmdCeJh148JCR9ssvm6xAgbPtrdefP+Ly0Ht9vx04eMDSGUX4s/q4+bn3/8B+C9Y844cTvOAEv2BPh6+L0Psyc7wHUATrjd8T2neRvK90jQiIgAiIgAiIQMIEJGBphYiACEQtgfgELAZEUPj0My948Ezr3q291bn9Zv8zQff3q9d4+uEXny+zrdu326mnnmqlSxa3GjWusxLFL44RheITsAhwNm3abCu+/tY+/vgTr1W0+88/3ZWD+4JUKQQqApo5cxZ4Kszc+Qu9uPMpp5ziToFT/60J1K1LO9u5a7e9OP1VW7v2R8udK6e1bfuAZT/llBgxgGctXPypzZ493379dZOLQAhhV1W6wipXutzOOit/zDxu3brNxk981rb/8YeVKV3SU2gYx6JFnxqfFShwln+HgJpaTvG1cAHr2msq2xWXl7OFCz+11Wt+8ALVpEDWrFHVrrjif4eJIMH9np36og0fOc4qVLjMnni8n/26abOPkVpgPJeUvsDF8fPPv9qIUeP8q/C/5eaaMQ6nn9att7FPTfEglILa9D1Sd1pCAhZBNWP56KOPbennX9qmTVu8UDqujeuurWyXlb3U0zmD9sWXy+211992keh/5cp4Shxt6edf2dvvvO/OlLubNLTdu/fY27M+sBUrvvHg+JxzCljt22+yilf877C6Z7G5w2vYiKd8zZAmSM2w0mEuPa5HRGLsCC1B4xnrN2y0efMW2ceLlvi6REg6//zCdvVVV3r6Wp48p8Vc/+WXy+3Nt9/ztVio0LnW8v57Yz5jjoYNH+t/L1bsIrvtllox88B+o11TpZIVKVzI3pn1gS359HNf92flzxcqeF6jmjP87betNm7807byu1X2/eofXCzBSVakyHkuFtSrc4uVKVPqCJEWAQUHJU43BIvVq9fY9j92WK6cOZzjLTff4Omb7KGgPTX+aU+3pGYc8/LJkqU2Z858+/33bZ5GfEXF8nbrzTV9jwSCDGsJTh/N/dg+nD3Phe7s2bM7K+rRkYKWWA0sRKAOHR+xhYs+9Tm57tqrrGOH1pb3jP+cnjznr7/+ihGNgz4jmlG/78PZ8+2rZSuMww5OzZ3bShS/xK69trKVubTkYXtq9pz5Xlie986DrZvbt9+u8jX3ww/rLEvWzHZp6ZLWoN5tXmOONfDOv5+ddlpuu+yyS632bTf5+4K1xVxwYATrtnDhgn5Aw5IlX9jCRZ/Ytu1/+Hvpigrl7MYba1jhQgVjOM9fsNjfmQiLl1e4zG6/7Sb/LDEBi/0LZ94/1PhD5EXUrlmzmu8x/gEikhaJgIVL7NXX3rLly79x5h3at3J3Ln3+YPY8mz9/keXPl9eaNLnD1wiOWATjHDlz2lWVLre6dW810j4ZJ+uCgyzOzJfXrryivN1yS80j5pbU73nzF9qCBZ/YunXrLWOmTM6MWmAVryjvLNVEQAREQAREQASSj4AErORjqTuJgAicYAIJC1j7bdrzM2zk6PHeq66d21q9ure6g4Di2E+Nm+IFggmYg3+h57qLLixqXTq38YCQFp+A9eNP62zcuKdtztwFHlTGbvnzn2l9e3ez0qWKuzAz7fmX46STO3du++jD1+y337daj579vQg0ItjMl5+NEXcQtajjNHfuxzFpSsHNCNIoTP7Qg/dZofNCwebGjT9bCwrC/7LJ0xUpYs8JYgSuQeM0QRwxDerfFq+zIFzAIhBDFCRADG/cm6AdgSvc4YHARirc0qVfWeNG9bx/jLFltwvCzgAAIABJREFUq47OPW/eM6xf764x9Wk43eyxAU/4rRGwunftYBdffIH//bU33rHefQZ7QEpRZoLDxNxMQR/jE7Bw+Cz+5FN78qnJ9t13q484zRKBDdGJwtCBWIJgQ3oZpwJWv/7amGLVb771rrt2CP4RMdas+cHWrd94GKcCZ5/lIuoVl/8vznVAgN36oc4uKuAEwU2IqzCx0zRZv998+509OXayff7FV0esRdw6iLJtHmwRI8YxjieGPWlbt213oWTyxFExfULQq9cgVCfs6quv9H2T78xQ3aYy5ar476VKFvPnrPo+lB4XNFLnEN0QRlmzuMkO/HsCZOxBP9qzk9180w1HCFi7du2yfv2fMMQSRJ7YDYHmodb32Q01rov57n33t7XPln7lohqCDaIyLpygwbBh/dt9DQY8cbONn/C0vf/B3JCj8N+G8wnhCmcODqGEirgjIvEO+vmXX90V171bBxf3EmsI6LPnzPOaUj+t23BEjSdq5DVqWNfuaFg7ZowTJ0+1SZOfc/GU+Vyy5HMv7h809h5zWbz4xTbr3dn2++9bYz7DUXjLTTfYA/ff7UIm+7j/gGH2+puz/O85c2a39et/PqIfl1co52s8KLz/3LSXbNz4Z1ywvLHW9f5+oyUkYLGeWGu812KfGMs74P77mlqtmte7wymxFomAtWPnTh/b+x985Leb+fJUF2lJvaXv1CHkHwhY23AKn3uu57AK5v+dWR/6d4KG6HZno3rW7N47Y96XCN7DR4z1f5hgTsP/O4Jw2rhxfRdqEUbVREAEREAEREAEkoeABKzk4ai7iIAInAQCCQlYP/64znr1HhhzGtXokYPsyooVPGB8pEc/++bbVf4v/zilEK0QHd56+337fes2q1Sxgo0aOchHFJ+AteW3361P38ftiy+XWcWKFeziC4sa6T+ITJyAhSsG98ugAT09uF60aIm99sYsd2Pg6uEZ/Ms+QTJOpPgELNxKuKlenfmmB0kUgcadxP1xDiGk4fKoet3V1ufRLpYtW7bDBCzGwDNwreCY+vKr5X5aGg2HAGIdJ9rF1cIFLD5HhLn66oourOHEwjlCw/ky4alhh6X24Wi5q2lLF3tgQNFnAljqgBFc5sj+b9rnHaG0z4c79bIP58zzPxMw9+7Vxa6+qqKPre9jQ7wQfP78+WzIoN4epEfa4hOwcKK1btPFvvvuexfDcN6UK1fGRb9Z735oO3fucicRggyuL1okAlbQf/qOSIhrhkAX4eT22260hzs8GGfqHG6gFg90cCcVDp5HunWwq66qmOgwESoGDxnljiHWRLFLLrRrr7nKT7ucO3eBbfz5Vxf+7mhQ29q3axkzjmMRsLgJggNzWui8cw1nGr9ouHnGjhni4sr0l2baosWf2tfffOefcRpf6dLF/c/Vrqtil1xy4RECFkJe9x6PuWOx3GWXWunSJX2tLPh4sbu9mCuey7wgEtMCASuARX2my8qWcncS30PMYs0iCrO2EKdwuz0zdbrvR9LGEGQQjnDufPbZl/b33r2JClgIII8PHeVjLVSooB+8EMkpiwimXR/p6ydNMp7rq8HiIvv++7U2d97H7uRDMO7f75EYwTNcwEIoOfus/P4+27Z9u6dLw41UXtYZTjPcftu2brd335/jWHBdPtanu+/VcAErYMa9ENtxI82dv8idmrSO7VtZozvq+p+TKmAxDgqx425EAGLeLr+8nDOf+txLhnsJMRThL/xAi/gWfXIJWMH9i55f2BDpENRZv3DxlOuMGf0AjTJlSrrT7cuvQu85TrTt0b2j8T0a739EQOYQR1qVqyuRPWyvvvqWfbtylRU4O78NHNDLXXVqIiACIiACIiACyUNAAlbycNRdREAETgKBQMAiACWNjYAXkWfz5s22ePFn9uumLTFHvg8Z3McDVNwCnCSHMNKq5b1Wr86tLmQhtIyb8IwH3aSQvD7zOQ8E4xOw+D5OD054P/fcApb9FGpepbdPlnxm/QcO8zQohKEJ44a5ywGBCkGHwJBUHtIGS5Yo5ilNiE4IYnE5sHgGpxOS2kU9F06+K1L4PH8uzxr6xJPuACFwps5UpSsvP0zAwhXToP7t7gRAUNm2bZvVa9jMg0gCsV49O7vjKa4WLmAVu+QiP0WwRIliXsfn25Xf24CBw0LphBky2MRxw+3SS0OuNdrs2fPs0b6DPSB87ZWpMYE9fAc9PtKFC9LBEGoQFGrXbeIMqIt04MBBa9fmAXeH8f16De/x4vYE5d26tnchLdIWn4CFI27osDG+DkIOthZW8NwC3pfXXn/HRj850d0ZF190gT3/3HjvbyQCFqmoPbp1sMsuK+1plq+88qY78HhOlauutN6PdjksLTEYB+lkHR7u4SlL5xQ424Y83seF1cQa6XJt23fzdY8Db+iQvs4Htx1C3FPjp9jWrdv9mc89M9bOPfccH8exCFgUz76v+V1Wvfp1nubKGuXkN9JAcZ7M/uA17zYOqtFjJtrzL77if2/erLE1vesO/zM1zuJzl61bt8HWrd/gok7OHDl8fSGs1Gt4r6/bC4oWsW5d28W4JAMBi/uRKteoUR0744zT7eeNv9iQJ8a48EWb/vwkL6KOYPFY/6ExQu5DrZtb7dtvdlGOtMrBj4/0dLPEUghJh8X5tmv3bj8REidbXHW2wueQdTDmyYk2+ennfU1QG6t1y2aW+9TcLppymiH1txAjOXyC/c49wwWswoXO8yL+pIhSe61tu2729Tcr/Tr60bpVM0+DZf227/CIjxORZejjfVxkiS1g3XN3I2tQ73bLlSuHryPEPfYHIh7vsFdffsbnKqkCFkI1gjUNxxNiGI5NhOwP58y3rt36uHj4aM/O7miMXfcr9tpPTgELoZU1dHqePP6PAP36D7VVq9aEBNIrL7c2D7XwwvscPlD/jmbOsuC557jgj4uSlNWGd97nLEmR5n3F+5Q5wG32cOdeLkQ+3KG11a1za4L13hLb4/pcBERABERABETgPwISsLQaREAEopZAIGAlNABOHuz88EOhfx03swfbdLHFn3xm5xU8xwYNeNQuuKBIzNdxYJESQs2d4U885g6qxIq4E4Tyi8CXQJ4UMAQQnFOkXiEoFC92sdejqtfgXk/tiesUwrgELEQH0tN6933c+xietsPfCXI7de5lH81b6AFmw/q3Wbu2LQ8TsHDIDH28rxUpUihmnI0at3CHAA6Wfr27eY2cuFpCpxAyXtIwp70QSo3EEVO/3m0xtyGlDuECZ8LI4QNjfo4rpk79ps4MQYrgdcPGX6xNu252YP9++9//yrpr5oYaVa1Txwfd0XDNdaFaU3fdWd9a3NfUC6JH2uITsBo3ud+dQaTrdX64jYtpgfjw/fdrrO9jQ10UoL0x87kY4SexFMJKV1awUSNC7j3a119/a3fd3crHS9Dcq0cnF1Jjty+/XGFdH+kTI3wOG9rPBYqEGkLAqNET7OlnXwit7db3OaOgODpiKW4mBBzWBwICc3SsAhZuPoRHXEe0jRt/cZccgTtt8cfvOVcaJ/Q9O3W6/zmppxCS5rlnz5+2cuVqnwvSv9hX8CO1EUcPLRCwEEf69unmQjZt9+7dXjstENBGDBvgYiW1mLp27+N15844I4+9+/aMw2qqRXoKIdwnTJzqqWbsIUTcxBrroH7De134JTV1xBP9rVy5//bfJ58stQGDh9v69Rt9zt6YOc3HGy5g4aZ7mL3xbxs4eLhNf+k1L65/V+P61qpls5jPcIg9/0JIQMTVSLrewYMHYlII+fmUiaMOE5+ZR9LwEBFxIc54cbLX1kqqgPVIz8fs7Xc+cPG6zYP3uXM0aNQna9CombvX+OyOhnXiTWUOvpOcAtboEYPsyisr+K0R7dp16O7/XUC07NqZ98F/fb29TmP78acNfoptp44Pudt1/IRnvL4i1ze7t7Hd0zQkzNIQoRk7wuFtt91onTs+mGDtu8TWjD4XAREQAREQARH4j4AELK0GERCBqCUQCFgIDwRaOENwQ+BkIFDEqYRjh9ow/Ms6rpQGjZp7fR4aJ3CFOyYOHjoUU6cFoeHWW2om6MAi3XDJkqWe3oYYEqSg+CmB//zjLhDSdsqXL3tUAhbOMIJ/3EC0ju1aWaNGoXSeoOFwefa5F+3gwUPuYiDtKLwGVlwCVosH2tmnn33pDoN+fbp74eu4WkIC1v4DB9ypwfNpdzaqax3atfI/UyOHlEDcQV06tbX69W6NuT21sWrd1MALaIecNO1t2bIVHgzmypXLHmhxt4shFPse8cQAr+/UuWtvT+d6uEOrmMLRkS7a+ASsKtfdYjt27LCzz8pn3bq0jwlmue+W/y/o/fjQ0V7EmTbuyaFeqysSB1ZsAQunRp36d/t6KP+/MtbzkU6ezhW7/fDjT36aHS4mhM/evTpbhQr/nZoZ13iZ8169B7hIQBv+RH8XaMLXdLfufT2NjPV/7913eh2k5BawKMw9YOBw40Q+2sfzZln27CGR8WgELE4s/OKLZTbz9bftiy+We+F6xBwEO35RlLtL57Zeb4wWn4BFvTaEnylPh06rGzakr1WpUtnnlXeHu+8qXW4jwgRWrotUwCKtd+So8bZj5y4XiKdNHXdYcf245oz1X+Xam9zxSSHzAY/18NM5g/bjT+u93tuy5V/7+2nSxJF+GmVCAtaoMRNs8pRpcQpYFLinmD6Ndxo1nng/BTWw+HlsAYt06h6PDvDacDg4xz35hKftJlXAurf5QzGppbjocLYGjRNFg5p8ze5pbLjAcJgm1I6XgMUzH2rbxVMx4xKwmtzdypav+MbXHQJWtWpVrN9jQ+yVmW95d/2EzPTp/xvbP//E1H7jVMpHe3SK85CLSN9huk4EREAEREAEROA/AhKwtBpEQASilkAgYOH2oJbVzTfeYF8tX+FBJalgOJ26d20fI9AQMNWu19TdDaQLkSKY5f9TWOJqLR+418WA+BxYuIaefGqSp8qR8kZaICkkpAtyuhUFso9VwCJ4JDAltZEWFKIP7++4CU/bpMnTPBi8tkplTz1LXMBq726ZYxKw9u+3Z6a+aGOenOTdoeA09Z1oX3+90nr3HWwE46+98qyfHhfeBg0eYS++NNNZtW/7gC3gdLPZ8+yqyhW9aHqHh3vart27bPxTw+ztt9+3l19902stMX6EpKQ0HEqTn57mX6HW2AP3hwqUX1GpuhfEPvecsz2d8/Kw4uq4Q0gv5IQy2sjhA9ztczQC1o8//mS16yUuYOFEadairacmIca2euBeP3QgoZQ0hIhuj/SLKVg9ZtRgT28K/07PR0MCFz/DnUUh83ABi7RPBIygRVLEPbYDC8fJgEHDXACgHYuAhXhFih3iAH0+K/+Z7kQjLXL+x4vd7RWpgEW6IYXSSdejIWBdfXUlP2EOBxYOr2rXXW2DB/U+bElFKmDNnbfQDx7AVXn22flt2JB+nrqXUOOZrD3EblJEOZQg3GnHCYiP9hnkwg+iz1NPDnVHWUIC1ugxE2xSPAIW4hUiFi1SAWv16rXW89GBfhIk76Cxo4dYyZLFkixg3XnX/S5AMw7eNfwDQ1ytdu2b/N2dWCH3kyVgNb2ntQuK4QJWz14D/CRPxCt+HpymGnt8lSpd7u8dUiXVREAEREAEREAEjp2ABKxjZ6g7iIAInCQCcRVxJ2jt2q2vzVuwyIvx3nzzDS4GEGAQ8Ddv0daL8nISVdu2D7hLy/PUYjUEE1L44hKwcG5QS2vM2Mmh9KGypey+5k09ICXovu/+dn5CW4ICVs9OMTV8eHRcKYQ5c+b04u0DBoVSkxo2qB1Kq/u34UZBKHr7nfe9/lbt2250Z8qJELAQGnCGcXogDSGq8Z31/c+vvzHLRox8yjjJb/oLk444MZAT1O5v1cFT3agPQ+FsAt2H27e2ildWsL79KI6/3Dq0a2lvvvWefb96raffUUA5LvdSwIMT7w4eOHBYug4CA30kiObEM9J9aHXqNbW1P/zkc0z6Y43q/51qR3Ft6ph9tvRLvzaonXQ8BSzcVKQdIZoRFHOaHf1iDYW3wIXEeFiHOMWoxURDiKNQPJ/RSPOkBhHOKFg/1LqFNb6zntfGog4cKYYXXVTUXpwWctHRYE2KGy2+UwiPVsDC/XVfsyZH7LXwH1AYnXpaFCWn7lqze+704tnsX061XPzJ0mMSsHBgLVy0xLp06+N8Lrn4QndOhYt+kQpYFPx/sG0XFx1xDzVp3NBPqQv4x6zLAwf8/sGc3XL7nYZQxf6gLlXpUiViECxb9rWLYgiJuM5I3yNV80QKWPAZOGiEbfz5F69B9sK0Cb7vkurAat+xh300d4Gzwc1ao3rVOOcekZJ1nlj9sJQkYFHX7ulnXvA55URMTixNnz6078Ibp1PyDyWJ1fdKcFPoQxEQAREQAREQgRgCErC0GERABKKWQHynECIeNb2nlTts/ES37h2Nfwmn8vnwkU/5CVgEHgTHCBrxFZMGTLiAVa1qFRs88FF3d40cPT5GOOCUveurXesccYg81K6rcQpiuIDFdwhcf/vtdz9BrGuXtl5wPWhxCVicRPbpp194utPOXbu8Fg5iA6ILjaLDPXsP8NPLqKeDuEUtp+MhYCHwICgFgsrKld/7SWoU3Ka99OJkTwnEWUJh66nTXnJXVpBWGL7ImJcateoaIhiutW3b/7Bt27bby9On2Bl5T/e6Tq+8+qafEPb5F8tceLz5phu86DKiZFwNMWbM2ImWP39+u6dpIxds9u7bZ7hASIkiHfPBVs3d1UQbMnS01+9CLLr91lrWulVzr9WDQDR7znwv6kwqKul8FPQnteh4Clj0idpfpBHSmHvW5+233+QnuNE4TQ9B4KuvVti999zpAsh7783xeaBRP4zaWRRWp3ECIGIMYgkOEE6KRAzCOTRw0HDjpEicTVOfGesCES4+3E9PP/uifz85BKwnn5rsLkLmsEG926xzpzYJvm+GPjHG3XmkZN11VwNr0bypn65HnaKm97S071atOWYBC5GoZ++B7sSEC4XSS5YInRRH4e0evfo7o8SKuLNW4Dvj5dddfOHkuo7tWnrqJ+uKRs2uGa+8btmyZnNxETGn16MDY9w7FMNnvWbKlMn27z9gL0x/1caNn2KkP1I0fMb0yaE+Tp5qkyY/5++02DWwjtWBNfbJoXb5v85G7j9h0rP23LQZMS4x1gf9S6qARYrxsBFPOQtO5ST9Ljg58mj+o5OSBKxFiz9zQZVG/bNundseVmfwaMan74iACIiACIiACCROQAJW4ox0hQiIQAolEJ+AhTOFU9aee36GB5bXVKlsj3Rr70H6V8tWeCF33BechFa/3u125x11XOBYvuJbPzWO09KCVCDSAXHjkBJYuFBBT+nhpLnRT05wIYxGYWTEHYSCMWMnxYgu4QIW19VvcI99v+YHf+6Ntapbk7sa2F97/nYXTHynEHL64KDBI23e/IU+losvvsCLHhPsEmTiEiKQLljwXHt68ig77dRTj4uARTB/fbUqdlOt6n46GcWxSTGCNTXGxo0d5qcTUg+JU9wINsc+OcQuLx93Hac27bra/AWLPbjlHpwG9t6sGcaxjNOen+FpoPwc4YO5aXn/Pe5Ai6shNFEEniL6CAQUWS5bprR9/PFimzN3gad4UrS/a5d27uSiIbw1vLO5i5Gkkdatc4vVrFnN1q79ycaOm2y4a2gtmjex+1vc7X8+3gIWYyXl751ZH/rzqPtV6cryvn4RWXFSwXXPn3u8llHPHp1chOncrbfXK4Jllauv9ELenIL53HMvubONukucaDdh3HC/Bk6P9HjM1m/42cdeo/q1fmABhwGQErvnr7/8+ckhYCHIUIeM/UYa2cD+vfykQsTCuNKucPUhfOBIo54Ygtdfe/6yYSOf8pNFk1IDK64UQhxYiKWkiAacEYbbtG5hOXNmd/cgqYoIOfC/u0kDd1fG16iD17BRMyPtlP1JUfhq11XxtL8/duy099+fY59/udwF1Z49HrYa11/nxcIpGo4oxzMQKitWLG+ff77M03JJSaR16fSQv59ox1PAwgHVtMkd7iD9eNESe2nGay7e0hDFg30Xn4D16sy33AnIqZPU6xrYv6cLVYj1t9ze2H/OO4+1iVhXuHAh33/UOMPpWqf2zUe4NOPinZIELPZq3QZ3248/rvd/DGG+qd9HrTD+AeH1N951odUF6ERqe6XQ/7yqWyIgAiIgAiKQIglIwEqR06JOiYAIREIgPgGL727atMXuaf6gnwhF0E5QhYOK4JzAnhPECFIRScIbQWjNGlWtX9/u/mMcQAhYpAnRihQuZC+9OMkdFCNGjnOHRXjDLUGtYoLT2AIWKScE6AQ/QeP6ubPf8OLzPXr299pUBPczX342JsBHuHhi+FgP+gjgY/eX2jKDB/aKqQ+V3A4smCCg0O/w5/NzhKeB/XvEnGTIyVukNe7etdteeH6iB3FxNYJh0tiCVvOGqvZY30f8rwSqgx4f4XNHi326XFz3mzDxGa91xJzGbghriIyk5CHE0RBIXnwpJK4gdMRaBi7GlSt7qT3W75GYeTjeAhb9wnnTvuMjLrSyhmI3mCN6kC7aoX0rnxNqOrE+ED5ir2fWfv78+WzyhJGWL19evx1OLvbO/AWLDruee5+aO5c71+hHcghYiGUU5V+9+ofDhvJwh9buhovtfsSF9kjP/jECSvAlBKAsWbLan3/+ecwOLO75/gcfeYF53hPhDV7UYkLYjETA4rsI39Qi42CC8L0d3Jd75slzqnXt3M6uvaayi3nUZSMNOa71yjuh8pWX2+ODe8ek1R1PAQsBJna/+RmiJ4J94CaLT8D69NPPrWPnXl6YnnZD9ev8lEQEyg8+/MhP9GTMcb1ry/+vrO/L4ETLOF8W//4wJQlYdOnbb1dZ2/bdbeu2bUe8l/mcwv4U6b8wrEh/QuPTZyIgAiIgAiIgAokTkICVOCNdIQIikEIJPD5klC1c9Kmdkj2bp9XgagoaqWykoeEmQJy4oGhhL9ZMkM6pYW+8Mcs+nDPPA9i9f//tPz8l+yl2ToECdv31Vaz2bTf5rUhzm/LM8x7wkl6EW4Mj2DNmymjPPPuizZmzwINtRCsCNtICDxw8YIsWfeZpYB3aPWAlShTze3EdwsyyZd+4kEZAx7/OjxzW3/LkyWPDRzzlwXCOnNntyVGPx6QKIhrh2mAs1MYhuKZRYJk0oyaNG1iFCv8VNyeQpgjzli2/W4EC+b0u1rlhhdRx+Sxf/q2dfvpp1q4N/QulT8VunNZIQXX4Frv4Itu0eYutXrPWhRWC/HMKnG0N6t3uQgcOC/pJDadH+wz2oue9e3WyHDlyxHlvTjjs3uMxL6RNa97sLqtVs5r/mRP5SENcsyZ0WmTBggWsb+9uLuzF13CkTZs2wz6YPdd++32rpz8ReOfMkd1rDOGiotB2eGM+33r7PXvn3Q9t86Yt9tfff7tTJnfu3FaubGlr1KieFTy3QIyIgAtu/IRnfR2QktqxfejUxY8+WuCC6I4du7weWo9HQqlFNMTEB9t09bkuVaqYtW7ZzM48MyQkxddwCOFc+uSTpV6nKnBEsVbOyp/PqlatYrfeXNNOOSV00h9jJe0R9xAiJ+PwsefM4cEzp7zh8gtvCGQjRo23X3/Z5I465pO1dHeTO3wOWYecntniviYuUtJuvT1UPwyXCY64oB4ZTptx45+xpZ9/5Z+/+PxE42AFGsIIKXa4dChUT5oi6Wi4bu5sVC9mDEHfWEO4+2bPmecOJriRMlumdEkrVaqEu7NOOy23pxZefnnI3Yfwu+Lrle5+atvmfitRPLSecf7w7FdeDZ0W161rWyv/v9A+ocYWP6d+3ObNW/zUuKxZsljRooWtXLky/n6gn7Vvv9Hq1b0twfniQwS6Z5+b7q5ETrdkj4TWXw47//xCXiOpQvlyLozSmONXZr5pc+cudPclc8jzELoqXlHeC+5zyEHQGAe13LjvjTdWd9dW0HAsznj5Db/3rbfUskZ31In5jPpoL06f6X9/sHUzd/MxB+GnEHKa47r1G2JcZKybUiWKeVptIHry/TfenOX3QtysUuVKa/vQ/X5f+t677+O2dOmXvpY41ZTPzjnnbP+cUx/pPydscqLkoYOHLGu2rC5Mc1AGac+xa73FBRy36YSJz/p7jX6NG/vEEZft3r3bxo572hYuXOKfcbAB65R35vSXXrXXXp/lP+/5SEcrW7Z0zPdJGV669CvLnCWTr63ghEsuoF4aDkfe76ScX1mxvH+Ptcqaf/6Fl+2HH9e5gMfPECDz5j099A65o67ly3dmoutHF4iACIiACIiACERGQAJWZJx0lQiIQAoksGbtjx4Ictw8J92RohTe/tixw+sfBSIJaR6BmwAHzoYNG4177Ny5039OwEhR59gFhRERCJC3bt3qwTQBZvbs2T0oQgggXYsivQgACAUE3tTCIqAsen4RT4ELGkXfSRWibwQ7iCUUxcYZhHCDyIUrpVTJYke4UxAAOM59+/YdLpidfvrpVuySCz2wCi+ATBC5atVqD3apn1S0aJHD0lj4DBEP0QJHGQFrXI1g85tvvvM0M05ZZLykpOGmYEyII+eeWyCGKWPjxMRnp053IQFRkaA8roa48O3KVZ7eR7voogu8sD6NgJgaYvSRliN7ditW7KJEVyBix48/rfM53717j/PPm/cMK12quGXLFhJ7YjcEFlI/WQeIlTAh4L3owguOEFdYBwhEiB0UZw5Oj8P5tGHjz57WiYMp/CQ6xKSvV3xryHQIcIULnediX2INLtyTgvK4/BgbqXdFLyjiNdRiFwrncwRGapNxPUJc/nz5POU0qJkW+5mMmzpquP+Yz+LFLvIaYqxD9lWe0071kzyDOcQdSMuVM4c7ZnAo0XBswSVwIyJghK9H1vmKFd96einCEXPBmiR9LPY4uB/79auvltvPv/zqTrmzz8pnJUsWt4OwDdMNAAAgAElEQVSHDrrrBYGA7yIQ0xCN2DesU1wvwXo+eOiQC3Q8N7TGilruXP+JoPSLovVr1/xo+/bv9++VKH6x5cqVy9d5+nTp7Oyzz3LROpLGmmYdIdSwR9jHvJNIzYu9R7kfQtIPP6xz3oiiCJTwpi5c4BQMnktKK+Ogzwg/7Mf/PvvVNv78q+9DWNHnoMGQ/tDOL1LIhfL9+/cdJmBNmTTKC5Cz55g3xCH2G+JbeGN9cS/2DGIh746g8c7DiYWAhECLaBzMA2vzt9+22qrvV/u62n/ggM8D42S8wTs5McasL4S2kICexfd17AbTn9Zt8OfQeI+yTukzDEnJ9rVwYdHDBHHeGbxf6Qtrm/pyQUNs3+Up55k9FTk89ZWx8T3qLm7Z8pu/z/iHBdYhKefxvf8SG6s+FwEREAEREAERiJuABCytDBEQAREQgWQhgPOpa/c+XlSelM0rLv9foieLJcuDdRMREIGICSAQhzuwpkwcZZdeWjLi7+tCERABERABERABEThZBCRgnSzyeq4IiIAIpDICa3/4yZo0fcAKFTrPevXs5KcSqomACKQsAhKwUtZ8qDciIAIiIAIiIAKRE5CAFTkrXSkCIiACIpAAAU5spJh1rVrX24OtmsekeAmaCIhAyiHgAtbAYfbGm+96pyZPwIFVIuV0UD0RAREQAREQAREQgXgISMDS0hABERABERABERCBNEKAOlEUY1+0+FMfcYf2Le38IoXTyOg1TBEQAREQAREQgWgmIAErmmdPfRcBERABERABERABERABERABERABERCBNEBAAlYamGQNUQREQAREQAREQAREQAREQAREQAREQASimYAErGiePfVdBERABERABERABERABERABERABERABNIAAQlYaWCSNUQREAEREAEREAEREAEREAEREAEREAERiGYCErCiefbUdxEQAREQAREQAREQAREQAREQAREQARFIAwQkYKWBSdYQRUAEREAEREAEREAEREAEREAEREAERCCaCUjAiubZU99FQAREQAREQAREQAREQAREQAREQAREIA0QkICVBiZZQxQBERABERABERABERABERABERABERCBaCYgASuaZ099FwEREAEREAEREAEREAEREAEREAEREIE0QEACVhqYZA1RBERABERABERABERABERABERABERABKKZgASsaJ499V0EREAEREAEREAEREAEREAEREAEREAE0gABCVhpYJI1RBEQAREQAREQAREQAREQAREQAREQARGIZgISsKJ59tR3ERABERABERABERABERABERABERABEUgDBCRgpYFJ1hBFQAREQAREQAREQAREQAREQAREQAREIJoJSMCK5tlT30VABERABERABERABERABERABERABEQgDRCQgJUGJllDFAEREAEREAEREAEREAEREAEREAEREIFoJiABK5pnT30XAREQAREQAREQAREQAREQAREQAREQgTRAQAJWGphkDVEEREAEREAEREAEREAEREAEREAEREAEopmABKxonj31XQREQAREQAREQAREQAREQAREQAREQATSAAEJWGlgkjVEERABERABERABERABERABERABERABEYhmAhKwonn21HcREAEREAEREAEREAEREAEREAEREAERSAMEJGClgUnWEEVABERABERABERABERABERABERABEQgmglIwIrm2VPfRUAEREAEREAEREAEREAEREAEREAERCANEJCAlQYmWUMUAREQAREQAREQAREQAREQAREQAREQgWgmIAErmmdPfRcBERABETgpBA4dOmT79++39OnTW6ZMmZK1DwcOHDDuz33TpUuXrPeO5GbB2DJkyGAZM2aM5Csp/pp//vnH9u7d6/OVOXPmFN/ftN7B1LgGI5lT1um+ffsOe68Ea5e9eDL2I+855oN9czLeR5Fw0zUiIAIiIAJph4AErLQz1xqpCIiACKQ5AmvWrLFly5Z5AEYjADvllFOsUKFCduGFFx51QPjNN99Y48aN7fbbb7cOHTpYtmzZkoUtweqgQYNszpw5NnToUCtZsmSy3DcpN/n888/tgQcesDvuuMPuv/9+y5o1a0Rf37Jli33xxRdWvHhxO/fccyP6TlIueueddzyIrlixos9hUtovv/xi1113nV1++eX21FNPWZYsWZLy9Yiu/fPPP+2HH36wjRs32l9//WU5cuSwIkWK2HnnnZfsImdEHYrii5YsWWLt2rWzGjVqWM+ePSMeyfbt223VqlXGWmQv5cmTx/d5vnz5Ir7HybyQfteqVcvX+MCBA/29snLlSrv66qutZcuW9uijjx5T93gP8u76/vvvY96J8d0QsYz1+9xzz9msWbPsjTfe8L+riYAIiIAIiMDJJCAB62TS17NFQAREQASOK4FRo0bZww8/7IEsv2g4cWjVqlVz8YmgLKnOguXLl9ttt91mDRo0sEceeSTJAtbYsWPtlVdesWHDhh0mUhF0P/744/bRRx/57yVKlDiufOK6OeLBXXfdZU2bNnURIRIB6+DBgzZ58mQbPny4Pf/881a6dOlk73fRokV9DuGWVIEMAev666+3ChUq2JNPPpmsAtbff//tgiPjR2xgDnF6IRbA7n//+5+1atXK55Kfn+xGf1n3uXLlso4dO9rpp59+srt0xPMXLVpk9913n9100002YMCABPsH782bN/u6YO1t27bN9zO/+CxnzpwuCnG//Pnzp7ixhncIAeuWW26xK664wh577DF/r3z99dd26aWXWvv27W3w4MHH1H/cXbx7nn76aXeQ0vgZ+wPHJ3xwXtKyZ89uzZo1c7Hrgw8+sJkzZ1rhwoWP6fn6sgiIgAiIgAgcKwEJWMdKUN8XAREQARFIsQQQsHBw4CiqU6eOiwqbNm1yV8F7771nbdu29WAet0xS2rEKWF27dnUnEK4igtXwRsBKQH7ZZZfZqaeempRuJcu1RyNg7dixw8WQdevW2VtvvXVc0vSORcDas2ePffjhh3bGGWe4iBUE6ccKDBFgxowZ1rt3b7/3rbfeamXKlHHRBCa42RYvXuxOvYYNGyarcHa0fYfFjTfe6GLg6NGjU6SoE6mAFYhXuBURZa666ioXq1grOIjY6wsWLHARBiG7SpUqR4vthHwPcRHxOm/evL6OWKfJKWDB69dff/X3C3+m/fTTTy4S4lJDJAveOTz7zDPPdHGL78Auqe/JEwJNDxEBERABEUhTBCRgpanp1mBFQAREIG0RQMAi7aZfv34uYtEI3BCgcDoQJOKCIqUwaAT4pB4ixuAsOvvss909E562FpeAxX1JYVq9erUHzohlBKKlSpVytwsNwQNRgzTB999/37p06WIXXHCBf3bllVe6s4iAlYAR5064gEVaGv0i4OTe9It0vfB+cc38+fMtd+7cdvHFF9uPP/7o4yBljnTEAgUKJOo2CwSsJk2aGL/Wrl1rv/32m4+Fe9Cn2I41eLRu3dqqVq1qPXr0sIULFzq7cuXKuZMjCJSXLl3qLg7uE9SiWrFihf38889+LSJQfC0+AYug/7vvvrP169f7VwsWLGiXXHLJYWIRc4qLhPuTRkhwzhx9+umnzh8uuKfgDjvWRSTiIXN55513+hzgmEOMDE8nZT5IK0RMOf/88/131skff/zhfaYPOF/oA07A8Hpq9IX+wSo8dQsHIRxxc+HM4XkwQKA755xznC/3hinrjrWLOMGc0R+cNP379/d5ufvuu32c3ANHYnypmcwla4C1gPjBvWB20UUX+TOC9cD6Zi3ggoLz77//bt9++62v12CMsWuQ4QAi7Y978xkpf4gmpMwl5sCCBc439tO1117ra489FNSKgvWuXbv8/jBgbQTvAPjSNz5nzuHEGg/Gwpi//PJL27BhgwtjpIhyPf2lj/ziWsbKzxnrWWed5XMS7lpk/3Ef3gMw51rmH7dT8LNgzTOPs2fPduGobNmyCQpYjG3nzp2eEohzK1hH7JOkOP1YK7Bm7TzxxBOH7UHq8ZGCzVq65pprXJhl/Lwj6Ctpubzv+MWegiHrgsY6oW/sPdZvsWLFjugXY2BdwQSOCGRcx7stKWNIW/9V02hFQAREIG0TkICVtudfoxcBERCBVE0gLgGLARPw1axZ04P3MWPGeCBOQ1AYP368u7MI0GgEqaSfIYAFqWtxCVgE3S1atPCAjOCXXwTupNN169bNA16COYJtgm6eRVAfCDxBEI6bZO7cuX4dAhWN4G7ChAleh4Z7BP2iRhB1qoLAnKCR2lwEwAgmH3/8sTuBdu/e7aIMDgucXQkFhwSn3KNy5couBCCo8UzGQsBKsMu9g0CfIPfVV1/19KY+ffo41169enk9LISSoI7XkCFDjPngc4QGglQCWNIUCfL5fiDmxbUo4xKw4DJy5EifL8QZ7odYV716dWvTpk1MMI5YccMNN1j58uW9D1yD0MezSQXluzh1EDMQYRAPGUtCqYqsD4RR+s04H3rooTidZ/QpSCtkXLiB6PMnn3ziTOGHGwqHFr8CsZO0RFxtnTp18lTVoG3dutU6d+7sY8BdiDATpJ4xx4h0jI2x0EdENVyGiHqILIwXUYK5Zd3wO9955pln4q0VRV9JDw3EU/qMYIErh/RI6nyxHhBUWLefffaZC8SIZfSD9cOaxPHIPAQCE+vyxRdf9GczLgQSBBCEEH5eu3btBFMI6Q/3RATlWay1uNKBw+eAfQlb5gDRk3HwM9Y06wEhmf2BOIaz7s033/Q1j0CIkMN44IX4jOiDk5L3AfuM7yFo8q4I9jX9Yr0zFtYh+4lxcy0sHnzwQd8LwXsJtx7iX9++fRNMIWTMiO88m/Gxllg71K5j/0ZaJy4hAYt9QSrju+++605DxFFEet4jvO8QQCdNmuSCHNfyHqXfjI/3GHwDgTDYa4H7Eebz5s2LmQfmjTGwTti7vHNPRtH6VP0fRA1OBERABFIBAQlYqWASNQQREAEREIG4CcQnYBG04RaiWDKBFkIFAVX37t29lk7dunXd0YGrATfRlClTPDBEUCDIjkvAwqlBShb3RJAgGCNY5f6krRHo4jAg6CbIi10DC/HmtNNOc8cYggzX4+YgOEU8wOGDgISYgXjx2muv+T1wSZGSiIuEABlRCyELAYqgGUEAQYF+kDpGulBQDywuaghYpFvSeB73IDAmkEdUaNSokQfv9JVGgMq94YQYiFCHQEd/edbNN9/sohD3JD0KZwlOD4Q0hA2cHYwddsE9IxGwEGfgCCeeUb9+fRcvqIOE0IfogHCIkEBhdUSpSpUqefoo/BAkqPNFoE9fEI+YH5gy34hECETx1UdDcKlXr5599dVXngrKHCfWCOwRfBDL4MgaI/BHTMFdx/OYX5xIFM5u3ry5C2n33HNPzK0RSIPi+jBG/EAM5fmsYZxUiEfUtsJ1xlwgrCIgMG7mF9EnvAYW6xzRKK4TGll/OL74HgIGawf2pPlNnz7duQW10hAyqAk3depUF8zoP3OLu4raS7DmM/YbIhjzhLiDaME96BPr6OWXX3ahD1EwoRpYCHXMMw5KvhNJvTbGAWP2MfdHGMUpxB7Dicb6wBkV1ApjLSAkI/yxt9m/QX0q1jJ9Jm2Rxj5gHqmzxj6ksR6pv8U8IfhxH4QZOLDPGTeCDc8OUvVwfI0YMcJ5xZVCiDCESIWYhFiGawmHGH1HnGMswX5IbE0mJGCxP9kHvGvYu7Bi3d97770usgdzjPgHV/Ywgj3jgyHjZUyImgiC7BPcWKwpRFHWJe+t4B8HeG/xDuE7zz77rAvOaiIgAiIgAiIQTkACltaDCIiACIhAqiWAgIUbCIEHtwABfuD2IYAieEYcIIAnzSeoVcT1gYOBlBmEEgI4HA8IBbgf4irijmiFWBMcPQ/YcePGuUBBIIuoRIuvBhaBXWwBC3ECkQenzcSJEz2IpPEMxCv6QrDLNVyL+4hxEkRzehmNMQQFmREScOrE1whEqeXEcwgmCURpBK4IeIgZuNRwiSDuINzh8CF9CscKrjaEBVIKKQaPYENAisiEYwWRg/vwDIRAxATmBldHQqcDxnZgIRwhyCGYEbgHLhaCeuaGZyISEAQnJGAhQCAkBG4rXEqMjb7iLItP7MONg1hEYI5QFMkJbQT99I3xMs+B24oUKoQgxoIIgjMqqQIW42QMrDWEFeYGZxbiAPOPqIHQcLQ1sFjb3AfhiT8jmOA+w2mHsMn8hwtY7D3mnwYj1ihjw8mDQIMQhziCYDVt2jRPIaVxj0CYTEjAYq9Qb431xdpib4anYMa1vhELWau4hlgzCNVBQ+hjzfJM1jH351r2C6Ic84Vrip/zd0QZnss+C4rDB3sH5oFLjn2PkMfeR2wN0pUZJ2sfoYw5wz3G/kX0SUjAYg4Q9eBL3S9cXEGDKWIajjjeFQkJ1cF3jkXAYt5wVAaplAir7BnmBJEat1VwMAXMYIGQzdqBESLo22+/HfNOo0+IibzD2A8ItMlVry7V/kdOAxMBERCBNEZAAlYam3ANVwREQATSEgGCPFKwcHiQ9oOwg0BBqhNBVnBCIQE5Yg2BK64AnE9BIwAjyKZmFYE1wguCQ2wBC0GJmkVB0WhSirgvrgLcJAgIpBfRkiJgUROHYI7gEIdYIPLQLwJIBDqCZdxEiEwEtASwCGdBYM24g0LXBNwJFbMmCMe9QXCO+yeoBUXgTNBP8MwzCb4JLrkeBwmpUPwM9wW1txAGEWRwq1ArCtcGc4EwQzCPC4j+Dxw40NkQeCeU2hhbwEKcIgiGCeMP/y5CAeIkIgP9SEjAwmEWBNuB2ML4+Q7CTCAYxt43CKG4bBB0cHPBPLFGEI94wlpDLA0azixcbQT0zBtusaQKWIhupF0xz7iLaNyXNct9AzHyaAQs9gtrm32AwwgBgrXNnxFNuD/iWCBgkRoGuyAFlr688MILLgghNMGXPYSwg/DH/AenIbKuEbm4lv0SnwOL615//XUXnRBFEDsSE7BwLrFP6DP7GdEtaMwnwglpcKwf3ID0AQcW1+LeCxpjQ4TE4cecBi493FmIqrg72TsIlIg2vGtY7+GOPvYkjiXmmz3CfkNwTEzAou88G6GH54fXauOe7AveA6yzcP7xrc2jFbB4p+HsDFIlEeIYH+xwMSLuBg2hkfWO4AkHnomjlfmCcbjLkXnl/ci+w1UXrOXE9pY+FwEREAERSBsEJGCljXnWKEVABEQgTRJAwELgIKjEjYQThOCJVBYcK7gqSL9BnCFoQtwhgI0dNPE9hCOcQwgtsQUsUpdI3UEQQ0ghtQb3A2IOgTGfIdSQSpRUAeull15yUQ0xBhEocCQQ6OEcQjzCXUUgj4BA/whccbwEDgwCW5wkOD34ndTA+FpQAwvxgPEGTjTuQRohnAjIGQtjxelBQE9wivBCMEo/CK4pjE6AjvCFKMEvAlw+Zzzcn/Qygu6gDll8/YotYFFTC8GR2mDhNaL4Pm45hEYCalK0qNcTXwoh3BDWAgGMtYDohUCA+MBcxtUQJllX3BuBIxKxgLQvBE7uSzpa0AKHEixxtyFiJFXAonYToir1uIJUQIQm1h3rD7EEYRYXUlJOIaRvCEUIY6xnDgdgf7AOESaDX4iVgYCF2MVch4t6iBqIF4g1OLP4Hr+zXhEbw/cc84c4yXgSSiGEOymEiHc4qOJKgQyfO/Y+6xqxjP4FDjiuwblH6iXrF2cT4hbiCmmS8AuciFxL6iOiMmuevRA0RE8KzzO3jBNxiblmjzIvCHZBY/+ytxHA2CusDcSpxAQsnoEYhIDEuyu2QwmBEvcgz4tkTR6tgIXDkXdF+BpGLGU/8p4IT/9DhEdY53PEZmrz8S4j/RjhM3ZD/Ic3wmZCBzukyf+oadAiIAIikMYJSMBK4wtAwxcBERCB1EwgqIGFGwIRiEbQhFCAABI4I6g/QxBNEMzvcaXY4RYg/Qc3V+wUQtwo3AsnDs9ETAiCfAJ3gmwCcVxUtKQ4sEjJQaBiDHw//IQ10m9IvePnBPyBgEU6EsFfUFMqXMBCpMMhEl8jKKU+Ew4Jgs3AYYHTiFo4BNwE5ASgiCH8mUbAHKTxIQLhAEFEw3EDa054gzuMKWyN+MRzKDKOYJBY0enYAhb3pi/wxlUT3hB/EBgQKOkf6X7xCVg4xwLhkXvQd8ZG7SEcYogEcTXWEXOOSwQBDlEhvnpZwfeZR9INqe8TpHfyGe4VHEQ8DwGLFDLESYQ05p3+BI00M9Yy9brCa2Cx5ugD8xA4kZJDwEKoQARGaGRvkJ7IXLGmmFfWGem4CJCBgIUzB4EoOFyAvrOOmQsK35P6Ssouv1MHLHArBWOEEXsGZ1VCAhYpqFwHP0Rp9mZCDdEHoYg1TX/C3Us4MxH2GBuuK1J2EbAQmRCwgsMIuD8CDaIp4w9ON+XnrDPuEVvAIi2RMdLXoAUOSvYBXNlvkQhYPIPUR1jz/HARLrg3Y0BQZI0k1o5WwELAXbx4ccztETqZ20DAYr8FDX64FWGA05Dv4SKjphprK67GuBBLExMlExufPhcBERABEUhdBCRgpa751GhEQAREQATCCMRXxB0RAHGAU+xIH8PBgUsIIQPnBIJIQidgxS7iTopVUM8GcSZI3SNIJXgNUu8CAYugDScUqTXhTpy4amAhKOFEwVGEYBEISkHaIwIRgSFpWQThOFqOVcBCOEDkwmGC8ERDJMA9hYsLNw4pT6SQ4Wjhetw1QXojfUPMQwBDoEJcIHDFgYJrBpGFADdI2+SzxFpsAQsRAZEKMQeXUXj6GIIAAhriCoXWE0ohPFoBizHizmFM1AGCTVw1hxD++AUb2OFCgSsBfCB44f5B3KCeGAIj7hNEIeYcNrANGiIM4ya4P1oBi7mjeDb8g7UaH3/mmDVMfS3mLUj1I90N5xDuO9xUSRWwuC9jZt6Yq6AfsEJAQpxkjyYkYOHUwWWHywkWOLriSkMlvRfBjesRA6mfRp228LpluCpZ8zigeG+wz5JLwELkYr4RnIL3CuNE8EFI4+c8G1EoMQdWULidtE2E2khcVgntrZMhYJHKGdQfw50VidCW2PtBn4uACIiACKQNAhKw0sY8a5QiIAIikCYJxCdgIT4ENXkQlRCuCG4RIgjsEWiC07QQlRCoCNhxZfB5bAEL1w7ODlwlBKScahccE48YhhMm3IFFwIoYQKCOmEBDzIhLwApSvkhVC4q1kzZEnSmEDNwWCCOIHrhlkkPAQjjBAYEoQOoPQTcBPoE4/UR8w5mEWAc70tOCU9eChUZgjPACE/qLe4u0ItIK+TkuNmr14DRKqCZXcL/YAhZBMI4jnFAIIEFRecQU3Cy4cXA04fI4HgIW/SJdC5EFUY6USsQwhBhEFNYY84HQxrphXkgnpTYQLiZEN07oY85hQ6oj6WeIkYhEuHHghRuLa7kH6ywQLBn70QhYCJGIjtTHQsAKUrjic48hquHyw/HDfkKowm3DOkcohC37IakCFvPGnsCNxl5gLbNOcHoh2pGmR4ppQgIW7HB74YQLTgGljlUgiCASrVq1yvmyxhCLEQ/pN88IHIbsbwSz4PRM3gmwTi4BC+ddUKCf+WSc7AsciAhQiOikW0ZyCiHrinXNWkOcRRBFZGb++AwRm7liXhMS4cP3KUIiaYf0IzxlL6FTCI/FgQVb1jRrGTcqe4f3Ko33Ji4z5g6BMTFXY5r8D5sGLQIiIAJpmIAErDQ8+Rq6CIiACKR2AvEJWIwbAYjADRcWdZoQrAjKCQhJW0FkIDBE2Fq9erW7a3CcEHDGFrCogYXLilpKOFVwHRHk4/Qg7RCRJlzACtL0SLkjlYzvU0wcESD2KYT0FTcTQhHBHPfGtUItJcQIgnCCf36WXAIWbjICSoQUakCRYsnzCPQJ6gm8YUTgiUCAAyY4xS9YUwTSCAWIdDBD5OF+CBfc45lnnvEUMxwY4alm8a1JAnKCa1IyCbYJ1qnNhBBBuiYCVlBwHy4IQYg8BPHHS8CirwTbQQF2+lWiRAlP3WT81NFCvGTumF/mD4cVv7iWVFXWF0XP+Tt9RmRBAMM1RLF82FK7inlAtON5CBQwPRoBC2EAIZQ+kHaIsMJcI7TGlY6GiIGwg9iAyMIpnAiPFCxn7zD/nEyZVAGLueIEQxxUiJ3sA/Yb98NlhNCJWyohAQv+rAP2F/sGUQUhF2GQ/YCoRSoo80HNNfqOEMy+Z29y8iECJ89EUOIkz0DEYQ0ll4DF83BF4sJjfSDSUOeLRgohgjGiViQCFt9B1OY9hfuNOWF9sEcZP842/o5AxM8SayfDgUWfGCvvS9Y+/WX9wIC9yhhwlCJ0S8BKbAb1uQiIgAikLQISsNLWfGu0IiACIpCmCCBwICxRa4faNOGNABUxhDQ+XDQUNkc0IHWL1BwELq5BXEJcINjnGoJ9PiPwxNWBeERgSlCJq4vAFHcLYg1uC4QXgn9SiHDh0AhgcZ5wbXBaISII4gX9xUVE2laQ4oRjgRPg6CsuHoJ/HEa4o+hTkFaIoIBohGiGWypwohDk893g1La4anwFbAhoEUZI8WNcFFxGsEAEwN3CM2FAAMqfSX0imI4dLNNn6kNRC4nn0a/AZQYnagvh4sL5klj9K+5FgIu7CTcNbiQaYgwMGRuBL61AgQLupINLkFaImIRjBdEHwY+fI57gtKNwNymQQeoZ90TEQKBhTiIR13DnIaJQvBwRAfGSMTEPnF7Hr8BhwnxTu2zu3LnusiJoR0RCxEA0DXfNMNesh2XLlvmcsx5YQ3yXucHZwzpD8MHBxXPC019Zv3BGrEFEwcXGfVi/3BeBjXVLLajY7pvwvcJcs1dYg1zPPDDviJGMhVRN9gjrHmGSNEfSZMNrUvFdnHvsxeCEOvYB4hfrBJGYvYYAxbrgvoi17M3EGvfh+6wDhC940BDkYEtfEUkQXRk/IiDCIFwR6NgnuCYRboNURtYc9ZxINUQMQugKGu8IhM6K/kgAACAASURBVDXSR8PfK6wzBDn6zzxwX56DEMO6Yw9xP9YAYh1zycmRwd5h/yJ2Inaxf5lj1iFzhxjLfActYI+wTEo0DBByWXPw5X0Vu8B7XBwD5xricLgTimtZx7gbSVfEuYbgjojN+wzGzHvQeHcyVt6dvBvDD2Vg/bEeSPFEmKIxD6x/5p69yDuG9wNrkXWKGzG87lhia0Cfi4AIiIAIpA0CErDSxjxrlCIgAiKQJgkQ5BEsEhTFrrNCAIU7hs8J/AL3CWIPPycYR8xAUEAg4lcQEBLcEqwiUiBMBC4BgjgCOz4nGOczAkuujd2H4FqCRPpCAMn96A/CA8FueAFj+sV46BvXE/Ryz/CaPzyLoBCBhu+Hf8Z3GRM/p2/xNfpDIM14CaAJWINTGHke9+b51LUisCaIRQSKq/ZQwJ9xhdeHCn5OPxBgEnNZEMQj7uGSQ0gJF7zgQh/hQqPf4XPCz+BCkM94gufBmKA5fO6DwJrxMz9cG15bK6FNxFqBL4IIz+N7rDn6GpsN96bPiEF8xtqj37E5wJn7cS1/pq/cjzUWBPusSZ6HcBZ7PQbpr7HXU7D2mQf6TR8QbhISPOgra5PrWXv0mZ/RNwRFxstccA3rhfUcLsYxDvrNGgoE14A3/eA+PJ8x8j2uDdZ4pC8v9l2wXhkj800/g9ps4feBCX1lLthnrJnw6/g+TjfWVTC+4PuMmz3NXgp/rwT7j/sFezMQsEgbRrzhmfQzGFs4c76PGEo/uDdzTP9Yu3AJLzofrGvGC1v6yxxwHfdObE+FC0+wph+x3xkBA+4PA+aFOWbf0Nfw+mlcy9jghTgX/u6CNeOi/7FdfowveOfRJ8bOGBJ6R0W6HnSdCIiACIhA6iMgASv1zalGJAIiIAIiIALHlQDBKi4bHCy40BI7/e1oO4OwQeBLzR9cYbhTcHJE4iw52mfqeyKQnATCBSwcSGoiIAIiIAIiIAJHT0AC1tGz0zdFQAREQAREIM0SQMTCjYF7J1K3R1JgBafRUa+J2k+klk2dOvWwVK6k3E/XisDJICAB62RQ1zNFQAREQARSKwEJWKl1ZjUuERABERABEYhiAqQoUVeKIu8XX3yx14giLe14iGVRjEldT+EEqItGHTLqrHHQgJoIiIAIiIAIiMDRE5CAdfTs9E0REAEREAEREAEREAEREAEREAEREAEREIETQEAC1gmArEeIgAiIgAiIgAiIgAiIgAiIgAiIgAiIgAgcPQEJWEfPTt8UAREQgRNGgHpDSp06Ybj1IBEQAREQARGIOgL6f4WomzJ1WAREIIkEJGAlEZguFwEREIETSWD37t22ZMkSP4mNI9LVREAEREAEREAERCA2AcSrvXv3+oEXxYsX12mtWiIiIAKpkoAErFQ5rRqUCIhAaiHw008/Wdu2bW3x4sWWI0cOubBSy8RqHCIgAiIgAiKQjAQ4+GLr1q3WuXNn69ixo2XJkiUZ765biYAIiEDKICABK2XMg3ohAiIgAnES2LBhg/Xs2dMqV67sp1ilT59epERABERABERABETgMALbtm2zrl27Wrly5axVq1aWOXNmERIBERCBVEdAAlaqm1INSAREIDUR2LhxowtYVatWtfr16yslIDVNrsYiAiIgAiIgAslEAPdVhw4drHTp0hKwkompbiMCIpDyCEjASnlzoh6JgAiIQAwBCVhaDCIgAiIgAiIgAokRkICVGCF9LgIikBoISMBKDbOoMYiACKRaAhKwUu3UamAiIAIiIAIikGwEJGAlG0rdSAREIAUTkICVgidHXRMBERABCVhaAyIgAiIgAiIgAokRkICVGCF9LgIikBoISMBKDbOoMYiACKRaAhKwUu3UamAiIAIiIAIikGwEJGAlG0rdSAREIAUTkICVgidHXRMBERABCVhaAyIgAiIgAiIgAokRkICVGCF9LgIikBoISMBKDbOoMYiACKRaAhKwUu3UamAiIAIiIAIikGwEJGAlG0rdSAREIAUTkICVgidHXRMBERABCVhaAyIgAiIgAiIgAokRkICVGCF9LgIikBoISMBKDbOoMYiACKRaAhKwUu3UamAiIAIiIAIikGwEJGAlG0rdSAREIAUTkICVgidHXRMBEUi5BP755x/bvn27LVmyxNauXWtZsmSxYsWKWalSpSxHjhyWLl0645qdO3fa559/bqtXr7acOXNapUqV7JxzzrH06dNHNDgJWBFh0kUiIAIiIAIikKYJSMBK09OvwYtAmiEgASvNTLUGKgIikFwEEKZWrVpljz32mH3//fdWsGBB+/vvv23z5s1WvXp1a9euneXJk8d+++03Gzp0qC1atMjy5s1ru3fvtj179tijjz5q11xzTUQilgSs5Jo13UcEREAEREAETg6BQ4fMduww27TJbN8+s+zZzfLnD/2eLl3y9EkCVvJw1F1EQARSNgEJWCl7ftQ7ERCBFEhg7969NnHiRBs7dqx16dLFatasaX/++adNmDDB3njjDZs8ebKVLVvWZsyYYYMGDbLWrVtbrVq1jP+57Nixo2XPnt1GjBhh+fm/10SaBKzECOlzERABERABEUi5BHbvNvvkE7N33gn9/tdfZnnzmlWubFazptmll5plyHDs/ZeAdewMdQcREIGUT0ACVsqfI/VQBEQghRH466+/bOTIkfbaa6+5kFW8eHE7dOiQvfzyy9a/f38bM2aMlS9f3lq0aOFphsOHD7fzzjvPUwpfeOEFd2UNHDjQqlat6qmGCTUJWCls8tUdERABERABEYiQwJ9/ms2YYTZ8uNnKlSH3FY3/9GfLZlahglnfvmYVKx67E0sCVoSTostEQASimoAErKiePnVeBETgZBA4ePCgvf/++9anTx+rX7++//rjjz/ckbVu3Tp3V+XKlctq165tJUqU8FRD/k5bunSpC1sPPPCANWnSxDJlynTYEPbv328HDhyI+dnPP/9sffv29dREnpMhOf6Z9mRA0zNFQAREQAREIA0R+OefkOOqfXuzzz4zO3jwyMHzn3ScWDNnmp166rHBkYB1bPz0bREQgeggIAErOuZJvRQBEUhhBHBhkSI4ePBgQ9DiF7WwunXrZpUrV/b6V7feeqtdd9111rNnT8vGP7Waee2sxo0bW4MGDaxVq1Ze/D1ouLgQwZ599tkYEWvfvn1eCH7AgAESsFLYGlB3REAEREAERCA+AqQKjh1r1ru32c6d8XPKkcNsyhSz2rWPzYUlAUtrUQREIC0QkICVFmZZYxQBEUhWAghNn376qYtKmTNn9hpY27Ztsw8++MCKFCniIhapgQhYpAmGC1gUfb/zzjvjFLBIMeTEwuXLl3tKIg1n1zvvvGPNmjWTgJWss6ibiYAIiIAIiMDxI7Btm1nXrmbjxyf8jIwZzTp0CKUSxjJlJ6lzErCShEsXi4AIRCkBCVhROnHqtgiIwMkjgKhEWuCyZcts9OjRdsEFF7gDCwGrd+/e9uCDD3rKX506daxUqVLWr1+/mBTCL774wpo3b27333+/NW3a9IgUQkSs8LZhwwY/tRAhTCmEJ2/O9WQREAEREAERSAqBLVvMOnUye+aZxAWsdu3M+vUzy5w5KU84/FoJWEfPTt8UARGIHgISsKJnrtRTERCBFEJgy5Yt9vDDDxvpfaT8nfpv4YoVK1ZY27ZtrVq1atauXTt3TZFqSBH3c845x3v/yiuvuPjFrxo1aqiIewqZU3VDBERABERABJKLACmDnDo4dCi1LxO+6ymnmI0ZY9akiVIIk4u/7iMCIpB6CUjASr1zq5GJgAgcJwI7duxwAWrBggU2ZMgQK1OmjItZr7/+ug0bNsy6dOnibqlp06a5eNW5c2cXq6hlhcBFoXacW4GolVA3dQrhcZpE3VYEREAEREAEkpnA3r1my5aFalp9+KHZ+vWh4u1xFXDn0ZxGWKaM2euvm/3771xH3SM5sI4anb4oAiIQRQQkYEXRZKmrIiACKYMA6YKLFy+2Tp062a5du1zA2r17t+HAKl++vA0aNMjFqc2bN1uvXr1s4cKFdskll9ivv/5qmzZt8lMKEbTSp0+f6IAkYCWKSBeIgAiIgAiIwEknQMogwtWkSWbr1pnxn/jrrjPLly8kUG3demQXCxQwmzjR7PrrQ9cfS5OAdSz09F0REIFoISABK1pmSv0UARFIUQQosv7DDz/Ym2++6cJV1qxZrUKFCl77Kl++fJ4aSD0r0g3feustW7p0qeXJk8fq1q1rJUuWtAycnR1Bk4AVASRdIgIiIAIiIAIngQBlK/fsMZs/32zEiNDvBw6YFS1q1rKlWcOGobpWL75o9vTTZt98E/o8Vy6zsmXNqH11zTXHLl4xdAlYJ2EB6JEiIAInnIAErBOOXA8UAREQgcgJSMCKnJWuFAEREAEREIETRWD3brOVK82mTTN7+WWz3383K1jQrFYts2bNzC655D9hioOFN282W7XKjO/lzWt24YVmlNAkjTA5mgSs5KCoe4iACKR0AhKwUvoMqX8iIAJpmoAErDQ9/Rq8CIiACIhACiNAnau1a81mzTJ74QWzr74KpQlefbVZ/fpmVauaZc9+4jstAevEM9cTRUAETjwBCVgnnrmeKAIiIAIRE5CAFTEqXSgCIiACIiACx5XA9u2helbTp5t99pnZH3+YXXWVWePGoVRAalplynRcuxDvzSVgnRzueqoIiMCJJSAB68Ty1tNEQAREIEkEJGAlCZcuFgEREAEREIFkJ0Ddqs8/NxszxmzOHDMKtpMu2LSpWd26ZoUKmWXJkuyPTdINJWAlCZcuFgERiFICErCidOLUbREQgbRBQAJW2phnjVIEREAERCDlEaBI+6ZNZuPHm40bF/oz6YHUuaIAe7lyZhGeyXLcBycB67gj1gNEQARSAAEJWClgEtQFERABEYiPgAQsrQ0REAEREAEROLEEDh4027bNbMECs1GjzBYtCqUGFitm1rx5yHVFAfaU1CRgpaTZUF9EQASOFwEJWMeLrO4rAiIgAslAQAJWMkDULURABERABEQgQgKcEvjJJ2YzZpi9/bbZ1q1mF11kduONZg0bhk4PPFl1rhIaggSsCCdYl4mACEQ1AQlYUT196rwIiEBqJyABK7XPsMYnAiIgAiKQEghwuuCqVWavvmr2yitma9aY5c1rVr26WYMGZhUrmmXLlhJ6GncfJGCl3LlRz0RABJKPgASs5GOpO4mACIhAshOQgJXsSHVDERABERABEYghQJ2rzZtDpwu+8ILZF1+YUbS9cmWzu+8OnTKYL1/KqXUV39RJwNKiFgERSAsEJGClhVnWGEVABKKWgASsqJ06dVwEREAERCAKCFDfauhQs9mzzXbtMitQwKxly9AJg2ecYZYxYxQMwkh13GodOnSw0qVLW6tWrSxz5szR0XH1UgREQASSQEACVhJg6VIREAERONEEJGCdaOJ6ngiIgAiIQGonsH+/2bp1ZlOnmk2eHDpd8PTTzWrUMGvTxqxUqZTvuIo9RxKwUvuq1fhEQAQgIAFL60AEREAEUjABCVgpeHLUNREQAREQgagiQGogYhVuqwkTzBYvNsud26xs2VC6IIXa+Xs0NglY0Thr6rMIiEBSCUjASioxXS8CIiACJ5CABKwTCFuPEgEREAERSJUEqHO1c6fZ/PlmL71k9uGHZjt2mBUvbla7ttktt5gVLZoyTxeMdEIkYEVKSteJgAhEMwEJWNE8e+q7CIhAqicgASvVT7EGKAIiIAIicBwJHDxotny52dNPm737rtn69WZnnmlWp07odMFLLjHLkeM4duAE3VoC1gkCrceIgAicVAISsE4qfj1cBERABBImIAFLK0QEREAEREAEkk7g0KFQuuD06WbTppl9802oIPt115ndc49ZpUpmefIk/b4p9RsSsFLqzKhfIiACyUlAAlZy0tS9REAERCCZCUjASmagup0IiIAIiECqJ0CtK+pb9etnNm+e2b59ZvnymXXvbnbHHalLuAomUwJWql/WGqAIiICKuGsNiIAIiEDKJiABK2XPj3onAiIgAiKQMghQ5+rvv83WrjV77rnQr99/DwlXnC7YunUoXRAXVmpsErBS46xqTCIgArEJyIGlNSECIiACKZiABKwUPDnqmgiIgAiIQIogsH+/2U8/mc2aFRKuqHmVK5fZVVeFHFekDUbr6YKRApaAFSkpXScCIhDNBCRgRfPsqe8iIAKpnoAErFQ/xRqgCIiACIjAURLAdbV1q9mcOWYzZoR+37PH7LLLzOrWNatVy6xwYbMMGY7yAVH0NQlYUTRZ6qoIiMBRE5CAddTo9EUREAEROP4EJGAdf8Z6ggiIgAiIQHQS+Pxzs7FjzT780OzXX83y5w8VaL/9drPzzzfLls0sXbroHFtSey0BK6nEdL0IiEA0EpCAFY2zpj6LgAikGQISsNLMVGugIiACIiACERDAdcXpglOnmo0fb7Z+vVnWrGbVqpm1aWNWvrxZlixpR7gKkEnAimDx6BIREIGoJyABK+qnUAMQARFIzQQkYKXm2dXYREAEREAEIiVw6JDZzp1mCxaYjRoVOl0wfXqziy82a9HCrE4dszPOiPRuqe86CVipb041IhEQgSMJSMDSqhABERCBFExAAlYKnhx1TQREQARE4LgTwHFFXasVK8xefDFU62rbNrNzzzWrWTOUMli8eNqoc5UQbAlYx30p6gEiIAIpgIAErBQwCeqCCIiACMRHQAKW1oYIiIAIiEBaJXDwoNnKlWavv2726quhP592mtn115vVr29WsWLotEE1itlvtQ4dOljp0qWtVatWljlzZmERAREQgVRHQAJWqptSDUgERCA1EZCAlZpmU2MRAREQARGIhACuqy1bzGbNCrmuFi82278/JFg1amRWtapZgQKhFEK1EAEJWFoJIiACaYGABKy0MMsaowiIQNQSkIAVtVOnjouACIiACBwFAYQqThccPdps9myEmVBtq9atQ3WuzjvPDHNRWjldMFKEErAiJaXrREAEopmABKxonj31XQREINUTkICV6qdYAxQBERABETAzirQjVk2ebPbEE2a//26WLZtZ9epmffuaXXKJRKuEFooELG0jERCBtEBAAlZamGWNUQREIGoJSMCK2qlTx0VABERABCIgQJ2rzZvN5s41GzfO7JNPzLJmNbvsMrO77jK78ca0fbpgBAj9EglYkZLSdSIgAtFMQAJWNM+e+i4CIpDqCUjASvVTrAGKgAiIQJolsGOH2WefmU2fbvbmm2b8vWhRs1tvNWvQwOyii8wyZkyzeJI0cAlYScKli0VABKKUgASsKJ04dVsERCBtEJCAlTbmWaMUAREQgbRE4MABs2+/DRVof/ttszVrzE4/3eymm0J1rsqVM8uRQymDSVkTErCSQkvXioAIRCsBCVjROnPqtwiIQJogIAErTUyzBikCIiACaYIApwv+9pvZK6+YTZlitnKlGT+rXNmseXOzSpVC6YI6XTDpy0ECVtKZ6RsiIALRR0ACVvTNmXosAiKQhghIwEpDk62hioAIiEAqJrB3r9mSJWYjRoROF9y1y6xgQbOWLc0aNjQ76yyzDBlSMYDjPDQJWMcZsG4vAiKQIghIwEoR06BOiIAIiEDcBCRgaWWIgAiIgAhEM4F9+0JF2idMCJ0wuGWLWa5cZjVrmnXsaFaihBxXyTG/ErCSg6LuIQIikNIJSMBK6TOk/omACKRpAhKw0vT0a/AiIAIiELUEqHO1cWPIbTVpktlXX5mdcorZFVeYNWpkVqOG2amnRu3wUlzHJWCluClRh0RABI4DAQlYxwGqbikCIiACyUVAAlZykdR9REAEREAETgQBalr98YfZvHmh0wXnzDHbvt2sbNlQgXYKtZ9/vk4XTO65kICV3ER1PxEQgZRIQAJWSpwV9UkEREAE/iUgAUtLQQREQAREIFoI7N9vtmKF2dSpZrNmma1bZ5Y3r1n9+ma33WZWunTIhZUuXbSMKHr6KQEreuZKPRUBETh6AhKwjp6dvikCIiACx52ABKzjjlgPEAEREAERiJDAwYOh4uv8TvpfeNF1XFbUuJo40ez/2LsTcJ3K/f/jH/M8z0OhDJVmRXGSUCRjUo4hQxkzDyFDmZLIEEriNCiVhiNK04lGmkjiKFSGIsMxZt6b//+71tl+ONjP3vsZ1nrWe13XvjZ7r2fd3/v1XX6/0+e61702bHBDqltvlXr2lCpXdoMr3i4YInQqTiPASgUaH0EAAd8JEGD5rmUUjAACQRIgwApSt5krAggg4E2BQ4ekL76Qnn9eWrpUso3Zy5SROnSQbr5Z+vlnafx46fPPJdv7qnx5qUsXd+VVwYKsuIpGVwmwoqHMGAggEGsBAqxYd4DxEUAAgfMIEGBxeyCAAAIIxFLg4EHp6aelxx+XduyQbI+rpCNHDnc/q//8x/1dsWLS7bdLHTu6bxfMlCmWlQdrbAKsYPWb2SIQVAECrKB2nnkjgIAvBAiwfNEmikQAAQTiUuD4cen996W2bd2A6lxH7txSrVru2wXr1JFy5oxLDk9PigDL0+2hOAQQCJMAAVaYILkMAgggEAkBAqxIqHJNBBBAAIFQBP76S2rdWnr77dNXXp352XLlpGeekW66ibcLhuIaiXMIsCKhyjURQMBrAgRYXusI9SCAAAKnCBBgcTsggAACCMRKwN4iWLWqtGXL+SsoXlx6+WV3PyzeMBibbhFgxcadURFAILoCBFjR9WY0BBBAIEUCBFgp4uJkBBBAAIEwCqxdK1WrJu3cef6LFi4svfSSVLs2AVYY+VN0KQKsFHFxMgII+FSAAMunjaNsBBAIhgABVjD6zCwRQAABrwjYvlf21sH166VXXpGefNL9+/kO27B99mzp6qu9Movg1UGAFbyeM2MEgihAgBXErjNnBBDwjQABlm9aRaEIIICA7wUOH5Z+/NHduH3ePGnNGilzZjfAOnr07NPLmlXq0EEaNkwqWND3BL6dAAGWb1tH4QggkAIBAqwUYHEqAgggEG0BAqxoizMeAgggEDwBC6jscUELrhYskH74wd2M/dpr3bcKrlwpzZ8v7d9/uk2WLO7G7UOHuntl2Wc4YiNAgBUbd0ZFAIHoChBgRdeb0RBAAIEUCRBgpYiLkxFAAAEEUiCQmCj99pv05ptucGWrr44dk668Umre3N3T6uKLpa1bpblz3bcR2qosO6dIEalxY6lZMzfosjCLI3YCBFixs2dkBBCIngABVvSsGQkBBBBIsQABVorJ+AACCCCAQAgCe/ZIb7whzZolrV4tHTggXXCB1Lat1KqVVLKkG0rZWwVPnJDs8cJdu9wwKyFBKlpUKlBAypFDSp8+hAE5JaICBFgR5eXiCCDgEQECLI80gjIQQACBswkQYHFfIIAAAgiES8A2aLcQaskSadIk6euv3dVUFkY1bSp17ChVqEAgFS7vaF6HACua2oyFAAKxEiDAipU84yKAAAIhCBBghYDEKQgggAAC5xWwFVM7d0rffSe9/LL07rvupuwlSkg1akht2khVqvAYoJ9vIwIsP3eP2hFAIFQBAqxQpTgPAQQQiIEAAVYM0BkSAQQQiBMBe/Rv927ps8+kd96RPv5Y+vNPqVgxqVYtqUEDqVo1KV8+Vl35veUEWH7vIPUjgEAoAgRYoShxDgIIIBAjAQKsGMEzLAIIIOBzgb17pa++kl57zQ2w/vhDyp9fuvVW93HBypWlQoUIrnze5pPlE2DFSyeZBwIInE+AAIv7AwEEEPCwAAGWh5tDaQgggIAHBQ4dklaskGbPlj76SNq40d1o3R4VbN1auvFGqXBhKUMGDxZPSakWIMBKNR0fRAABHwkQYPmoWZSKAALBEyDACl7PmTECCCCQWoFt26QJE6QXX5Tsz/YIYaVK0oMPSnfcIWXP7r5VkCP+BAiw4q+nzAgBBP5XgACLuwIBBBDwsAABloebQ2kIIIBAjAUsoDp8WPrtN2nhQmnmTGnDBilrVunyy6V77pGaNZOKFCG4inGrIj48AVbEiRkAAQQ8IECA5YEmUAICCCBwLgECLO4NBBBAAIGzCRw5Iq1fL/3rX9Ibb0jLlrmPBV55pVS/vtSokVS+vJQxI35BECDACkKXmSMCCBBgcQ8ggAACHhYgwPJwcygNAQQQiIHAsWPSpk3uiiv7+uYbycIsW3FljwnWrStdcYW7CosjOAIEWMHpNTNFIMgCBFhB7j5zRwABzwsQYHm+RRSIAAIIRE1g61Zp/nzplVekVauk/fulsmWl5s3dVVflyrkbtrPPVdRa4pmBCLA80woKQQCBCAoQYEUQl0sjgEB8Cuzfv1/r1q3TYdt45IyjYMGCKlOmjDJlyqQTJ05o79692rx5s44ePaqiRYuqePHiSpeC/7IgwIrPe4hZIYAAAikR2LvXfaPgrFnS119Le/ZIxYpJd90ltWkjVajABu0p8YzHcwmw4rGrzAkBBM4UIMDinkAAAQRSKLB8+XL17dtXv/76q/NJC6osoNq9e7fuv/9+jRw5Uvnz59fatWs1YsQIffPNN0pMTHR+1r9/fzVp0sQJuEI5CLBCUeIcBBBAIP4Ejh+XDh6UfvzRfbOgBVgHDkh58ki33SZ17y5dd50U4v87iT8gZnSaAAEWNwQCCARBgAArCF1mjgggEFYBC6t27dqlhISEkwHW4sWLNX78ePXo0UOtW7d2fterVy+tX79evXv3dlZezZo1S3beP/7xD1WtWjWkmgiwQmLiJAQQQCBuBBITpd27pZUrpTfflF57TfrrL/dNgjfeKLVoIdWuLWXLxqOCcdP0MEyEACsMiFwCAQQ8L0CA5fkWUSACCHhd4NixY3r00Uf18ccfa8KECapUqZJWrlypu+++W126dFHXrl2VOXNmbdy4UbfddpvuuusuZ5VW+vTpk50aAVayRJyAAAIIxI2A7Wn11VfSO+9IH34o2ULffPmkmjWlBg2k6tWlfNxCcAAAIABJREFUokXdtw1yIHCqAAEW9wMCCARBgAArCF1mjgggEFGBnTt3qlmzZrrssss0evRo5c2bV3PmzNGgQYP0/PPP65ZbbnHGt1VZzZs3dx4nfO6555zzzjz++OMPbdu2zXks0Q7787PPPutc/5577lEG/qslor3k4ggggEAsBOzRQHtUcO5c6eOPpfXr3RVWN93k7nP1t79JJUpIGTPGojrG9IMAAZYfukSNCCCQVgECrLQK8nkEEAi8wLvvvqsBAwZoyJAhTtBkIdOYMWOcRwbffvttVaxY0TGy4Mr2wLLVWfa7UqVKnWZnv58yZYrziGHS44m2uuvQoUN6/PHHCbACf6cBgAAC8SZgjwv+9JP0wgvSvHnS77+7jwXecIPUrp1Uo4b76CD7XMVb58M/HwKs8JtyRQQQ8J4AAZb3ekJFCCDgI4EjR46oW7duzlsJLZS6+OKLneqHDRum1157TQsWLFD58uWdnx0/ftwJuZYsWaKZM2eqrL37/IzD3lpobzlMWoG1detWTZw4UQ0aNCDA8tF9QakIIIDA+QRske327dLs2dKMGe6jgrZpu71NsEsXd5+rAgXY44q7KHQBAqzQrTgTAQT8K0CA5d/eUTkCCHhAwN40WKtWLf3973/XqFGjnL2u7LC9sKZNm6Y333xTV199tfMzW2HVs2dPJ+yyVVYl7HmQZA72wEpOiN8jgAAC/hE4ckTaskVavFiaNUtasUKy7RDLlZMaNpRatpQuuog9rvzTUe9USoDlnV5QCQIIRE6AACtytlwZAQTiXMBWVE2dOlUPP/yw3njjDSfISjps5ZWtzLLf169fX+nSpdPhw4fVsGFDFSpUyNnXKnv27MkKEWAlS8QJCCCAgOcFjh6VNm2SPv/cfbPgokVucGULdG+7TWraVKpUyf0ZBwKpESDASo0an0EAAb8JEGD5rWPUiwACnhHYsWOH2rRpI3uM0B4XLFiw4MnafvvtNzVt2lR16tTRwIEDlTNnTn311VfOSq1+/fqpe/fuTqiV3EGAlZwQv0cAAQS8K2CPBW7bJi1c6L5Z0N4wuGuXZE+bN24s1a0rXXmllCcPjwt6t4v+qIwAyx99okoEEEibAAFW2vz4NAIIBFTA9qhavHixOnbs6DwW2LVr19PeEGibr0+aNEmvvvqqbr/9dhUuXNh5nDBLlix6+umnT+6VlRwfAVZyQvweAQQQ8KaABVW20so2aF+2TPrPf6RixaQmTaR77pEuuUTKnZtVV97snv+qIsDyX8+oGAEEUi5AgJVyMz6BAAIIOPtZ2eOB//znP/XSSy+pZMmS/6Oye/duZ2WWvYnQNmavXLmyOnXq5GzqHsrqK7sgARY3GwIIIOAvgYMHpaVLpWeekf71L2nfPilvXqlePalDB+maa6QcOVhx5a+uer9aAizv94gKEUAg7QIEWGk35AoIIIBAxAQIsCJGy4URQACBsAnYo4KHD0tr17pvFXz9dWn3bjeouvFGqVs3qXZtKWvWsA3JhRA4TYAAixsCAQSCIECAFYQuM0cEEPCtAAGWb1tH4QggEACBEyfcFVarVrn7XM2daytnpXz5pOuvdzdnt5VX+fPzqGAAboeYTpEAK6b8DI4AAlESIMCKEjTDIIAAAqkRIMBKjRqfQQABBCIvcOCA9OOP0rvvuhu0r17t7mlVpYrUqJG74qp0aYKryHeCEUyAAIv7AAEEgiBAgBWELjNHBBDwrQABlm9bR+EIIBCnAseOuY8K2mOC778v/fvfkj1CWLmydPfdUo0aUpkyUpYscQrAtDwpQIDlybZQFAIIhFmAACvMoFwOAQQQCKcAAVY4NbkWAgggkDYBezxwzhzp+eelTZskC7MqVpTuv19q2FAqVEjKnJkN2tOmzKdTI0CAlRo1PoMAAn4TIMDyW8eoFwEEAiVAgBWodjNZBBDwoICtrtq5U1qwQJo+XfrhB3fFlT0e2LKl1KYNjwp6sG2BK4kAK3AtZ8IIBFKAACuQbWfSCCDgFwECLL90ijoRQCDeBGx1lQVXS5ZIs2ZJX3whJSRIJUpIdepI7dtLV1whZcoUbzNnPn4UIMDyY9eoGQEEUipAgJVSMc5HAAEEoihAgBVFbIZCAIFACNibA20FVfr0Z3/Uz0KqrVulpUult9+WPvhAOnTIXWV1yy3SnXdK1aqxx1UgbhYfTZIAy0fNolQEEEi1AAFWqun4IAIIIBB5AQKsyBszAgIIBEPAginbt2rVKunwYXe/Ktu/qmBBN8yyYGvXLmnRImnePHfF1R9/SBdcINWr575Z8NprpQIF2OMqGHeMv2ZJgOWvflEtAgikToAAK3VufAoBBBCIigABVlSYGQQBBOJYwIIpexTw1VfdFVXr1rmPAubO7T4C2K6dVKWK9P330osvSp9/Lm3ZIuXJI9WtK/397/8XXGXIEMdQTM3XAgRYvm4fxSOAQIgCBFghQnEaAgggEAsBAqxYqDMmAgjEk8C+fdLkydKkSdLu3e5Kq6TDAinb06pCBWnZMmnvXvctgjVrSj17Sn/7m/uooK3Q4kDAywIEWF7uDrUhgEC4BAiwwiXJdRBAAIEICBBgRQCVSyLgc4HERHcFkR0WwNhXunQ+n1SEyre9rr78UmrbVvr11/MPkjOnVKmSuyKrfn0pf35cI9QWLhsBAQKsCKBySQQQ8JwAAZbnWkJBCCCAwP8JEGBxNyCAQJKAhTEbN0o//CD98osbYl14oXT11dJFF8X/puI2fwvvkgI8+7sZJP3s1O/2c/s6eFB6+WXp6afdfa/OdVgA2LGjNGCAa8qjgvy785sAAZbfOka9CCCQGgECrNSo8RkEEEAgSgIEWFGCZhgEPC5gYcxnn0nTp0tLlrhvybMAx1YJ2aohW2HUoIGUK1fsJpL0dr+kIMnqSwqdzvyeFEIdPSrZ15Ej5/9+6jkWRCX93T6X9HXmz5L+biuvtm1L3mXiRKlHDx4XTF6KM7woQIDlxa5QEwIIhFuAACvcolwPAQQQCKMAAVYYMbkUAj4W+OorN1yxjcaTHh9Mmo7tz3TppdIjj0hNmpx/9VDS/k/n+m7XTPqdjWNh0aFD7tepfz7X388WLJ0aMp3652PH3LkkfU9aNZX0/cyfWwhmtSV9JdV66lzOnFfSOWeanXkr2AqsJ5+UunYlwPLxP5NAl06AFej2M3kEAiNAgBWYVjNRBBDwowABlh+7Rs0IhFfgr7+kIUOkp55yw56zHRkzSg0bSgMHum/PS1rZdOp3C6DskboDByS7pn0/88+n/szCprM9omc/O9vjfLaq6tSAKZQ/21zscT3bOP1sX7aB+pk/z5ZNypHj9C/bv+psP8uaVVq4UJowwZ3ruY4CBaT586WqVcPbO66GQLQECLCiJc04CCAQSwECrFjqMzYCCCCQjAABFrcIAgisXSu1bOm+Je/UN+idKWPBTsGCbiCUFFxZ2HTqn5M+c+qm70l/Pt93u6aFZEnfbdVX0t+TNpJP+rsFThYo2Zc90ni2P5/6MwuZLKjKlMn9Sgqskv586s/tzyndn2rFCndjdts77Gx+NhcL/157zR2bAwE/ChBg+bFr1IwAAikVIMBKqRjnI4AAAlEUIMCKIjZDIeBRAQuuWrWSfvrp/AVasGOBkQVZSaHS2b5b0GShkZ13tu/n+519Jnt293NJ3+1np35ZyOSltyLaqrNXXnFXYdl+WEmbuVtwZUHaNddITzzh7iXGgYBfBQiw/No56kYAgZQIEGClRItzEUAAgSgLEGBFGZzhEPCgwJo1UuvW0vLl51+BVbKku5n7FVe4AVPSl61uSlrlZN9tlZEFWxbg2Nepf0762ZnfPciSopL275c+/VR6/31p5Up3VZo9Nnj99VKjRq6ZBXscCPhVgADLr52jbgQQSIkAAVZKtDgXAQQQiLIAAVaUwRkOAQ8K7Nkj9e0rvfji/27gnlSuhVB33CHZm/QuusiDk/BASbZv1+7d0pYtboCVO7dUrJi7d5aXVox5gIoSfChAgOXDplEyAgikWIAAK8VkfAABBBCIngABVvSsGQkBrwrYxu3jxkkjRki2sfrZjhIl3N/bo4bs45R8J20vLEKr5J04wz8CBFj+6RWVIoBA6gUIsFJvxycRQACBiAsQYEWcmAEQ8LyAbT7epYv01Vdu6GIriU49bCXRsGHuObYvFQcCCARPgAAreD1nxggEUYAAK4hdZ84IIOAbAQIs37SKQhEIu4CtEtqwQRo+3H1Dnj3uNnKk9Mcf0jffSLYy67LLpGbNpIoV3Tf5cSCAQDAFCLCC2XdmjUDQBAiwgtZx5osAAr4SIMDyVbsoFoGwCuzcKU2aJD31lLtP0+jRUosW7qbr9iihBVwWWtmG6xwIIBBsAQKsYPef2SMQFAECrKB0mnkigIAvBQiwfNk2ikYgzQK2yfhzz7mhlYVVvXpJPXq4QRYHAgggcKYAARb3BAIIBEGAACsIXWaOCCDgWwECLN+2jsIRSLWA7XH1/vtuYLVtm9SmjTRwoGQbtbPxeKpZ+SACcS1AgBXX7WVyCCDwXwECLG4FBBBAwMMCBFgebg6lIRAhge++c0Or9eulunXdVVi21xWPCkYInMsiEAcCBFhx0ESmgAACyQoQYCVLxAkIIIBA7AQIsGJnz8gIRFsgadN2e5vghx9Kl18uTZ0qVa8e7UoYDwEE/CZAgOW3jlEvAgikRoAAKzVqfAYBBBCIkgABVpSgGQaBGAtYeGVvF7TVVrNnS3nySOPGuW8YzJQpxsUxPAIIeF6AAMvzLaJABBAIgwABVhgQuQQCCCAQKQECrEjJcl0EvCWwe7f0zDPuWwdtD6whQ6QOHaRs2bxVJ9UggIA3BQiwvNkXqkIAgfAKEGCF15OrIYAAAmEVIMAKKycXQ8CTAvaWwddfl0aMkP78U+raVRo8WMqVy5PlUhQCCHhQgADLg02hJAQQCLsAAVbYSbkgAgggED4BAqzwWXIlBLwq8OWXUufO7qbtzZtLjzwilSrl1WqpCwEEvChAgOXFrlATAgiEW4AAK9yiXA8BBBAIowABVhgxuRQCHhTYskVq2lT69lt3s/aJE6Urr5TSpfNgsZSEAAKeFSDA8mxrKAwBBMIoQIAVRkwuhQACCIRbgAAr3KJcDwFvCNim7b//LvXvL735plShgruBe716bNrujQ5RBQL+EiDA8le/qBYBBFInQICVOjc+hQACPhI4ceKEDh06pD179mj79u3av3+/EhMTlSVLFuXNm1eFCxdWrly5lDlzZs/NigDLcy2hIATCIrBjh7vaasIEqUABd8+r9u2lrFnDcnkuggACARMgwApYw5kuAgEVIMAKaOOZNgJBEbCwavny5fryyy+1cuVKbdmyRYcPH5aFWunTp1fu3Ll18cUXq1KlSrrpppucP2fy0DvrCbCCcqcyzyAJ7N8vPf+8NG6ctHOnNHCg1L27lC9fkBSYKwIIhFOAACucmlwLAQS8KkCA5dXOUBcCCKRJwAKqdevWadasWU5wlTNnTl1yySUqX7688uTJowwZMujIkSP6888/tWbNGv3222/OCqyGDRuqadOmzoosLxwEWF7oAjUgED6Bo0eld96RHn5Y+uUXqXVr9+2DRYqEbwyuhAACwRMgwApez5kxAkEUIMAKYteZMwIBELBHBBcuXKgPPvhAd955p6644gonlLLVVelO2R3ZzrMgyx4ttFVatlrrgQceUNmyZT2hRIDliTZQBAJhE/jxR6lLF+mbb6S6daVp06SSJdm0PWzAXAiBgAoQYAW08UwbgYAJEGAFrOFMF4EgCVg4ZSuxMmbMGPK0ExISnIDLVmh54SDA8kIXqAGB8AjYvledOrkrsK66Spo8WbrhBil9+vBcn6sggEBwBQiwgtt7Zo5AkAQIsILUbeaKQIAFkjZytzDLHhW0v+/atUtbt25V9uzZVaJECWdTd68dBFhe6wj1IJA6Advryh4VnDFDKl3afYTwzjslD/6fndRNkE8hgEBMBQiwYsrP4AggECUBAqwoQTMMAgjEVsDeQDh79mzdfPPNzuOE27Zt0/Tp0/X5558rX758uvfee1W3bl3PvYmQACu29w2jIxAOgb17penTpZEjpRw5pH79pI4dpTx5wnF1roEAAghIBFjcBQggEAQBAqwgdJk5IoCAvv/+e7Vv314zZsxw3jg4d+5cTZ06VXfccYezgfvOnTs1duxYlStXzlNaBFieagfFIJBigYMHpddec1dfbdkide7svnWwWLEUX4oPIIAAAucUIMDi5kAAgSAIEGAFocvMEQEE9K9//Uvdu3fX4sWLlTt3bg0ZMkTHjh3TyJEjtXbtWg0fPlzdunXT7bff7iktAixPtYNiEEiRwPHj0qJF0oAB0g8/SHfc4a7EKlqUTdtTBMnJCCCQrAABVrJEnIAAAnEgQIAVB01kCgggkLyABVhdunTRRx99pOPHj2vgwIGqU6eO2rZtq40bN6pv377OY4RNmjRJ/mJRPIMAK4rYDIVAGAVOnJDWrHEfF/zoI+maa6RXX5UuuiiMg3ApBBBA4L8CBFjcCgggEAQBAqwgdJk5IoCAfvrpJzVv3lyNGjVSnjx59P777zursG666SYtW7ZMjzzyiPr06aOaNWt6SosAy1PtoBgEQhawNw4OHiy9+KIbWk2ZItWqFfLHOREBBBBIkQABVoq4OBkBBHwqQIDl08ZRNgIIpEzAHhe0/a/mzZvnvIGwdu3a6tChgwoUKKB33nlHb731lgYPHqyLL744ZReO8NkEWBEG5vIIREBg/35p4kT3K29eN8hq0ULKnj0Cg3FJBBBAQGzizk2AAALBECDACkafmSUCCEg6ePCgs2F7QkKCLrjgAuftg+nSpXN+tnfvXl122WW8hZA7BQEE0iRw+LA0a5Y0fLhke2B17Sp16yYVLpymy/JhBBBA4LwCrMDiBkEAgSAIEGAFocvMEQEETgocPXpU+/fvd0IsW4mVdGTIkEG5cuVS1qxZPaXFCixPtYNiEDivQEKCNH++1L+/9Mcf7qqrRx6RLriATdu5dRBAILICBFiR9eXqCCDgDQECLG/0gSoQQCAKArbSavLkyVq1apUOHDjgbOaedBQqVEi9e/dWLY9tUkOAFYUbgyEQCIOA/Z+Tr7+W+vSRvvlGqlJFeuEFqWxZwqsw8HIJBBBIRoAAi1sEAQSCIECAFYQuM0cEENDWrVudTdz37Nmja665xnl8MH369CdlbGN32+D9qquu8pQWAZan2kExCJxVwBZzrl8vPfSQuwKrVGnp5Zek664jvOKWQQCB6AgQYEXHmVEQQCC2AgRYsfVndAQQiJLAp59+qrZt22rmzJmqXr26MmXKFKWR0zYMAVba/Pg0AtEQ2L5dGjdOmjFDKlRIevxxqUkTwqto2DMGAgi4AgRY3AkIIBAEAQKsIHSZOSKAgL7++mt17txZb7zxhufeNHi+9hBgcfMi4G0B27T9mWekMWMkW9TZt6+7cXu2bN6um+oQQCC+BAiw4qufzAYBBM4uQIDFnYEAAoEQsEcHhw4dquLFi6tTp07Knz+/L+ZNgOWLNlFkgAVeeUUaNEjas0fq2FHq3VsqWpTVVwG+JZg6AjERIMCKCTuDIoBAlAUIsKIMznAIIBAbAXvj4MqVK/XQQw/p0KFDKlas2GmPEdqeWC1atND1118fmwLPMSoBlqfaQTEInBSwTdu/+ELq0EHasEFq0EB69FGpXDnCK24TBBCIvgABVvTNGREBBKIvQIAVfXNGRACBGAjs27dP3bp10wcffKASJUo4K7BO3cS9QIEC6tKli7M/lpcOAiwvdYNaEHAFbNP2NWvc8GrJEsne/TBzplSpEuEV9wgCCMRGgAArNu6MigAC0RUgwIquN6MhgECMBJYsWeK8hXDMmDFq1qyZMmfOHKNKUjYsAVbKvDgbgUgLWHi1ebM0fLg0Z45UuLA0bZpUr567BxYHAgggEAsBAqxYqDMmAghEW4AAK9rijIcAAjER+Pzzz51N3N99912VLl06JjWkZlACrNSo8RkEIiewc6c0dar01FNShgzSiBFSmzaSTzLxyMFwZQQQiKkAAVZM+RkcAQSiJECAFSVohkEAgdgKbNmyRT179lSTJk3UsGFD5ciRQ+nSpYttUSGMToAVAhKnIBAlgaNHpRdekEaPlvbvl3r1kvr0kXLkiFIBDIMAAgicQ4AAi1sDAQSCIECAFYQuM0cEEND69eudDdzXrVunG2+80XkbYaZMmU7K5MqVSzVr1tQll1wSstbx48dlwdjHH3+szZs3O6FYpUqVVLlyZWXNmlW2cfzu3bv12Wef6d///rdy586t2267TWXLlj1t/63zDUiAFXI7OBGBiArYo4OLFkk9ekgbN0otW0pDh0olS0Z0WC6OAAIIhCRAgBUSEychgIDPBQiwfN5AykcAgdAELESyRwgTExOd8OjUDdztCkWKFNGAAQNUp06dkC5o4dTXX3+tvn37au/evc5jifZ2Q7vO2LFjdcEFF2jPnj169NFH9fbbb6tkyZLavn27E2o988wzqlatWkjjEGCFxMRJCERc4KefpGbNJPtes6b0xBNSxYps2h5xeAZAAIGQBAiwQmLiJAQQ8LkAAZbPG0j5CCAQmsDhw4e10zavOceRIUMG5c2bV9myZQvpgmvXrlX//v1VuHBhDR061Hmr4bFjx5wQq1ChQs7qLguuhg0bpl69eqlx48bOaqyOHTvK3ng4bdo0FSxYMNmxCLCSJeIEBCIqYCuvbMVVz57SggXS1VdLY8e6IZbtgcWBAAIIeEGAAMsLXaAGBBCItAABVqSFuT4CCMRMwFZb2WHhVKhHQkLCWVdonfr5o0eP6rnnntNLL72k8ePHO6uv7HP2CKE9imjj2dgWVlloNmXKFF144YXO6qtXXnnF+czjjz+uWrVq/c8+XHaOfdlh3y3AGj58uGrXrq177rknRXMJdc6chwACZxewf4rbtkljxkgzZ0p580qjRrmPD7JpO3cNAgh4SYAAy0vdoBYEEIiUAAFWpGS5LgIIxFTA9qf66aeftHHjRl133XXKly+fMmbMeNaaLCg6cuSINm3a5OyRVaVKlfOujrJHAy1UWr58ubOyylZj2Qov21frjjvu0PXXX68DBw7ozjvv1KWXXuo8RpgnTx5n7G+//VadOnVSt27ddO+9955Wk9Xx/fffa/Xq1bL67di1a5feeecd3XfffQRYMb2jGDyIAnv2SM8+K02cKB0+LA0YIHXpIuXOHUQN5owAAl4WIMDycneoDQEEwiVAgBUuSa6DAAKeErAA6PPPP9fkyZOVM2dOVa9eXVdddZWKFSt2cpWUhVYWEG3YsEFffvmlfvjhB5UrV069e/d2zjvXYXtZ9evXT++9956zIby92dDGW7BggbNqylZY2WosC7dsY3h7jDB79uzO5X7++We1atVKLVq0UNeuXZUlS5aTw9g1XnvtNc2bN89ZwWWHPZL422+/aciQIQRYnrrDKCbeBY4ckd5+292o/fff3eBqyBB3FRYHAggg4DUBAiyvdYR6EEAgEgIEWJFQ5ZoIIOAJgYMHDzqrmebPn6/Fixc7q6IsWLIwyR7zs0cB9+3b5zz+V6ZMGTVs2NAJnEqUKHHeR/W2bdumPn366KOPPtL06dPVoEEDJ7iyv48YMcJZYWVvG7Rg69Zbb3X2yEraW8tWa1mA1bx5cz3wwAOnBViGZvXs37//5GOEW7du1cSJE1W/fn0CLE/cVRQRFIGlS6Xu3aVVq6TGjd19r0qVCsrsmScCCPhNgADLbx2jXgQQSI0AAVZq1PgMAgj4SsDCJVs1ZY/82SN6tuLKHvmzxwrtEb9rr71WV1xxRcgbuNv/SBw4cKC+++47zZ0711m1Zccvv/yiHj166PLLL3feTti0aVNVqlRJI0eOdFZ92bFixQrdf//9zpc9FmibvZ/vYBN3X91qFBsnAjt2SC1aSIsWSVWrSlOmSFddxRsH46S9TAOBuBQgwIrLtjIpBBA4Q4AAi1sCAQQCJWCP5tnbAi3UslVYFiClS5cuRQZ//fWX85jgwoULnc3cK1as6Hx+zZo1zhsHb7jhBg0aNEjt27d3VnfZCipb1WWHPR5oq7Qs1KpXr16yYxNgpag1nIxAmgRs0/Y//5QeekiaM0cqW1YaOVKqX59N29MEy4cRQCDiAgRYESdmAAQQ8IAAAZYHmkAJCCDgLwELwSy8shCqbdu2zn5WFohZOGWPFNrqLNv/ysKtZ555RgMGDHDeOGiPBlqwtXfvXj355JPO2wuTOwiwkhPi9wiET2DnTmnSJGnCBClfPnfT9nbtpP8uoAzfQFwJAQQQCLMAAVaYQbkcAgh4UoAAy5NtoSgEEPC6wM6dOzVlyhRno/grr7zSCbDsrYeXXHKJE2DZJvAWPlnIZd/Lly+v3bt3O6u0bAN4e0OhrQBL7iDASk6I3yMQHoG//pJeekkaPVqyIKtPH/erQIHwXJ+rIIAAApEUIMCKpC7XRgABrwgQYHmlE9SBAAK+ErDAyv7H4pIlS7TKdnmWPW5UVlWrVlXx4sWVPn16502CmzZtct5wuHHjRmXNmtX5/dVXXx3yflsEWL66LSjWpwLHjkkLF7pvGfz5Z6l5c3fT9vO8jNSnM6VsBBCIVwECrHjtLPNCAIFTBQiwuB8QQACBNAhYkHX8+HHnCraXlgVXZx72ezvPDvt9SvbcIsBKQ3P4KAIhCNg/zR9/lHr0kL78Uqpe3V2JRXgVAh6nIICAZwQIsDzTCgpBAIEIChBgRRCXSyOAgPcELEyyTdzte5YsWZxAKSmAOlv4FOsZEGDFugOMH+8Ctml7//7S669Ll10mPfmkVK0abxyM974zPwTiTYAAK946ynwQQOBsAgRY3BcIIBAYgQMHDmjZsmX68ccfnf2nGjZs6DzuZ3tX7du3T9dcc43zVkIvHQRYXuoGtcRi50YyAAAgAElEQVSbwH/+I40f727cXrKkNHSodPfdUtas8TZT5oMAAvEuQIAV7x1mfgggYAIEWNwHCCAQCIGEhATnrYCvv/668wjf0aNH9cQTTzih1VtvveV8jRo1SmXKlPGUBwGWp9pBMXEkcPCgNG2aNGaMlDGj1Lev1KGDlD9/HE2SqSCAQGAECLAC02omikCgBQiwAt1+Jo9AcAR++eUXtWjRQs2aNVPRokWdIGvo0KGqVKmSvv/+ew0bNkx9+vRRzZo1PYVCgOWpdlBMnAgcOSLNnSs9/LD0xx9S+/buBu4lSsTJBJkGAggEToAAK3AtZ8IIBFKAACuQbWfSCARPYNGiReratavef/99bdiwQVOmTNGgQYOcAOvXX39Vv379dO+996pJkyaewiHA8lQ7KCYOBOydC59+KvXrJ/2wUqpVU5oxQ7rwQva9ioP2MgUEAitAgBXY1jNxBAIlQIAVqHYzWQSCK7B48WJ16dJF7777rjZv3nxagLVixQoNGTJE3bt3V926dT2FRIDlqXZQjM8F7I2DP/8sDRwoLVzobtr+2mtShQo+nxjlI4BA4AUIsAJ/CwCAQCAECLAC0WYmiQACGzduVMuWLdW4cWOVKlVKs2fPVq9evVS6dGk9++yzzkbu48eP18UXX+wpLAIsT7WDYnwusHWrNHq09Pzz7uOCEyZI9eqx8srnbaV8BBCQRIDFbYAAAkEQIMAKQpeZIwII6Pjx43rppZc0Z84cZcyYUevXr3ceHzx8+LB27NjhrM666667eAsh9woCcSpw6JD7tsFx46RcuaSHHpJat5ayZ4/TCTMtBBAIlAABVqDazWQRCKwAAVZgW8/EEQiewMGDB/X5559ryZIlzmOE9jbCYsWKqXr16qpWrZpy5MjhORRWYHmuJRTkQwHbtP3ll6VhwyQLsjp1knr1kgoX9uFkKBkBBBA4iwABFrcFAggEQYAAKwhdZo4IIHBSIDExURZk2cqrEydOKGvWrE5wlSFDBk8qEWB5si0U5SMB27T9/felzp2l7dulu+6SRo2SSpXi0UEftZFSEUAgGQECLG4RBBAIggABVhC6zBwRQOCkwN69e7Vr1y4dO3bsNBV7rLBQoULKZc8WeeggwPJQMyjFdwK2afuKFVK3btLSpdKNN7pvHLTN29Ol8910KBgBBBA4pwABFjcHAggEQYAAKwhdZo4IIKCEhAS99957evrpp7Vp0yYdOXLEWYGVdBQpUsR5E+Htt9/uKS0CLE+1g2J8JGD/vH/9VRo6VHrrLalIEXfz9ltu8dEkKBUBBBAIUYAAK0QoTkMAAV8LEGD5un0UjwACoQr8/PPPuvvuu3XllVeqRo0ayps3r7MHVtJhjxJeddVVKmGvJvPQQYDloWZQiq8E7HFBe8ugrbjKk0d69FGpWTMpY0ZfTYNiEUAAgZAECLBCYuIkBBDwuQABls8bSPkIIBCawOLFi9WhQwfNmzdPFStWPC28Cu0KsTmLACs27ozqb4HDh6WZM6XHHpPsaeG+faXu3aVs2fw9L6pHAAEEziVAgMW9gQACQRAgwApCl5kjAgho9erVuu+++zR9+nRdffXVvhEhwPJNqyjUIwK2afv8+VKfPtLOnVL79tKDD0rFi3ukQMpAAAEEIiBAgBUBVC6JAAKeEyDA8lxLKAgBBCIhYJu2T5s2zQmyevTooUsvvVS2cbvXDwIsr3eI+rwkkLRpe/Pm0oYNUv360pgxUrlybNrupT5RCwIIhF+AACv8plwRAQS8J0CA5b2eUBECCERAwDZs/+6779SnTx9t2LBB2bNnP+0xQtvEfdCgQapbt24ERk/9JQmwUm/HJ4MlYOHV+vVSp07Sp59KttBy8mSpalUpffpgWTBbBBAIngABVvB6zowRCKIAAVYQu86cEQiggAVBrVu3dt5GWLVqVeXPn1/pT/mv2pw5c6pmzZqqUKGCp3QIsDzVDorxqICFV5s3S6NGSbNnu28cHDdOatxYypTJo0VTFgIIIBBGAQKsMGJyKQQQ8KwAAZZnW0NhCCAQToFPP/1U7dq10+zZs1WlSpXTwqukceythKe+mTCc46f2WgRYqZXjc0ESsL2u7G2DtuLKwqwhQ9yVWFmyBEmBuSKAQJAFCLCC3H3mjkBwBAiwgtNrZopAoAW+/fZb5y2Er7/+usrZhjg+OQiwfNIoyoyZwJEj0ssvu6uvLMjq3dvdwD1PnpiVxMAIIIBA1AUIsKJOzoAIIBADAQKsGKAzJAIIRF9g3759GjhwoIoWLeqsxCpYsOBpq7Bs5ZVt6n7qY4XRr/J/RyTA8kIXqMGrArba6vPPpe7dpXXrpBYtpOHDpRIlvFoxdSGAAAKRESDAiowrV0UAAW8JEGB5qx9UgwACERKwDdz79++vFStWqHTp0ipWrJgyZMhwcrQCBQo4K7SqVasWoQpSd1kCrNS58algCPzxh7vP1fLlUo0a0qRJ0uWX88bBYHSfWSKAwKkCBFjcDwggEAQBAqwgdJk5IoCAE1w98cQT55SwTd1btmypypUre0qLAMtT7aAYjwjYyqvff5d69ZLmz3dDK3uEsE4dKWNGjxRJGQgggEAUBQiwoojNUAggEDMBAqyY0TMwAghEU8DePnjw4MFzDmmPDmbJkkWZPPbKMgKsaN4ljOUXgW3bpPHjpaeekvLlkx55RGrZUsqWzS8zoE4EEEAgvAIEWOH15GoIIOBNAQIsb/aFqhBAIAwCR44c0aFDh5QjRw7navv37z9vgJU9e3Zlzpw5DCOH7xIEWOGz5ErxIbB3r/SPf7gB1r59Uv/+Uo8eUt688TE/ZoEAAgikRoAAKzVqfAYBBPwmQIDlt45RLwIIhCSQmJiozz77TPPmzVOnTp109OhRjbf/4j3HkfQIYZUqVUK6frROIsCKljTj+EHg6FFpwQJp6FDpt9+k++5zN20vUMAP1VMjAgggEDkBAqzI2XJlBBDwjgABlnd6QSUIIBBGgaQA65///Kc6d+7sBFjjxo07b4DVqlUrEWCFsQlcCoEwC3z/vdS1q/Ttt9Idd0jTp0vFioV5EC6HAAII+FCAAMuHTaNkBBBIsQABVorJ+AACCPhFYM+ePfrqq69Urlw5XXTRRUqXLp1fSj9ZJyuwfNcyCo6QgL1x8IEHpIULpeuukyZMkGzBpA//WUdIiMsigECQBQiwgtx95o5AcAQIsILTa2aKQOAE1q1bp1GjRqlp06aqX7++bKN2vx0EWH7rGPWGW8DeOLhrl/Tww9LMmVKZMtLIkVLDhpLHtqwL99S5HgIIIBCyAAFWyFSciAACPhYgwPJx8ygdAQTOL0CAxR2CgP8Fdu+WpkxxN2239zHYpu3t27Npu/87ywwQQCCcAgRY4dTkWggg4FUBAiyvdoa6EEAgzQIWYI0cOVKNGjXS7bffrgwZMpzzmvZ4YcaMGT23SosVWGm+DbiAjwUOH5Zmz5ZGjJB27JC6dZMefFAqVIhHB33cVkpHAIEICBBgRQCVSyKAgOcECLA81xIKQgCBcAlYgNW3b1/t3r1bxYoVO+8eWPYWwjZt2uiGG24I1/BhuQ4BVlgYuYgPBRISpI8+kgYPln78UWrUSJo0SSpRgvDKh+2kZAQQiLAAAVaEgbk8Agh4QoAAyxNtoAgEEIiEgAVYvXr10vr165U3b97zDlGoUCH17t1btWrVikQpqb4mAVaq6figjwVs36vVq6VevaTFi6Vrr5X++U+pZEkfT4rSEUAAgQgKEGBFEJdLI4CAZwQIsDzTCgpBAIFwC1iANWLECNWtW1d16tRJ9hHC7NmzK7PHdoUmwAr3XcH1/CCwdas0dKg0Z45Uvry78urmm1l55YfeUSMCCMRGgAArNu6MigAC0RUgwIquN6MhgEAUBdjEPYrYDIVAmAT27nU3bLeN2wsUcB8hbNFCypo1TANwGQQQQCAOBQiw4rCpTAkBBP5HgACLmwIBBOJWwB4dfPTRR3XnnXeqXr16ntugPRR4VmCFosQ58SJw6JA0c6Y0fLhk71zo3l3q3FkqWDBeZsg8EEAAgcgIEGBFxpWrIoCAtwQIsLzVD6pBAIEwCtj/mPvkk09UsWJFVahQ4bybuIdx2LBeigArrJxczMMCiYnSm29KAwZIW7ZIbdpIw4axabuHW0ZpCCDgIQECLA81g1IQQCBiAgRYEaPlwgggEGuBEydOKDEx0Vl5ZV9+PAiw/Ng1ak6pwPHj0pdfSn36SMuXS9WqSf/4h3Txxex7lVJLzkcAgWAKEGAFs+/MGoGgCRBgBa3jzBcBBHwlQIDlq3ZRbAgCttJq/37JNmq3lVa2t5UFWBMmSAsXuqHVyy9LV19NeBUCJ6cggAACjgABFjcCAggEQYAAKwhdZo4IIOBbAQIs37aOws8icPiw9M030ty50jvvSH/+KWXMKGXPLu3bJxUqJE2eLDVpQnjFDYQAAgikRIAAKyVanIsAAn4VIMDya+eoGwEEAiFAgBWINgdikrbKaskSaehQaelS6ciR06edLp103XXSa69JZcoEgoRJIoAAAmETIMAKGyUXQgABDwsQYHm4OZSGAALhFzh48KC2b9+u48ePq1ixYsqWLZsOHDjgDJQjR47wD5jGKxJgpRGQj3tGwFZYDR4szZghHT169rJy5ZKmTZNat/ZM2RSCAAII+EKAAMsXbaJIBBBIowABVhoB+TgCCPhHYOvWrRo7dqy+/PJL5cuXT+PGjdOVV16pN954Q2vXrlXPnj2VM2dOT02IAMtT7aCYNAisWyfVrCn9/vv5L1KrlvT+++6jhRwIIIAAAqEJEGCF5sRZCCDgbwECLH/3j+oRQCBEAVt5df/99+uXX35xQqsNGzZozJgxqlSpkj7++GONHz9ejz76qK699toQrxid0wiwouPMKJEX+OwzqVZtKeHY+ccqXVpatkzKnz/yNTECAgggEC8CBFjx0knmgQAC5xMgwOL+QACBQAh89913atWqlaZNm6Z06dI53wcNGuQEWD///LMGDBigDh06qH79+p7yIMDyVDsoJg0CX3/trsA6ePD8F7nkEsnOzZ07DYPxUQQQQCBgAgRYAWs400UgoAIEWAFtPNNGIGgC//rXv9S1a1ctWrRI69ev15QpU04GWOvWrVP//v3Vvn17NWrUyFM0BFieagfFpEFg82bpzjvd1VUnTpz9QraRe7t20rPPSunTp2EwPooAAggETIAAK2ANZ7oIBFSAACugjWfaCARNYNmyZc4KrOnTpzsbuE+dOtUJsOyRwQULFjgrsoYPH64bb7zRUzQEWJ5qB8WkQeDQIWnKFGn0aMk2dD/bceGF0vPPS7fckoaB+CgCCCAQQAECrAA2nSkjEEABAqwANp0pIxBEgb/++ktdunSR7YV1/fXXy1ZktW3bVhkzZtRTTz3l7Is1atQo5c2b11M8BFieagfFpEHAVl198410//3SqlWnX8hWXl1wgfTgg1LbtvZG0DQMxEcRQACBAAoQYAWw6UwZgQAKEGAFsOlMGYGgCtjG7YMHD9YXX3yhPXv2KHv27M5+WLfccotGjhypMmXKOH/30kGA5aVuUEtaBBISpDlzpD593EcIS5SQ9u6VsmSRqlZ1g6vKlaXs2dMyCp9FAAEEgilAgBXMvjNrBIImQIAVtI4zXwQCLnDo0CHZ44S2cfuJEydUtmxZ3XDDDcqaNasnZQiwPNkWikqFwJYt7v5WixdL3btLDz3kBlmZM0s5c7LnVSpI+QgCCCBwUoAAi5sBAQSCIECAFYQuM0cEAipgAZXtdxXqkT59elZghYrFeQikQCAxUZo1S+rdWypfXpowQapeXcqQIQUX4VQEEEAAgXMKEGBxcyCAQBAECLCC0GXmiEAABSy4WrVqlT744IOQZp8zZ07VrFlTFSpUCOn8aJ3ECqxoSTNOJAV++01q1kz6+WfpgQekAQOkfPkiOSLXRgABBIIlQIAVrH4zWwSCKkCAFdTOM28E4lwgMTHR2ajd3jYYylGgQAHdf//9+tvf/hbK6VE7hwAratQMFCEBW3312GPSiBGS5cPTpkn2z8xj281FaPZcFgEEEIiOAAFWdJwZBQEEYitAgBVbf0ZHAIEIChw+fFj29sFQjgwZMjibumexHaU9dBBgeagZlJIqAXvj4N13S7/+6q6+Gj7c3fOKAwEEEEAgfAIEWOGz5EoIIOBdAQIs7/aGyhBAII0CtgeWfdneVkl/Pt8l7Q2EvIUwjeh8HIFTBA4ckEaOlCZPdt86+Oab0lVXQYQAAgggEG4BAqxwi3I9BBDwogABlhe7Qk0IIJBmAQusNm7cqLVr1+raa69VQkKCvv7663Ne195CePnll6uE/Ve2hw5WYHmoGZSSIgF7w+BXX0mdO0s//SQNGiQNHcrG7SlC5GQEEEAgRAECrBChOA0BBHwtQIDl6/ZRPAIInEvA9sB6//339dJLL2nAgAE6cuSIBtl/QZ/jKFiwoB544AHdfPPNyaJaOGaPJx49evS0c+0xxGzZssm+Jx0WnNm59pnMmTOn+BFFAqxk28EJHhXYs0caN06aMkUqV06aO1e6+GKPFktZCCCAgM8FCLB83kDKRwCBkAQIsEJi4iQEEPCbgAVGu3bt0rZt23ThhRfK3kr4q23Cc44jU6ZMzuqrvHnzJjvV/fv3a/bs2frkk09OnmuPHl588cXORvAXXXSR8/MDBw5o4cKFznmHDh3SJZdcorvvvlulS5dOdoykEwiwQqbiRA8JHD8uffml1KuX9O9/S+PHuyuxTsl2PVQtpSCAAAL+FyDA8n8PmQECCCQvQICVvBFnIIBAHAlYsGWrsSxcsiNXrlzOyqiUHDt37tSDDz6oTZs2qX79+idXVRUuXFjVq1dXoUKFnMDs+eef18yZM51HGO0thx9++KETbo0fP17FihULaUgCrJCYOMljAnv3So8+6q6+uvFG6R//kEqV8liRlIMAAgjEkQABVhw1k6kggMA5BQiwuDkQQCAwAvY438cff6yXX35ZGzZscOZdsmRJtWnTRjVr1pStwgrlsADLHku01VqPPPKIcp7ySrWkTeC3bt2qxo0bq3LlyhoxYoRy586tRYsWqUWLFho7dqzat28fylAiwAqJiZM8JmDbzd17r7R9uzRxotSqlZQxo8eKpBwEEEAgjgQIsOKomUwFAQQIsLgHEEAg2AK26mrq1Kl66qmnnEf47LHCpI3e//zzT3Xo0EGdOnVSjhw5koVKCrAs8Ordu7fzGfuy1VwZ//tf6RaUtW3bVhMnTtRdd93lXNNqsKCsXLlymjFjxllXflnIZl9JhwVYo0aN0m233aZ77rnntP21ki2UExCIgUBiotS/vzR1qnTrre4qrP8+VRuDahgSAQQQCIYAAVYw+swsEQi6ACuwgn4HMH8EAiKwatUqJ0hq2bKls+LKNm23Y/fu3Xruueec1VGPPfaYs2IqucMCrMGDB2v58uUqVaqUbMP44sWLq2HDhrrpppuUPXt2TZs2TU888YTmzp2r6667zrmkndelSxdt3rzZGbNo0aKnDWWB2meffaalS5c6jyDasXfvXn3++efq1q0bAVZyjeH3MRewNw9+9510552S5bAPPyy1bStlzRrz0igAAQQQiGsBAqy4bi+TQwCB/woQYHErIIBAIAQsoLIVVu+9957Kli172pwt3LJHAjt37qwGDRok62H7Z3300Ufavn27E4RZyGTXtf/xOGTIEGcfLFs1ZY8qzp8/39m83Q4LpexNiN98841mzZp1crP3pAHt9++8846zV5aFXXb89ddfsvr69+9PgJVsZzgh1gL25sGuXaU335Ruu02aMEGyf27p0sW6MsZHAAEE4luAACu++8vsEEDAFSDA4k5AAIFACKxevVr33nuv8whhlSpVTpvzV199pXHjxmngwIG6/vrrk/WwlVJHjx6V7XeVIUMGJ2xatmyZ8/kaNWqoX79+mjx5sl544QUnwLr00ktPBlgWlNm5FmCVKVPmf8aytxUePnz45M+3bNnirAy7/fbbCbCS7QwnxFrg7bel1q3dFVdjx7p7X4W4tVysS2d8BBBAwNcCBFi+bh/FI4BAiAIEWCFCcRoCCPhbYP/+/Ro5cqR+/vln5zE+W4VlAZRt5j59+nTn77axerZs2ZyJ2lsDk/4cysxtHy17M2GWLFk0ZswYvf322854c+bMUdWqVZ1L2N5W7dq10549e5xHCJMeYzzf9dnEPRR9zvGCwM6dUufO7uqr22+XZs6Uihf3QmXUgAACCMS/AAFW/PeYGSKAACuwuAcQQCAgAl988YW6du3qvNUva9asTkBlK6l27NihY8eOOXtYWfiUdFgIZRunn+2wz9mR9MZB+/Nvv/3mbOhum8MPHz5ca9eudVZMDR061Amt0qdP7wRX9nihfdkKLVu9ldxBgJWcEL/3goA98fr661LfvpIFWS++KN19N48OeqE31IAAAsEQIMAKRp+ZJQJBF2AFVtDvAOaPQEAELGCyVVGhHvXq1VP58uXPerpt4m4rtywEszDMHvuzvavskUELyVq1aqWDBw86K7osFLOVWfnz59e8efOc4GrKlCmqX79+SKUQYIXExEkxFti0SerTR1qwQKpdW3r5ZSlv3hgXxfAIIIBAgAQIsALUbKaKQIAFCLAC3HymjkCQBGzVVNKb/UKZt62YOnWF1amfWblypSZMmODsg2UBlYVV9jbDatWqOaFVyZIlndMXL17s7Llle2TZedu2bVOdOnWcRxjz5MkTShnOirFhw4apdu3a7IEVkhgnRVvgyBHptdekIUPcNw/OmSPdfDOrr6LdB8ZDAIFgCxBgBbv/zB6BoAgQYAWl08wTAQScAMveHGhfFj4lPQpoNJkzZ3Ye/8uXL1+yUvbWwR9++EF//PGHE17ZZ0uVKqWKFSs6K62Sgi8bY82aNc7XkSNHdMEFF6hSpUohh1dWCAFWsu3ghBgL2Oore3Rw/nzp3nulqVOlU57GjXF1DI8AAggEQ4AAKxh9ZpYIBF2AACvodwDzRyAgArYKyh7zmzFjhrMSyjZUPzXAKly4sPr373/Ofa/OZLIw7NTPn2vF1qkrvyzYsvNSchBgpUSLc6MtkLT3Va9eUo4c0owZUq1a0a6C8RBAAAEECLC4BxBAIAgCBFhB6DJzRAAB/fTTT7rjjjt0ySWXqHnz5rLA6tQwyR7xq1ChgooUKeIpLQIsT7WDYs4Q2L5dat3aHpd130A4YgR7X3GTIIAAArEQIMCKhTpjIoBAtAUIsKItzngIIBATgUWLFqlDhw6aP3++LrvssnPubxWT4s4zKAGW1zpCPUkC9jJOe9tg165SmTLS5MnSLbdIKVxkCCgCCCCAQBgECLDCgMglEEDA8wIEWJ5vEQUigEA4BGzPqk6dOjmPEF5xxRUEWOFA5RqBFtiyRbrrLumHH6SOHd1N3AsUCDQJk0cAAQRiJkCAFTN6BkYAgSgKEGBFEZuhEEAgdgK22fqTTz4p24C9QYMGKlGihDJkyHCyIPtz3rx5lS1bttgVeZaRWYHlqXZQzH8Fjh2TpkxxQ6tSpdyN21l9xe2BAAIIxE6AACt29oyMAALREyDAip41IyGAQIwFPvnkEw0aNEj79u1Tzpw5T9sDq1ChQurVq5dq1qwZ4ypPH54Ay1PtoJj/Cvz739I990hr10pdukjDh0t58sCDAAIIIBArAQKsWMkzLgIIRFOAACua2oyFAAIxE9iyZYtatmyp/fv3OyHVmZu4W6BVo0YNlS9fPmY1nm1gAixPtYNiJB06JD32mDR+vFS0qDR3rnTttVK6dPAggAACCMRKgAArVvKMiwAC0RQgwIqmNmMhgEDMBBYvXqx27dpp7ty5uv7669kDK2adYGC/Cyxb5q66Wr5c6tdPevRRNm73e0+pHwEE/C9AgOX/HjIDBBBIXoAAK3kjzkAAgTgQ+Prrr9W5c2e9/vrrKlu2rG9mxAos37QqEIXu3y9NnCg98YRUooQ0b57ksUWLgegDk0QAAQTOFCDA4p5AAIEgCBBgBaHLzBEBBLRjxw49+OCDuvTSS9WsWTPlz5//tD2w0qdPryxZsihjxoye0iLA8lQ7Al3M8ePS0qVSnz7S6tXuvlc9e0oe+ycT6B4xeQQQCK4AAVZwe8/MEQiSAAFWkLrNXBEIsMCPP/6o3r1765dfftGVV14p27T91LDK3kBowValSpU8pUSA5al2BLqYv/6Sxo51V2DZP5Pnn5fKlAk0CZNHAAEEPCNAgOWZVlAIAghEUIAAK4K4XBoBBLwjsHr1aj399NNKSEhwVl7ZV7pTdp3OkyePmjZtqmuuucY7RUsiwPJUOwJdzIoVUuvWdk9Ko0dL990nZckSaBImjwACCHhGgADLM62gEAQQiKAAAVYEcbk0Agh4R+D48eNKTEw8Z0EWZiUFW96pmgDLS70Ici0JCdLDD0vjxknVq0vTpkkVKgRZhLkjgAAC3hIgwPJWP6gGAQQiI0CAFRlXrooAAh4UOHHihPbu3astW7Zoz549ToX26GCJEiWUO3duT76ZkBVYHryRAliSrb6qV086dkwaOlTq2FHKmjWAEEwZAQQQ8KgAAZZHG0NZCCAQVgECrLBycjEEEPCywNq1a/Xiiy9q2bJlJwMse3Twhhtu0N///neVK1futI3dvTAXAiwvdCHYNezbJ/XuLc2eLdWuLU2Y4K6+OuUJ3GADMXsEEEDAAwIEWB5oAiUggEDEBQiwIk7MAAgg4AUBW3mVtIl7gwYNVLp0aWfF1YYNG/Tee+85byccNmyYs7m7lw4CLC91I5i1vPee1KaNZE/g2t5X7dtLmTMH04JZI4AAAl4VIMDyameoCwEEwilAgBVOTa6FAAKeFfjuu+/UsmVLjR07VrfddpuyZcvm1Hr48GEnwJo+fbqGDBmi6rbBj4cOAiwPNSOApezaJXXrJr32mlSjhjRrllS6dAAhmDICCOtSxOkAACAASURBVCDgcQECLI83iPIQQCAsAgRYYWHkIggg4HWBDz/8UN26ddMnn3yi4sWLn1bu+vXr1bdvX7Vr106NGzf21FQIsDzVjkAVYyuu3nhD6t9f2rFDeuYZqVUrKX36QDEwWQQQQMAXAgRYvmgTRSKAQBoFCLDSCMjHEUDAHwJJK7Aef/xxZwVWpkyZnMITEhL00Ucf6cknn9TQoUNZgeWPdlJlFAT++EPq21d66y3pppukBQuk7NmjMDBDIIAAAgikWIAAK8VkfAABBHwoQIDlw6ZRMgIIpFxg//796tevn1auXKmGDRuqTJkyzkU2bdqk+fPnq3Llyho8eLAKFCiQ8otH8BOswIogLpc+p4C9bfCf/5QefFA6dEh64QWpTh02bueWQQABBLwqQIDl1c5QFwIIhFOAACucmlwLAQQ8LfDrr79qxowZzlsIbe+rEydOKHPmzKpataratGmjsmXLOhu7e+kgwPJSN4JTy++/S4MGSa+/Lt19t/TUU1LOnMGZPzNFAAEE/CZAgOW3jlEvAgikRoAAKzVqfAYBBHwpYIHVvn37tHnzZu3Zs8eZQ968eXXhhRcqV65cnguvrD4CLF/ear4u2va+evNNqWdPKWtW6emnWX3l64ZSPAIIBEKAACsQbWaSCARegAAr8LcAAAjEt4AFVatXr1bJkiVVqlSpk5O1MMsOC7SWL1/urL664IILPIdBgOW5lsR9QfbmwTZtpI8+ku6/X3rkEalgwbifNhNEAAEEfC1AgOXr9lE8AgiEKECAFSIUpyGAgP8EEhMT9eqrr+qVV17RY489pssvv/x/JmGPEnbu3NlZgWXn5MiRw1MTJcDyVDsCUYw9NnjffVLRotLUqVLt2rx5MBCNZ5IIIOBrAQIsX7eP4hFAIEQBAqwQoTgNAQT8J7Bz504nlMqXL5969uypnOfYxOe9997T5MmTNWbMGF1zzTWemigBlqfaEffF2OqrBg2k5cvdVVgjR0qFCsX9tJkgAggg4HsBAizft5AJIIBACAIEWCEgcQoCCPhTYMOGDRo1apRq1aqlu+66S5kyZTrrRNasWaMBAwaoU6dOuuOOOzw1WQIsT7Ujros5elSaPl0aOFC68EJpwgR376sMGeJ62kwOAQQQiAsBAqy4aCOTQACBZAQIsLhFEEAgbgXsrYMWYNWtW1d33nmnMmbMeNa5rl27Vv3791f79u3VqFEjT3kQYHmqHXFdzJo1UuvW0g8/SJ06SaNHS3nyxPWUmRwCCCAQNwIEWHHTSiaCAALnESDA4vZAAIG4Fdi6datGjx6tMmXKOPtcnWt/q0WLFjmPGg4bNkx/+9vfPOVBgOWpdsRtMUeOSBMnuqFVgQLSyy9L1arF7XSZGAIIIBB3AgRYcddSJoQAAmcRIMDitkAAgbgVOHr0qKZPn64333zT2ePq6quv/p+5HjhwwFl5ZRu+P/PMMypg//XuoYMAy0PNiONSVq6UunaVli6VevSQHn9cOscTt3GswNQQQAAB/woQYPm3d1SOAAKhCxBghW7FmQgg4EOBn3/+WYMHD9Zvv/2mVq1aqWLFis5m7keOHJHtkWVvKNyxY4ezgfttt92m9OnTe2qWBFieakdcFnPggDRpkhta5c8vffihVK5cXE6VSSGAAAJxK0CAFbetZWIIIHCKAAEWtwMCCMS1gK2s+vHHHzVz5kwtWbJEx48fV4YMGZzvJ06ccB4vvP/++3Xrrbcqc+bMnrMgwPJcS+KqoBMnpGXLpJ49pRUrpKFDpX79pHNsFxdXc2cyCCCAQDwJEGDFUzeZCwIInEuAAIt7AwEEAiGwZ88erVixwll1ZY8NWlhVvHhx57FC+54uXTpPOhBgebItcVPUwYPu3ldjx0qXXy49/7xUvnzcTI+JIIAAAoERIMAKTKuZKAKBFiDACnT7mTwCwRM4duyYs/rKAit7K6HXHhk8syMEWMG7R6M5Y3vzYMuW0i+/SMOGSQ88IGXNGs0KGAsBBBBAIBwCBFjhUOQaCCDgdQECLK93iPoQQCDQAgRYgW5/RCefkOCGVrYCq0oV6cknpSuukDy6GDGiFlwcAQQQ8LsAAZbfO0j9CCAQigABVihKnIMAAgjESIAAK0bwARh29WqpTh3JNnG3IMveQpglSwAmzhQRQACBOBQgwIrDpjIlBBD4HwECLG4KBBBAwMMCBFgebo6PSzt0yN2s/ZlnpBo1pMmTpYoVfTwhSkcAAQQCLkCAFfAbgOkjEBABAqyANJppIoCAPwUIsPzZNy9Xffy49Omn0r33Svv2SSNGSJ06sfeVl3tGbQgggEByAgRYyQnxewQQiAcBAqx46CJzQACBuBUgwIrb1sZsYrt2SX36SC+9JN1wg/TCC9LFF8esHAZGAAEEEAiDAAFWGBC5BAIIeF6AAMvzLaJABBAIsgABVpC7H/652+qr+fOlXr2kHTukqVOl1q2ljBnDPxZXRAABBBCIngABVvSsGQkBBGInQIAVO3tGRgABBJIVIMBKlogTUiCwbZs0cKA0Z45UubL0/vtSjhwpuACnIoAAAgh4UoAAy5NtoSgEEAizAAFWmEG5HAIIIBBOAQKscGoG+1qJidI777iPD/7nP+6jg40aBduE2SOAAALxIkCAFS+dZB4IIHA+AQIs7g8EEEDAwwIEWB5ujs9K27JFGjxYevVVqUED9w2E+fL5bBKUiwACCCBwVgECLG4MBBAIggABVhC6zBwRQMC3AgRYvm2dpwq3va/mzZN69JAyZJCmTZPq1ZPSp/dUmRSDAAIIIJBKAQKsVMLxMQQQ8JUAAZav2kWxCCAQNAECrKB1PDLz3b9fatdOevddqWVLafRoqUiRyIzFVRFAAAEEoi9AgBV9c0ZEAIHoCxBgRd+cERFAAIGQBQiwQqbixHMInDghLVggtW3rPjI4YYJUv767EosDAQQQQCA+BAiw4qOPzAIBBM4vQIDFHYIAAgh4WIAAy8PN8Ulpu3e7e159/bXUooU0frxUqJBPiqdMBBBAAIGQBAiwQmLiJAQQ8LkAAZbPG0j5CCAQ3wIEWPHd30jPLiFB+sc/pG7dpFKl3NVXtvcVq68iLc/1EUAAgegKEGBF15vREEAgNgIEWLFxZ1QEEEAgJAECrJCYOOkcAuvWSe3bS0uXut/HjuXNg9wsCCCAQDwKEGDFY1eZEwIInClAgMU9gQACCHhYgADLw83xeGnHjklTp0rDh0vZs0svvSTVrOnxoikPAQQQQCBVAgRYqWLjQwgg4DMBAiyfNYxyEUAgWAIEWMHqd7hmaxu3r1wp9ewpLVki3Xef9MQTbpDFgQACCCAQfwIEWPHXU2aEAAL/K0CAxV2BAAIIeFiAAMvDzfFwaQcPSlOmSGPGSLlySZ99JpUp4+GCKQ0BBBBAIE0CBFhp4uPDCCDgEwECLJ80ijIRQCCYAgRYwex7WmZtq69WrZK6d5e++koaOFB6+GEpXbq0XJXPIoAAAgh4WYAAy8vdoTYEEAiXAAFWuCS5DgIIIBABAQKsCKDG+SUPHZKefloaMUIqV859C+EVV8T5pJkeAgggEHABAqyA3wBMH4GACBBgBaTRTBMBBPwpQIDlz77FsuqffpLuvVey77b6yvbBypEjlhUxNgIIIIBApAUIsCItzPURQMALAgRYXugCNSCAAALnECDA4tZIiUBiojRqlLv3VZUq0sSJ0jXX8PhgSgw5FwEEEPCjAAGWH7tGzQggkFIBAqyUinE+AgggEEUBAqwoYsfBULbqqn59aedO6aGH3H2wsmWLg4kxBQQQQACB8woQYHGDIIBAEAQIsILQZeaIAAK+FSDA8m3rol54QoL04IPSpEnSDTdI06dLV14Z9TIYEAEEEEAgBgIEWDFAZ0gEEIi6AAFW1MkZEAEE4k3gxIkT2rJliw4dOqTChQsrV65cSvffV74lJCRo165d2rt3rzJnzqwiRYooa9asIRMQYIVMFegTjx+XliyRWrSQ9u51977q1YvVV4G+KZg8AggESoAAK1DtZrIIBFaAACuwrWfiCCAQLoE//vhDDz/8sBNUde/eXdWrV1eGDBl09OhRffnll1qwYIG2bdumjBkz6vrrr1ezZs2cICuUgwArFCXO2bVLGjBAeuEFqVIl6cUX3TcQciCAAAIIBEOAACsYfWaWCARdgAAr6HcA80cAgTQJHDlyROPHj9fs2bOdVVcjRoxQkyZNnLBq9erVevDBB1WsWDHVqFFDO3bs0AsvvKCWLVuqR48eypIlS7JjE2AlSxT4E06ckN57z33b4O+/uxu3d+wopU8feBoAEEAAgcAIEGAFptVMFIFACxBgBbr9TB4BBNIq8Mknn6hr165q1KiRPv74Y/Xv3/9kgDVq1Ch9+OGHTsB1zTXX6NixY3rsscdkn5k6daquDGGDIgKstHYo/j+/Y4f08MPSc89J110nvfmmVLhw/M+bGSKAAAII/J8AARZ3AwIIBEGAACsIXWaOCCAQEYE///xTnTp1csIp+3r00UfVr18/J8Cyva/sUcECBQo4AVbBggWdGhYtWqQ+ffpo8ODBatq0qdIns0xm8+bNzuOJtWvX1j333OM8msiBQJJAYqL0wQfuflebNkkvvyw1bYoPAggggEDQBAiwgtZx5otAMAUIsILZd2aNAAJpFLAN26dPn+6sppo1a5a+/fZbPfLIIycDLPsfkhZkVa1aVcOHD1eOHDmcEVetWqW2bds6Xx07dnQ2dk86bDN4C6xsTy37sx3bt2/Xc88954RXBFhpbFocfnz7dmnIEOn556UGDaRnn5Xy54/DiTIlBBBAAIHzChBgcYMggEAQBAiwgtBl5ogAAmEVSExM1BdffKFJkyapffv2uuOOO/TB/18Gc2qAZZu2N27cWLfeequGDh2qbNmyOTWsXbtWrVq1csKobt26nbYP1vHjxzVnzhy99dZbsjHssKBs06ZNGjZsGAFWWLvo/4sl7X3Vtatkt8vkyVKjRhKL9PzfW2aAAAIIpFSAACulYpyPAAJ+FCDA8mPXqBkBBGIqYOHU6NGjnVVSPXv2VN68eZ39rx5//HEnlLKVVxY83XnnnbrpppucRwCTVmD9+9//Vps2bdS6dWt17tz5tBVYNilbcbVz586TK7BsrKeeesq5FiuwYtp2zw1++LB0//3SG29Id90ljR0rlSjhuTIpCAEEEEAgCgIEWFFAZggEEIi5AAFWzFtAAQgg4DeBH374QQ888IDsDYQXXnih8/ZBC5osnCpfvryzt9V9992n5s2bO78fO3as8v/3uS5buWVvILR9sP7+978nu6cVm7j77e6ITr22+mrhQqldOyl7dumxx9y9rzJlis74jIIAAggg4C0BAixv9YNqEEAgMgIEWJFx5aoIIBDHAlu3btU777zjrJay8MpWYtmjgbZBu624stVS9vigvZHQ9ryyFVTlypVzzrN9s2bOnOm8hfDGG29MVokAK1miQJ6we7fUpIm0ZIl0993SE09IRYoEkoJJI4AAAghIIsDiNkAAgSAIEGAFocvMEQEEIipge1eduQdWxowZtXTpUucRw3r16jmhlq3SslDr5ptvdt5YmPRY4fmKI8CKaOt8efHjx923DbZvLxUvLk2aJDVuLKVL58vpUDQCCCCAQBgECLDCgMglEEDA8wIEWJ5vEQUigIDXBSzA+vTTTzVx4kR16tRJdevWdR4NPHjwoF599dWTm7LbI4dlypTRgAEDnEcNQzkIsEJRCtY5Gze6e199/LHUsqU0caJUsGCwDJgtAggggMDpAgRY3BEIIBAEAQKsIHSZOSKAQEQF7NFAW121Zs0aJ5gqXry482ihHbaZ+7p162RBVPbs2XXFFVeoQIECIddDgBUyVSBOPHJEevZZ/f83Xkq2D5atxKpTh9VXgWj+/2vvTsDtmu7+gf8yCCIx1jykMdQsWrTF39gW1Rpe1Fw1tHhL1UxpqVJaQ02VmkNMabXUiwblVUPbt0rNU8xzEEQSIiHJ//nt06uGJPvem3uyz7nns5/nPkHW2Wutz9o33K+1ftskCRAgMB0BAZbHgwCBVhAQYLXCKpsjAQJNKyDAatqlq8vAH344Yr/9Iu64o1bA/eSTI/r3r0tXbkqAAAECTSQgwGqixTJUAgQ6LSDA6jSdDxIgQKD+AgKs+hs3Sw/jx0ece27EccdF9OsXce21ESuuaPdVs6yfcRIgQKCeAgKseuq6NwECjSIgwGqUlTAOAgQITEVAgOWxaBMYMSJin30ibr014pBDIk44gQ0BAgQIEKgJCLA8CQQItIKAAKsVVtkcCRBoWgEBVtMuXZcOPGtfXXBBxBFHRCy+eMRFF0WstlqXduFmBAgQINDEAgKsJl48QydAoN0CAqx2U2lIgACBmS8gwJr55o3Y4+OP12pePfRQxMEHRxxwgNpXjbhOxkSAAIGqBARYVcnrlwCBmSkgwJqZ2voiQIBABwUEWB0E64bNJ0+OOOmkiGOOiVh11Ygzzqjtvvr3iy674YxNiQABAgQ6KiDA6qiY9gQINKOAAKsZV82YCRBoGQEBVsss9TQn+uSTEVtsEfHiixEHHWT3lSeCAAECBD4tIMDyVBAg0AoCAqxWWGVzJECgaQUEWE27dF0y8IkTI44+OuLEEyMGDarVwfr857vk1m5CgAABAt1IQIDVjRbTVAgQmKaAAMvDQYAAgQYWEGA18OLUeWhTpkT8858RW24ZMXZs7c2Dhx4aMdtsde7Y7QkQIECg6QQEWE23ZAZMgEAnBARYnUDzEQIECMwsAQHWzJJuvH5Gj4446qiIc86JWGWViEsuiVhuucYbpxERIECAQPUCAqzq18AICBCov4AAq/7GeiBAgECnBQRYnaZr6g/m7qtbbon44Q8jsgbWL38Zse++Eb17N/W0DJ4AAQIE6iQgwKoTrNsSINBQAgKshloOgyFAgMDHBQRYrflEjBoVceyxEeefH7HyyhG//33EYou1poVZEyBAgEC5gACr3EgLAgSaX0CA1fxraAYECHRjAQFWN17caUxt0qSIm26KOPDAiJdeivjNbyJ22CGiZ8/WszBjAgQIEGifgACrfU5aESDQ3AICrOZeP6MnQKCbCwiwuvkCT2V6b71Vq3119tkRG20UMWxYRP/+redgxgQIECDQfgEBVvuttCRAoHkFBFjNu3ZGToBACwgIsFpgkT8yxax9ddttEXvsEfHuuxG/+lXEtttG9OrVWg5mS4AAAQIdExBgdcxLawIEmlNAgNWc62bUBAi0iIAAq0UW+t/TzNBqv/0iLr00YrPNIk4+OWLAgNYyMFsCBAgQ6LiAAKvjZj5BgEDzCQiwmm/NjJgAgRYSEGC1zmLn7qs//zlip50i+vaN+PnPa7uv+vRpHQMzJUCAAIHOCQiwOufmUwQINJeAAKu51stoCRBoMQEBVusseNa+yvDq5psjttkm4sQTvXmwdVbfTAkQIDBjAgKsGfPzaQIEmkNAgNUc62SUBAi0qIAAq3UW/re/jdhll4h55404/fSIb30rokeP1pm/mRIgQIBA5wUEWJ2380kCBJpHQIDVPGtlpAQItKCAAKs1Fv3VV2vhVR4h3HLL2hsIF1igNeZulgQIECAw4wICrBk3dAcCBBpfQIDV+GtkhAQItLCAAKv7L/6ECRFDhkQcdVTEpEkRF10U8Y1vRPTs2f3nboYECBAg0DUCAqyucXQXAgQaW0CA1djrY3QECLS4gACr+z8Ajz8eccABtdpXO+4YMXhwrYi7iwABAgQItFdAgNVeKe0IEGhmAQFWM6+esRMg0O0FBFjde4lz99XFF9d2X802W8TvfhfxxS927zmbHQECBAh0vYAAq+tN3ZEAgcYTEGA13poYEQECBD4UEGB134dhypSIJ5+MOPDAiOHDI/bbr/bmwd69u++czYwAAQIE6iMgwKqPq7sSINBYAgKsxloPoyFAgMDHBARY3feBeP/9Wr2rPD646KIRl10Wsfrq3Xe+ZkaAAAEC9RMQYNXP1p0JEGgcAQFW46yFkRAgQOBTAgKs7vtQPPtsxHe+E3HPPbVdWAcfHDHnnN13vmZGgAABAvUTEGDVz9adCRBoHAEBVuOshZEQIEBAgNUiz0AeHzzjjIgf/zhi2WVrf73mmhE9erQIgGkSIECAQJcKCLC6lNPNCBBoUAEBVoMujGERIEAgBezA6p7PwTPPRGy5ZcTTT0fsu2/EYYdFzD1395yrWREgQIBA/QUEWPU31gMBAtULCLCqXwMjIECAwDQFBFjd7+HINw8ec0zEKadErLhixODBEV/6kt1X3W+lzYgAAQIzT0CANfOs9USAQHUCAqzq7PVMgACBUgEBVilR0zW4997a7qtXX4045JCIo4/25sGmW0QDJkCAQIMJCLAabEEMhwCBuggIsOrC6qYECBDoGgEBVtc4Nspd3n034qijIs48M2KZZSKGDYtYaaVGGZ1xECBAgECzCgiwmnXljJsAgY4ICLA6oqUtAQIEZrKAAGsmg9exu8mTI+64I2L//SMeeiji2GNrbx/s06eOnbo1AQIECLSEgACrJZbZJAm0vIAAq+UfAQAECDSygACrkVenY2N7442I446LOPfciBVWiPj97yMGDOjYPbQmQIAAAQJTExBgeS4IEGgFAQFWK6yyORIg0LQCAqymXbqPDXzSpIi//KW2++qFFyJOPTVil10ievXqHvMzCwIECBCoVkCAVa2/3gkQmDkCAqyZ46wXAgQIdEpAgNUptob70Ntv144MZu2r9daLuPzyiM98puGGaUAECBAg0KQCAqwmXTjDJkCgQwICrA5xaUyAAIGZKyDAmrne9ertrrsidtghYvToiF/9KmKnnbx5sF7W7kuAAIFWFBBgteKqmzOB1hMQYLXempsxAQJNJCDAaqLFmsZQx4+vHR0cOjRik00iTjopYumlm39eZkCAAAECjSMgwGqctTASAgTqJyDAqp+tOxMgQGCGBQRYM0xY+Q1uvbW2+6p374jjj4/YfntvHqx8UQyAAAEC3UxAgNXNFtR0CBCYqoAAy4NBgACBBhYQYDXw4rRjaGPGROy2W8S110ZstlnEySdHDBzYjg9qQoAAAQIEOiAgwOoAlqYECDStgACraZfOwAkQaAUBAVbzrvLkyRHXXBOx6661HVennBKx445qXzXviho5AQIEGldAgNW4a2NkBAh0nYAAq+ss3YkAAQJdLiDA6nLSmXbD11+P2GHHiFtujth444hLL/XmwZmGryMCBAi0mIAAq8UW3HQJtKiAAKtFF960CRBoDgEBVnOs0ydH+f77tcDqsMMiJk6sFXD/5jcjevZszvkYNQECBAg0toAAq7HXx+gIEOgaAQFW1zi6CwECBOoiIMCqC2vdb/rUUxGHHBJx3XURW28dce65Ef37171bHRAgQIBAiwoIsFp04U2bQIsJCLBabMFNlwCB5hIQYDXXeuVoc8fV5ZdHHHlkbexXXBGx7rrNNw8jJkCAAIHmERBgNc9aGSkBAp0XEGB13s4nCRAgUHcBAVbdibu8gyeeiDjooIg//zli991rbx6cffYu78YNCRAgQIDAhwICLA8DAQKtICDAaoVVNkcCBJpWQIDVXEv3wQcRl1wSccABtYLtw4ZFrL56c83BaAkQIECg+QQEWM23ZkZMgEDHBQRYHTfzCQIECMw0AQHWTKPuko5eey1ixx0j/vrXiB/8oHaMcK65uuTWbkKAAAECBKYpIMDycBAg0AoCAqxWWGVzJECgaQUEWM2zdJMmRQwZEnHggREDB0acdlrEeut582DzrKCREiBAoHkFBFjNu3ZGToBA+wUEWO230pIAAQIzXUCANdPJO93hM89EbLVVRNbA2muv2u6reeft9O18kAABAgQItFtAgNVuKg0JEGhiAQFWEy+eoRMg0P0FBFjNscb55sETT4w45piIlVaKOOOMiLXXtvuqOVbPKAkQIND8AgKs5l9DMyBAoFxAgFVupAUBAgQqExBgVUbfoY7vvz9ip51qu6/23z/ipz/15sEOAWpMgAABAjMkIMCaIT4fJkCgSQQEWE2yUIZJgEBrCgiwGnPdJ0+OyF1Xb78dkW8ezHpXv/51xAILRFx3XcTKKzfmuI2KAAECBLqngACre66rWREg8HEBAZYnggABAg0sIMBqrMWZMiXilVcibrwx4qqrIh58MCLDrLfeihg/PmKPPWph1uyzN9a4jYYAAQIEureAAKt7r6/ZESBQExBgeRIIECDQwAICrMZanOefjzj55NrbBseN+/jYevaM+PrXI049NWKZZRpr3EZDgAABAt1bQIDVvdfX7AgQEGB5BggQINDwAgKsxlmiPDJ43nm1Qu2vvz71cfXtG3HIIRGHHx4x22yNM3YjIUCAAIHuLSDA6t7ra3YECAiwPAMECBBoeAEBVuMs0XPPRRx0UMQ119TqXk3t6tEjYq21Is49N2KFFRpn7EZCgAABAt1bQIDVvdfX7AgQEGB5BggQINDwAgKsapYo61rlEcGsbfXmmxFPPRXxl79E/OEPESNHTn9MAwdGDB4csfHGERlouQgQIECAQL0FBFj1FnZ/AgQaQUANrEZYBWMgQKCpBCZPnhxjxoyJsWPHxsSJE2PKlCkx++yzxzzzzFP82uPfqUW2yzajR4+ODz74IPr27RvzzTdf9OnTp93zFWC1m6rdDbMQe+6gyq/334+YMCHivfcixo6NeOKJiIcfjnjssYjccfXSS7XA6t13I7LGVX42w63pXUsuWXsjYQZY+RkXAQIECBCot4AAq97C7k+AQCMICLAaYRWMgQCBphIYNWpUDB06NO68884YN25cEU7169cvNthgg9h2221jkUUWKUKsJ598Ms4777y47777ijZzzDFH7LDDDrHFFlsUYVZ7LgFWe5Sm3iaDpkmTakFVBlBvvx0xenTEG2/UQqn8evHFWlD17LMRWaA961y1BVS9oWvFuAAAIABJREFUe0fMOWfE3HNHzDNPxFxzRTz5ZO0r7zu1K7PLL3+5doRwpZU6P3afJECAAAECHREQYHVES1sCBJpVQIDVrCtn3AQIVCaQu6/uvvvumDBhQsw777wxadKkuP322+OPf/xj7L333kVIlddPfvKTot0ee+wRiy22WFx77bUxfPjwOPPMM2PDDTds1/gFWO1iKhpl8DRmTO3IX3698kptB1V+vfzyf0Kr/L08HvjOO7XAKjfEZUA177wR888fseiiEYstFrHIIhELLVT7WmCBiNlnj7j88ogTT6wdLZzaNeusEfvvH3HUURHtzCjbP0EtCRAgQIDANAQEWB4NAgRaQUCA1QqrbI4ECNRd4LHHHot99tkn1l577Tj00ENj5MiRsdVWW8U222wThxxySHG08KWXXopNN920CK9OPPHEmGWWWUrHJcD6NFHuqMrwKUOoDKNeeCHimWdqX6++WntD4KhRtZApA608GphHBfOtgP36RfTvXwul8qhf1qvKwCoDqgyvMsTKnVbZZo45Pn0E8OmnI449NuK3v40YP/7jY8vwKo8NHn98xIorli6tBgQIECBAoMsEBFhdRulGBAg0sIAAq4EXx9AIEGhsgax9lbuv3n777bjiiivi7LPPLnZgffe7342//OUvxa+DBw+OzTffvJhIts3fzyDrwgsvjIUyRSm5WjnAynpTbTWnMpDKulSPPBIxYkTtuF8GVxlY5fHArGOVIVXb0b78XO6YyoAqw6Tllqv99RJL1HZXZUiVO6/yK48KZq2q/Corup67vF57LeL3v4+4+OKI++6PiCm1+++0U8TOO9d2bql9VfZk+30CBAgQ6EoBAVZXaroXAQKNKiDAatSVMS4CBBpaIMOrYcOGxbHHHlsEWHltueWWxe6rAQMGxLnnnhsnnHBCEWx9OYsiFUfcJsfxxx8fN9xwQ1Eba/nll//YHPOed911V9x7771F27yyAPxNN90Ue+65Z2y33XbRq1evhnZp7+AyYMorf83QKaebO6uyPlUe98tjf1lr6qGHIh58sPb3ueMpQ6psl0FTUmT4lLuqFlwwYuGFawFV1p5aZZWIZZap1bDKnVG52a0rQ6Ucdy57hlk59ty9lccQu7KP9lpqR4AAAQIEBFieAQIEWkFAgNUKq2yOBAjUReCFF16IRx55JN58882ioHvPnj2LXVcrrbRSnHXWWXHaaafFlVdeGautttq/w5opcdJJJ8XVV19dBFjZ7qNXhlaXX3558ftZ9D2v9957L5577rk46qijmjrAypAq3/SXIVTumMrjfRlWZQCUBdQzrHrqqdrf57HALLae9akyeMqdVPmVu6YyJJpvvtqxvwyoll66tqMq/1ke/8swS4hUl8fdTQkQIECggQUEWA28OIZGgECXCQiwuozSjQgQaGWBp59+Oo488shi99Xhhx9eFHQ/+uij49JLL4111lmnoMmAKv9ZFnw///zzY5lMYD5xvf/++x+GV/lbedzwuOOOi4022qjLA6zczZRBUdaIyt1MGQ7NSACUu5Iyd8vjfBlWZf2pPPqXNanyqF8WVW/bXdVWYD1/Pz+TR/lyp1TWnWorpp67mnJXVX5lYJVH89q+skaViwABAgQIEKgJCLA8CQQItIKAAKsVVtkcCRCou0Ae9cvjhM8++2zxlsERI0bELrvsUhRr33777Yv+c1fVzjvvHOPHj48hQ4YUbzAsu+pRAyuDpgyQhg+PuP322l9ngJUnGjfZJGLttWtB0vSutvpUGT7lrqmsR/Xii/95418GVfnPc5dV7qjKMKutTlV+Jo/25c6pxRf/zxv/MqjKsmAZXOWOqgzUcudV7sLKgMvOqrKnxe8TIECAQKsKCLBadeXNm0BrCQiwWmu9zZYAgS4QyF1SWZB9tnyt3b+vp556Kg488MAilMrQasKECcVbCNddd93i+N+cc85ZhFqbbLJJEWzlP8sjh2VXPQKs3A31s59FXHVVLWDKnVh59e1bO5K3//4R221X+/u2K8OnPPaXO6ZGjqwd98ti6m3H/nInV9aEyuOBefQv22fIlUFVhlEZSg0YUDv2t+yytdAqA6o8Fpi7vnL3VVutqrJC6mVmfp8AAQIECLSagACr1VbcfAm0poAAqzXX3awJEJgBgSyyPnTo0Bg0aFAstdRSMWrUqKJ21YMPPhg//vGPY9ttt41ZZpklTj311OKo4Le//e343Oc+VxR2HzlyZFx22WWfqn81reF0dYCVBcePOy7i+ONrIdMnrwyPlloq4vTTa8f1Hngg4v77Ix5/vHb8r21XVYZebbuwMofLLC+/5p474nOfixg0KGLllWtF1dt2VeWuro++6U9QNQMPoY8SIECAAIGPCAiwPA4ECLSCgACrFVbZHAkQ6FKBJ554oijQ/q9//aso4N6nT59YbrnliuBq0003jTn+ff4ujxVmaJX1sMaOHVuEWLlLa6211ooe7UxvujrAyqN+G28c8eij0yfJMCoDrra3/WXw1Fanqi2oynAqd1UNHPifnVUDBkyJvn17dKm3mxEgQIAAAQLTFxBgeUIIEGgFAQFWK6yyORIg0KUCWYz9nXfeKb4mTpxYHAXs169f9O/fP3plMamPXPkWwQyysv5VtplrrrnaHV7lbbo6wLrlllqdq3+/5HCaLhlS5XG/BReMWGCB2lcWUs/A6rOfrf3zzOnymGEe/WvHacguXQM3I0CAAAECBP4jIMDyNBAg0AoCAqxWWGVzJECgaQW6OsC69tqIzTcv51huudoxwtxdlXWqspZVBlXt3DhW3oEWBAgQIECAQJcJCLC6jNKNCBBoYAEBVgMvjqERIECgqwOsf/0r4qtfrRVkn9aVIdXWW0dcfPHHC7lbDQIECBAgQKAxBQRYjbkuRkWAQNcKCLC61tPdCBAg0KUCXR1gvfNO7Q2Df/pTrQj71K7ZZ484++yInXd2NLBLF9PNCBAgQIBAnQQEWHWCdVsCBBpKQIDVUMthMAQIEPi4QFcHWHn3226L2GuviCefjJg06eP9ZXi1zTa1NxVmkXYXAQIECBAg0PgCAqzGXyMjJEBgxgUEWDNu6A4ECBCom0A9AqyJEyNuvDFi8OCIhx+OGDeuttNq/vkjNtggYt99I7IGlsLsdVtWNyZAgAABAl0qIMDqUk43I0CgQQUEWA26MIZFgACBFKhHgJX3zbcQvvRSxD33RLzwQsQss0SsuGLEqqvWCrYr1u75I0CAAAECzSMgwGqetTJSAgQ6LyDA6rydTxIgQKDuAvUKsNoGnnWwMszKwKp377pPRwcECBAgQIBAHQQEWHVAdUsCBBpOQIDVcEtiQAQIEPiPQL0DLNYECBAgQIBA8wsIsJp/Dc2AAIFyAQFWuZEWBAgQqExAgFUZvY4JECBAgEDTCAiwmmapDJQAgRkQEGDNAJ6PEiBAoN4CAqx6C7s/AQIECBBofgEBVvOvoRkQIFAuIMAqN9KCAAEClQkIsCqj1zEBAgQIEGgaAQFW0yyVgRIgMAMCAqwZwPNRAgQI1FtAgFVvYfcnQIAAAQLNLyDAav41NAMCBMoFBFjlRloQIECgMgEBVmX0OiZAgAABAk0jIMBqmqUyUAIEZkBAgDUDeD5KgACBegsIsOot7P4ECBAgQKD5BQRYzb+GZkCAQLmAAKvcSAsCBAhUJiDAqoxexwQIECBAoGkEBFhNs1QGSoDADAgIsGYAz0cJECBQb4G2AGvDDTeM7bffPnr16lXvLt2fAAECBAgQaDKBtgBr1VVXjX322Sf69OnTZDMwXAIECJQLCLDKjbQgQIBAZQLPP/98HHHEEbHgggvGOuusEz179qxsLDomQIAAAQIEGlNgzJgxMWTIkNhkk01iv/32i1lnnbUxB2pUBAgQmAEBAdYM4PkoAQIE6i3w0ksvxfHHHx8PP/xw9O/fv8u7e++99+K5556LgQMH+r+1HdSdNGlSvPrqqzHbbLPFvPPO28FPa/7BBx/EiBEjYsCAATHHHHMA6YBA2uWz17dv35hnnnk68ElNU+D111+P8ePHx+KLLx49evSA0gGB/HMv/72U/z7y7HUA7t9N33zzzRg3blwstthiXf4/pCZPnlw823vssUfstttu/p3e8eXxCQIEmkBAgNUEi2SIBAi0rsDEiRPj5ZdfLn7YqsfxwQzG8qjB0KFDY4kllmhd6E7MPH8QOfPMM2OZZZaJ7bbbri7r04lhNc1HRo4cGRtttFFccMEFscYaazTNuBthoPlD6sknnxyrrbZabLXVVtG7d+9GGFZTjCF/yD/nnHPioYceilNPPdUP+R1ctbfffrvYFZw7gvNYu6tjAsOGDYs77rgjfvnLX0a/fv069uGS1lOmTIkMt+eff/7iSzjbpbxuRoBAgwgIsBpkIQyDAAECVQjce++9seWWW8att94aSy65ZBVDaNo+R40aFUcffXSsuOKKsddeewmwOriSWd8tw7+bbrqp+GHY1X6BDP8OP/zwWHvttWPXXXeNWWaZpf0fbvGWGWCdcMIJcffdd0eGCY5ZdeyByOA+d/jkMbX8c8/VMYEMT2+44Ya4+OKLY8455+zYh7UmQIAAgRBgeQgIECDQwgICrM4vvgCr83b5SQFW5/0EWJ23E2B13i4/KcCaMT8B1oz5+TQBAgQEWJ4BAgQItLCAAKvziy/A6rydAGvG7ARYnfcTYHXeToA1Y3b5aQHWjBu6AwECrS0gwGrt9Td7AgRaXCDfcjh48OA46KCDipoZrvYLjB07Nq699tpYZJFFYt111+3ygrztH0lztnzrrbfiyCOPjAMOOKA4Suhqv0DWIbrqqqti6aWXjrXWWsvx1fbTRQZYw4cPL15eseeee6of1gG7bPrOO+8Ux9/y6PR6663XwU9rfvvttxf113bffffiBSAuAgQIEOiYgACrY15aEyBAoFsJZMHXDGKyFkc9isR3K6xPTCZ/EG4rru8HkY6vdPpliJXPnhpOHfNLu3fffbcIXzx7HbPL1mmXb9PLItoKXXfMLwuF51v08nvWs9cxu2ydb/59//33PXsdp/MJAgQIFAICLA8CAQIECBAgQIAAAQIECBAgQIBAQwsIsBp6eQyOAAECBAgQIECAAAECBAgQIEBAgOUZIECAAAECBAgQIECAAAECBAgQaGgBAVZDL4/BESBAgAABAgQIECBAgAABAgQICLA8AwQIEGgxgSwA/corr8S9994bI0aMiDfffDM23XTT4m1mrnKBfAvX/fffX3y99tprMcccc8QXvvCF+NKXvlT8tWvaAhMnToxHH3007r777hg5cmTk3w8YMCDWXnvtWGqppbwRrgMPTxYhv/XWW+POO++MVVZZJTbffHN+0/HL4uPXX399/OMf/ygKuLdd8803X2y77bax+OKLd0C/NZumYf77Ig0ffPDBmDBhQgwcOLB4G+ESSyzRmigls85/3952223FV/5598lrm222Kf794SJAgACB9gkIsNrnpBUBAgS6jUC+Oe+0006LM844I/r06VO8Ce6EE06IffbZp9vMsZ4T+d3vfhdHHHFEEbwsueSSRRj4zDPPxC677BKHHXZYPbtu+nuPGjUqTj311CI8XXTRRYv5ZBA411xzxU9/+tNYc801o2fPnk0/z5kxgcceeywOPvjguP3222OnnXYqXL0VbtryGSTk9+dNN90U66+//odvH/zMZz4T3/72t4vvZ9f0BV599dU4+eSTizBm2WWXLd4gmkH01ltvHTvssIM3Ok6FL8PSW265pfjKwC+vfBYfeeSRyO/hoUOHxoYbbujRI0CAAIF2Cgiw2gmlGQECBLqLwAcffFD8x3MGWRle7b777sUPdj/84Q+7yxTrOo/c8ZKvQl9ttdWib9++8e677xYB4BVXXBHXXXddDBo0qK79N/PN84e5cePGFVOYddZZi19zJ0c+f1/84hfjRz/6URFmuaYvMHbs2DjzzDPj//7v/+Lxxx+Pddddt/h7Adb0A6wDDzywCJwvvvji6NWrV9G4R48exV/nr65pC+TuofPOOy/+8Ic/FAF+7thNt/yzsHfv3nafTufhycDqo7v+chfb8ccfX+yA/s1vfhOf/exnPXoECBAg0E4BAVY7oTQjQIBAdxS45557YosttohDDjlEgDUDC5z/dz13cWSQ9Z3vfGcG7tRaH80f7J599tk49NBDY+GFFy52YeWRLtf0g5gMUc8+++z42te+Fueee26stNJKAqyShyaftQywXnzxxRg8eHARvmSImiG0XX/l33HPPfdc7LnnnsUuyfw1r1lmmaXYhdUWRpffRYs8hvnAAw8Uuyfz6GU+k/kMuggQIECgfQICrPY5aUWAAIFuKSDAmvFlzf+znsdAjjrqqLjwwguLUME1fYGXX365ODo4ZsyYuO++++KOO+6IXXfdtTgKN/vss+ObjkDuIDrxxBNjgQUWiG984xvx3//937HCCisIsNoRYLUdudxggw2KHTELLrhgrLPOOkUNIrvXpg/497//vQjpN9tssyJkziAwd159+ctfjk022STyKKarXOD999+Pyy+/vPh+/cUvflEcHxSglrtpQYAAgTYBAZZngQABAi0sIMCascXP/5v+8MMPx+GHH17UExsyZIgjcO0gzecurbKmTh6By+ODeSwpC0I7yjVtwHzezj///LjxxhuLwDSPW+64444CrHY8c2mXwcGTTz5Z7PZ7++2346677iqOtOazly8SECRMG/JPf/pTZMHxlVdeOb7+9a8X36t5BO6GG24odmTttttuxZ+BrukL5LH93HWVz13WE1N7zRNDgACBjgkIsDrmpTUBAgS6lYAAq/PLmT8Q5y6EPDaYIdZxxx1X7OZwlQvkmxxff/31og5b7sS65pprijdh5g/IdmBN2y9r12WtutyplsFVFtDO4tl2YJU/c9kid/zllbutshZgvkzgmGOOieWXXz5+/vOfR79+/dp3oxZsde2118a3vvWt2HnnnePoo4+ORRZZJLIW2wEHHFC8mTBfDJKhlmv6AvnM7bXXXkXh+x/84AeOD3pgCBAg0EEBAVYHwTQnQIBAdxIQYHV+NUePHl28+W348OFx5JFHFgFM1oRxdUwgQ4VTTjmleLFAHo3zQ/DU/TJwySNwf/3rX4ti9xm2vPbaa8UxpMUXX7z4vc9//vMx77zzdmwBWrh17ob52c9+VuwCvOCCC4qdWa6pC9x6662x3XbbFfXqMnjJulcZ4mcttosuuihOP/304jiha/oCWX/tnHPOKf7dkUdZ7Tj1xBAgQKBjAgKsjnlpTYAAgW4lIMDq3HLmDqKzzjorLrvssiI42HbbbRUybidl/tD70R/a8i2OZ5xxRvGa+fw1d8O4Pi2QtXP22WefIjBtO+qWdZxGjRpVBKerrLJKnHTSSUWRbT8UT/0J+uSz98YbbxQ7sJ555pniDXsLLbSQR28aAvm20KyBlSHW/vvvX+yUTM8Mrq688sri19VXX53fdATyTY5Zty5D5nz7oLDZ40KAAIGOCwiwOm7mEwQIEGh6gQkTJhTHt/I4Qx5Hyv+jvvfeexc1TPKNSH4AnvYSZ+2c/D/oWU8n3ziYfvkmrryyqHF+uaYukEeOXnjhheIHt/79+xeFtB966KFiF1EWgc5jmHk0yfVpgQwLsoB71s5pu/Lvs57OkksuGccee2wsscQSjiRN4+HJHZO5Yy3rhuWz99577xW72bIOUda/yl2Uc8wxh0dvGgJ5TDB3X+WOyawZttRSSxU17A466KCYZ555iu9hAeD0H5/bb7+9eFnFYYcdFt/73vfUXPPdRoAAgU4ICLA6geYjBAgQaGaBPIqUb5TKmibPP/98XH/99cVbuFZdddXiK3cT+UFu2it89dVXFzVM8gfhzTffvPhhOK8M/dZff/3i1eiuqQtkAe3cqZFhTP7QmzsSshB0hgnf//73Y+ONN1YIugMPT37/qoHVPrAMSvMtobmTLZ+9DFMfe+yx4vs4g5n8s08R92lbZth82223Fd+/Gdgvtthi8dxzzxW17DJEze9dftP2yz/j8jnLECt37q644orte3C1IkCAAIGPCQiwPBAECBBoMYH8QSSPDt58881FcJA/0PXq1av4yv+o/uY3v2kXx3SeifwBJN+8lT+sfbTmVQZYGV4JsKaNl7s37rzzzuJNcBkgpNmCCy5YhAd5dDB3/7naL5C7ioYNGxbzzz9/bLHFFnb/TYcudxD97W9/K5693MWWf94tuuiiscYaa8TSSy+tfl07HrvctfvAAw/E3XffHfnsZR22rHs1aNCgojC+a9oCeVT6kksuKQL67bff3ssqPCwECBDopIAAq5NwPkaAAIFmFshdWLn75ZNX/lCX/4HtCOG0VzcDv/ya2pWBlkLu07bLnVcZoObzN3ny5OI5y2cuzTxzHf8TJT3zOHCGqfl96+rYs9d25Nez1/4nJ79v88+//D5u+96186rcL79X838YpVUWwHcRIECAQOcEBFidc/MpAgQIECBAgAABAgQIECBAgACBmSQgwJpJ0LohQIAAAQIECBAgQIAAAQIECBDonIAAq3NuPkWAAAECBAgQIECAAAECBAgQIDCTBARYMwlaNwQIECBAgAABAgQIECBAgAABAp0TEGB1zs2nCBAgQIAAAQIECBAgQIAAAQIEZpKAAGsmQeuGAAECBAgQIECAAAECBAgQIECgcwICrM65+RQBAgQIECBAoFRgypQpkV89e/YsbTuzG7SNLX/t0aNHl42xkec8s431R4AAAQIECHSdgACr6yzdiQABAgQIEGgAgcmTJ8drr70W77//fsw333zRt2/fD0f13nvvxVtvvRXzzDNPzDbbbHUf7YgRI+LZZ5+NNddcM/r371/3/trbQRq98MILcf/998ebb74ZCy+8cKy//vox66yzfuwW48aNizFjxhSOn/y9afX1/PPPx7/+9a/4yle+0lBzbq+NdgQIECBAgEBjCgiwGnNdjIoAAQIECBDopECGLieddFI89thjsfPOO8cmm2wSs8wyS7ET6oEHHoihQ4fGd77znVhllVU62UP7PzZkyJC48sor49e//nUsueSS7f9gnVu++uqr8atf/Sruu+++WGCBBWKllVaKffbZJ/r16/dhzxly/e///m/ccMMNseeee8bnPve50lGl8U033RQnnnhiXHjhhTFgwIDSz2hAgAABAgQIEGiPgACrPUraECBAgAABAk0jkDusdtxxxyJ82WKLLeLkk0+OJZZYogiw8p8dccQRccIJJ8SGG25Y9zldcMEFRYA1ePDghgqw/vGPf8RBBx0U3/ve9+JrX/tasRtt7rnn/tgxwg8++CAuueSSOPfcc+P000+PL37xi+3yeuONN4pdZyuuuOJM2eXWrkFpRIAAAQIECDS9gACr6ZfQBAgQIECAAIGPCmSAteuuu0Ye3+vdu3f8+Mc/jm9961tFnadPBlgTJ06Mhx56KBZbbLFiJ1Lb9eSTTxZHEJdZZpki1Hn00UeLey200EKRR+Tyc7m76DOf+Uzx1xnYjB49OhZccMFYfPHFPwyC2gKsDICy/zyul8fxMlD76JG8DNdy3Hms79133y2OOOaOrT59+hRDyl1lDz74YDGeDJZefPHFD+/Tq1evTz0AkyZNKtqMHDmy2H2W/WW/eY0aNSouv/zyIpjKXVcrr7xy0deiiy76sftMK8DKe+d9X3755WJOaZfzzr/OK+eYHiussEIRYLXN67Of/WxxHPGll16K2WefPfLv55xzzg/7zOOdzz33XNE+55TjzXu3GXjKCRAgQIAAgdYWEGC19vqbPQECBAgQ6HYCGYDsscceMddcc8U777wTGbhcfPHFMcccc3wqwHrllVeKI4aHHnpo7LTTTh9a7L333kWQkiFPBk0ZgOWV4dRf//rXIojJgCaP4Q0fPjyuuOKKou5WBjl5fG7dddct2meAlbuYvvCFL8Ttt99ehDt5TC/HlyFbjjHHd88993x4pC+Ds6zbtfXWW8e+++5bhGR33313Mc48ynfvvfcWAdG2224bhxxyyMeO/WWfEyZMKI7vnXPOOcU4M4Bbdtll4yc/+Umxi+q6664r7pOBWwZlOb8M+b773e+WBlh5rPDqq6+OU089NdIuQ6ucc+5qy/FlX//zP/9T3O+Pf/xjEYz9+c9/jmOOOabY6fW3v/0tnn766aLdlltuGQcccEBRf2v8+PHxy1/+stitln+doVuO7aijjopNN9202z2jJkSAAAECBAh0XECA1XEznyBAgAABAgQaWKAtwBo4cGCsvvrqxRHCH/3oR0Vgctttt33sCGFHAqwsTJ5H7rbaaqtiF1aGNvPPP39RP2qHHXYojigef/zxxe6h3/3ud8XOoQywjj766FhttdXi4IMPjnnnnTeGDRsWN954YxEoZTiTO6UOO+ywYjdS1uzKQOef//xncexwl112id13372oVZUBUQZCP/jBD2KNNdYogqts+9EdWBmGZYCUwVCOafvtt4880nfGGWfE22+/Hb/97W+LwuoZYv3iF78oxpZG2fdH61/l8k5tB1buVsvjmf/v//2/2G233Yrw7cwzzyx2h2VIOGjQoLj22ms/FWDtv//+xS6wDOSWX375uP766+PSSy8tArj/+q//Koq+p23eO9cpr6xhlrvcVl111QZ+2gyNAAECBAgQmFkCAqyZJa0fAgQIECBAYKYItAVYSy21VHFE7rjjjos8EnjZZZcVochHa2B1JMDKwudXXXVVcawtd3ZlDakMYq655ppih1UGWFmsPQvI59v9cgdRBlhZbyvDqNyBlNdTTz1VhFlZFP1nP/tZ/OlPfyp2KO21117Fcb7c1ZTh0XnnnVfsjsqdSXm0LgOs3BmWoVPuUJraNXbs2CLgyvnmDqjcvZXjyj7y/qeddlpss802xU60I488Mk455ZRYa621pnqvTwZYGXRl6JZF3XNebcFSFsayu3unAAAVEElEQVTPoCzDtgzO8vc/uQMrA7qc83bbbVccxczx/fCHPyzefJjjveuuu4pf82uzzTYrxp3BXI697WjiTHl4dEKAAAECBAg0rIAAq2GXxsAIECBAgACBzgh8NMDKwCXDkQxX8q8z1Mpf24q4dyTAyiOI559/frFTKY/pZfiUO5nyiFxb/aysLXXggQcWRwKzplQGPbkzKT/X9ha/DL8y0MlA7KKLLipCr9wlliFYHh3Mq60mVh5TzKApa05lgHX22WcXAdS0rtxtlTuY8shg9tl2PfHEE7H55psXQVMGYJ0JsPKtjblDKo845hHF3H2WV9au2mijjYqi7Xl8Mu/9yQArrTIs+9KXvlR8JutgpVPuxsrjmxm85WfyeGEGhLlO66yzTqy55poKwXfmm8BnCBAgQIBANxQQYHXDRTUlAgQIECDQygIfDbCyhlLu4MkjbBni5BG9DHbaAqwMhjbeeOPiKFv+XtuV9aAyVPloDazcUZUBUoZMWbj92GOPLQKsW265pTgamFceD8y+8ghg1stqq4GV92kLsLJIewZYGZ5luJW7ov7whz/ET3/60yK8abty3Hm0L/9ZHtHLACvbf+Mb35hugJVvXszgK/tsu3LHU+5syrpZudurswFWBmBZBysDrNwllVeGeRlgZRiVAdatt976qQDr5z//eRHS5dHHvLIAfAZYGbSlRRZ1z3+W83z44YeLOmO5Wy7DrVyX3LXlIkCAAAECBFpbQIDV2utv9gQIECBAoNsJfDLAyppPGYpk7aoMTDIoyaBlww03LHZBZbCTRdXziF1eucPo61//evEWvK4IsDK8yXpPbUf18jhgHrXLt/BlzaysWZVtsjD6BhtsMNUjc21F3IcOHTrdouYZuuUxw6zRlXW22nZ0ZWCVReqz6HzWxupMgJXhUx6bzGL0eRwzLfPKI5Ftu7sycJraEcKyAKttnHm/tt1nWcQ+d7vlnDM8dBEgQIAAAQKtLSDAau31N3sCBAgQINDtBKYWYGUokruscvdV7mrKo3sZYGXgk3WyMrTab7/9igLnWeg961jlcbeuCLDyyGLWv8r7zzbbbMWurXyT3+GHH16EZxlo5a6tueeeuyiMnjuucofXCy+8UOxMyqN0WeQ8d2CVBVhZVD13c2XR+gzkskh8zjELrWeolf3m0b/OBFj5BsN8A2K+PTHHkscJczdW1urKtwvm7rQ0m9pbCMsCrDR4/PHHiyL1aZSF7bNmVoZmefTwkwXmu91Da0IECBAgQIBAqYAAq5RIAwIECBAgQKCZBPJte207nPKYWlv4kcf6skj4uHHjirAl36SXAUzuVMqAJ4/szTXXXMVxwKwllUFXBllZSD3fkJe/lzu3MlTKgCl3TN18881x5ZVXFuFTXlnQPQOr4cOHFzWwrrjiisi6WPkGvlGjRhXF2UePHh1f/epXi3vmMbz8Z3feeWcRBOXv5XgziMo+chdS1u/KQukZGOXbBL/yla9MdzlyfmeddVYxhty5lPfJNyJ+//vfL/rNeWZ/bW8hbDvW98mb5rjyyGIegzz99NOLMCmDwCFDhhRzzkLy+fd5JDLflJjHC3v27Bk33XRTce9sl28RzB1beUwya2+1FX7Po5t5ZDJrXeWbCbNOWRbbzwAx75trmDXHMojLNzgq5N5M34HGSoAAAQIE6iMgwKqPq7sSIECAAAECFQlkYJNhVQZBWVi8rX5SBi0ZlIwZMya+/OUvf1h4ffz48TFixIhiJ1QeZcti5blbKXdl5Zv3MpT5+9//XoRAGabk2/Ey+HrkkUeKOlbrrbde8Xt55a6p3KWUQVHe65lnnin+2dJLL10UKM9gLHdAZb2oDL3agpkMi/JoY9aqyhAr75c7sXJHUgZpuassg6DcBbXwwguXymah+EcffbS4ZwZC2X8eWWx7e+Frr71W1JsaNGjQh7WsPnnTnH8Ge7ljLAOodMkrvbKeWHrl+AcOHBjLLLPMhwZttazWXnvtYg3ymGZaZV9ttcLyHvmmxgyslltuuaKOVta8yrZZFD4/l0cU0yD9XQQIECBAgAABAZZngAABAgQIECBA4EOB3FXVdoQxjzlmmJY70XJHmYsAAQIECBAgUJWAAKsqef0SIECAAAECBBpQIHdA5VHFrKWVO8OyFlUeZWzbZdaAQzYkAgQIECBAoAUEBFgtsMimSIAAAQIECBBor0CGVlnkPQup55HJlVZaqTg26SJAgAABAgQIVCkgwKpSX98ECBAgQIAAAQIECBAgQIAAAQKlAgKsUiINCBAgQIAAAQIECBAgQIAAAQIEqhQQYFWpr28CBAgQIECAAAECBAgQIECAAIFSAQFWKZEGBAgQIECAAAECBAgQIECAAAECVQoIsKrU1zcBAgQIECBAgAABAgQIECBAgECpgACrlEgDAgQIECBAgAABAgQIECBAgACBKgUEWFXq65sAAQIECBAgQIAAAQIECBAgQKBUQIBVSqQBAQIECBAgQIAAAQIECBAgQIBAlQICrCr19U2AAAECBAgQIECAAAECBAgQIFAqIMAqJdKAAAECBAgQIECAAAECBAgQIECgSgEBVpX6+iZAgAABAgQIECBAgAABAgQIECgVEGCVEmlAgAABAgQIECBAgAABAgQIECBQpYAAq0p9fRMgQIAAAQIECBAgQIAAAQIECJQKCLBKiTQgQIAAAQIECBAgQIAAAQIECBCoUkCAVaW+vgkQIECAAAECBAgQIECAAAECBEoFBFilRBoQIECAAAECBAgQIECAAAECBAhUKSDAqlJf3wQIECBAgAABAgQIECBAgAABAqUCAqxSIg0IECBAgAABAgQIECBAgAABAgSqFBBgVamvbwIECBAgQIAAAQIECBAgQIAAgVIBAVYpkQYECBAgQIAAAQIECBAgQIAAAQJVCgiwqtTXNwECBAgQIECAAAECBAgQIECAQKmAAKuUSAMCBAgQIECAAAECBAgQIECAAIEqBQRYVerrmwABAgQIECBAgAABAgQIECBAoFRAgFVKpAEBAgQIECBAgAABAgQIECBAgECVAgKsKvX1TYAAAQIECBAgQIAAAQIECBAgUCogwCol0oAAAQIECBAgQIAAAQIECBAgQKBKAQFWlfr6JkCAAAECBAgQIECAAAECBAgQKBUQYJUSaUCAAAECBAgQIECAAAECBAgQIFClgACrSn19EyBAgAABAgQIECBAgAABAgQIlAoIsEqJNCBAgAABAgQIECBAgAABAgQIEKhSQIBVpb6+CRAgQIAAAQIECBAgQIAAAQIESgUEWKVEGhAgQIAAAQIECBAgQIAAAQIECFQpIMCqUl/fBAgQIECAAAECBAgQIECAAAECpQICrFIiDQgQIECAAAECBAgQIECAAAECBKoUEGBVqa9vAgQIECBAgAABAgQIECBAgACBUgEBVimRBgQIECBAgAABAgQIECBAgAABAlUKCLCq1Nc3AQIECBAgQIAAAQIECBAgQIBAqYAAq5RIAwIECBAgQIAAAQIECBAgQIAAgSoFBFhV6uubAAECBAgQIECAAAECBAgQIECgVECAVUqkAQECBAgQIECAAAECBAgQIECAQJUCAqwq9fVNgAABAgQIECBAgAABAgQIECBQKiDAKiXSgAABAgQIECBAgAABAgQIECBAoEoBAVaV+vomQIAAAQIECBAgQIAAAQIECBAoFRBglRJpQIAAAQIECBAgQIAAAQIECBAgUKWAAKtKfX0TIECAAAECBAgQIECAAAECBAiUCgiwSok0IECAAAECBAgQIECAAAECBAgQqFJAgFWlvr4JECBAgAABAgQIECBAgAABAgRKBQRYpUQaECBAgAABAgQIECBAgAABAgQIVCkgwKpSX98ECBAgQIAAAQIECBAgQIAAAQKlAgKsUiINCBAgQIAAAQIECBAgQIAAAQIEqhQQYFWpr28CBAgQIECAAAECBAgQIECAAIFSAQFWKZEGBAgQIECAAAECBAgQIECAAAECVQoIsKrU1zcBAgQIECBAgAABAgQIECBAgECpgACrlEgDAgQIECBAgAABAgQIECBAgACBKgUEWFXq65sAAQIECBAgQIAAAQIECBAgQKBUQIBVSqQBAQIECBAgQIAAAQIECBAgQIBAlQICrCr19U2AAAECBAgQIECAAAECBAgQIFAqIMAqJdKAAAECBAgQIECAAAECBAgQIECgSgEBVpX6+iZAgAABAgQIECBAgAABAgQIECgVEGCVEmlAgAABAgQIECBAgAABAgQIECBQpYAAq0p9fRMgQIAAAQIECBAgQIAAAQIECJQKCLBKiTQgQIAAAQIECBAgQIAAAQIECBCoUkCAVaW+vgkQIECAAAECBAgQIECAAAECBEoFBFilRBoQIECAAAECBAgQIECAAAECBAhUKSDAqlJf3wQIECBAgAABAgQIECBAgAABAqUCAqxSIg0IECBAgAABAgQIECBAgAABAgSqFBBgVamvbwIECBAgQIAAAQIECBAgQIAAgVIBAVYpkQYECBAgQIAAAQIECBAgQIAAAQJVCgiwqtTXNwECBAgQIECAAAECBAgQIECAQKmAAKuUSAMCBAgQIECAAAECBAgQIECAAIEqBQRYVerrmwABAgQIECBAgAABAgQIECBAoFRAgFVKpAEBAgQIECBAgAABAgQIECBAgECVAgKsKvX1TYAAAQIECBAgQIAAAQIECBAgUCogwCol0oAAAQIECBAgQIAAAQIECBAgQKBKAQFWlfr6JkCAAAECBAgQIECAAAECBAgQKBUQYJUSaUCAAAECBAgQIECAAAECBAgQIFClgACrSn19EyBAgAABAgQIECBAgAABAgQIlAoIsEqJNCBAgAABAgQIECBAgAABAgQIEKhSQIBVpb6+CRAgQIAAAQIECBAgQIAAAQIESgUEWKVEGhAgQIAAAQIECBAgQIAAAQIECFQpIMCqUl/fBAgQIECAAAECBAgQIECAAAECpQICrFIiDQgQIECAAAECBAgQIECAAAECBKoUEGBVqa9vAgQIECBAgAABAgQIECBAgACBUgEBVimRBgQIECBAgAABAgQIECBAgAABAlUKCLCq1Nc3AQIECBAgQIAAAQIECBAgQIBAqYAAq5RIAwIECBAgQIAAAQIECBAgQIAAgSoFBFhV6uubAAECBAgQIECAAAECBAgQIECgVECAVUqkAQECBAgQIECAAAECBAgQIECAQJUCAqwq9fVNgAABAgQIECBAgAABAgQIECBQKiDAKiXSgAABAgQIECBAgAABAgQIECBAoEoBAVaV+vomQIAAAQIECBAgQIAAAQIECBAoFRBglRJpQIAAAQIECBAgQIAAAQIECBAgUKWAAKtKfX0TIECAAAECBAgQIECAAAECBAiUCgiwSok0IECAAAECBAgQIECAAAECBAgQqFJAgFWlvr4JECBAgAABAgQIECBAgAABAgRKBQRYpUQaECBAgAABAgQIECBAgAABAgQIVCkgwKpSX98ECBAgQIAAAQIECBAgQIAAAQKlAgKsUiINCBAgQIAAAQIECBAgQIAAAQIEqhQQYFWpr28CBAgQIECAAAECBAgQIECAAIFSAQFWKZEGBAgQIECAAAECBAgQIECAAAECVQoIsKrU1zcBAgQIECBAgAABAgQIECBAgECpgACrlEgDAgQIECBAgAABAgQIECBAgACBKgUEWFXq65sAAQIECBAgQIAAAQIECBAgQKBUQIBVSqQBAQIECBAgQIAAAQIECBAgQIBAlQICrCr19U2AAAECBAgQIECAAAECBAgQIFAqIMAqJdKAAAECBAgQIECAAAECBAgQIECgSgEBVpX6+iZAgAABAgQIECBAgAABAgQIECgVEGCVEmlAgAABAgQIECBAgAABAgQIECBQpYAAq0p9fRMgQIAAAQIECBAgQIAAAQIECJQKCLBKiTQgQIAAAQIECBAgQIAAAQIECBCoUkCAVaW+vgkQIECAAAECBAgQIECAAAECBEoFBFilRBoQIECAAAECBAgQIECAAAECBAhUKSDAqlJf3wQIECBAgAABAgQIECBAgAABAqUCAqxSIg0IECBAgAABAgQIECBAgAABAgSqFBBgVamvbwIECBAgQIAAAQIECBAgQIAAgVIBAVYpkQYECBAgQIAAAQIECBAgQIAAAQJVCgiwqtTXNwECBAgQIECAAAECBAgQIECAQKmAAKuUSAMCBAgQIECAAAECBAgQIECAAIEqBQRYVerrmwABAgQIECBAgAABAgQIECBAoFRAgFVKpAEBAgQIECBAgAABAgQIECBAgECVAgKsKvX1TYAAAQIECBAgQIAAAQIECBAgUCogwCol0oAAAQIECBAgQIAAAQIECBAgQKBKAQFWlfr6JkCAAAECBAgQIECAAAECBAgQKBUQYJUSaUCAAAECBAgQIECAAAECBAgQIFClgACrSn19EyBAgAABAgQIECBAgAABAgQIlAoIsEqJNCBAgAABAgQIECBAgAABAgQIEKhSQIBVpb6+CRAgQIAAAQIECBAgQIAAAQIESgUEWKVEGhAgQIAAAQIECBAgQIAAAQIECFQpIMCqUl/fBAgQIECAAAECBAgQIECAAAECpQICrFIiDQgQIECAAAECBAgQIECAAAECBKoUEGBVqa9vAgQIECBAgAABAgQIECBAgACBUgEBVimRBgQIECBAgAABAgQIECBAgAABAlUKCLCq1Nc3AQIECBAgQIAAAQIECBAgQIBAqYAAq5RIAwIECBAgQIAAAQIECBAgQIAAgSoFBFhV6uubAAECBAgQIECAAAECBAgQIECgVECAVUqkAQECBAgQIECAAAECBAgQIECAQJUCAqwq9fVNgAABAgQIECBAgAABAgQIECBQKiDAKiXSgAABAgQIECBAgAABAgQIECBAoEoBAVaV+vomQIAAAQIECBAgQIAAAQIECBAoFRBglRJpQIAAAQIECBAgQIAAAQIECBAgUKWAAKtKfX0TIECAAAECBAgQIECAAAECBAiUCgiwSok0IECAAAECBAgQIECAAAECBAgQqFJAgFWlvr4JECBAgAABAgQIECBAgAABAgRKBQRYpUQaECBAgAABAgQIECBAgAABAgQIVCkgwKpSX98ECBAgQIAAAQIECBAgQIAAAQKlAhlgLVjaSgMCBAgQIECAAAECBAgQIECAAAEC1Qj0+P+3LSj1yeN01QAAAABJRU5ErkJggg==;fontFamily=Lucida Console;" parent="1" vertex="1">
          <mxGeometry x="385.66" y="575" width="216.67" height="216.31" as="geometry" />
        </mxCell>
        <mxCell id="qaCfvwKFrwW74nsST61L-26" value="" style="group;fontFamily=Lucida Console;" parent="1" vertex="1" connectable="0">
          <mxGeometry x="378" y="550" width="230" height="30" as="geometry" />
        </mxCell>
        <mxCell id="qaCfvwKFrwW74nsST61L-24" value="Streamlit" style="text;html=1;align=center;verticalAlign=middle;whiteSpace=wrap;rounded=0;fontFamily=Lucida Console;" parent="qaCfvwKFrwW74nsST61L-26" vertex="1">
          <mxGeometry x="85" width="60" height="30" as="geometry" />
        </mxCell>
        <mxCell id="qaCfvwKFrwW74nsST61L-30" value="" style="shape=image;verticalLabelPosition=bottom;labelBackgroundColor=default;verticalAlign=top;aspect=fixed;imageAspect=0;image=https://cdn5.vectorstock.com/i/1000x1000/36/79/navigate-window-mac-icons-red-cross-symbol-vector-35053679.jpg;clipPath=inset(31.2% 10.33% 39.32% 11.67%);fontFamily=Lucida Console;" parent="qaCfvwKFrwW74nsST61L-26" vertex="1">
          <mxGeometry x="3" y="10" width="33.91" height="10" as="geometry" />
        </mxCell>
        <mxCell id="qaCfvwKFrwW74nsST61L-33" value="&lt;h1&gt;&lt;font face=&quot;Lucida Console&quot;&gt;Data Pipeline&amp;nbsp;&lt;span style=&quot;background-color: transparent; color: light-dark(rgb(0, 0, 0), rgb(255, 255, 255));&quot;&gt;Architecture&lt;/span&gt;&lt;/font&gt;&lt;/h1&gt;" style="text;html=1;align=center;verticalAlign=middle;whiteSpace=wrap;rounded=0;" parent="1" vertex="1">
          <mxGeometry x="270" y="830" width="570" height="30" as="geometry" />
        </mxCell>
        <mxCell id="qaCfvwKFrwW74nsST61L-34" value="Data Streaming" style="text;html=1;align=center;verticalAlign=middle;whiteSpace=wrap;rounded=0;" parent="1" vertex="1">
          <mxGeometry x="787.35" y="370" width="120" height="30" as="geometry" />
        </mxCell>
        <mxCell id="qaCfvwKFrwW74nsST61L-37" value="&lt;ul&gt;&lt;li&gt;Spark - for data management and cleaning&lt;/li&gt;&lt;li&gt;Kafka Producer - Publishes the data as stream&lt;/li&gt;&lt;li&gt;Kafka Consumer - Receives the stream data&lt;/li&gt;&lt;li&gt;PostgreSQL - Main Database for streaming data storage&lt;/li&gt;&lt;li&gt;Streamlit - Primary Dashboard for viewi&lt;/li&gt;&lt;/ul&gt;" style="text;html=1;align=left;verticalAlign=middle;whiteSpace=wrap;rounded=0;fontFamily=Lucida Console;" parent="1" vertex="1">
          <mxGeometry x="381.5" y="850" width="347" height="100" as="geometry" />
        </mxCell>
        <mxCell id="qaCfvwKFrwW74nsST61L-25" value="" style="rounded=1;whiteSpace=wrap;html=1;fillColor=none;fontFamily=Lucida Console;" parent="1" vertex="1">
          <mxGeometry x="379" y="555" width="230" height="20" as="geometry" />
        </mxCell>
        <mxCell id="scQHnsvBNFpB6spcyj58-1" value="" style="shape=image;verticalLabelPosition=bottom;labelBackgroundColor=default;verticalAlign=top;aspect=fixed;imageAspect=0;image=data:image/png,iVBORw0KGgoAAAANSUhEUgAAAFYAAABACAYAAACA2YBxAAAMTGlDQ1BJQ0MgUHJvZmlsZQAASImVVwdYU8kWnltSSQgQiICU0JsgIiWAlBBaAOlFEJWQBAglxoSgYkcXFVy7iGBFV0EU2wrIYkNddWVR7K5lsaCysi4W7MqbEECXfeV75/vm3v/+c+afc86dWwYARodAJstFtQDIk+bLY0MC2BOSU9ikLoAAKmACGsAEQoWMGx0dAaANnv9ub65Db2hXHFVa/+z/r6YtEiuEACDREKeLFMI8iH8EAG8WyuT5ABBlkLeYni9T4bUQ68phgBBXq3CmGjercLoaX+r3iY/lQfwIADJNIJBnAqDZA3l2gTAT6jBgtsBZKpJIIfaH2Dcvb6oI4vkQ20IfOCdDpc9J/0Yn82+a6UOaAkHmEFbn0m/kQIlCliuY+X+W439bXq5ycA4b2GhZ8tBYVc6wbo9ypoarMA3id9L0yCiIdQBAcYmo31+FWVnK0AS1P2orVPBgzQAL4nGK3Dj+AB8rEgSGQ2wEcYY0NzJiwKcoQxKs8oH1Q8sl+fx4iPUhrhYrguIGfE7Ip8YOzns9Q87jDvBPBfL+GFT6X5Q5CVy1PqaTJeYP6GNOhVnxSRBTIQ4skCRGQqwJcaQiJy58wCe1MIsXOegjV8aqcrGEWC6WhgSo9bGyDHlw7ID/7jzFYO7YiSwJP3IAX87Pig9V1wp7JBT0xw9zwXrEUm7CoI5YMSFiMBeRODBInTtOFksT4tQ8ri/LD4hVj8XtZbnRA/54gDg3RMWbQxyvKIgbHFuQDxenWh8vluVHx6vjxCuyBWHR6njw/SAC8EAgYAMlbOlgKsgGkrbuhm54pe4JBgIgB5lADBwHmMERSf09UniMA4XgT4jEQDE0LqC/VwwKIP95GKviJEOc+ugIMgb6VCo54DHEeSAc5MJrZb+SdCiCRPAIMpJ/RCSATQhzyIVN1f/v+UH2K8OFTMQAoxyckc0Y9CQGEQOJocRgoh1uiPvi3ngEPPrD5oJzcM/BPL76Ex4T2gkPCNcIHYRbUyRF8mFRjgcdUD94oD7p39YHt4aabngA7gPVoTLOwg2BI+4K5+HifnBmN8jyBuJWVYU9TPtvGXxzhwb8KM4UlDKC4k+xHT5S017TbUhFVetv66OONX2o3ryhnuHz876pvgiew4d7YkuwQ9hZ7CR2HmvGGgAbO441Yq3YURUeWnGP+lfc4Gyx/fHkQJ3ha+brnVVVUuFc69zl/Endly+eka96GHlTZTPlksysfDYXfjHEbL5U6DSK7eLs4gaA6vujfr29iun/riCs1q/cwt8B8Dne19f301cu7DgABzzgK+HIV86WAz8tGgCcOyJUygvUHK46EOCbgwGfPgNgAiyALczHBbgDb+APgkAYiALxIBlMhtFnwXUuB9PBbLAAFINSsBKsAxVgC9gOqsFecBA0gGZwEvwMLoBL4Bq4DVdPJ3gGesAb8BFBEBJCR5iIAWKKWCEOiAvCQXyRICQCiUWSkTQkE5EiSmQ2shApRVYjFcg2pAY5gBxBTiLnkXbkFnIf6UJeIh9QDKWhuqgxao2ORjkoFw1H49FJaCY6DS1EF6HL0XK0Ct2D1qMn0QvoNbQDfYb2YgDTwFiYGeaIcTAeFoWlYBmYHJuLlWBlWBVWhzXB+3wF68C6sfc4EWfibNwRruBQPAEX4tPwufgyvAKvxuvx0/gV/D7eg38h0AlGBAeCF4FPmEDIJEwnFBPKCDsJhwln4LPUSXhDJBJZRBuiB3wWk4nZxFnEZcRNxH3EE8R24kNiL4lEMiA5kHxIUSQBKZ9UTNpA2kM6TrpM6iS9I2uQTcku5GByCllKLiKXkXeTj5Evk5+QP1K0KFYUL0oURUSZSVlB2UFpolykdFI+UrWpNlQfajw1m7qAWk6to56h3qG+0tDQMNfw1IjRkGjM1yjX2K9xTuO+xnuaDs2exqOl0pS05bRdtBO0W7RXdDrdmu5PT6Hn05fTa+in6Pfo7zSZmk6afE2R5jzNSs16zcuazxkUhhWDy5jMKGSUMQ4xLjK6tSha1lo8LYHWXK1KrSNaN7R6tZnaY7SjtPO0l2nv1j6v/VSHpGOtE6Qj0lmks13nlM5DJsa0YPKYQuZC5g7mGWanLlHXRpevm61bqrtXt023R09Hz1UvUW+GXqXeUb0OFsayZvFZuawVrIOs66wPI4xHcEeIRywdUTfi8oi3+iP1/fXF+iX6+/Sv6X8wYBsEGeQYrDJoMLhriBvaG8YYTjfcbHjGsHuk7kjvkcKRJSMPjvzNCDWyN4o1mmW03ajVqNfYxDjEWGa8wfiUcbcJy8TfJNtkrckxky5TpqmvqcR0relx0z/YemwuO5ddzj7N7jEzMgs1U5ptM2sz+2huY55gXmS+z/yuBdWCY5FhsdaixaLH0tRyvOVsy1rL36woVhyrLKv1Vmet3lrbWCdZL7ZusH5qo2/Dtym0qbW5Y0u39bOdZltle9WOaMexy7HbZHfJHrV3s8+yr7S/6IA6uDtIHDY5tI8ijPIcJR1VNeqGI82R61jgWOt434nlFOFU5NTg9Hy05eiU0atGnx39xdnNOdd5h/PtMTpjwsYUjWka89LF3kXoUulydSx9bPDYeWMbx75wdXAVu252venGdBvvttitxe2zu4e73L3OvcvD0iPNY6PHDY4uJ5qzjHPOk+AZ4DnPs9nzvZe7V77XQa+/vB29c7x3ez8dZzNOPG7HuIc+5j4Cn20+Hb5s3zTfrb4dfmZ+Ar8qvwf+Fv4i/53+T7h23GzuHu7zAOcAecDhgLc8L94c3olALDAksCSwLUgnKCGoIuhesHlwZnBtcE+IW8iskBOhhNDw0FWhN/jGfCG/ht8T5hE2J+x0OC08Lrwi/EGEfYQ8omk8Oj5s/JrxdyKtIqWRDVEgih+1JuputE30tOifYogx0TGVMY9jx8TOjj0bx4ybErc77k18QPyK+NsJtgnKhJZERmJqYk3i26TApNVJHRNGT5gz4UKyYbIkuTGFlJKYsjOld2LQxHUTO1PdUotTr0+ymTRj0vnJhpNzJx+dwpgimHIojZCWlLY77ZMgSlAl6E3np29M7xHyhOuFz0T+orWiLrGPeLX4SYZPxuqMp5k+mWsyu7L8ssqyuiU8SYXkRXZo9pbstzlRObty+nKTcvflkfPS8o5IdaQ50tNTTabOmNouc5AVyzqmeU1bN61HHi7fqUAUkxSN+brwR79Vaav8Tnm/wLegsuDd9MTph2Zoz5DOaJ1pP3PpzCeFwYU/zMJnCWe1zDabvWD2/TncOdvmInPT57bMs5i3aF7n/JD51QuoC3IW/FrkXLS66PXCpIVNi4wXzV/08LuQ72qLNYvlxTcWey/esgRfIlnStnTs0g1Lv5SISn4pdS4tK/20TLjsl+/HfF/+fd/yjOVtK9xXbF5JXCldeX2V36rq1dqrC1c/XDN+Tf1a9tqSta/XTVl3vsy1bMt66nrl+o7yiPLGDZYbVm74VJFVca0yoHLfRqONSze+3STadHmz/+a6LcZbSrd82CrZenNbyLb6Kuuqsu3E7QXbH+9I3HH2B84PNTsNd5bu/LxLuqujOrb6dI1HTc1uo90ratFaZW3XntQ9l/YG7m2sc6zbto+1r3Q/2K/c/8eBtAPXD4YfbDnEOVT3o9WPGw8zD5fUI/Uz63sasho6GpMb24+EHWlp8m46/JPTT7uazZorj+odXXGMemzRsb7jhcd7T8hOdJ/MPPmwZUrL7VMTTl09HXO67Uz4mXM/B/986iz37PFzPueaz3udP/IL55eGC+4X6lvdWg//6vbr4Tb3tvqLHhcbL3leamof137sst/lk1cCr/x8lX/1wrXIa+3XE67fvJF6o+Om6ObTW7m3XvxW8NvH2/PvEO6U3NW6W3bP6F7V73a/7+tw7zh6P/B+64O4B7cfCh8+e6R49Klz0WP647Inpk9qnro8be4K7rr0x8Q/Op/Jnn3sLv5T+8+Nz22f//iX/1+tPRN6Ol/IX/S9XPbK4NWu166vW3qje++9yXvz8W3JO4N31e85789+SPrw5OP0T6RP5Z/tPjd9Cf9ypy+vr08mkAv6fwUwoNraZADwchcA9GQAmHDfSJ2o3h/2G6Le0/Yj8J+weg/Zb+4A1MF/+phu+HdzA4D9OwCwhvqMVACi6QDEewJ07NihNriX6993qowI9wZbgz6n56WDf2PqPek3cQ8/A5WqKxh+/hdsjILWgdPfKAAAAIplWElmTU0AKgAAAAgABAEaAAUAAAABAAAAPgEbAAUAAAABAAAARgEoAAMAAAABAAIAAIdpAAQAAAABAAAATgAAAAAAAACQAAAAAQAAAJAAAAABAAOShgAHAAAAEgAAAHigAgAEAAAAAQAAAFagAwAEAAAAAQAAAEAAAAAAQVNDSUkAAABTY3JlZW5zaG90vxHo1wAAAAlwSFlzAAAWJQAAFiUBSVIk8AAAAdRpVFh0WE1MOmNvbS5hZG9iZS54bXAAAAAAADx4OnhtcG1ldGEgeG1sbnM6eD0iYWRvYmU6bnM6bWV0YS8iIHg6eG1wdGs9IlhNUCBDb3JlIDYuMC4wIj4KICAgPHJkZjpSREYgeG1sbnM6cmRmPSJodHRwOi8vd3d3LnczLm9yZy8xOTk5LzAyLzIyLXJkZi1zeW50YXgtbnMjIj4KICAgICAgPHJkZjpEZXNjcmlwdGlvbiByZGY6YWJvdXQ9IiIKICAgICAgICAgICAgeG1sbnM6ZXhpZj0iaHR0cDovL25zLmFkb2JlLmNvbS9leGlmLzEuMC8iPgogICAgICAgICA8ZXhpZjpQaXhlbFlEaW1lbnNpb24+NjQ8L2V4aWY6UGl4ZWxZRGltZW5zaW9uPgogICAgICAgICA8ZXhpZjpQaXhlbFhEaW1lbnNpb24+ODY8L2V4aWY6UGl4ZWxYRGltZW5zaW9uPgogICAgICAgICA8ZXhpZjpVc2VyQ29tbWVudD5TY3JlZW5zaG90PC9leGlmOlVzZXJDb21tZW50PgogICAgICA8L3JkZjpEZXNjcmlwdGlvbj4KICAgPC9yZGY6UkRGPgo8L3g6eG1wbWV0YT4KesVtAAAAABxpRE9UAAAAAgAAAAAAAAAgAAAAKAAAACAAAAAgAAACqlKrADwAAAJ2SURBVHgB7Jc/LARBFMafQoFWo5D4EwkRl5xaS0QliIYGjUKUotOQCJ0oNGjoVSI0EkKicIVwmmt1JLQnwXfykrnN3Jp/T1bMSy6zu3fzvZlfvvt2t+7jqyhWcAJ1EWxwphXBCFaGK0WwEawQASHZ6NgIVoiAkGx0bAQrREBINjo2ghUiICQbHfufwV4uL1FzX466p6aFMISXzbxjHw8PCB9Ucy5HA+sb4SkIKGYarAqV9w6wAJz1yjTYo5FhLb/R4xPt9SxdzCxYnVsZ3F+IBGOw5Yd7KhfvqXF8kvcnNqZB5aa/EQml2wKVCgXqzOepsz/PrY1GY7Cvqyv0/gUW1TA2KQq4VgQkdyQZCae7e3S2u19pOTg3Q0Nzs8n2qefGYOHYt7WVKjEJwCZu5UVIRIIKlPuIgkWT56kJ7lU1hgJsA5UXECoS8LffWVhk2apx8+qi6tzkxNixEFPjQCfuC9g0ApK9fSIBQM/29gmjrlzcCh0rsLo4SC4GcFG2NzkXt3Jvl0j4CShru7gVc63AYsJPrsVvUDaAfaB+d6PKG5nJi4MpUOjiSWB+e4tbWI3WYE1cq67AJB5cI0Dtg+O0SLAByrquMYD51mAxqdZNDN/VqlqAQ7iVe+oiwQUo67nGAOY7gTWNA16gOqqAQ0LlHvyU4AMUWj5uxXwnsLZxgEbJAmA8M0oUbpz8cO+qj2y1fdtSezmBhYCPa9UFPLV1VV4b1Wu+x03tHXRauPOS8YkBNHYGG8K16s5DA67v6aXz6xu1hfGxbwygkTNYTHa5iWFeWoUE/NLSSsXiY1o77Xe+boWoF9hQcaDbXQjALpEQwq3YzycAAAD//2Dww5MAAAHtSURBVO2Yv0oDQRDGN2Aqn0AwoIKg5gliH5/ALjaaB0mjlbU+REAfwEoQFGyukHgWprWLaAQtIuh9hwvDnZe9PzPZK2YguWVvdmb3x8eX3DV+ojAlY/Y4MtOTQcnV7mUva5tx0jgI3MkZGc3ttrm+u8+4m57u9g/NXv8ofaPgTKMKWPR6Px6Y73BUsG2xdAB+m36Yyfi52MK/7NeVlgnDp1xrT29vcuW5kiqD/bwYmq/LoasPy30ALqPe5fUNcxU8OPfApVY0qgxW2g7+o1EGcB5L4FIrC1gUWYQdcACeZwmcamUD60O1FHReBc+zhFqCxSEnvX16Vi/jPICzLIHTBnD4yh5rCfqyA9ufXl2Ak5bArVbshQ2sbzugYO04C3DSErjVygoWxeqkWgoX4+TfNGsJEmpFPzbFolgdVYt9IaBeBAUMS1jd7bA8acXFyRcrWNStw48YOV9qSO0BltA9O0/lcEywg62zaikwAG7utM1W74BOs43Zwdqd4VEXMSPvEaTfKdjeyetS9CKGBvw1/kRgpUIMrGvDULYNCt/OFb0CFA2o0Wd4A+vz0IvorWCFKCtYBStEQKisKlbBChEQKquKVbBCBITKqmIVrBABobKqWAUrRECorCpWwQoRECqrilWwQgSEyqpihcD+AkotuV8zjd6XAAAAAElFTkSuQmCC;" vertex="1" parent="1">
          <mxGeometry x="450" y="557.5" width="20.15" height="15" as="geometry" />
        </mxCell>
      </root>
    </mxGraphModel>
  </diagram>
</mxfile>
